{
  "version": "0.6.2b",
  "modules": [
    {
      "plugin": "Core",
      "version": "0.6.2b",
      "model": "AudioInterface",
      "params": [],
      "data": {
        "audio": {
          "driver": -12512,
          "deviceName": "1",
          "offset": 0,
          "maxChannels": 8,
          "sampleRate": 44100,
          "blockSize": 256
        }
      },
      "pos": [
        6,
        1
      ]
    },
    {
      "plugin": "AS",
      "version": "0.6.9",
      "model": "StereoVUmeter",
      "params": [],
      "pos": [
        16,
        1
      ]
    },
    {
      "plugin": "Autodafe - REDs FREE",
      "version": "0.6.0",
      "model": "CO[S]INE",
      "params": [
        {
          "paramId": 0,
          "value": -40.0
        },
        {
          "paramId": 1,
          "value": -0.0180000011
        },
        {
          "paramId": 2,
          "value": 1.0
        },
        {
          "paramId": 3,
          "value": 8.44000053
        },
        {
          "paramId": 4,
          "value": 1.0
        }
      ],
      "pos": [
        48,
        1
      ]
    },
    {
      "plugin": "AS",
      "version": "0.6.9",
      "model": "QuadVCA",
      "params": [
        {
          "paramId": 0,
          "value": 0.5
        },
        {
          "paramId": 1,
          "value": 0.5
        },
        {
          "paramId": 2,
          "value": 0.5
        },
        {
          "paramId": 3,
          "value": 0.5
        },
        {
          "paramId": 4,
          "value": 1.0
        },
        {
          "paramId": 5,
          "value": 1.0
        },
        {
          "paramId": 6,
          "value": 1.0
        },
        {
          "paramId": 7,
          "value": 1.0
        }
      ],
      "pos": [
        28,
        1
      ]
    },
    {
      "plugin": "Core",
      "version": "0.6.2b",
      "model": "MIDIToCVInterface",
      "params": [],
      "data": {
        "divisions": [
          24,
          6
        ],
        "midi": {
          "driver": -12512,
          "deviceName": "Port 1",
          "channel": -1
        }
      },
      "pos": [
        6,
        0
      ]
    },
    {
      "plugin": "AS",
      "version": "0.6.9",
      "model": "BPMClock",
      "params": [
        {
          "paramId": 0,
          "value": 164.949875
        },
        {
          "paramId": 1,
          "value": 1.0
        },
        {
          "paramId": 2,
          "value": 4.0
        },
        {
          "paramId": 3,
          "value": 1.0
        },
        {
          "paramId": 5,
          "value": 0.0
        },
        {
          "paramId": 4,
          "value": 0.0
        }
      ],
      "data": {
        "run": [
          1
        ]
      },
      "pos": [
        0,
        1
      ]
    },
    {
      "plugin": "cf",
      "version": "0.6.0",
      "model": "SLIDERSEQ",
      "params": [
        {
          "paramId": 0,
          "value": 0.0
        },
        {
          "paramId": 1,
          "value": 0.0
        },
        {
          "paramId": 2,
          "value": 0.0659999996
        },
        {
          "paramId": 3,
          "value": 0.168999717
        },
        {
          "paramId": 4,
          "value": 0.0
        },
        {
          "paramId": 5,
          "value": 0.0
        },
        {
          "paramId": 6,
          "value": 0.0599999949
        },
        {
          "paramId": 7,
          "value": 0.138999611
        },
        {
          "paramId": 8,
          "value": 0.0
        },
        {
          "paramId": 9,
          "value": 0.0
        },
        {
          "paramId": 10,
          "value": 0.0689999983
        },
        {
          "paramId": 11,
          "value": 0.156999812
        },
        {
          "paramId": 12,
          "value": 0.0
        },
        {
          "paramId": 13,
          "value": 0.0
        },
        {
          "paramId": 14,
          "value": 0.0539999977
        },
        {
          "paramId": 15,
          "value": 0.180999756
        },
        {
          "paramId": 16,
          "value": 0.0
        }
      ],
      "data": {
        "offsetstate": 0
      },
      "pos": [
        75,
        1
      ]
    },
    {
      "plugin": "mscHack",
      "version": "0.6.3",
      "model": "ARP700",
      "params": [],
      "data": {
        "m_bPauseState": [
          false
        ],
        "m_CurrentPattern": [
          0
        ],
        "m_PatternSave": [
          4,
          12,
          15,
          19,
          24,
          -1,
          -1,
          -1,
          1,
          0,
          0,
          1,
          0,
          0,
          1,
          0,
          0,
          1,
          0,
          0,
          0,
          0,
          0,
          0,
          0,
          0,
          0,
          0,
          0,
          2,
          0,
          0,
          2,
          0,
          0,
          2,
          0,
          0,
          2,
          0,
          0,
          0,
          0,
          0,
          0,
          0,
          0,
          0,
          0,
          0,
          0,
          0,
          0,
          0,
          0,
          0,
          0,
          0,
          0,
          0,
          0,
          0,
          0,
          0,
          0,
          0,
          0,
          0,
          0,
          0,
          0,
          0,
          0,
          0,
          0,
          0,
          0,
          0,
          0,
          0,
          0,
          0,
          0,
          0,
          0,
          2,
          0,
          0,
          -1,
          -1,
          -1,
          -1,
          -1,
          -1,
          -1,
          0,
          0,
          0,
          0,
          0,
          0,
          0,
          0,
          0,
          0,
          0,
          0,
          0,
          0,
          0,
          0,
          0,
          0,
          0,
          0,
          0,
          0,
          0,
          0,
          0,
          0,
          0,
          0,
          0,
          0,
          0,
          0,
          0,
          0,
          0,
          0,
          0,
          0,
          0,
          0,
          0,
          0,
          0,
          0,
          0,
          0,
          0,
          0,
          0,
          0,
          0,
          0,
          0,
          0,
          0,
          0,
          0,
          0,
          0,
          0,
          0,
          0,
          0,
          0,
          0,
          0,
          0,
          0,
          0,
          0,
          0,
          0,
          0,
          0,
          0,
          0,
          0,
          0,
          0,
          0,
          -1,
          -1,
          -1,
          -1,
          -1,
          -1,
          -1,
          0,
          0,
          0,
          0,
          0,
          0,
          0,
          0,
          0,
          0,
          0,
          0,
          0,
          0,
          0,
          0,
          0,
          0,
          0,
          0,
          0,
          0,
          0,
          0,
          0,
          0,
          0,
          0,
          0,
          0,
          0,
          0,
          0,
          0,
          0,
          0,
          0,
          0,
          0,
          0,
          0,
          0,
          0,
          0,
          0,
          0,
          0,
          0,
          0,
          0,
          0,
          0,
          0,
          0,
          0,
          0,
          0,
          0,
          0,
          0,
          0,
          0,
          0,
          0,
          0,
          0,
          0,
          0,
          0,
          0,
          0,
          0,
          0,
          0,
          0,
          0,
          0,
          0,
          0,
          0,
          -1,
          -1,
          -1,
          -1,
          -1,
          -1,
          -1,
          0,
          0,
          0,
          0,
          0,
          0,
          0,
          0,
          0,
          0,
          0,
          0,
          0,
          0,
          0,
          0,
          0,
          0,
          0,
          0,
          0,
          0,
          0,
          0,
          0,
          0,
          0,
          0,
          0,
          0,
          0,
          0,
          0,
          0,
          0,
          0,
          0,
          0,
          0,
          0,
          0,
          0,
          0,
          0,
          0,
          0,
          0,
          0,
          0,
          0,
          0,
          0,
          0,
          0,
          0,
          0,
          0,
          0,
          0,
          0,
          0,
          0,
          0,
          0,
          0,
          0,
          0,
          0,
          0,
          0,
          0,
          0,
          0,
          0,
          0,
          0,
          0,
          0,
          0,
          0,
          -1,
          -1,
          -1,
          -1,
          -1,
          -1,
          -1,
          0,
          0,
          0,
          0,
          0,
          0,
          0,
          0,
          0,
          0,
          0,
          0,
          0,
          0,
          0,
          0,
          0,
          0,
          0,
          0,
          0,
          0,
          0,
          0,
          0,
          0,
          0,
          0,
          0,
          0,
          0,
          0,
          0,
          0,
          0,
          0,
          0,
          0,
          0,
          0,
          0,
          0,
          0,
          0,
          0,
          0,
          0,
          0,
          0,
          0,
          0,
          0,
          0,
          0,
          0,
          0,
          0,
          0,
          0,
          0,
          0,
          0,
          0,
          0,
          0,
          0,
          0,
          0,
          0,
          0,
          0,
          0,
          0,
          0,
          0,
          0,
          0,
          0,
          0,
          0,
          -1,
          -1,
          -1,
          -1,
          -1,
          -1,
          -1,
          0,
          0,
          0,
          0,
          0,
          0,
          0,
          0,
          0,
          0,
          0,
          0,
          0,
          0,
          0,
          0,
          0,
          0,
          0,
          0,
          0,
          0,
          0,
          0,
          0,
          0,
          0,
          0,
          0,
          0,
          0,
          0,
          0,
          0,
          0,
          0,
          0,
          0,
          0,
          0,
          0,
          0,
          0,
          0,
          0,
          0,
          0,
          0,
          0,
          0,
          0,
          0,
          0,
          0,
          0,
          0,
          0,
          0,
          0,
          0,
          0,
          0,
          0,
          0,
          0,
          0,
          0,
          0,
          0,
          0,
          0,
          0,
          0,
          0,
          0,
          0,
          0,
          0,
          0,
          0,
          -1,
          -1,
          -1,
          -1,
          -1,
          -1,
          -1,
          0,
          0,
          0,
          0,
          0,
          0,
          0,
          0,
          0,
          0,
          0,
          0,
          0,
          0,
          0,
          0,
          0,
          0,
          0,
          0,
          0,
          0,
          0,
          0,
          0,
          0,
          0,
          0,
          0,
          0,
          0,
          0,
          0,
          0,
          0,
          0,
          0,
          0,
          0,
          0,
          0,
          0,
          0,
          0,
          0,
          0,
          0,
          0,
          0,
          0,
          0,
          0,
          0,
          0,
          0,
          0,
          0,
          0,
          0,
          0,
          0,
          0,
          0,
          0,
          0,
          0,
          0,
          0,
          0,
          0,
          0,
          0,
          0,
          0,
          0,
          0,
          0,
          0,
          0,
          0,
          -1,
          -1,
          -1,
          -1,
          -1,
          -1,
          -1,
          0,
          0,
          0,
          0,
          0,
          0,
          0,
          0,
          0,
          0,
          0,
          0,
          0,
          0,
          0,
          0,
          0,
          0,
          0,
          0,
          0,
          0,
          0,
          0,
          0,
          0,
          0,
          0,
          0,
          0,
          0,
          0,
          0,
          0,
          0,
          0,
          0,
          0,
          0,
          0,
          0,
          0,
          0,
          0,
          0,
          0,
          0,
          0,
          0,
          0,
          0,
          0,
          0,
          0,
          0,
          0,
          0,
          0,
          0,
          0,
          0,
          0,
          0,
          0,
          0,
          0,
          0,
          0,
          0,
          0,
          0,
          0,
          0,
          0,
          0,
          0,
          0,
          0,
          0,
          0,
          -1,
          -1,
          -1,
          -1,
          -1,
          -1,
          -1,
          0,
          0,
          0,
          0,
          0,
          0,
          0,
          0,
          0,
          0,
          0,
          0,
          0,
          0,
          0,
          0,
          0,
          0,
          0,
          0,
          0,
          0,
          0,
          0,
          0,
          0,
          0,
          0,
          0,
          0,
          0,
          0,
          0,
          0,
          0,
          0,
          0,
          0,
          0,
          0,
          0,
          0,
          0,
          0,
          0,
          0,
          0,
          0,
          0,
          0,
          0,
          0,
          0,
          0,
          0,
          0,
          0,
          0,
          0,
          0,
          0,
          0,
          0,
          0,
          0,
          0,
          0,
          0,
          0,
          0,
          0,
          0,
          0,
          0,
          0,
          0,
          0,
          0,
          0,
          0,
          -1,
          -1,
          -1,
          -1,
          -1,
          -1,
          -1,
          0,
          0,
          0,
          0,
          0,
          0,
          0,
          0,
          0,
          0,
          0,
          0,
          0,
          0,
          0,
          0,
          0,
          0,
          0,
          0,
          0,
          0,
          0,
          0,
          0,
          0,
          0,
          0,
          0,
          0,
          0,
          0,
          0,
          0,
          0,
          0,
          0,
          0,
          0,
          0,
          0,
          0,
          0,
          0,
          0,
          0,
          0,
          0,
          0,
          0,
          0,
          0,
          0,
          0,
          0,
          0,
          0,
          0,
          0,
          0,
          0,
          0,
          0,
          0,
          0,
          0,
          0,
          0,
          0,
          0,
          0,
          0,
          0,
          0,
          0,
          0,
          0,
          0,
          0,
          0,
          -1,
          -1,
          -1,
          -1,
          -1,
          -1,
          -1,
          0,
          0,
          0,
          0,
          0,
          0,
          0,
          0,
          0,
          0,
          0,
          0,
          0,
          0,
          0,
          0,
          0,
          0,
          0,
          0,
          0,
          0,
          0,
          0,
          0,
          0,
          0,
          0,
          0,
          0,
          0,
          0,
          0,
          0,
          0,
          0,
          0,
          0,
          0,
          0,
          0,
          0,
          0,
          0,
          0,
          0,
          0,
          0,
          0,
          0,
          0,
          0,
          0,
          0,
          0,
          0,
          0,
          0,
          0,
          0,
          0,
          0,
          0,
          0,
          0,
          0,
          0,
          0,
          0,
          0,
          0,
          0,
          0,
          0,
          0,
          0,
          0,
          0,
          0,
          0,
          -1,
          -1,
          -1,
          -1,
          -1,
          -1,
          -1,
          0,
          0,
          0,
          0,
          0,
          0,
          0,
          0,
          0,
          0,
          0,
          0,
          0,
          0,
          0,
          0,
          0,
          0,
          0,
          0,
          0,
          0,
          0,
          0,
          0,
          0,
          0,
          0,
          0,
          0,
          0,
          0,
          0,
          0,
          0,
          0,
          0,
          0,
          0,
          0,
          0,
          0,
          0,
          0,
          0,
          0,
          0,
          0,
          0,
          0,
          0,
          0,
          0,
          0,
          0,
          0,
          0,
          0,
          0,
          0,
          0,
          0,
          0,
          0,
          0,
          0,
          0,
          0,
          0,
          0,
          0,
          0,
          0,
          0,
          0,
          0,
          0,
          0,
          0,
          0,
          -1,
          -1,
          -1,
          -1,
          -1,
          -1,
          -1,
          0,
          0,
          0,
          0,
          0,
          0,
          0,
          0,
          0,
          0,
          0,
          0,
          0,
          0,
          0,
          0,
          0,
          0,
          0,
          0,
          0,
          0,
          0,
          0,
          0,
          0,
          0,
          0,
          0,
          0,
          0,
          0,
          0,
          0,
          0,
          0,
          0,
          0,
          0,
          0,
          0,
          0,
          0,
          0,
          0,
          0,
          0,
          0,
          0,
          0,
          0,
          0,
          0,
          0,
          0,
          0,
          0,
          0,
          0,
          0,
          0,
          0,
          0,
          0,
          0,
          0,
          0,
          0,
          0,
          0,
          0,
          0,
          0,
          0,
          0,
          0,
          0,
          0,
          0,
          0,
          -1,
          -1,
          -1,
          -1,
          -1,
          -1,
          -1,
          0,
          0,
          0,
          0,
          0,
          0,
          0,
          0,
          0,
          0,
          0,
          0,
          0,
          0,
          0,
          0,
          0,
          0,
          0,
          0,
          0,
          0,
          0,
          0,
          0,
          0,
          0,
          0,
          0,
          0,
          0,
          0,
          0,
          0,
          0,
          0,
          0,
          0,
          0,
          0,
          0,
          0,
          0,
          0,
          0,
          0,
          0,
          0,
          0,
          0,
          0,
          0,
          0,
          0,
          0,
          0,
          0,
          0,
          0,
          0,
          0,
          0,
          0,
          0,
          0,
          0,
          0,
          0,
          0,
          0,
          0,
          0,
          0,
          0,
          0,
          0,
          0,
          0,
          0,
          0,
          -1,
          -1,
          -1,
          -1,
          -1,
          -1,
          -1,
          0,
          0,
          0,
          0,
          0,
          0,
          0,
          0,
          0,
          0,
          0,
          0,
          0,
          0,
          0,
          0,
          0,
          0,
          0,
          0,
          0,
          0,
          0,
          0,
          0,
          0,
          0,
          0,
          0,
          0,
          0,
          0,
          0,
          0,
          0,
          0,
          0,
          0,
          0,
          0,
          0,
          0,
          0,
          0,
          0,
          0,
          0,
          0,
          0,
          0,
          0,
          0,
          0,
          0,
          0,
          0,
          0,
          0,
          0,
          0,
          0,
          0,
          0,
          0,
          0,
          0,
          0,
          0,
          0,
          0,
          0,
          0,
          0,
          0,
          0,
          0,
          0,
          0,
          0,
          0,
          -1,
          -1,
          -1,
          -1,
          -1,
          -1,
          -1,
          0,
          0,
          0,
          0,
          0,
          0,
          0,
          0,
          0,
          0,
          0,
          0,
          0,
          0,
          0,
          0,
          0,
          0,
          0,
          0,
          0,
          0,
          0,
          0,
          0,
          0,
          0,
          0,
          0,
          0,
          0,
          0,
          0,
          0,
          0,
          0,
          0,
          0,
          0,
          0,
          0,
          0,
          0,
          0,
          0,
          0,
          0,
          0,
          0,
          0,
          0,
          0,
          0,
          0,
          0,
          0,
          0,
          0,
          0,
          0,
          0,
          0,
          0,
          0,
          0,
          0,
          0,
          0,
          0,
          0,
          0,
          0,
          0,
          0,
          0,
          0,
          0,
          0,
          0
        ],
        "m_PatternsUsed": [
          15
        ]
      },
      "pos": [
        47,
        0
      ]
    },
    {
      "plugin": "Bogaudio",
      "version": "0.6.7",
      "model": "Bogaudio-Offset",
      "params": [
        {
          "paramId": 0,
          "value": -0.147
        },
        {
          "paramId": 1,
          "value": 0.240999937
        }
      ],
      "data": {
        "disableOutputLimit": false
      },
      "pos": [
        72,
        2
      ]
    },
    {
      "plugin": "NYSTHI",
      "version": "0.6.21",
      "model": "StereoPhaser2",
      "params": [
        {
          "paramId": 7,
          "value": 0.0
        },
        {
          "paramId": 8,
          "value": 0.0
        },
        {
          "paramId": 9,
          "value": 0.0
        },
        {
          "paramId": 1,
          "value": 0.41350013
        },
        {
          "paramId": 2,
          "value": -0.765999973
        },
        {
          "paramId": 3,
          "value": 0.0
        },
        {
          "paramId": 4,
          "value": 0.0
        },
        {
          "paramId": 5,
          "value": 0.149999991
        },
        {
          "paramId": 6,
          "value": 0.0164999999
        },
        {
          "paramId": 10,
          "value": 0.0
        }
      ],
      "pos": [
        41,
        1
      ]
    },
    {
      "plugin": "AS",
      "version": "0.6.9",
      "model": "QuadVCA",
      "params": [
        {
          "paramId": 0,
          "value": 0.5
        },
        {
          "paramId": 1,
          "value": 0.5
        },
        {
          "paramId": 2,
          "value": 0.5
        },
        {
          "paramId": 3,
          "value": 0.5
        },
        {
          "paramId": 4,
          "value": 1.0
        },
        {
          "paramId": 5,
          "value": 1.0
        },
        {
          "paramId": 6,
          "value": 1.0
        },
        {
          "paramId": 7,
          "value": 1.0
        }
      ],
      "pos": [
        20,
        1
      ]
    },
    {
      "plugin": "moDllz",
      "version": "0.6.6",
      "model": "TwinGlider",
      "params": [
        {
          "paramId": 0,
          "value": 0.11399997
        },
        {
          "paramId": 2,
          "value": 0.144000009
        },
        {
          "paramId": 4,
          "value": 1.0
        },
        {
          "paramId": 6,
          "value": 1.0
        },
        {
          "paramId": 8,
          "value": 1.0
        },
        {
          "paramId": 12,
          "value": 0.0
        },
        {
          "paramId": 1,
          "value": 0.0914998576
        },
        {
          "paramId": 3,
          "value": 0.178500012
        },
        {
          "paramId": 5,
          "value": 1.0
        },
        {
          "paramId": 7,
          "value": 1.0
        },
        {
          "paramId": 9,
          "value": 1.0
        },
        {
          "paramId": 13,
          "value": 0.0
        }
      ],
      "pos": [
        84,
        1
      ]
    },
    {
      "plugin": "Bogaudio",
      "version": "0.6.7",
      "model": "Bogaudio-Offset",
      "params": [
        {
          "paramId": 0,
          "value": 0.143000066
        },
        {
          "paramId": 1,
          "value": 0.288999498
        }
      ],
      "data": {
        "disableOutputLimit": false
      },
      "pos": [
        58,
        1
      ]
    },
    {
      "plugin": "Bogaudio",
      "version": "0.6.7",
      "model": "Bogaudio-ADSR",
      "params": [
        {
          "paramId": 0,
          "value": 0.08699999
        },
        {
          "paramId": 1,
          "value": 0.316229999
        },
        {
          "paramId": 2,
          "value": 1.0
        },
        {
          "paramId": 3,
          "value": 0.784500301
        },
        {
          "paramId": 4,
          "value": 0.0
        }
      ],
      "pos": [
        25,
        2
      ]
    },
    {
      "plugin": "FrozenWasteland",
      "version": "0.6.7",
      "model": "BPMLFO",
      "params": [
        {
          "paramId": 0,
          "value": 5.88473845
        },
        {
          "paramId": 4,
          "value": 0.0
        },
        {
          "paramId": 1,
          "value": 1.0
        },
        {
          "paramId": 2,
          "value": 1.0
        },
        {
          "paramId": 3,
          "value": 1.0
        }
      ],
      "pos": [
        75,
        2
      ]
    },
    {
      "plugin": "ML_modules",
      "version": "0.6.2",
      "model": "SeqSwitch",
      "params": [
        {
          "paramId": 0,
          "value": 8.0
        },
        {
          "paramId": 1,
          "value": 0.0
        },
        {
          "paramId": 2,
          "value": 0.0
        },
        {
          "paramId": 3,
          "value": 0.0
        },
        {
          "paramId": 4,
          "value": 0.0
        },
        {
          "paramId": 5,
          "value": 0.0
        },
        {
          "paramId": 6,
          "value": 0.0
        },
        {
          "paramId": 7,
          "value": 0.0
        },
        {
          "paramId": 8,
          "value": 0.0
        }
      ],
      "data": {
        "inputRange": 0
      },
      "pos": [
        95,
        1
      ]
    },
    {
      "plugin": "AS",
      "version": "0.6.9",
      "model": "TriLFO",
      "params": [
        {
          "paramId": 2,
          "value": -2.65899992
        },
        {
          "paramId": 0,
          "value": 0.0
        },
        {
          "paramId": 1,
          "value": 1.0
        },
        {
          "paramId": 5,
          "value": -2.95299935
        },
        {
          "paramId": 3,
          "value": 0.0
        },
        {
          "paramId": 4,
          "value": 1.0
        },
        {
          "paramId": 8,
          "value": -2.7009995
        },
        {
          "paramId": 6,
          "value": 0.0
        },
        {
          "paramId": 7,
          "value": 1.0
        }
      ],
      "pos": [
        103,
        1
      ]
    },
    {
      "plugin": "AS",
      "version": "0.6.9",
      "model": "TriLFO",
      "params": [
        {
          "paramId": 2,
          "value": -2.99499989
        },
        {
          "paramId": 0,
          "value": 0.0
        },
        {
          "paramId": 1,
          "value": 1.0
        },
        {
          "paramId": 5,
          "value": -2.42799973
        },
        {
          "paramId": 3,
          "value": 0.0
        },
        {
          "paramId": 4,
          "value": 1.0
        },
        {
          "paramId": 8,
          "value": -3.83500051
        },
        {
          "paramId": 6,
          "value": 0.0
        },
        {
          "paramId": 7,
          "value": 1.0
        }
      ],
      "pos": [
        113,
        1
      ]
    },
    {
      "plugin": "DHE-Modules",
      "version": "0.6.1",
      "model": "Xycloid",
      "params": [
        {
          "paramId": 1,
          "value": 0.5
        },
        {
          "paramId": 0,
          "value": 0.441499978
        },
        {
          "paramId": 4,
          "value": 0.5
        },
        {
          "paramId": 3,
          "value": 0.524000049
        },
        {
          "paramId": 2,
          "value": 1.0
        },
        {
          "paramId": 6,
          "value": 0.5
        },
        {
          "paramId": 5,
          "value": 0.550999999
        },
        {
          "paramId": 7,
          "value": 0.5
        },
        {
          "paramId": 9,
          "value": 0.0
        },
        {
          "paramId": 8,
          "value": 0.5
        },
        {
          "paramId": 10,
          "value": 0.0
        }
      ],
      "pos": [
        123,
        1
      ]
    },
    {
      "plugin": "RJModules",
      "version": "0.6.0",
      "model": "Filter",
      "params": [
        {
          "paramId": 0,
          "value": 0.719500065
        },
        {
          "paramId": 1,
          "value": 0.624499917
        },
        {
          "paramId": 2,
          "value": 0.935499907
        }
      ],
      "pos": [
        61,
        1
      ]
    },
    {
      "plugin": "moDllz",
      "version": "0.6.6",
      "model": "TwinGlider",
      "params": [
        {
          "paramId": 0,
          "value": 0.100499965
        },
        {
          "paramId": 2,
          "value": 0.110999987
        },
        {
          "paramId": 4,
          "value": 1.0
        },
        {
          "paramId": 6,
          "value": 2.0
        },
        {
          "paramId": 8,
          "value": 2.0
        },
        {
          "paramId": 12,
          "value": 0.0
        },
        {
          "paramId": 1,
          "value": 0.0914999843
        },
        {
          "paramId": 3,
          "value": 0.105000012
        },
        {
          "paramId": 5,
          "value": 1.0
        },
        {
          "paramId": 7,
          "value": 2.0
        },
        {
          "paramId": 9,
          "value": 2.0
        },
        {
          "paramId": 13,
          "value": 0.0
        }
      ],
      "pos": [
        25,
        0
      ]
    },
    {
      "plugin": "Autodafe - REDs FREE",
      "version": "0.6.0",
      "model": "CO[S]INE",
      "params": [
        {
          "paramId": 0,
          "value": -40.0
        },
        {
          "paramId": 1,
          "value": 0.0210000016
        },
        {
          "paramId": 2,
          "value": 1.0
        },
        {
          "paramId": 3,
          "value": 8.44000053
        },
        {
          "paramId": 4,
          "value": 1.0
        }
      ],
      "pos": [
        48,
        2
      ]
    },
    {
      "plugin": "Bogaudio",
      "version": "0.6.7",
      "model": "Bogaudio-Offset",
      "params": [
        {
          "paramId": 0,
          "value": 0.143000066
        },
        {
          "paramId": 1,
          "value": 0.288999498
        }
      ],
      "data": {
        "disableOutputLimit": false
      },
      "pos": [
        58,
        2
      ]
    },
    {
      "plugin": "RJModules",
      "version": "0.6.0",
      "model": "Filter",
      "params": [
        {
          "paramId": 0,
          "value": 0.713500082
        },
        {
          "paramId": 1,
          "value": 0.624499917
        },
        {
          "paramId": 2,
          "value": 0.935499907
        }
      ],
      "pos": [
        61,
        2
      ]
    },
    {
      "plugin": "Fundamental",
      "version": "0.6.2",
      "model": "SequentialSwitch1",
      "params": [
        {
          "paramId": 0,
          "value": 2.0
        }
      ],
      "pos": [
        22,
        2
      ]
    },
    {
      "plugin": "Bogaudio",
      "version": "0.6.7",
      "model": "Bogaudio-ADSR",
      "params": [
        {
          "paramId": 0,
          "value": 0.08699999
        },
        {
          "paramId": 1,
          "value": 0.316229999
        },
        {
          "paramId": 2,
          "value": 1.0
        },
        {
          "paramId": 3,
          "value": 0.784500301
        },
        {
          "paramId": 4,
          "value": 0.0
        }
      ],
      "pos": [
        28,
        2
      ]
    },
    {
      "plugin": "NYSTHI",
      "version": "0.6.21",
      "model": "StereoPhaser2",
      "params": [
        {
          "paramId": 7,
          "value": 0.0
        },
        {
          "paramId": 8,
          "value": 0.0
        },
        {
          "paramId": 9,
          "value": 0.0
        },
        {
          "paramId": 1,
          "value": 0.41350013
        },
        {
          "paramId": 2,
          "value": -0.765999973
        },
        {
          "paramId": 3,
          "value": 0.606999636
        },
        {
          "paramId": 4,
          "value": 0.638000011
        },
        {
          "paramId": 5,
          "value": 0.149999991
        },
        {
          "paramId": 6,
          "value": 0.0164999999
        },
        {
          "paramId": 10,
          "value": 0.0
        }
      ],
      "pos": [
        41,
        2
      ]
    },
    {
      "plugin": "AS",
      "version": "0.6.9",
      "model": "VCA",
      "params": [
        {
          "paramId": 0,
          "value": 0.5
        },
        {
          "paramId": 1,
          "value": 0.5
        },
        {
          "paramId": 2,
          "value": 1.0
        },
        {
          "paramId": 3,
          "value": 1.0
        }
      ],
      "pos": [
        35,
        2
      ]
    },
    {
      "plugin": "Bogaudio",
      "version": "0.6.7",
      "model": "Bogaudio-SampleHold",
      "params": [
        {
          "paramId": 0,
          "value": 0.0
        },
        {
          "paramId": 1,
          "value": 0.0
        }
      ],
      "pos": [
        20,
        0
      ]
    },
    {
      "plugin": "mscHack",
      "version": "0.6.3",
      "model": "ARP700",
      "params": [],
      "data": {
        "m_bPauseState": [
          false
        ],
        "m_CurrentPattern": [
          0
        ],
        "m_PatternSave": [
          4,
          12,
          15,
          19,
          24,
          -1,
          -1,
          -1,
          1,
          0,
          0,
          1,
          0,
          0,
          1,
          0,
          0,
          1,
          0,
          0,
          0,
          0,
          0,
          0,
          0,
          0,
          0,
          0,
          0,
          2,
          0,
          0,
          2,
          0,
          0,
          2,
          0,
          0,
          2,
          0,
          0,
          0,
          0,
          0,
          0,
          0,
          0,
          0,
          0,
          0,
          0,
          0,
          0,
          0,
          0,
          0,
          0,
          0,
          0,
          0,
          0,
          0,
          0,
          0,
          0,
          0,
          0,
          0,
          0,
          0,
          0,
          0,
          0,
          0,
          0,
          0,
          0,
          0,
          0,
          0,
          0,
          0,
          0,
          0,
          0,
          2,
          0,
          0,
          -1,
          -1,
          -1,
          -1,
          -1,
          -1,
          -1,
          0,
          0,
          0,
          0,
          0,
          0,
          0,
          0,
          0,
          0,
          0,
          0,
          0,
          0,
          0,
          0,
          0,
          0,
          0,
          0,
          0,
          0,
          0,
          0,
          0,
          0,
          0,
          0,
          0,
          0,
          0,
          0,
          0,
          0,
          0,
          0,
          0,
          0,
          0,
          0,
          0,
          0,
          0,
          0,
          0,
          0,
          0,
          0,
          0,
          0,
          0,
          0,
          0,
          0,
          0,
          0,
          0,
          0,
          0,
          0,
          0,
          0,
          0,
          0,
          0,
          0,
          0,
          0,
          0,
          0,
          0,
          0,
          0,
          0,
          0,
          0,
          0,
          0,
          0,
          0,
          -1,
          -1,
          -1,
          -1,
          -1,
          -1,
          -1,
          0,
          0,
          0,
          0,
          0,
          0,
          0,
          0,
          0,
          0,
          0,
          0,
          0,
          0,
          0,
          0,
          0,
          0,
          0,
          0,
          0,
          0,
          0,
          0,
          0,
          0,
          0,
          0,
          0,
          0,
          0,
          0,
          0,
          0,
          0,
          0,
          0,
          0,
          0,
          0,
          0,
          0,
          0,
          0,
          0,
          0,
          0,
          0,
          0,
          0,
          0,
          0,
          0,
          0,
          0,
          0,
          0,
          0,
          0,
          0,
          0,
          0,
          0,
          0,
          0,
          0,
          0,
          0,
          0,
          0,
          0,
          0,
          0,
          0,
          0,
          0,
          0,
          0,
          0,
          0,
          -1,
          -1,
          -1,
          -1,
          -1,
          -1,
          -1,
          0,
          0,
          0,
          0,
          0,
          0,
          0,
          0,
          0,
          0,
          0,
          0,
          0,
          0,
          0,
          0,
          0,
          0,
          0,
          0,
          0,
          0,
          0,
          0,
          0,
          0,
          0,
          0,
          0,
          0,
          0,
          0,
          0,
          0,
          0,
          0,
          0,
          0,
          0,
          0,
          0,
          0,
          0,
          0,
          0,
          0,
          0,
          0,
          0,
          0,
          0,
          0,
          0,
          0,
          0,
          0,
          0,
          0,
          0,
          0,
          0,
          0,
          0,
          0,
          0,
          0,
          0,
          0,
          0,
          0,
          0,
          0,
          0,
          0,
          0,
          0,
          0,
          0,
          0,
          0,
          -1,
          -1,
          -1,
          -1,
          -1,
          -1,
          -1,
          0,
          0,
          0,
          0,
          0,
          0,
          0,
          0,
          0,
          0,
          0,
          0,
          0,
          0,
          0,
          0,
          0,
          0,
          0,
          0,
          0,
          0,
          0,
          0,
          0,
          0,
          0,
          0,
          0,
          0,
          0,
          0,
          0,
          0,
          0,
          0,
          0,
          0,
          0,
          0,
          0,
          0,
          0,
          0,
          0,
          0,
          0,
          0,
          0,
          0,
          0,
          0,
          0,
          0,
          0,
          0,
          0,
          0,
          0,
          0,
          0,
          0,
          0,
          0,
          0,
          0,
          0,
          0,
          0,
          0,
          0,
          0,
          0,
          0,
          0,
          0,
          0,
          0,
          0,
          0,
          -1,
          -1,
          -1,
          -1,
          -1,
          -1,
          -1,
          0,
          0,
          0,
          0,
          0,
          0,
          0,
          0,
          0,
          0,
          0,
          0,
          0,
          0,
          0,
          0,
          0,
          0,
          0,
          0,
          0,
          0,
          0,
          0,
          0,
          0,
          0,
          0,
          0,
          0,
          0,
          0,
          0,
          0,
          0,
          0,
          0,
          0,
          0,
          0,
          0,
          0,
          0,
          0,
          0,
          0,
          0,
          0,
          0,
          0,
          0,
          0,
          0,
          0,
          0,
          0,
          0,
          0,
          0,
          0,
          0,
          0,
          0,
          0,
          0,
          0,
          0,
          0,
          0,
          0,
          0,
          0,
          0,
          0,
          0,
          0,
          0,
          0,
          0,
          0,
          -1,
          -1,
          -1,
          -1,
          -1,
          -1,
          -1,
          0,
          0,
          0,
          0,
          0,
          0,
          0,
          0,
          0,
          0,
          0,
          0,
          0,
          0,
          0,
          0,
          0,
          0,
          0,
          0,
          0,
          0,
          0,
          0,
          0,
          0,
          0,
          0,
          0,
          0,
          0,
          0,
          0,
          0,
          0,
          0,
          0,
          0,
          0,
          0,
          0,
          0,
          0,
          0,
          0,
          0,
          0,
          0,
          0,
          0,
          0,
          0,
          0,
          0,
          0,
          0,
          0,
          0,
          0,
          0,
          0,
          0,
          0,
          0,
          0,
          0,
          0,
          0,
          0,
          0,
          0,
          0,
          0,
          0,
          0,
          0,
          0,
          0,
          0,
          0,
          -1,
          -1,
          -1,
          -1,
          -1,
          -1,
          -1,
          0,
          0,
          0,
          0,
          0,
          0,
          0,
          0,
          0,
          0,
          0,
          0,
          0,
          0,
          0,
          0,
          0,
          0,
          0,
          0,
          0,
          0,
          0,
          0,
          0,
          0,
          0,
          0,
          0,
          0,
          0,
          0,
          0,
          0,
          0,
          0,
          0,
          0,
          0,
          0,
          0,
          0,
          0,
          0,
          0,
          0,
          0,
          0,
          0,
          0,
          0,
          0,
          0,
          0,
          0,
          0,
          0,
          0,
          0,
          0,
          0,
          0,
          0,
          0,
          0,
          0,
          0,
          0,
          0,
          0,
          0,
          0,
          0,
          0,
          0,
          0,
          0,
          0,
          0,
          0,
          -1,
          -1,
          -1,
          -1,
          -1,
          -1,
          -1,
          0,
          0,
          0,
          0,
          0,
          0,
          0,
          0,
          0,
          0,
          0,
          0,
          0,
          0,
          0,
          0,
          0,
          0,
          0,
          0,
          0,
          0,
          0,
          0,
          0,
          0,
          0,
          0,
          0,
          0,
          0,
          0,
          0,
          0,
          0,
          0,
          0,
          0,
          0,
          0,
          0,
          0,
          0,
          0,
          0,
          0,
          0,
          0,
          0,
          0,
          0,
          0,
          0,
          0,
          0,
          0,
          0,
          0,
          0,
          0,
          0,
          0,
          0,
          0,
          0,
          0,
          0,
          0,
          0,
          0,
          0,
          0,
          0,
          0,
          0,
          0,
          0,
          0,
          0,
          0,
          -1,
          -1,
          -1,
          -1,
          -1,
          -1,
          -1,
          0,
          0,
          0,
          0,
          0,
          0,
          0,
          0,
          0,
          0,
          0,
          0,
          0,
          0,
          0,
          0,
          0,
          0,
          0,
          0,
          0,
          0,
          0,
          0,
          0,
          0,
          0,
          0,
          0,
          0,
          0,
          0,
          0,
          0,
          0,
          0,
          0,
          0,
          0,
          0,
          0,
          0,
          0,
          0,
          0,
          0,
          0,
          0,
          0,
          0,
          0,
          0,
          0,
          0,
          0,
          0,
          0,
          0,
          0,
          0,
          0,
          0,
          0,
          0,
          0,
          0,
          0,
          0,
          0,
          0,
          0,
          0,
          0,
          0,
          0,
          0,
          0,
          0,
          0,
          0,
          -1,
          -1,
          -1,
          -1,
          -1,
          -1,
          -1,
          0,
          0,
          0,
          0,
          0,
          0,
          0,
          0,
          0,
          0,
          0,
          0,
          0,
          0,
          0,
          0,
          0,
          0,
          0,
          0,
          0,
          0,
          0,
          0,
          0,
          0,
          0,
          0,
          0,
          0,
          0,
          0,
          0,
          0,
          0,
          0,
          0,
          0,
          0,
          0,
          0,
          0,
          0,
          0,
          0,
          0,
          0,
          0,
          0,
          0,
          0,
          0,
          0,
          0,
          0,
          0,
          0,
          0,
          0,
          0,
          0,
          0,
          0,
          0,
          0,
          0,
          0,
          0,
          0,
          0,
          0,
          0,
          0,
          0,
          0,
          0,
          0,
          0,
          0,
          0,
          -1,
          -1,
          -1,
          -1,
          -1,
          -1,
          -1,
          0,
          0,
          0,
          0,
          0,
          0,
          0,
          0,
          0,
          0,
          0,
          0,
          0,
          0,
          0,
          0,
          0,
          0,
          0,
          0,
          0,
          0,
          0,
          0,
          0,
          0,
          0,
          0,
          0,
          0,
          0,
          0,
          0,
          0,
          0,
          0,
          0,
          0,
          0,
          0,
          0,
          0,
          0,
          0,
          0,
          0,
          0,
          0,
          0,
          0,
          0,
          0,
          0,
          0,
          0,
          0,
          0,
          0,
          0,
          0,
          0,
          0,
          0,
          0,
          0,
          0,
          0,
          0,
          0,
          0,
          0,
          0,
          0,
          0,
          0,
          0,
          0,
          0,
          0,
          0,
          -1,
          -1,
          -1,
          -1,
          -1,
          -1,
          -1,
          0,
          0,
          0,
          0,
          0,
          0,
          0,
          0,
          0,
          0,
          0,
          0,
          0,
          0,
          0,
          0,
          0,
          0,
          0,
          0,
          0,
          0,
          0,
          0,
          0,
          0,
          0,
          0,
          0,
          0,
          0,
          0,
          0,
          0,
          0,
          0,
          0,
          0,
          0,
          0,
          0,
          0,
          0,
          0,
          0,
          0,
          0,
          0,
          0,
          0,
          0,
          0,
          0,
          0,
          0,
          0,
          0,
          0,
          0,
          0,
          0,
          0,
          0,
          0,
          0,
          0,
          0,
          0,
          0,
          0,
          0,
          0,
          0,
          0,
          0,
          0,
          0,
          0,
          0,
          0,
          -1,
          -1,
          -1,
          -1,
          -1,
          -1,
          -1,
          0,
          0,
          0,
          0,
          0,
          0,
          0,
          0,
          0,
          0,
          0,
          0,
          0,
          0,
          0,
          0,
          0,
          0,
          0,
          0,
          0,
          0,
          0,
          0,
          0,
          0,
          0,
          0,
          0,
          0,
          0,
          0,
          0,
          0,
          0,
          0,
          0,
          0,
          0,
          0,
          0,
          0,
          0,
          0,
          0,
          0,
          0,
          0,
          0,
          0,
          0,
          0,
          0,
          0,
          0,
          0,
          0,
          0,
          0,
          0,
          0,
          0,
          0,
          0,
          0,
          0,
          0,
          0,
          0,
          0,
          0,
          0,
          0,
          0,
          0,
          0,
          0,
          0,
          0,
          0,
          -1,
          -1,
          -1,
          -1,
          -1,
          -1,
          -1,
          0,
          0,
          0,
          0,
          0,
          0,
          0,
          0,
          0,
          0,
          0,
          0,
          0,
          0,
          0,
          0,
          0,
          0,
          0,
          0,
          0,
          0,
          0,
          0,
          0,
          0,
          0,
          0,
          0,
          0,
          0,
          0,
          0,
          0,
          0,
          0,
          0,
          0,
          0,
          0,
          0,
          0,
          0,
          0,
          0,
          0,
          0,
          0,
          0,
          0,
          0,
          0,
          0,
          0,
          0,
          0,
          0,
          0,
          0,
          0,
          0,
          0,
          0,
          0,
          0,
          0,
          0,
          0,
          0,
          0,
          0,
          0,
          0,
          0,
          0,
          0,
          0,
          0,
          0,
          0,
          -1,
          -1,
          -1,
          -1,
          -1,
          -1,
          -1,
          0,
          0,
          0,
          0,
          0,
          0,
          0,
          0,
          0,
          0,
          0,
          0,
          0,
          0,
          0,
          0,
          0,
          0,
          0,
          0,
          0,
          0,
          0,
          0,
          0,
          0,
          0,
          0,
          0,
          0,
          0,
          0,
          0,
          0,
          0,
          0,
          0,
          0,
          0,
          0,
          0,
          0,
          0,
          0,
          0,
          0,
          0,
          0,
          0,
          0,
          0,
          0,
          0,
          0,
          0,
          0,
          0,
          0,
          0,
          0,
          0,
          0,
          0,
          0,
          0,
          0,
          0,
          0,
          0,
          0,
          0,
          0,
          0,
          0,
          0,
          0,
          0,
          0,
          0
        ],
        "m_PatternsUsed": [
          15
        ]
      },
      "pos": [
        74,
        0
      ]
    },
    {
      "plugin": "Fundamental",
      "version": "0.6.2",
      "model": "SequentialSwitch1",
      "params": [
        {
          "paramId": 0,
          "value": 2.0
        }
      ],
      "pos": [
        17,
        0
      ]
    },
    {
      "plugin": "AS",
      "version": "0.6.9",
      "model": "SignalDelay",
      "params": [
        {
          "paramId": 0,
          "value": 0.0150000006
        },
        {
          "paramId": 1,
          "value": 0.349999994
        }
      ],
      "pos": [
        0,
        0
      ]
    },
    {
      "plugin": "NYSTHI",
      "version": "0.6.21",
      "model": "TwistedMVerb",
      "params": [
        {
          "paramId": 0,
          "value": 0.0
        },
        {
          "paramId": 1,
          "value": 0.299000055
        },
        {
          "paramId": 2,
          "value": 0.216000006
        },
        {
          "paramId": 3,
          "value": 0.671999872
        },
        {
          "paramId": 4,
          "value": 0.540000081
        },
        {
          "paramId": 5,
          "value": 0.500500262
        },
        {
          "paramId": 6,
          "value": 0.049499996
        },
        {
          "paramId": 7,
          "value": 0.621999979
        },
        {
          "paramId": 8,
          "value": 0.544999897
        },
        {
          "paramId": 9,
          "value": 0.0
        }
      ],
      "data": {},
      "pos": [
        12,
        2
      ]
    },
    {
      "plugin": "moDllz",
      "version": "0.6.6",
      "model": "TwinGlider",
      "params": [
        {
          "paramId": 0,
          "value": 0.245999888
        },
        {
          "paramId": 2,
          "value": 0.154499948
        },
        {
          "paramId": 4,
          "value": 1.0
        },
        {
          "paramId": 6,
          "value": 2.0
        },
        {
          "paramId": 8,
          "value": 2.0
        },
        {
          "paramId": 12,
          "value": 0.0
        },
        {
          "paramId": 1,
          "value": 0.0584999919
        },
        {
          "paramId": 3,
          "value": 0.151500002
        },
        {
          "paramId": 5,
          "value": 1.0
        },
        {
          "paramId": 7,
          "value": 2.0
        },
        {
          "paramId": 9,
          "value": 2.0
        },
        {
          "paramId": 13,
          "value": 0.0
        }
      ],
      "pos": [
        85,
        2
      ]
    },
    {
      "plugin": "Bogaudio",
      "version": "0.6.7",
      "model": "Bogaudio-Offset",
      "params": [
        {
          "paramId": 0,
          "value": 0.171000034
        },
        {
          "paramId": 1,
          "value": 0.0970003679
        }
      ],
      "data": {
        "disableOutputLimit": false
      },
      "pos": [
        96,
        2
      ]
    },
    {
      "plugin": "Core",
      "version": "0.6.2b",
      "model": "MIDICCToCVInterface",
      "params": [],
      "data": {
        "ccs": [
          0,
          1,
          2,
          3,
          4,
          5,
          6,
          7,
          8,
          9,
          10,
          11,
          12,
          13,
          14,
          15
        ],
        "midi": {
          "driver": -12512,
          "deviceName": "Port 1",
          "channel": -1
        }
      },
      "pos": [
        2,
        2
      ]
    }
  ],
  "wires": [
    {
      "color": "#c91847",
      "outputModuleId": 4,
      "outputId": 0,
      "inputModuleId": 20,
      "inputId": 9
    },
    {
      "color": "#0c8e15",
      "outputModuleId": 5,
      "outputId": 2,
      "inputModuleId": 7,
      "inputId": 0
    },
    {
      "color": "#c9b70e",
      "outputModuleId": 1,
      "outputId": 0,
      "inputModuleId": 0,
      "inputId": 0
    },
    {
      "color": "#c91847",
      "outputModuleId": 1,
      "outputId": 1,
      "inputModuleId": 0,
      "inputId": 1
    },
    {
      "color": "#0c8e15",
      "outputModuleId": 6,
      "outputId": 0,
      "inputModuleId": 11,
      "inputId": 8
    },
    {
      "color": "#0986ad",
      "outputModuleId": 19,
      "outputId": 0,
      "inputModuleId": 9,
      "inputId": 0
    },
    {
      "color": "#c9b70e",
      "outputModuleId": 19,
      "outputId": 0,
      "inputModuleId": 9,
      "inputId": 8
    },
    {
      "color": "#0c8e15",
      "outputModuleId": 32,
      "outputId": 0,
      "inputModuleId": 1,
      "inputId": 0
    },
    {
      "color": "#0986ad",
      "outputModuleId": 32,
      "outputId": 1,
      "inputModuleId": 1,
      "inputId": 1
    },
    {
      "color": "#c91847",
      "outputModuleId": 9,
      "outputId": 0,
      "inputModuleId": 10,
      "inputId": 1
    },
    {
      "color": "#c9b70e",
      "outputModuleId": 11,
      "outputId": 10,
      "inputModuleId": 8,
      "inputId": 2
    },
    {
      "color": "#c91847",
      "outputModuleId": 6,
      "outputId": 0,
      "inputModuleId": 11,
      "inputId": 9
    },
    {
      "color": "#0c8e15",
      "outputModuleId": 4,
      "outputId": 6,
      "inputModuleId": 6,
      "inputId": 0
    },
    {
      "color": "#c9b70e",
      "outputModuleId": 11,
      "outputId": 11,
      "inputModuleId": 12,
      "inputId": 2
    },
    {
      "color": "#c9b70e",
      "outputModuleId": 14,
      "outputId": 0,
      "inputModuleId": 8,
      "inputId": 0
    },
    {
      "color": "#c91847",
      "outputModuleId": 8,
      "outputId": 0,
      "inputModuleId": 9,
      "inputId": 3
    },
    {
      "color": "#c91847",
      "outputModuleId": 16,
      "outputId": 0,
      "inputModuleId": 15,
      "inputId": 0
    },
    {
      "color": "#0c8e15",
      "outputModuleId": 16,
      "outputId": 4,
      "inputModuleId": 15,
      "inputId": 1
    },
    {
      "color": "#0986ad",
      "outputModuleId": 16,
      "outputId": 8,
      "inputModuleId": 15,
      "inputId": 2
    },
    {
      "color": "#c9b70e",
      "outputModuleId": 17,
      "outputId": 0,
      "inputModuleId": 15,
      "inputId": 3
    },
    {
      "color": "#c91847",
      "outputModuleId": 17,
      "outputId": 4,
      "inputModuleId": 15,
      "inputId": 4
    },
    {
      "color": "#0c8e15",
      "outputModuleId": 17,
      "outputId": 8,
      "inputModuleId": 15,
      "inputId": 5
    },
    {
      "color": "#c91847",
      "outputModuleId": 18,
      "outputId": 0,
      "inputModuleId": 15,
      "inputId": 6
    },
    {
      "color": "#0c8e15",
      "outputModuleId": 18,
      "outputId": 1,
      "inputModuleId": 15,
      "inputId": 7
    },
    {
      "color": "#c91847",
      "outputModuleId": 12,
      "outputId": 0,
      "inputModuleId": 19,
      "inputId": 1
    },
    {
      "color": "#0986ad",
      "outputModuleId": 2,
      "outputId": 0,
      "inputModuleId": 27,
      "inputId": 3
    },
    {
      "color": "#c91847",
      "outputModuleId": 15,
      "outputId": 0,
      "inputModuleId": 34,
      "inputId": 2
    },
    {
      "color": "#0c8e15",
      "outputModuleId": 26,
      "outputId": 0,
      "inputModuleId": 10,
      "inputId": 3
    },
    {
      "color": "#0986ad",
      "outputModuleId": 4,
      "outputId": 6,
      "inputModuleId": 24,
      "inputId": 0
    },
    {
      "color": "#0c8e15",
      "outputModuleId": 9,
      "outputId": 1,
      "inputModuleId": 3,
      "inputId": 1
    },
    {
      "color": "#0c8e15",
      "outputModuleId": 21,
      "outputId": 0,
      "inputModuleId": 27,
      "inputId": 1
    },
    {
      "color": "#c9b70e",
      "outputModuleId": 23,
      "outputId": 0,
      "inputModuleId": 26,
      "inputId": 8
    },
    {
      "color": "#c91847",
      "outputModuleId": 23,
      "outputId": 0,
      "inputModuleId": 26,
      "inputId": 0
    },
    {
      "color": "#0c8e15",
      "outputModuleId": 26,
      "outputId": 1,
      "inputModuleId": 3,
      "inputId": 3
    },
    {
      "color": "#0986ad",
      "outputModuleId": 8,
      "outputId": 0,
      "inputModuleId": 26,
      "inputId": 3
    },
    {
      "color": "#c91847",
      "outputModuleId": 27,
      "outputId": 0,
      "inputModuleId": 23,
      "inputId": 0
    },
    {
      "color": "#0c8e15",
      "outputModuleId": 27,
      "outputId": 1,
      "inputModuleId": 19,
      "inputId": 0
    },
    {
      "color": "#c91847",
      "outputModuleId": 25,
      "outputId": 0,
      "inputModuleId": 27,
      "inputId": 2
    },
    {
      "color": "#0c8e15",
      "outputModuleId": 13,
      "outputId": 0,
      "inputModuleId": 27,
      "inputId": 0
    },
    {
      "color": "#c9b70e",
      "outputModuleId": 24,
      "outputId": 0,
      "inputModuleId": 13,
      "inputId": 0
    },
    {
      "color": "#c91847",
      "outputModuleId": 24,
      "outputId": 1,
      "inputModuleId": 25,
      "inputId": 0
    },
    {
      "color": "#c91847",
      "outputModuleId": 5,
      "outputId": 2,
      "inputModuleId": 29,
      "inputId": 0
    },
    {
      "color": "#c91847",
      "outputModuleId": 28,
      "outputId": 0,
      "inputModuleId": 7,
      "inputId": 1
    },
    {
      "color": "#0c8e15",
      "outputModuleId": 28,
      "outputId": 1,
      "inputModuleId": 29,
      "inputId": 1
    },
    {
      "color": "#0c8e15",
      "outputModuleId": 22,
      "outputId": 0,
      "inputModuleId": 23,
      "inputId": 1
    },
    {
      "color": "#0986ad",
      "outputModuleId": 11,
      "outputId": 11,
      "inputModuleId": 22,
      "inputId": 2
    },
    {
      "color": "#0c8e15",
      "outputModuleId": 30,
      "outputId": 0,
      "inputModuleId": 28,
      "inputId": 0
    },
    {
      "color": "#0986ad",
      "outputModuleId": 30,
      "outputId": 1,
      "inputModuleId": 28,
      "inputId": 2
    },
    {
      "color": "#c9b70e",
      "outputModuleId": 20,
      "outputId": 11,
      "inputModuleId": 28,
      "inputId": 1
    },
    {
      "color": "#c91847",
      "outputModuleId": 20,
      "outputId": 11,
      "inputModuleId": 28,
      "inputId": 3
    },
    {
      "color": "#c9b70e",
      "outputModuleId": 4,
      "outputId": 1,
      "inputModuleId": 30,
      "inputId": 0
    },
    {
      "color": "#0c8e15",
      "outputModuleId": 7,
      "outputId": 1,
      "inputModuleId": 2,
      "inputId": 0
    },
    {
      "color": "#0986ad",
      "outputModuleId": 29,
      "outputId": 1,
      "inputModuleId": 21,
      "inputId": 0
    },
    {
      "color": "#c9b70e",
      "outputModuleId": 31,
      "outputId": 2,
      "inputModuleId": 24,
      "inputId": 2
    },
    {
      "color": "#0c8e15",
      "outputModuleId": 31,
      "outputId": 2,
      "inputModuleId": 15,
      "inputId": 9
    },
    {
      "color": "#0986ad",
      "outputModuleId": 4,
      "outputId": 1,
      "inputModuleId": 31,
      "inputId": 2
    },
    {
      "color": "#c9b70e",
      "outputModuleId": 31,
      "outputId": 2,
      "inputModuleId": 30,
      "inputId": 2
    },
    {
      "color": "#c91847",
      "outputModuleId": 10,
      "outputId": 3,
      "inputModuleId": 32,
      "inputId": 0
    },
    {
      "color": "#0c8e15",
      "outputModuleId": 3,
      "outputId": 3,
      "inputModuleId": 32,
      "inputId": 1
    },
    {
      "color": "#0986ad",
      "outputModuleId": 11,
      "outputId": 11,
      "inputModuleId": 9,
      "inputId": 7
    },
    {
      "color": "#c9b70e",
      "outputModuleId": 11,
      "outputId": 11,
      "inputModuleId": 26,
      "inputId": 7
    },
    {
      "color": "#c9b70e",
      "outputModuleId": 5,
      "outputId": 1,
      "inputModuleId": 6,
      "inputId": 1
    },
    {
      "color": "#0c8e15",
      "outputModuleId": 30,
      "outputId": 0,
      "inputModuleId": 7,
      "inputId": 3
    },
    {
      "color": "#0986ad",
      "outputModuleId": 30,
      "outputId": 1,
      "inputModuleId": 29,
      "inputId": 3
    },
    {
      "color": "#c9b70e",
      "outputModuleId": 33,
      "outputId": 10,
      "inputModuleId": 21,
      "inputId": 1
    },
    {
      "color": "#c91847",
      "outputModuleId": 33,
      "outputId": 10,
      "inputModuleId": 2,
      "inputId": 1
    },
    {
      "color": "#0986ad",
      "outputModuleId": 34,
      "outputId": 0,
      "inputModuleId": 33,
      "inputId": 8
    },
    {
      "color": "#0c8e15",
      "outputModuleId": 4,
      "outputId": 1,
      "inputModuleId": 14,
      "inputId": 2
    },
    {
      "color": "#0986ad",
      "outputModuleId": 35,
      "outputId": 0,
      "inputModuleId": 32,
      "inputId": 2
    },
    {
      "color": "#c9b70e",
      "outputModuleId": 35,
      "outputId": 1,
      "inputModuleId": 32,
      "inputId": 5
    },
    {
      "color": "#c91847",
      "outputModuleId": 35,
      "outputId": 2,
      "inputModuleId": 9,
      "inputId": 5
    },
    {
      "color": "#0c8e15",
      "outputModuleId": 35,
      "outputId": 3,
      "inputModuleId": 9,
      "inputId": 4
    },
    {
      "color": "#0986ad",
      "outputModuleId": 4,
      "outputId": 7,
      "inputModuleId": 14,
      "inputId": 0
    }
  ]
}