{
  "version": "0.6.2c",
  "modules": [
    {
      "plugin": "Core",
      "version": "0.6.2c",
      "model": "AudioInterface",
      "params": [],
      "data": {
        "audio": {
          "driver": -12512,
          "deviceName": "1",
          "offset": 0,
          "maxChannels": 8,
          "sampleRate": 44100,
          "blockSize": 256
        }
      },
      "pos": [
        105,
        1
      ]
    },
    {
      "plugin": "Core",
      "version": "0.6.2c",
      "model": "MIDIToCVInterface",
      "params": [],
      "data": {
        "divisions": [
          24,
          6
        ],
        "midi": {
          "driver": -12512,
          "deviceName": "Port 1",
          "channel": -1
        }
      },
      "pos": [
        0,
        0
      ]
    },
    {
      "plugin": "Core",
      "version": "0.6.2c",
      "model": "MIDICCToCVInterface",
      "params": [],
      "data": {
        "ccs": [
          0,
          1,
          2,
          3,
          4,
          5,
          6,
          7,
          8,
          9,
          10,
          11,
          12,
          13,
          14,
          15
        ],
        "midi": {
          "driver": -12512,
          "deviceName": "Port 1",
          "channel": -1
        }
      },
      "pos": [
        8,
        0
      ]
    },
    {
      "plugin": "Bidoo",
      "version": "0.6.24",
      "model": "cANARd",
      "params": [
        {
          "paramId": 0,
          "value": 0.0
        },
        {
          "paramId": 1,
          "value": 1.01999962
        },
        {
          "paramId": 2,
          "value": 0.0
        },
        {
          "paramId": 3,
          "value": 0.0
        },
        {
          "paramId": 4,
          "value": 0.0999996737
        },
        {
          "paramId": 5,
          "value": 3.92999983
        },
        {
          "paramId": 7,
          "value": 0.254999995
        },
        {
          "paramId": 8,
          "value": 0.0
        },
        {
          "paramId": 9,
          "value": 1.0
        },
        {
          "paramId": 6,
          "value": 0.0
        }
      ],
      "data": {
        "lastPath": "",
        "slices": []
      },
      "pos": [
        104,
        0
      ]
    },
    {
      "plugin": "FrozenWasteland",
      "version": "0.6.7",
      "model": "LissajousLFO",
      "params": [
        {
          "paramId": 0,
          "value": 2.28000069
        },
        {
          "paramId": 2,
          "value": 0.363000274
        },
        {
          "paramId": 3,
          "value": -0.448499501
        },
        {
          "paramId": 1,
          "value": 3.08500004
        },
        {
          "paramId": 4,
          "value": -2.77199936
        },
        {
          "paramId": 5,
          "value": -1.8380003
        }
      ],
      "pos": [
        18,
        0
      ]
    },
    {
      "plugin": "Bogaudio",
      "version": "0.6.13",
      "model": "Bogaudio-Additator",
      "params": [
        {
          "paramId": 0,
          "value": 0.0
        },
        {
          "paramId": 1,
          "value": 80.0
        },
        {
          "paramId": 10,
          "value": 0.0
        },
        {
          "paramId": 2,
          "value": 0.811000228
        },
        {
          "paramId": 3,
          "value": -0.632610083
        },
        {
          "paramId": 4,
          "value": 0.207899988
        },
        {
          "paramId": 5,
          "value": 3.0
        },
        {
          "paramId": 6,
          "value": 1.0
        },
        {
          "paramId": 7,
          "value": 0.0
        },
        {
          "paramId": 8,
          "value": 0.878500283
        },
        {
          "paramId": 9,
          "value": 1.0
        }
      ],
      "pos": [
        40,
        0
      ]
    },
    {
      "plugin": "AS",
      "version": "0.6.12",
      "model": "AtNuVrTr",
      "params": [
        {
          "paramId": 0,
          "value": 0.147
        },
        {
          "paramId": 1,
          "value": 0.0
        },
        {
          "paramId": 2,
          "value": 0.357999951
        },
        {
          "paramId": 3,
          "value": 0.0
        }
      ],
      "pos": [
        31,
        0
      ]
    },
    {
      "plugin": "Fundamental",
      "version": "0.6.2",
      "model": "LFO",
      "params": [
        {
          "paramId": 0,
          "value": 1.0
        },
        {
          "paramId": 1,
          "value": 1.0
        },
        {
          "paramId": 2,
          "value": 5.78798246
        },
        {
          "paramId": 3,
          "value": 0.0
        },
        {
          "paramId": 5,
          "value": 0.675999761
        },
        {
          "paramId": 4,
          "value": 0.0
        },
        {
          "paramId": 6,
          "value": 0.0
        }
      ],
      "pos": [
        62,
        0
      ]
    },
    {
      "plugin": "JW-Modules",
      "version": "0.6.3",
      "model": "Quantizer",
      "params": [
        {
          "paramId": 0,
          "value": 4.0
        },
        {
          "paramId": 1,
          "value": 11.0
        }
      ],
      "data": {},
      "pos": [
        36,
        0
      ]
    },
    {
      "plugin": "AS",
      "version": "0.6.12",
      "model": "AtNuVrTr",
      "params": [
        {
          "paramId": 0,
          "value": 0.11400003
        },
        {
          "paramId": 1,
          "value": 0.0
        },
        {
          "paramId": 2,
          "value": 0.237000033
        },
        {
          "paramId": 3,
          "value": 0.0
        }
      ],
      "pos": [
        55,
        0
      ]
    },
    {
      "plugin": "FrozenWasteland",
      "version": "0.6.7",
      "model": "BPMLFO",
      "params": [
        {
          "paramId": 0,
          "value": 2.82224488
        },
        {
          "paramId": 4,
          "value": 0.0
        },
        {
          "paramId": 1,
          "value": 1.0
        },
        {
          "paramId": 2,
          "value": 1.0
        },
        {
          "paramId": 3,
          "value": 1.0
        }
      ],
      "pos": [
        44,
        1
      ]
    },
    {
      "plugin": "AudibleInstruments",
      "version": "0.6.3",
      "model": "Kinks",
      "params": [],
      "pos": [
        25,
        1
      ]
    },
    {
      "plugin": "AS",
      "version": "0.6.12",
      "model": "AtNuVrTr",
      "params": [
        {
          "paramId": 0,
          "value": 0.53399986
        },
        {
          "paramId": 1,
          "value": 0.0
        },
        {
          "paramId": 2,
          "value": 0.485999942
        },
        {
          "paramId": 3,
          "value": 0.0
        }
      ],
      "pos": [
        29,
        1
      ]
    },
    {
      "plugin": "Fundamental",
      "version": "0.6.2",
      "model": "LFO",
      "params": [
        {
          "paramId": 0,
          "value": 1.0
        },
        {
          "paramId": 1,
          "value": 1.0
        },
        {
          "paramId": 2,
          "value": 1.65699613
        },
        {
          "paramId": 3,
          "value": 0.130500004
        },
        {
          "paramId": 5,
          "value": 0.5
        },
        {
          "paramId": 4,
          "value": 0.0
        },
        {
          "paramId": 6,
          "value": 0.0
        }
      ],
      "pos": [
        34,
        1
      ]
    },
    {
      "plugin": "NYSTHI",
      "version": "0.6.38",
      "model": "LFOMultiPhase",
      "params": [
        {
          "paramId": 6,
          "value": 3.18000102
        },
        {
          "paramId": 7,
          "value": 1.0
        },
        {
          "paramId": 9,
          "value": 0.0
        },
        {
          "paramId": 0,
          "value": 0.0500000007
        },
        {
          "paramId": 2,
          "value": 0.0
        },
        {
          "paramId": 1,
          "value": 0.0
        },
        {
          "paramId": 3,
          "value": 0.0
        },
        {
          "paramId": 4,
          "value": 0.5
        },
        {
          "paramId": 5,
          "value": 0.5
        },
        {
          "paramId": 8,
          "value": 0.607424438
        },
        {
          "paramId": 14,
          "value": 0.5
        },
        {
          "paramId": 11,
          "value": 0.0
        },
        {
          "paramId": 12,
          "value": 0.0
        },
        {
          "paramId": 13,
          "value": 0.0
        }
      ],
      "data": {
        "REALFREQUENCY": 0.291184843
      },
      "pos": [
        54,
        1
      ]
    },
    {
      "plugin": "AS",
      "version": "0.6.12",
      "model": "AtNuVrTr",
      "params": [
        {
          "paramId": 0,
          "value": 0.0570001453
        },
        {
          "paramId": 1,
          "value": 0.629999995
        },
        {
          "paramId": 2,
          "value": 0.249999985
        },
        {
          "paramId": 3,
          "value": 0.0
        }
      ],
      "pos": [
        61,
        1
      ]
    },
    {
      "plugin": "Befaco",
      "version": "0.6.0",
      "model": "Rampage",
      "params": [
        {
          "paramId": 0,
          "value": 1.0
        },
        {
          "paramId": 2,
          "value": 0.567999959
        },
        {
          "paramId": 4,
          "value": 0.0
        },
        {
          "paramId": 6,
          "value": 0.0
        },
        {
          "paramId": 8,
          "value": 0.0
        },
        {
          "paramId": 10,
          "value": 0.0
        },
        {
          "paramId": 1,
          "value": 1.0
        },
        {
          "paramId": 3,
          "value": 0.54399997
        },
        {
          "paramId": 5,
          "value": 0.0
        },
        {
          "paramId": 7,
          "value": 0.0
        },
        {
          "paramId": 9,
          "value": 0.0
        },
        {
          "paramId": 11,
          "value": 0.0
        },
        {
          "paramId": 12,
          "value": 0.5
        }
      ],
      "pos": [
        66,
        1
      ]
    },
    {
      "plugin": "VultModulesFree",
      "version": "0.6.21",
      "model": "Lateralus",
      "params": [
        {
          "paramId": 0,
          "value": 0.659000874
        },
        {
          "paramId": 1,
          "value": 0.355500072
        },
        {
          "paramId": 2,
          "value": 0.411000133
        },
        {
          "paramId": 3,
          "value": 0.0
        },
        {
          "paramId": 4,
          "value": 0.593999982
        },
        {
          "paramId": 5,
          "value": 0.0
        }
      ],
      "pos": [
        84,
        1
      ]
    },
    {
      "plugin": "CharredDesert",
      "version": "0.6.4",
      "model": "Pan",
      "params": [
        {
          "paramId": 0,
          "value": 2.49499941
        }
      ],
      "pos": [
        72,
        0
      ]
    },
    {
      "plugin": "CharredDesert",
      "version": "0.6.4",
      "model": "Pan",
      "params": [
        {
          "paramId": 0,
          "value": 2.49499941
        }
      ],
      "pos": [
        88,
        0
      ]
    },
    {
      "plugin": "AS",
      "version": "0.6.12",
      "model": "QuadVCA",
      "params": [
        {
          "paramId": 0,
          "value": 1.0
        },
        {
          "paramId": 1,
          "value": 0.5
        },
        {
          "paramId": 2,
          "value": 0.5
        },
        {
          "paramId": 3,
          "value": 1.0
        },
        {
          "paramId": 4,
          "value": 1.0
        },
        {
          "paramId": 5,
          "value": 1.0
        },
        {
          "paramId": 6,
          "value": 1.0
        },
        {
          "paramId": 7,
          "value": 1.0
        }
      ],
      "pos": [
        92,
        0
      ]
    },
    {
      "plugin": "Bogaudio",
      "version": "0.6.13",
      "model": "Bogaudio-Offset",
      "params": [
        {
          "paramId": 0,
          "value": 0.0
        },
        {
          "paramId": 1,
          "value": 0.316000015
        }
      ],
      "data": {
        "disableOutputLimit": false
      },
      "pos": [
        85,
        0
      ]
    },
    {
      "plugin": "VultModulesFree",
      "version": "0.6.21",
      "model": "Lateralus",
      "params": [
        {
          "paramId": 0,
          "value": 0.659000874
        },
        {
          "paramId": 1,
          "value": 0.355500072
        },
        {
          "paramId": 2,
          "value": 0.411000133
        },
        {
          "paramId": 3,
          "value": 0.0
        },
        {
          "paramId": 4,
          "value": 0.593999982
        },
        {
          "paramId": 5,
          "value": 0.0
        }
      ],
      "pos": [
        94,
        1
      ]
    },
    {
      "plugin": "Bogaudio",
      "version": "0.6.13",
      "model": "Bogaudio-Offset",
      "params": [
        {
          "paramId": 0,
          "value": 0.0
        },
        {
          "paramId": 1,
          "value": -0.304999977
        }
      ],
      "data": {
        "disableOutputLimit": false
      },
      "pos": [
        76,
        0
      ]
    },
    {
      "plugin": "Befaco",
      "version": "0.6.0",
      "model": "SlewLimiter",
      "params": [
        {
          "paramId": 0,
          "value": 0.0
        },
        {
          "paramId": 1,
          "value": 0.237000003
        },
        {
          "paramId": 2,
          "value": 0.237000003
        }
      ],
      "pos": [
        79,
        0
      ]
    },
    {
      "plugin": "Alikins",
      "version": "0.6.6",
      "model": "HoveredValue",
      "params": [
        {
          "paramId": 2,
          "value": 0.0
        },
        {
          "paramId": 1,
          "value": 1.0
        }
      ],
      "data": {
        "useTooltip": true
      },
      "pos": [
        115,
        1
      ]
    }
  ],
  "wires": [
    {
      "color": "#c9b70e",
      "outputModuleId": 6,
      "outputId": 1,
      "inputModuleId": 8,
      "inputId": 2
    },
    {
      "color": "#0986ad",
      "outputModuleId": 4,
      "outputId": 2,
      "inputModuleId": 6,
      "inputId": 5
    },
    {
      "color": "#c9b70e",
      "outputModuleId": 4,
      "outputId": 1,
      "inputModuleId": 6,
      "inputId": 4
    },
    {
      "color": "#c91847",
      "outputModuleId": 6,
      "outputId": 0,
      "inputModuleId": 6,
      "inputId": 3
    },
    {
      "color": "#0986ad",
      "outputModuleId": 1,
      "outputId": 7,
      "inputModuleId": 3,
      "inputId": 8
    },
    {
      "color": "#c91847",
      "outputModuleId": 3,
      "outputId": 0,
      "inputModuleId": 16,
      "inputId": 0
    },
    {
      "color": "#0c8e15",
      "outputModuleId": 3,
      "outputId": 1,
      "inputModuleId": 16,
      "inputId": 1
    },
    {
      "color": "#0c8e15",
      "outputModuleId": 8,
      "outputId": 0,
      "inputModuleId": 5,
      "inputId": 0
    },
    {
      "color": "#c9b70e",
      "outputModuleId": 4,
      "outputId": 1,
      "inputModuleId": 9,
      "inputId": 5
    },
    {
      "color": "#c91847",
      "outputModuleId": 9,
      "outputId": 1,
      "inputModuleId": 3,
      "inputId": 7
    },
    {
      "color": "#c91847",
      "outputModuleId": 14,
      "outputId": 8,
      "inputModuleId": 15,
      "inputId": 4
    },
    {
      "color": "#0c8e15",
      "outputModuleId": 9,
      "outputId": 0,
      "inputModuleId": 9,
      "inputId": 3
    },
    {
      "color": "#0986ad",
      "outputModuleId": 10,
      "outputId": 2,
      "inputModuleId": 9,
      "inputId": 4
    },
    {
      "color": "#c9b70e",
      "outputModuleId": 11,
      "outputId": 5,
      "inputModuleId": 11,
      "inputId": 3
    },
    {
      "color": "#c91847",
      "outputModuleId": 13,
      "outputId": 2,
      "inputModuleId": 12,
      "inputId": 5
    },
    {
      "color": "#0c8e15",
      "outputModuleId": 12,
      "outputId": 1,
      "inputModuleId": 3,
      "inputId": 4
    },
    {
      "color": "#c91847",
      "outputModuleId": 1,
      "outputId": 7,
      "inputModuleId": 14,
      "inputId": 4
    },
    {
      "color": "#c91847",
      "outputModuleId": 6,
      "outputId": 1,
      "inputModuleId": 7,
      "inputId": 0
    },
    {
      "color": "#0c8e15",
      "outputModuleId": 1,
      "outputId": 11,
      "inputModuleId": 10,
      "inputId": 2
    },
    {
      "color": "#c9b70e",
      "outputModuleId": 1,
      "outputId": 11,
      "inputModuleId": 14,
      "inputId": 6
    },
    {
      "color": "#c91847",
      "outputModuleId": 15,
      "outputId": 0,
      "inputModuleId": 3,
      "inputId": 5
    },
    {
      "color": "#0c8e15",
      "outputModuleId": 11,
      "outputId": 6,
      "inputModuleId": 12,
      "inputId": 4
    },
    {
      "color": "#0986ad",
      "outputModuleId": 7,
      "outputId": 3,
      "inputModuleId": 3,
      "inputId": 3
    },
    {
      "color": "#c91847",
      "outputModuleId": 12,
      "outputId": 0,
      "inputModuleId": 12,
      "inputId": 3
    },
    {
      "color": "#0c8e15",
      "outputModuleId": 16,
      "outputId": 6,
      "inputModuleId": 17,
      "inputId": 0
    },
    {
      "color": "#c9b70e",
      "outputModuleId": 1,
      "outputId": 7,
      "inputModuleId": 13,
      "inputId": 2
    },
    {
      "color": "#c91847",
      "outputModuleId": 17,
      "outputId": 0,
      "inputModuleId": 0,
      "inputId": 0
    },
    {
      "color": "#0c8e15",
      "outputModuleId": 1,
      "outputId": 7,
      "inputModuleId": 10,
      "inputId": 0
    },
    {
      "color": "#0986ad",
      "outputModuleId": 10,
      "outputId": 0,
      "inputModuleId": 13,
      "inputId": 0
    },
    {
      "color": "#c9b70e",
      "outputModuleId": 10,
      "outputId": 0,
      "inputModuleId": 5,
      "inputId": 3
    },
    {
      "color": "#c91847",
      "outputModuleId": 1,
      "outputId": 8,
      "inputModuleId": 11,
      "inputId": 4
    },
    {
      "color": "#c9b70e",
      "outputModuleId": 5,
      "outputId": 0,
      "inputModuleId": 18,
      "inputId": 0
    },
    {
      "color": "#0c8e15",
      "outputModuleId": 5,
      "outputId": 0,
      "inputModuleId": 19,
      "inputId": 0
    },
    {
      "color": "#c9b70e",
      "outputModuleId": 18,
      "outputId": 1,
      "inputModuleId": 20,
      "inputId": 1
    },
    {
      "color": "#c9b70e",
      "outputModuleId": 20,
      "outputId": 1,
      "inputModuleId": 3,
      "inputId": 0
    },
    {
      "color": "#c91847",
      "outputModuleId": 20,
      "outputId": 3,
      "inputModuleId": 3,
      "inputId": 1
    },
    {
      "color": "#0c8e15",
      "outputModuleId": 19,
      "outputId": 1,
      "inputModuleId": 20,
      "inputId": 7
    },
    {
      "color": "#c91847",
      "outputModuleId": 21,
      "outputId": 0,
      "inputModuleId": 19,
      "inputId": 1
    },
    {
      "color": "#0c8e15",
      "outputModuleId": 11,
      "outputId": 6,
      "inputModuleId": 24,
      "inputId": 2
    },
    {
      "color": "#0986ad",
      "outputModuleId": 16,
      "outputId": 7,
      "inputModuleId": 22,
      "inputId": 0
    },
    {
      "color": "#c9b70e",
      "outputModuleId": 22,
      "outputId": 0,
      "inputModuleId": 0,
      "inputId": 1
    },
    {
      "color": "#c91847",
      "outputModuleId": 21,
      "outputId": 0,
      "inputModuleId": 23,
      "inputId": 2
    },
    {
      "color": "#0c8e15",
      "outputModuleId": 23,
      "outputId": 0,
      "inputModuleId": 18,
      "inputId": 1
    },
    {
      "color": "#c91847",
      "outputModuleId": 21,
      "outputId": 0,
      "inputModuleId": 17,
      "inputId": 1
    },
    {
      "color": "#0c8e15",
      "outputModuleId": 23,
      "outputId": 0,
      "inputModuleId": 22,
      "inputId": 1
    },
    {
      "color": "#0986ad",
      "outputModuleId": 24,
      "outputId": 0,
      "inputModuleId": 21,
      "inputId": 2
    },
    {
      "color": "#c9b70e",
      "outputModuleId": 18,
      "outputId": 1,
      "inputModuleId": 20,
      "inputId": 3
    },
    {
      "color": "#c91847",
      "outputModuleId": 19,
      "outputId": 1,
      "inputModuleId": 20,
      "inputId": 5
    },
    {
      "color": "#0c8e15",
      "outputModuleId": 1,
      "outputId": 7,
      "inputModuleId": 7,
      "inputId": 2
    }
  ]
}