{
  "version": "1.1.6",
  "modules": [
    {
      "id": 1,
      "plugin": "Core",
      "version": "1.1.6",
      "model": "AudioInterface",
      "params": [],
      "leftModuleId": 120,
      "data": {
        "audio": {
          "driver": -12512,
          "deviceName": "1",
          "offset": 0,
          "maxChannels": 8,
          "sampleRate": 44100,
          "blockSize": 256
        }
      },
      "pos": [
        86,
        0
      ]
    },
    {
      "id": 5,
      "plugin": "Core",
      "version": "1.1.6",
      "model": "MIDIToCVInterface",
      "params": [],
      "leftModuleId": 119,
      "rightModuleId": 111,
      "data": {
        "channels": 1,
        "polyMode": 0,
        "clockDivision": 24,
        "lastPitch": 8192,
        "lastMod": 0,
        "midi": {
          "driver": -12512,
          "deviceName": "Port 1",
          "channel": -1
        }
      },
      "pos": [
        10,
        0
      ]
    },
    {
      "id": 110,
      "plugin": "CatroModulo",
      "version": "1.0.3",
      "model": "CatroModulo_CM-4",
      "params": [
        {
          "id": 0,
          "value": 1.75500143
        },
        {
          "id": 1,
          "value": 0.0
        },
        {
          "id": 2,
          "value": 1.0
        }
      ],
      "leftModuleId": 111,
      "rightModuleId": 112,
      "pos": [
        21,
        0
      ]
    },
    {
      "id": 111,
      "plugin": "CatroModulo",
      "version": "1.0.3",
      "model": "CatroModulo_CM-7",
      "params": [
        {
          "id": 0,
          "value": 0.0
        }
      ],
      "leftModuleId": 5,
      "rightModuleId": 110,
      "pos": [
        18,
        0
      ]
    },
    {
      "id": 112,
      "plugin": "CatroModulo",
      "version": "1.0.3",
      "model": "CatroModulo_CM-5",
      "params": [
        {
          "id": 0,
          "value": 0.0
        }
      ],
      "leftModuleId": 110,
      "pos": [
        26,
        0
      ]
    },
    {
      "id": 119,
      "plugin": "Core",
      "version": "1.1.6",
      "model": "MIDICCToCVInterface",
      "params": [],
      "rightModuleId": 5,
      "data": {
        "ccs": [
          0,
          1,
          2,
          3,
          4,
          5,
          6,
          7,
          8,
          9,
          10,
          11,
          12,
          13,
          14,
          15
        ],
        "values": [
          0,
          0,
          0,
          0,
          0,
          0,
          0,
          0,
          0,
          0,
          0,
          0,
          0,
          0,
          0,
          0,
          0,
          0,
          0,
          0,
          0,
          0,
          0,
          0,
          0,
          0,
          0,
          0,
          0,
          0,
          0,
          0,
          0,
          0,
          0,
          0,
          0,
          0,
          0,
          0,
          0,
          0,
          0,
          0,
          0,
          0,
          0,
          0,
          0,
          0,
          0,
          0,
          0,
          0,
          0,
          0,
          0,
          0,
          0,
          0,
          0,
          0,
          0,
          0,
          0,
          0,
          0,
          0,
          0,
          0,
          0,
          0,
          0,
          0,
          0,
          0,
          0,
          0,
          0,
          0,
          0,
          0,
          0,
          0,
          0,
          0,
          0,
          0,
          0,
          0,
          0,
          0,
          0,
          0,
          0,
          0,
          0,
          0,
          0,
          0,
          0,
          0,
          0,
          0,
          0,
          0,
          0,
          0,
          0,
          0,
          0,
          0,
          0,
          0,
          0,
          0,
          0,
          0,
          0,
          0,
          0,
          0,
          0,
          0,
          0,
          0,
          0,
          0
        ],
        "midi": {
          "driver": -12512,
          "deviceName": "Port 1",
          "channel": -1
        }
      },
      "pos": [
        0,
        0
      ]
    },
    {
      "id": 120,
      "plugin": "AS",
      "version": "1.0.4",
      "model": "Mixer4ch",
      "params": [
        {
          "id": 0,
          "value": 0.800000012
        },
        {
          "id": 1,
          "value": 0.800000012
        },
        {
          "id": 2,
          "value": 0.800000012
        },
        {
          "id": 3,
          "value": 0.800000012
        },
        {
          "id": 4,
          "value": 0.800000012
        },
        {
          "id": 5,
          "value": 0.0
        },
        {
          "id": 6,
          "value": 0.0
        },
        {
          "id": 7,
          "value": 0.0
        },
        {
          "id": 8,
          "value": 0.0
        },
        {
          "id": 9,
          "value": 0.0
        },
        {
          "id": 10,
          "value": 0.0
        },
        {
          "id": 11,
          "value": 0.0
        },
        {
          "id": 12,
          "value": 0.0
        },
        {
          "id": 13,
          "value": 0.0
        }
      ],
      "rightModuleId": 1,
      "data": {
        "as_Mixer4Mutes": [
          0,
          0,
          0,
          0,
          0
        ]
      },
      "pos": [
        70,
        0
      ]
    }
  ],
  "cables": [
    {
      "id": 6,
      "outputModuleId": 110,
      "outputId": 3,
      "inputModuleId": 112,
      "inputId": 0,
      "color": "#c91847"
    },
    {
      "id": 5,
      "outputModuleId": 110,
      "outputId": 2,
      "inputModuleId": 111,
      "inputId": 0,
      "color": "#0c8e15"
    },
    {
      "id": 7,
      "outputModuleId": 110,
      "outputId": 7,
      "inputModuleId": 112,
      "inputId": 2,
      "color": "#0986ad"
    },
    {
      "id": 8,
      "outputModuleId": 110,
      "outputId": 7,
      "inputModuleId": 111,
      "inputId": 2,
      "color": "#c9b70e"
    },
    {
      "id": 281,
      "outputModuleId": 120,
      "outputId": 0,
      "inputModuleId": 1,
      "inputId": 0,
      "color": "#0986ad"
    },
    {
      "id": 282,
      "outputModuleId": 120,
      "outputId": 1,
      "inputModuleId": 1,
      "inputId": 1,
      "color": "#c9b70e"
    },
    {
      "id": 283,
      "outputModuleId": 5,
      "outputId": 11,
      "inputModuleId": 110,
      "inputId": 2,
      "color": "#0c8e15"
    }
  ]
}