{
  "version": "0.6.2b",
  "modules": [
    {
      "plugin": "Core",
      "version": "0.6.2b",
      "model": "AudioInterface",
      "params": [],
      "data": {
        "audio": {
          "driver": -12512,
          "deviceName": "16",
          "offset": 0,
          "maxChannels": 8,
          "sampleRate": 44100,
          "blockSize": 256
        }
      },
      "pos": [
        70,
        1
      ]
    },
    {
      "plugin": "Core",
      "version": "0.6.2b",
      "model": "MIDIToCVInterface",
      "params": [],
      "data": {
        "divisions": [
          24,
          6
        ],
        "midi": {
          "driver": -12512,
          "deviceName": "Port 16",
          "channel": -1
        }
      },
      "pos": [
        28,
        1
      ]
    },
    {
      "plugin": "Bogaudio",
      "version": "0.6.10",
      "model": "Bogaudio-DADSRHPlus",
      "params": [
        {
          "paramId": 0,
          "value": 0.0
        },
        {
          "paramId": 1,
          "value": 0.0314999968
        },
        {
          "paramId": 2,
          "value": 0.137999982
        },
        {
          "paramId": 3,
          "value": 0.956499934
        },
        {
          "paramId": 4,
          "value": 0.0824998543
        },
        {
          "paramId": 5,
          "value": 0.0
        },
        {
          "paramId": 6,
          "value": 1.0
        },
        {
          "paramId": 7,
          "value": 2.0
        },
        {
          "paramId": 8,
          "value": 2.0
        },
        {
          "paramId": 9,
          "value": 0.0
        },
        {
          "paramId": 10,
          "value": 1.0
        },
        {
          "paramId": 11,
          "value": 1.0
        },
        {
          "paramId": 12,
          "value": 1.0
        },
        {
          "paramId": 13,
          "value": 1.0
        }
      ],
      "data": {
        "triggerOnLoad": true,
        "shouldTriggerOnLoad": false
      },
      "pos": [
        41,
        0
      ]
    },
    {
      "plugin": "Befaco",
      "version": "0.6.0",
      "model": "SlewLimiter",
      "params": [
        {
          "paramId": 0,
          "value": 0.938499987
        },
        {
          "paramId": 1,
          "value": 0.0479999967
        },
        {
          "paramId": 2,
          "value": 0.0780001283
        }
      ],
      "pos": [
        56,
        0
      ]
    },
    {
      "plugin": "AS",
      "version": "0.6.12",
      "model": "QuadVCA",
      "params": [
        {
          "paramId": 0,
          "value": 0.702999771
        },
        {
          "paramId": 1,
          "value": 0.690000594
        },
        {
          "paramId": 2,
          "value": 0.5
        },
        {
          "paramId": 3,
          "value": 0.5
        },
        {
          "paramId": 4,
          "value": 1.0
        },
        {
          "paramId": 5,
          "value": 0.0
        },
        {
          "paramId": 6,
          "value": 0.0
        },
        {
          "paramId": 7,
          "value": 1.0
        }
      ],
      "pos": [
        72,
        0
      ]
    },
    {
      "plugin": "Bogaudio",
      "version": "0.6.10",
      "model": "Bogaudio-Stack",
      "params": [
        {
          "paramId": 0,
          "value": 0.0
        },
        {
          "paramId": 1,
          "value": 1.0
        },
        {
          "paramId": 2,
          "value": 0.0
        },
        {
          "paramId": 3,
          "value": 1.0
        }
      ],
      "pos": [
        36,
        1
      ]
    },
    {
      "plugin": "Befaco",
      "version": "0.6.0",
      "model": "SlewLimiter",
      "params": [
        {
          "paramId": 0,
          "value": 0.818499863
        },
        {
          "paramId": 1,
          "value": 0.0330000035
        },
        {
          "paramId": 2,
          "value": 0.0420001037
        }
      ],
      "pos": [
        64,
        1
      ]
    },
    {
      "plugin": "Fundamental",
      "version": "0.6.2",
      "model": "VCO",
      "params": [
        {
          "paramId": 0,
          "value": 0.0
        },
        {
          "paramId": 1,
          "value": 0.0
        },
        {
          "paramId": 2,
          "value": 0.0
        },
        {
          "paramId": 3,
          "value": 0.0
        },
        {
          "paramId": 5,
          "value": 0.5
        },
        {
          "paramId": 4,
          "value": 0.0
        },
        {
          "paramId": 6,
          "value": 0.0
        }
      ],
      "pos": [
        39,
        1
      ]
    },
    {
      "plugin": "Bogaudio",
      "version": "0.6.10",
      "model": "Bogaudio-DADSRHPlus",
      "params": [
        {
          "paramId": 0,
          "value": 0.0
        },
        {
          "paramId": 1,
          "value": 0.0
        },
        {
          "paramId": 2,
          "value": 0.152999908
        },
        {
          "paramId": 3,
          "value": 0.566500127
        },
        {
          "paramId": 4,
          "value": 0.0614999197
        },
        {
          "paramId": 5,
          "value": 0.0
        },
        {
          "paramId": 6,
          "value": 1.0
        },
        {
          "paramId": 7,
          "value": 1.0
        },
        {
          "paramId": 8,
          "value": 1.0
        },
        {
          "paramId": 9,
          "value": 0.0
        },
        {
          "paramId": 10,
          "value": 1.0
        },
        {
          "paramId": 11,
          "value": 1.0
        },
        {
          "paramId": 12,
          "value": 1.0
        },
        {
          "paramId": 13,
          "value": 1.0
        }
      ],
      "data": {
        "triggerOnLoad": true,
        "shouldTriggerOnLoad": false
      },
      "pos": [
        49,
        1
      ]
    },
    {
      "plugin": "VultModulesFree",
      "version": "0.6.17",
      "model": "Lateralus",
      "params": [
        {
          "paramId": 0,
          "value": 0.500500858
        },
        {
          "paramId": 1,
          "value": 0.0
        },
        {
          "paramId": 2,
          "value": 0.0
        },
        {
          "paramId": 3,
          "value": 0.0
        },
        {
          "paramId": 4,
          "value": 1.1849997
        },
        {
          "paramId": 5,
          "value": 0.0
        }
      ],
      "pos": [
        62,
        0
      ]
    },
    {
      "plugin": "Fundamental",
      "version": "0.6.2",
      "model": "VCO",
      "params": [
        {
          "paramId": 0,
          "value": 0.0
        },
        {
          "paramId": 1,
          "value": 0.0
        },
        {
          "paramId": 2,
          "value": 0.0
        },
        {
          "paramId": 3,
          "value": 0.0
        },
        {
          "paramId": 5,
          "value": 0.5
        },
        {
          "paramId": 4,
          "value": 0.0
        },
        {
          "paramId": 6,
          "value": 0.0
        }
      ],
      "pos": [
        31,
        0
      ]
    },
    {
      "plugin": "Bogaudio",
      "version": "0.6.10",
      "model": "Bogaudio-Stack",
      "params": [
        {
          "paramId": 0,
          "value": 0.0
        },
        {
          "paramId": 1,
          "value": 1.0
        },
        {
          "paramId": 2,
          "value": 0.0
        },
        {
          "paramId": 3,
          "value": 1.0
        }
      ],
      "pos": [
        28,
        0
      ]
    }
  ],
  "wires": [
    {
      "color": "#c91847",
      "outputModuleId": 1,
      "outputId": 0,
      "inputModuleId": 11,
      "inputId": 1
    },
    {
      "color": "#0c8e15",
      "outputModuleId": 2,
      "outputId": 5,
      "inputModuleId": 3,
      "inputId": 2
    },
    {
      "color": "#c91847",
      "outputModuleId": 3,
      "outputId": 0,
      "inputModuleId": 4,
      "inputId": 0
    },
    {
      "color": "#c91847",
      "outputModuleId": 10,
      "outputId": 1,
      "inputModuleId": 4,
      "inputId": 1
    },
    {
      "color": "#c91847",
      "outputModuleId": 4,
      "outputId": 3,
      "inputModuleId": 0,
      "inputId": 0
    },
    {
      "color": "#0c8e15",
      "outputModuleId": 4,
      "outputId": 3,
      "inputModuleId": 0,
      "inputId": 1
    },
    {
      "color": "#c9b70e",
      "outputModuleId": 1,
      "outputId": 0,
      "inputModuleId": 5,
      "inputId": 1
    },
    {
      "color": "#c91847",
      "outputModuleId": 6,
      "outputId": 0,
      "inputModuleId": 4,
      "inputId": 2
    },
    {
      "color": "#c9b70e",
      "outputModuleId": 1,
      "outputId": 1,
      "inputModuleId": 2,
      "inputId": 6
    },
    {
      "color": "#0c8e15",
      "outputModuleId": 5,
      "outputId": 1,
      "inputModuleId": 7,
      "inputId": 0
    },
    {
      "color": "#0986ad",
      "outputModuleId": 7,
      "outputId": 2,
      "inputModuleId": 9,
      "inputId": 0
    },
    {
      "color": "#c91847",
      "outputModuleId": 1,
      "outputId": 1,
      "inputModuleId": 8,
      "inputId": 6
    },
    {
      "color": "#0c8e15",
      "outputModuleId": 8,
      "outputId": 5,
      "inputModuleId": 6,
      "inputId": 2
    },
    {
      "color": "#0986ad",
      "outputModuleId": 9,
      "outputId": 1,
      "inputModuleId": 4,
      "inputId": 3
    },
    {
      "color": "#c9b70e",
      "outputModuleId": 11,
      "outputId": 1,
      "inputModuleId": 10,
      "inputId": 0
    },
    {
      "color": "#c91847",
      "outputModuleId": 1,
      "outputId": 1,
      "inputModuleId": 10,
      "inputId": 2
    },
    {
      "color": "#0c8e15",
      "outputModuleId": 1,
      "outputId": 1,
      "inputModuleId": 7,
      "inputId": 2
    }
  ]
}