{
  "version": "0.6.2c",
  "modules": [
    {
      "plugin": "Core",
      "version": "0.6.2c",
      "model": "AudioInterface",
      "params": [],
      "data": {
        "audio": {
          "driver": -12512,
          "deviceName": "1",
          "offset": 0,
          "maxChannels": 8,
          "sampleRate": 44100,
          "blockSize": 512
        }
      },
      "pos": [
        126,
        1
      ]
    },
    {
      "plugin": "Core",
      "version": "0.6.2c",
      "model": "MIDIToCVInterface",
      "params": [],
      "data": {
        "divisions": [
          24,
          6
        ],
        "midi": {
          "driver": -12512,
          "deviceName": "Port 1",
          "channel": -1
        }
      },
      "pos": [
        1,
        0
      ]
    },
    {
      "plugin": "NYSTHI",
      "version": "0.6.39",
      "model": "SevenSeas",
      "params": [
        {
          "paramId": 19,
          "value": 0.0
        },
        {
          "paramId": 18,
          "value": 0.0
        },
        {
          "paramId": 3,
          "value": 0.0
        },
        {
          "paramId": 2,
          "value": 0.0
        },
        {
          "paramId": 1,
          "value": 0.0
        },
        {
          "paramId": 11,
          "value": 0.0
        },
        {
          "paramId": 12,
          "value": 0.00100000005
        },
        {
          "paramId": 13,
          "value": 0.00100000005
        },
        {
          "paramId": 14,
          "value": 0.00100000005
        },
        {
          "paramId": 15,
          "value": 0.00100000005
        },
        {
          "paramId": 6,
          "value": 0.0
        },
        {
          "paramId": 10,
          "value": 0.0346500017
        },
        {
          "paramId": 8,
          "value": 0.0
        },
        {
          "paramId": 17,
          "value": 0.0
        },
        {
          "paramId": 16,
          "value": 0.0
        },
        {
          "paramId": 4,
          "value": 1.0
        }
      ],
      "data": {
        "m_decimate_mode": 0,
        "m_current_octave": 0,
        "m_bank": 6.72321415,
        "m_wave": 35.0412025,
        "m_pw": 0.686813235,
        "m_swarming": false,
        "m_morphing": true,
        "m_dc_block": false,
        "m_multithreaded": true,
        "m_multithreaded_processing_block": 256,
        "m_bank_navigator_scale": 4.0,
        "m_global_original_file_name": "C:\\Users\\catronomix\\Documents\\Rack\\20181115_011339_ISgfWI_MR_2Px6I2IO.wav",
        "m_original_file_name_array": [
          "",
          "",
          "",
          "",
          "",
          "",
          "",
          "",
          "",
          "",
          "",
          "",
          "",
          "",
          "",
          "",
          "C:\\Users\\catronomix\\Documents\\Rack\\20190104_173503_JJWhvy_MR_k02rISgf.wav",
          "",
          "",
          "",
          "",
          "",
          "",
          "",
          "",
          "",
          "",
          "",
          "",
          "",
          "",
          "",
          "",
          "",
          "",
          "",
          "",
          "",
          "",
          "",
          "",
          "",
          "",
          "",
          "",
          "",
          "",
          "",
          "",
          "",
          "",
          "",
          "",
          "",
          "",
          "",
          "",
          "",
          "",
          "",
          "",
          "",
          "",
          ""
        ]
      },
      "pos": [
        67,
        0
      ]
    },
    {
      "plugin": "AS",
      "version": "0.6.13",
      "model": "VCA",
      "params": [
        {
          "paramId": 0,
          "value": 0.5
        },
        {
          "paramId": 1,
          "value": 0.5
        },
        {
          "paramId": 2,
          "value": 1.0
        },
        {
          "paramId": 3,
          "value": 1.0
        }
      ],
      "pos": [
        95,
        0
      ]
    },
    {
      "plugin": "AudibleInstruments",
      "version": "0.6.3",
      "model": "Shades",
      "params": [
        {
          "paramId": 0,
          "value": 0.0270000007
        },
        {
          "paramId": 1,
          "value": 0.99849999
        },
        {
          "paramId": 2,
          "value": 0.996999979
        },
        {
          "paramId": 3,
          "value": 0.0
        },
        {
          "paramId": 4,
          "value": 0.0
        },
        {
          "paramId": 5,
          "value": 0.0
        }
      ],
      "pos": [
        34,
        0
      ]
    },
    {
      "plugin": "Befaco",
      "version": "0.6.0",
      "model": "SlewLimiter",
      "params": [
        {
          "paramId": 0,
          "value": 0.996999979
        },
        {
          "paramId": 1,
          "value": 0.0
        },
        {
          "paramId": 2,
          "value": 0.0630000234
        }
      ],
      "pos": [
        89,
        0
      ]
    },
    {
      "plugin": "AS",
      "version": "0.6.13",
      "model": "BPMClock",
      "params": [
        {
          "paramId": 0,
          "value": 174.810013
        },
        {
          "paramId": 1,
          "value": 1.0
        },
        {
          "paramId": 2,
          "value": 4.0
        },
        {
          "paramId": 3,
          "value": 1.0
        },
        {
          "paramId": 5,
          "value": 0.0
        },
        {
          "paramId": 4,
          "value": 0.0
        }
      ],
      "data": {
        "run": [
          1
        ]
      },
      "pos": [
        41,
        0
      ]
    },
    {
      "plugin": "FrozenWasteland",
      "version": "0.6.7",
      "model": "BPMLFO",
      "params": [
        {
          "paramId": 0,
          "value": 2.42649746
        },
        {
          "paramId": 4,
          "value": 0.0
        },
        {
          "paramId": 1,
          "value": 1.0
        },
        {
          "paramId": 2,
          "value": 1.0
        },
        {
          "paramId": 3,
          "value": 1.0
        }
      ],
      "pos": [
        41,
        1
      ]
    },
    {
      "plugin": "AS",
      "version": "0.6.13",
      "model": "AtNuVrTr",
      "params": [
        {
          "paramId": 0,
          "value": 0.131999969
        },
        {
          "paramId": 1,
          "value": 0.0
        },
        {
          "paramId": 2,
          "value": 0.309999824
        },
        {
          "paramId": 3,
          "value": -5.34999657
        }
      ],
      "pos": [
        53,
        0
      ]
    },
    {
      "plugin": "Core",
      "version": "0.6.2c",
      "model": "QuadMIDIToCVInterface",
      "params": [],
      "data": {
        "midi": {
          "driver": -12512,
          "deviceName": "Port 1",
          "channel": -1
        },
        "polyMode": 2
      },
      "pos": [
        0,
        1
      ]
    },
    {
      "plugin": "NYSTHI",
      "version": "0.6.39",
      "model": "SevenSeas",
      "params": [
        {
          "paramId": 19,
          "value": 0.0
        },
        {
          "paramId": 18,
          "value": 0.0
        },
        {
          "paramId": 3,
          "value": 0.0
        },
        {
          "paramId": 2,
          "value": 0.0
        },
        {
          "paramId": 1,
          "value": 0.0
        },
        {
          "paramId": 11,
          "value": 0.0
        },
        {
          "paramId": 12,
          "value": 0.00100000005
        },
        {
          "paramId": 13,
          "value": 0.00100000005
        },
        {
          "paramId": 14,
          "value": 0.00100000005
        },
        {
          "paramId": 15,
          "value": 0.00100000005
        },
        {
          "paramId": 6,
          "value": 0.0
        },
        {
          "paramId": 10,
          "value": 0.0346500017
        },
        {
          "paramId": 8,
          "value": 0.0
        },
        {
          "paramId": 17,
          "value": 0.0
        },
        {
          "paramId": 16,
          "value": 0.0
        },
        {
          "paramId": 4,
          "value": 1.0
        }
      ],
      "data": {
        "m_decimate_mode": 0,
        "m_current_octave": 0,
        "m_bank": 6.72321415,
        "m_wave": 35.0412025,
        "m_pw": 0.686813235,
        "m_swarming": false,
        "m_morphing": true,
        "m_dc_block": false,
        "m_multithreaded": true,
        "m_multithreaded_processing_block": 256,
        "m_bank_navigator_scale": 4.0,
        "m_global_original_file_name": "C:\\Users\\catronomix\\Documents\\Rack\\20181115_011339_ISgfWI_MR_2Px6I2IO.wav",
        "m_original_file_name_array": [
          "",
          "",
          "",
          "",
          "",
          "",
          "",
          "",
          "",
          "",
          "",
          "",
          "",
          "",
          "",
          "",
          "C:\\Users\\catronomix\\Documents\\Rack\\20190104_173503_JJWhvy_MR_k02rISgf.wav",
          "",
          "",
          "",
          "",
          "",
          "",
          "",
          "",
          "",
          "",
          "",
          "",
          "",
          "",
          "",
          "",
          "",
          "",
          "",
          "",
          "",
          "",
          "",
          "",
          "",
          "",
          "",
          "",
          "",
          "",
          "",
          "",
          "",
          "",
          "",
          "",
          "",
          "",
          "",
          "",
          "",
          "",
          "",
          "",
          "",
          "",
          ""
        ]
      },
      "pos": [
        67,
        1
      ]
    },
    {
      "plugin": "AS",
      "version": "0.6.13",
      "model": "AtNuVrTr",
      "params": [
        {
          "paramId": 0,
          "value": 0.131999969
        },
        {
          "paramId": 1,
          "value": 0.0
        },
        {
          "paramId": 2,
          "value": 0.246999919
        },
        {
          "paramId": 3,
          "value": -0.159998953
        }
      ],
      "pos": [
        53,
        1
      ]
    },
    {
      "plugin": "AudibleInstruments",
      "version": "0.6.3",
      "model": "Shades",
      "params": [
        {
          "paramId": 0,
          "value": 0.0270000007
        },
        {
          "paramId": 1,
          "value": 0.99849999
        },
        {
          "paramId": 2,
          "value": 0.996999979
        },
        {
          "paramId": 3,
          "value": 0.0
        },
        {
          "paramId": 4,
          "value": 0.0
        },
        {
          "paramId": 5,
          "value": 0.0
        }
      ],
      "pos": [
        34,
        1
      ]
    },
    {
      "plugin": "Befaco",
      "version": "0.6.0",
      "model": "SlewLimiter",
      "params": [
        {
          "paramId": 0,
          "value": 0.996999979
        },
        {
          "paramId": 1,
          "value": 0.0
        },
        {
          "paramId": 2,
          "value": 0.164999768
        }
      ],
      "pos": [
        89,
        1
      ]
    },
    {
      "plugin": "AS",
      "version": "0.6.13",
      "model": "VCA",
      "params": [
        {
          "paramId": 0,
          "value": 0.5
        },
        {
          "paramId": 1,
          "value": 0.5
        },
        {
          "paramId": 2,
          "value": 1.0
        },
        {
          "paramId": 3,
          "value": 1.0
        }
      ],
      "pos": [
        95,
        1
      ]
    },
    {
      "plugin": "AS",
      "version": "0.6.13",
      "model": "ReverbStereoFx",
      "params": [
        {
          "paramId": 0,
          "value": 0.65169996
        },
        {
          "paramId": 1,
          "value": 0.996999979
        },
        {
          "paramId": 2,
          "value": 0.464999944
        },
        {
          "paramId": 3,
          "value": 0.0
        }
      ],
      "data": {
        "as_FxBypass": [
          false
        ]
      },
      "pos": [
        101,
        0
      ]
    },
    {
      "plugin": "AS",
      "version": "0.6.13",
      "model": "ReverbStereoFx",
      "params": [
        {
          "paramId": 0,
          "value": 0.65169996
        },
        {
          "paramId": 1,
          "value": 0.996999979
        },
        {
          "paramId": 2,
          "value": 0.464999944
        },
        {
          "paramId": 3,
          "value": 0.0
        }
      ],
      "data": {
        "as_FxBypass": [
          false
        ]
      },
      "pos": [
        101,
        1
      ]
    },
    {
      "plugin": "AS",
      "version": "0.6.13",
      "model": "Mixer8ch",
      "params": [
        {
          "paramId": 9,
          "value": -1.0
        },
        {
          "paramId": 10,
          "value": 0.990999997
        },
        {
          "paramId": 11,
          "value": -1.0
        },
        {
          "paramId": 12,
          "value": 0.981999993
        },
        {
          "paramId": 13,
          "value": 0.0
        },
        {
          "paramId": 14,
          "value": 0.0
        },
        {
          "paramId": 15,
          "value": 0.0
        },
        {
          "paramId": 16,
          "value": 0.0
        },
        {
          "paramId": 1,
          "value": 0.800000012
        },
        {
          "paramId": 2,
          "value": 0.800000012
        },
        {
          "paramId": 3,
          "value": 0.800000012
        },
        {
          "paramId": 4,
          "value": 0.800000012
        },
        {
          "paramId": 5,
          "value": 0.800000012
        },
        {
          "paramId": 6,
          "value": 0.800000012
        },
        {
          "paramId": 7,
          "value": 0.800000012
        },
        {
          "paramId": 8,
          "value": 0.800000012
        },
        {
          "paramId": 17,
          "value": 0.0
        },
        {
          "paramId": 18,
          "value": 0.0
        },
        {
          "paramId": 19,
          "value": 0.0
        },
        {
          "paramId": 20,
          "value": 0.0
        },
        {
          "paramId": 21,
          "value": 0.0
        },
        {
          "paramId": 22,
          "value": 0.0
        },
        {
          "paramId": 23,
          "value": 0.0
        },
        {
          "paramId": 24,
          "value": 0.0
        },
        {
          "paramId": 0,
          "value": 0.800000012
        },
        {
          "paramId": 25,
          "value": 0.0
        }
      ],
      "data": {
        "as_MixerMutes": [
          0,
          0,
          0,
          0,
          0,
          0,
          0,
          0,
          0
        ]
      },
      "pos": [
        110,
        0
      ]
    },
    {
      "plugin": "Bogaudio",
      "version": "0.6.13",
      "model": "Bogaudio-UMix",
      "params": [
        {
          "paramId": 0,
          "value": 1.0
        }
      ],
      "data": {
        "sum": true
      },
      "pos": [
        10,
        0
      ]
    },
    {
      "plugin": "Bogaudio",
      "version": "0.6.13",
      "model": "Bogaudio-UMix",
      "params": [
        {
          "paramId": 0,
          "value": 1.0
        }
      ],
      "data": {
        "sum": true
      },
      "pos": [
        10,
        1
      ]
    },
    {
      "plugin": "Fundamental",
      "version": "0.6.2",
      "model": "VCA-1",
      "params": [
        {
          "paramId": 0,
          "value": 1.0
        },
        {
          "paramId": 1,
          "value": 1.0
        }
      ],
      "pos": [
        28,
        0
      ]
    },
    {
      "plugin": "Fundamental",
      "version": "0.6.2",
      "model": "VCA-1",
      "params": [
        {
          "paramId": 0,
          "value": 1.0
        },
        {
          "paramId": 1,
          "value": 1.0
        }
      ],
      "pos": [
        28,
        1
      ]
    },
    {
      "plugin": "Fundamental",
      "version": "0.6.2",
      "model": "VCA-1",
      "params": [
        {
          "paramId": 0,
          "value": 1.0
        },
        {
          "paramId": 1,
          "value": 1.0
        }
      ],
      "pos": [
        31,
        1
      ]
    },
    {
      "plugin": "Fundamental",
      "version": "0.6.2",
      "model": "VCA-1",
      "params": [
        {
          "paramId": 0,
          "value": 1.0
        },
        {
          "paramId": 1,
          "value": 1.0
        }
      ],
      "pos": [
        31,
        0
      ]
    },
    {
      "plugin": "Qwelk",
      "version": "0.6.0",
      "model": "Gate",
      "params": [
        {
          "paramId": 0,
          "value": 1.0
        },
        {
          "paramId": 2,
          "value": 0.0
        },
        {
          "paramId": 4,
          "value": 1.0
        },
        {
          "paramId": 1,
          "value": 1.0
        },
        {
          "paramId": 3,
          "value": 0.0
        },
        {
          "paramId": 5,
          "value": 1.0
        }
      ],
      "pos": [
        13,
        0
      ]
    },
    {
      "plugin": "AS",
      "version": "0.6.13",
      "model": "AtNuVrTr",
      "params": [
        {
          "paramId": 0,
          "value": -0.988000035
        },
        {
          "paramId": 1,
          "value": 9.94000053
        },
        {
          "paramId": 2,
          "value": 0.0
        },
        {
          "paramId": 3,
          "value": 0.0
        }
      ],
      "pos": [
        23,
        0
      ]
    },
    {
      "plugin": "AS",
      "version": "0.6.13",
      "model": "AtNuVrTr",
      "params": [
        {
          "paramId": 0,
          "value": -1.0
        },
        {
          "paramId": 1,
          "value": 9.94000053
        },
        {
          "paramId": 2,
          "value": 0.0
        },
        {
          "paramId": 3,
          "value": 0.0
        }
      ],
      "pos": [
        23,
        1
      ]
    },
    {
      "plugin": "Bogaudio",
      "version": "0.6.13",
      "model": "Bogaudio-Slew",
      "params": [
        {
          "paramId": 0,
          "value": 0.552000403
        },
        {
          "paramId": 1,
          "value": 0.290999949
        },
        {
          "paramId": 2,
          "value": 0.551999569
        },
        {
          "paramId": 3,
          "value": 0.335999966
        }
      ],
      "pos": [
        64,
        0
      ]
    },
    {
      "plugin": "Bogaudio",
      "version": "0.6.13",
      "model": "Bogaudio-Slew",
      "params": [
        {
          "paramId": 0,
          "value": 0.552000403
        },
        {
          "paramId": 1,
          "value": 0.290999949
        },
        {
          "paramId": 2,
          "value": 0.551999569
        },
        {
          "paramId": 3,
          "value": 0.335999966
        }
      ],
      "pos": [
        64,
        1
      ]
    },
    {
      "plugin": "VultModulesFree",
      "version": "0.6.24",
      "model": "Tohe",
      "params": [
        {
          "paramId": 0,
          "value": -0.327999473
        },
        {
          "paramId": 1,
          "value": 0.18099989
        },
        {
          "paramId": 2,
          "value": 2.0
        }
      ],
      "pos": [
        85,
        0
      ]
    },
    {
      "plugin": "VultModulesFree",
      "version": "0.6.24",
      "model": "Tohe",
      "params": [
        {
          "paramId": 0,
          "value": -0.327999473
        },
        {
          "paramId": 1,
          "value": 0.18099989
        },
        {
          "paramId": 2,
          "value": 2.0
        }
      ],
      "pos": [
        85,
        1
      ]
    },
    {
      "plugin": "Bogaudio",
      "version": "0.6.13",
      "model": "Bogaudio-ADSR",
      "params": [
        {
          "paramId": 0,
          "value": 0.031499967
        },
        {
          "paramId": 1,
          "value": 0.0897300392
        },
        {
          "paramId": 2,
          "value": 0.0
        },
        {
          "paramId": 3,
          "value": 0.0
        },
        {
          "paramId": 4,
          "value": 0.0
        }
      ],
      "pos": [
        17,
        1
      ]
    },
    {
      "plugin": "Bogaudio",
      "version": "0.6.13",
      "model": "Bogaudio-ADSR",
      "params": [
        {
          "paramId": 0,
          "value": 0.031499967
        },
        {
          "paramId": 1,
          "value": 0.0897300392
        },
        {
          "paramId": 2,
          "value": 0.0
        },
        {
          "paramId": 3,
          "value": 0.0
        },
        {
          "paramId": 4,
          "value": 0.0
        }
      ],
      "pos": [
        17,
        0
      ]
    },
    {
      "plugin": "NYSTHI",
      "version": "0.6.39",
      "model": "StereoChorus2",
      "params": [
        {
          "paramId": 5,
          "value": 0.0
        },
        {
          "paramId": 0,
          "value": 0.420360059
        },
        {
          "paramId": 1,
          "value": 0.274000019
        },
        {
          "paramId": 2,
          "value": -0.380000234
        },
        {
          "paramId": 3,
          "value": 0.738500178
        },
        {
          "paramId": 8,
          "value": 0.253499925
        },
        {
          "paramId": 4,
          "value": 0.254499942
        },
        {
          "paramId": 6,
          "value": 2.72500014
        },
        {
          "paramId": 7,
          "value": 0.0
        }
      ],
      "pos": [
        112,
        1
      ]
    },
    {
      "plugin": "Bogaudio",
      "version": "0.6.13",
      "model": "Bogaudio-UMix",
      "params": [
        {
          "paramId": 0,
          "value": 1.0
        }
      ],
      "data": {
        "sum": true
      },
      "pos": [
        47,
        0
      ]
    },
    {
      "plugin": "Befaco",
      "version": "0.6.0",
      "model": "SlewLimiter",
      "params": [
        {
          "paramId": 0,
          "value": 0.0
        },
        {
          "paramId": 1,
          "value": 0.624000072
        },
        {
          "paramId": 2,
          "value": 0.61500001
        }
      ],
      "pos": [
        58,
        0
      ]
    },
    {
      "plugin": "Befaco",
      "version": "0.6.0",
      "model": "SlewLimiter",
      "params": [
        {
          "paramId": 0,
          "value": 0.0
        },
        {
          "paramId": 1,
          "value": 0.624000072
        },
        {
          "paramId": 2,
          "value": 0.61500001
        }
      ],
      "pos": [
        58,
        1
      ]
    }
  ],
  "wires": [
    {
      "color": "#c91847",
      "outputModuleId": 9,
      "outputId": 0,
      "inputModuleId": 20,
      "inputId": 1
    },
    {
      "color": "#0c8e15",
      "outputModuleId": 32,
      "outputId": 0,
      "inputModuleId": 4,
      "inputId": 0
    },
    {
      "color": "#c9b70e",
      "outputModuleId": 4,
      "outputId": 2,
      "inputModuleId": 27,
      "inputId": 2
    },
    {
      "color": "#0986ad",
      "outputModuleId": 1,
      "outputId": 7,
      "inputModuleId": 7,
      "inputId": 0
    },
    {
      "color": "#c91847",
      "outputModuleId": 7,
      "outputId": 1,
      "inputModuleId": 8,
      "inputId": 5
    },
    {
      "color": "#0c8e15",
      "outputModuleId": 8,
      "outputId": 1,
      "inputModuleId": 35,
      "inputId": 2
    },
    {
      "color": "#c9b70e",
      "outputModuleId": 31,
      "outputId": 0,
      "inputModuleId": 12,
      "inputId": 0
    },
    {
      "color": "#c91847",
      "outputModuleId": 9,
      "outputId": 1,
      "inputModuleId": 21,
      "inputId": 1
    },
    {
      "color": "#0c8e15",
      "outputModuleId": 12,
      "outputId": 2,
      "inputModuleId": 28,
      "inputId": 2
    },
    {
      "color": "#0986ad",
      "outputModuleId": 7,
      "outputId": 1,
      "inputModuleId": 11,
      "inputId": 5
    },
    {
      "color": "#0c8e15",
      "outputModuleId": 11,
      "outputId": 1,
      "inputModuleId": 36,
      "inputId": 2
    },
    {
      "color": "#c9b70e",
      "outputModuleId": 13,
      "outputId": 0,
      "inputModuleId": 14,
      "inputId": 0
    },
    {
      "color": "#c91847",
      "outputModuleId": 13,
      "outputId": 0,
      "inputModuleId": 14,
      "inputId": 2
    },
    {
      "color": "#0c8e15",
      "outputModuleId": 5,
      "outputId": 0,
      "inputModuleId": 3,
      "inputId": 2
    },
    {
      "color": "#c9b70e",
      "outputModuleId": 5,
      "outputId": 0,
      "inputModuleId": 3,
      "inputId": 0
    },
    {
      "color": "#c91847",
      "outputModuleId": 2,
      "outputId": 0,
      "inputModuleId": 29,
      "inputId": 0
    },
    {
      "color": "#0c8e15",
      "outputModuleId": 2,
      "outputId": 1,
      "inputModuleId": 29,
      "inputId": 2
    },
    {
      "color": "#0986ad",
      "outputModuleId": 10,
      "outputId": 0,
      "inputModuleId": 30,
      "inputId": 0
    },
    {
      "color": "#c9b70e",
      "outputModuleId": 10,
      "outputId": 1,
      "inputModuleId": 30,
      "inputId": 2
    },
    {
      "color": "#0c8e15",
      "outputModuleId": 3,
      "outputId": 0,
      "inputModuleId": 15,
      "inputId": 0
    },
    {
      "color": "#0986ad",
      "outputModuleId": 3,
      "outputId": 1,
      "inputModuleId": 15,
      "inputId": 1
    },
    {
      "color": "#c9b70e",
      "outputModuleId": 14,
      "outputId": 0,
      "inputModuleId": 16,
      "inputId": 0
    },
    {
      "color": "#c91847",
      "outputModuleId": 14,
      "outputId": 1,
      "inputModuleId": 16,
      "inputId": 1
    },
    {
      "color": "#0c8e15",
      "outputModuleId": 15,
      "outputId": 0,
      "inputModuleId": 17,
      "inputId": 1
    },
    {
      "color": "#0986ad",
      "outputModuleId": 15,
      "outputId": 1,
      "inputModuleId": 17,
      "inputId": 4
    },
    {
      "color": "#c9b70e",
      "outputModuleId": 16,
      "outputId": 0,
      "inputModuleId": 17,
      "inputId": 7
    },
    {
      "color": "#c91847",
      "outputModuleId": 16,
      "outputId": 1,
      "inputModuleId": 17,
      "inputId": 10
    },
    {
      "color": "#0c8e15",
      "outputModuleId": 17,
      "outputId": 0,
      "inputModuleId": 33,
      "inputId": 0
    },
    {
      "color": "#0986ad",
      "outputModuleId": 17,
      "outputId": 1,
      "inputModuleId": 33,
      "inputId": 1
    },
    {
      "color": "#c9b70e",
      "outputModuleId": 9,
      "outputId": 4,
      "inputModuleId": 25,
      "inputId": 5
    },
    {
      "color": "#c91847",
      "outputModuleId": 9,
      "outputId": 5,
      "inputModuleId": 26,
      "inputId": 5
    },
    {
      "color": "#0986ad",
      "outputModuleId": 9,
      "outputId": 6,
      "inputModuleId": 23,
      "inputId": 0
    },
    {
      "color": "#c9b70e",
      "outputModuleId": 9,
      "outputId": 7,
      "inputModuleId": 22,
      "inputId": 0
    },
    {
      "color": "#c91847",
      "outputModuleId": 9,
      "outputId": 2,
      "inputModuleId": 23,
      "inputId": 1
    },
    {
      "color": "#0c8e15",
      "outputModuleId": 9,
      "outputId": 3,
      "inputModuleId": 22,
      "inputId": 1
    },
    {
      "color": "#0986ad",
      "outputModuleId": 20,
      "outputId": 0,
      "inputModuleId": 4,
      "inputId": 1
    },
    {
      "color": "#c91847",
      "outputModuleId": 23,
      "outputId": 0,
      "inputModuleId": 4,
      "inputId": 2
    },
    {
      "color": "#0c8e15",
      "outputModuleId": 21,
      "outputId": 0,
      "inputModuleId": 12,
      "inputId": 1
    },
    {
      "color": "#0986ad",
      "outputModuleId": 22,
      "outputId": 0,
      "inputModuleId": 12,
      "inputId": 2
    },
    {
      "color": "#c91847",
      "outputModuleId": 18,
      "outputId": 0,
      "inputModuleId": 24,
      "inputId": 0
    },
    {
      "color": "#0c8e15",
      "outputModuleId": 24,
      "outputId": 0,
      "inputModuleId": 32,
      "inputId": 0
    },
    {
      "color": "#0986ad",
      "outputModuleId": 19,
      "outputId": 0,
      "inputModuleId": 24,
      "inputId": 1
    },
    {
      "color": "#c9b70e",
      "outputModuleId": 24,
      "outputId": 1,
      "inputModuleId": 31,
      "inputId": 0
    },
    {
      "color": "#c91847",
      "outputModuleId": 24,
      "outputId": 0,
      "inputModuleId": 5,
      "inputId": 2
    },
    {
      "color": "#0c8e15",
      "outputModuleId": 24,
      "outputId": 1,
      "inputModuleId": 13,
      "inputId": 2
    },
    {
      "color": "#0986ad",
      "outputModuleId": 25,
      "outputId": 1,
      "inputModuleId": 20,
      "inputId": 0
    },
    {
      "color": "#c9b70e",
      "outputModuleId": 26,
      "outputId": 1,
      "inputModuleId": 21,
      "inputId": 0
    },
    {
      "color": "#c91847",
      "outputModuleId": 25,
      "outputId": 0,
      "inputModuleId": 25,
      "inputId": 1
    },
    {
      "color": "#0c8e15",
      "outputModuleId": 9,
      "outputId": 6,
      "inputModuleId": 25,
      "inputId": 4
    },
    {
      "color": "#0986ad",
      "outputModuleId": 9,
      "outputId": 7,
      "inputModuleId": 26,
      "inputId": 4
    },
    {
      "color": "#c9b70e",
      "outputModuleId": 26,
      "outputId": 0,
      "inputModuleId": 26,
      "inputId": 1
    },
    {
      "color": "#c91847",
      "outputModuleId": 27,
      "outputId": 0,
      "inputModuleId": 2,
      "inputId": 1
    },
    {
      "color": "#0c8e15",
      "outputModuleId": 28,
      "outputId": 0,
      "inputModuleId": 10,
      "inputId": 1
    },
    {
      "color": "#0986ad",
      "outputModuleId": 29,
      "outputId": 0,
      "inputModuleId": 3,
      "inputId": 1
    },
    {
      "color": "#c9b70e",
      "outputModuleId": 29,
      "outputId": 1,
      "inputModuleId": 3,
      "inputId": 3
    },
    {
      "color": "#c91847",
      "outputModuleId": 30,
      "outputId": 0,
      "inputModuleId": 14,
      "inputId": 1
    },
    {
      "color": "#0c8e15",
      "outputModuleId": 30,
      "outputId": 1,
      "inputModuleId": 14,
      "inputId": 3
    },
    {
      "color": "#0986ad",
      "outputModuleId": 9,
      "outputId": 4,
      "inputModuleId": 18,
      "inputId": 6
    },
    {
      "color": "#c9b70e",
      "outputModuleId": 9,
      "outputId": 6,
      "inputModuleId": 18,
      "inputId": 7
    },
    {
      "color": "#c91847",
      "outputModuleId": 9,
      "outputId": 5,
      "inputModuleId": 19,
      "inputId": 6
    },
    {
      "color": "#0c8e15",
      "outputModuleId": 9,
      "outputId": 7,
      "inputModuleId": 19,
      "inputId": 7
    },
    {
      "color": "#0986ad",
      "outputModuleId": 33,
      "outputId": 0,
      "inputModuleId": 0,
      "inputId": 0
    },
    {
      "color": "#c9b70e",
      "outputModuleId": 33,
      "outputId": 1,
      "inputModuleId": 0,
      "inputId": 1
    },
    {
      "color": "#0986ad",
      "outputModuleId": 8,
      "outputId": 0,
      "inputModuleId": 8,
      "inputId": 3
    },
    {
      "color": "#c9b70e",
      "outputModuleId": 5,
      "outputId": 0,
      "inputModuleId": 8,
      "inputId": 4
    },
    {
      "color": "#c91847",
      "outputModuleId": 13,
      "outputId": 0,
      "inputModuleId": 11,
      "inputId": 4
    },
    {
      "color": "#0c8e15",
      "outputModuleId": 11,
      "outputId": 0,
      "inputModuleId": 11,
      "inputId": 3
    },
    {
      "color": "#c9b70e",
      "outputModuleId": 18,
      "outputId": 0,
      "inputModuleId": 34,
      "inputId": 0
    },
    {
      "color": "#c91847",
      "outputModuleId": 19,
      "outputId": 0,
      "inputModuleId": 34,
      "inputId": 1
    },
    {
      "color": "#0986ad",
      "outputModuleId": 36,
      "outputId": 0,
      "inputModuleId": 10,
      "inputId": 6
    },
    {
      "color": "#c9b70e",
      "outputModuleId": 35,
      "outputId": 0,
      "inputModuleId": 2,
      "inputId": 6
    },
    {
      "color": "#c91847",
      "outputModuleId": 6,
      "outputId": 4,
      "inputModuleId": 7,
      "inputId": 2
    },
    {
      "color": "#0c8e15",
      "outputModuleId": 1,
      "outputId": 11,
      "inputModuleId": 6,
      "inputId": 1
    },
    {
      "color": "#c91847",
      "outputModuleId": 7,
      "outputId": 0,
      "inputModuleId": 29,
      "inputId": 1
    },
    {
      "color": "#0c8e15",
      "outputModuleId": 7,
      "outputId": 0,
      "inputModuleId": 30,
      "inputId": 1
    }
  ]
}