{
  "version": "0.6.2b",
  "modules": [
    {
      "plugin": "Core",
      "version": "0.6.2b",
      "model": "AudioInterface",
      "params": [],
      "data": {
        "audio": {
          "driver": -12512,
          "deviceName": "1",
          "offset": 0,
          "maxChannels": 8,
          "sampleRate": 44100,
          "blockSize": 256
        }
      },
      "pos": [
        89,
        1
      ]
    },
    {
      "plugin": "Core",
      "version": "0.6.2b",
      "model": "MIDIToCVInterface",
      "params": [],
      "data": {
        "divisions": [
          48,
          6
        ],
        "midi": {
          "driver": -12512,
          "deviceName": "Port 16",
          "channel": -1
        }
      },
      "pos": [
        0,
        0
      ]
    },
    {
      "plugin": "Core",
      "version": "0.6.2b",
      "model": "MIDICCToCVInterface",
      "params": [],
      "data": {
        "ccs": [
          0,
          1,
          2,
          3,
          4,
          5,
          6,
          7,
          8,
          9,
          10,
          11,
          12,
          13,
          14,
          15
        ],
        "midi": {
          "driver": -12512,
          "deviceName": "Port 1",
          "channel": -1
        }
      },
      "pos": [
        8,
        0
      ]
    },
    {
      "plugin": "dBiz",
      "version": "0.6.1",
      "model": "DVCO",
      "params": [
        {
          "paramId": 16,
          "value": 1.0
        },
        {
          "paramId": 18,
          "value": 1.0
        },
        {
          "paramId": 17,
          "value": 1.0
        },
        {
          "paramId": 0,
          "value": 1.0
        },
        {
          "paramId": 2,
          "value": 0.0
        },
        {
          "paramId": 1,
          "value": 1.0
        },
        {
          "paramId": 3,
          "value": 0.0
        },
        {
          "paramId": 4,
          "value": 0.0
        },
        {
          "paramId": 6,
          "value": -0.292499989
        },
        {
          "paramId": 5,
          "value": 0.0
        },
        {
          "paramId": 7,
          "value": 0.229499966
        },
        {
          "paramId": 10,
          "value": 0.088500008
        },
        {
          "paramId": 8,
          "value": 0.80499965
        },
        {
          "paramId": 12,
          "value": 0.589499831
        },
        {
          "paramId": 11,
          "value": 0.0789997056
        },
        {
          "paramId": 9,
          "value": 0.840999901
        },
        {
          "paramId": 13,
          "value": 0.604499996
        },
        {
          "paramId": 14,
          "value": 0.0
        },
        {
          "paramId": 15,
          "value": 0.0
        }
      ],
      "pos": [
        40,
        0
      ]
    },
    {
      "plugin": "AS",
      "version": "0.6.12",
      "model": "Mixer8ch",
      "params": [
        {
          "paramId": 9,
          "value": -1.0
        },
        {
          "paramId": 10,
          "value": 0.996999979
        },
        {
          "paramId": 11,
          "value": -1.0
        },
        {
          "paramId": 12,
          "value": 1.0
        },
        {
          "paramId": 13,
          "value": 0.0
        },
        {
          "paramId": 14,
          "value": 0.0
        },
        {
          "paramId": 15,
          "value": 0.0
        },
        {
          "paramId": 16,
          "value": 0.0
        },
        {
          "paramId": 1,
          "value": 0.800000012
        },
        {
          "paramId": 2,
          "value": 0.800000012
        },
        {
          "paramId": 3,
          "value": 0.800000012
        },
        {
          "paramId": 4,
          "value": 0.800000012
        },
        {
          "paramId": 5,
          "value": 0.800000012
        },
        {
          "paramId": 6,
          "value": 0.800000012
        },
        {
          "paramId": 7,
          "value": 0.800000012
        },
        {
          "paramId": 8,
          "value": 0.800000012
        },
        {
          "paramId": 17,
          "value": 0.0
        },
        {
          "paramId": 18,
          "value": 0.0
        },
        {
          "paramId": 19,
          "value": 0.0
        },
        {
          "paramId": 20,
          "value": 0.0
        },
        {
          "paramId": 21,
          "value": 0.0
        },
        {
          "paramId": 22,
          "value": 0.0
        },
        {
          "paramId": 23,
          "value": 0.0
        },
        {
          "paramId": 24,
          "value": 0.0
        },
        {
          "paramId": 0,
          "value": 0.800000012
        },
        {
          "paramId": 25,
          "value": 0.0
        }
      ],
      "data": {
        "as_MixerMutes": [
          0,
          0,
          0,
          0,
          0,
          0,
          0,
          0,
          0
        ]
      },
      "pos": [
        27,
        1
      ]
    },
    {
      "plugin": "Befaco",
      "version": "0.6.0",
      "model": "SlewLimiter",
      "params": [
        {
          "paramId": 0,
          "value": 0.996000051
        },
        {
          "paramId": 1,
          "value": 0.0480000079
        },
        {
          "paramId": 2,
          "value": 0.207000017
        }
      ],
      "pos": [
        34,
        0
      ]
    },
    {
      "plugin": "Fundamental",
      "version": "0.6.2",
      "model": "LFO",
      "params": [
        {
          "paramId": 0,
          "value": 0.0
        },
        {
          "paramId": 1,
          "value": 1.0
        },
        {
          "paramId": 2,
          "value": 1.0
        },
        {
          "paramId": 3,
          "value": 0.99849999
        },
        {
          "paramId": 5,
          "value": 0.595999956
        },
        {
          "paramId": 4,
          "value": 0.0
        },
        {
          "paramId": 6,
          "value": 0.0
        }
      ],
      "pos": [
        21,
        0
      ]
    },
    {
      "plugin": "Bogaudio",
      "version": "0.6.10",
      "model": "Bogaudio-Offset",
      "params": [
        {
          "paramId": 0,
          "value": 0.996999979
        },
        {
          "paramId": 1,
          "value": 0.316000015
        }
      ],
      "data": {
        "disableOutputLimit": false
      },
      "pos": [
        31,
        0
      ]
    },
    {
      "plugin": "VultModulesFree",
      "version": "0.6.17",
      "model": "Lateralus",
      "params": [
        {
          "paramId": 0,
          "value": 0.347000033
        },
        {
          "paramId": 1,
          "value": 0.0
        },
        {
          "paramId": 2,
          "value": 0.996999979
        },
        {
          "paramId": 3,
          "value": 0.981999993
        },
        {
          "paramId": 4,
          "value": 0.654000044
        },
        {
          "paramId": 5,
          "value": 0.0
        }
      ],
      "pos": [
        65,
        0
      ]
    },
    {
      "plugin": "VultModulesFree",
      "version": "0.6.17",
      "model": "Lateralus",
      "params": [
        {
          "paramId": 0,
          "value": 0.33799997
        },
        {
          "paramId": 1,
          "value": 0.0
        },
        {
          "paramId": 2,
          "value": 0.996999979
        },
        {
          "paramId": 3,
          "value": 0.981999993
        },
        {
          "paramId": 4,
          "value": 0.678000212
        },
        {
          "paramId": 5,
          "value": 0.0
        }
      ],
      "pos": [
        75,
        0
      ]
    },
    {
      "plugin": "AS",
      "version": "0.6.12",
      "model": "DelayPlusStereoFx",
      "params": [
        {
          "paramId": 0,
          "value": 0.0
        },
        {
          "paramId": 1,
          "value": 0.0
        },
        {
          "paramId": 2,
          "value": 0.0
        },
        {
          "paramId": 3,
          "value": 0.0
        },
        {
          "paramId": 4,
          "value": 0.00449999981
        },
        {
          "paramId": 5,
          "value": 0.0434999987
        },
        {
          "paramId": 6,
          "value": 0.0
        },
        {
          "paramId": 7,
          "value": 0.0
        },
        {
          "paramId": 8,
          "value": 0.0
        },
        {
          "paramId": 9,
          "value": 0.0
        }
      ],
      "data": {
        "as_FxBypass": [
          false
        ]
      },
      "pos": [
        64,
        1
      ]
    },
    {
      "plugin": "Bogaudio",
      "version": "0.6.10",
      "model": "Bogaudio-Offset",
      "params": [
        {
          "paramId": 0,
          "value": 0.0
        },
        {
          "paramId": 1,
          "value": 0.0339999795
        }
      ],
      "data": {
        "disableOutputLimit": false
      },
      "pos": [
        85,
        1
      ]
    }
  ],
  "wires": [
    {
      "color": "#c91847",
      "outputModuleId": 3,
      "outputId": 0,
      "inputModuleId": 4,
      "inputId": 1
    },
    {
      "color": "#0c8e15",
      "outputModuleId": 3,
      "outputId": 1,
      "inputModuleId": 4,
      "inputId": 4
    },
    {
      "color": "#c91847",
      "outputModuleId": 3,
      "outputId": 3,
      "inputModuleId": 4,
      "inputId": 7
    },
    {
      "color": "#0c8e15",
      "outputModuleId": 3,
      "outputId": 2,
      "inputModuleId": 4,
      "inputId": 10
    },
    {
      "color": "#0986ad",
      "outputModuleId": 1,
      "outputId": 7,
      "inputModuleId": 3,
      "inputId": 4
    },
    {
      "color": "#c9b70e",
      "outputModuleId": 1,
      "outputId": 7,
      "inputModuleId": 3,
      "inputId": 5
    },
    {
      "color": "#c91847",
      "outputModuleId": 1,
      "outputId": 8,
      "inputModuleId": 5,
      "inputId": 2
    },
    {
      "color": "#0c8e15",
      "outputModuleId": 5,
      "outputId": 0,
      "inputModuleId": 3,
      "inputId": 2
    },
    {
      "color": "#0986ad",
      "outputModuleId": 5,
      "outputId": 0,
      "inputModuleId": 3,
      "inputId": 3
    },
    {
      "color": "#c91847",
      "outputModuleId": 2,
      "outputId": 3,
      "inputModuleId": 3,
      "inputId": 6
    },
    {
      "color": "#0c8e15",
      "outputModuleId": 2,
      "outputId": 3,
      "inputModuleId": 3,
      "inputId": 7
    },
    {
      "color": "#0986ad",
      "outputModuleId": 2,
      "outputId": 0,
      "inputModuleId": 6,
      "inputId": 0
    },
    {
      "color": "#c91847",
      "outputModuleId": 6,
      "outputId": 0,
      "inputModuleId": 7,
      "inputId": 2
    },
    {
      "color": "#0c8e15",
      "outputModuleId": 7,
      "outputId": 0,
      "inputModuleId": 3,
      "inputId": 0
    },
    {
      "color": "#0986ad",
      "outputModuleId": 7,
      "outputId": 0,
      "inputModuleId": 3,
      "inputId": 9
    },
    {
      "color": "#c9b70e",
      "outputModuleId": 2,
      "outputId": 1,
      "inputModuleId": 7,
      "inputId": 0
    },
    {
      "color": "#c91847",
      "outputModuleId": 2,
      "outputId": 2,
      "inputModuleId": 7,
      "inputId": 1
    },
    {
      "color": "#c91847",
      "outputModuleId": 4,
      "outputId": 0,
      "inputModuleId": 10,
      "inputId": 9
    },
    {
      "color": "#0986ad",
      "outputModuleId": 4,
      "outputId": 1,
      "inputModuleId": 10,
      "inputId": 10
    },
    {
      "color": "#c91847",
      "outputModuleId": 2,
      "outputId": 4,
      "inputModuleId": 8,
      "inputId": 1
    },
    {
      "color": "#0c8e15",
      "outputModuleId": 2,
      "outputId": 4,
      "inputModuleId": 9,
      "inputId": 1
    },
    {
      "color": "#0986ad",
      "outputModuleId": 2,
      "outputId": 5,
      "inputModuleId": 8,
      "inputId": 2
    },
    {
      "color": "#c9b70e",
      "outputModuleId": 2,
      "outputId": 5,
      "inputModuleId": 9,
      "inputId": 2
    },
    {
      "color": "#c91847",
      "outputModuleId": 8,
      "outputId": 3,
      "inputModuleId": 0,
      "inputId": 0
    },
    {
      "color": "#0c8e15",
      "outputModuleId": 9,
      "outputId": 3,
      "inputModuleId": 0,
      "inputId": 1
    },
    {
      "color": "#0986ad",
      "outputModuleId": 2,
      "outputId": 6,
      "inputModuleId": 11,
      "inputId": 2
    },
    {
      "color": "#c91847",
      "outputModuleId": 2,
      "outputId": 7,
      "inputModuleId": 10,
      "inputId": 1
    },
    {
      "color": "#0c8e15",
      "outputModuleId": 2,
      "outputId": 7,
      "inputModuleId": 10,
      "inputId": 5
    },
    {
      "color": "#0986ad",
      "outputModuleId": 2,
      "outputId": 11,
      "inputModuleId": 10,
      "inputId": 8
    },
    {
      "color": "#c9b70e",
      "outputModuleId": 11,
      "outputId": 0,
      "inputModuleId": 10,
      "inputId": 0
    },
    {
      "color": "#c91847",
      "outputModuleId": 11,
      "outputId": 0,
      "inputModuleId": 10,
      "inputId": 4
    },
    {
      "color": "#0c8e15",
      "outputModuleId": 10,
      "outputId": 2,
      "inputModuleId": 8,
      "inputId": 0
    },
    {
      "color": "#0986ad",
      "outputModuleId": 10,
      "outputId": 3,
      "inputModuleId": 9,
      "inputId": 0
    }
  ]
}