{
  "version": "0.6.2b",
  "modules": [
    {
      "plugin": "Core",
      "version": "0.6.2b",
      "model": "AudioInterface",
      "params": [],
      "data": {
        "audio": {
          "driver": -12512,
          "deviceName": "2",
          "offset": 0,
          "maxChannels": 8,
          "sampleRate": 44100,
          "blockSize": 256
        }
      },
      "pos": [
        100,
        2
      ]
    },
    {
      "plugin": "Core",
      "version": "0.6.2b",
      "model": "MIDICCToCVInterface",
      "params": [],
      "data": {
        "ccs": [
          0,
          1,
          2,
          3,
          4,
          5,
          6,
          7,
          8,
          9,
          10,
          11,
          12,
          13,
          14,
          15
        ],
        "midi": {
          "driver": -12512,
          "deviceName": "Port 2",
          "channel": -1
        }
      },
      "pos": [
        0,
        0
      ]
    },
    {
      "plugin": "Nohmad",
      "version": "0.6.0",
      "model": "Noise",
      "params": [
        {
          "paramId": 0,
          "value": 0.0659999996
        }
      ],
      "pos": [
        34,
        0
      ]
    },
    {
      "plugin": "Autodafe",
      "version": "0.6.1",
      "model": "MultiMode Filter",
      "params": [
        {
          "paramId": 0,
          "value": 15.0
        },
        {
          "paramId": 2,
          "value": 0.835559964
        },
        {
          "paramId": 3,
          "value": 1.0
        },
        {
          "paramId": 4,
          "value": 0.0
        },
        {
          "paramId": 5,
          "value": 0.29249987
        }
      ],
      "pos": [
        40,
        0
      ]
    },
    {
      "plugin": "VultModulesFree",
      "version": "0.6.11",
      "model": "Rescomb",
      "params": [
        {
          "paramId": 0,
          "value": -0.400000006
        },
        {
          "paramId": 1,
          "value": 1.0
        },
        {
          "paramId": 2,
          "value": 1.05710006
        },
        {
          "paramId": 3,
          "value": 0.378999919
        },
        {
          "paramId": 4,
          "value": 0.838
        }
      ],
      "pos": [
        66,
        0
      ]
    },
    {
      "plugin": "HetrickCV",
      "version": "0.6.0",
      "model": "Exponent",
      "params": [
        {
          "paramId": 0,
          "value": 5.0
        },
        {
          "paramId": 1,
          "value": 1.0
        },
        {
          "paramId": 2,
          "value": 1.0
        }
      ],
      "pos": [
        28,
        0
      ]
    },
    {
      "plugin": "Core",
      "version": "0.6.2b",
      "model": "MIDIToCVInterface",
      "params": [],
      "data": {
        "divisions": [
          24,
          6
        ],
        "midi": {
          "driver": -12512,
          "deviceName": "Port 2",
          "channel": -1
        }
      },
      "pos": [
        15,
        0
      ]
    },
    {
      "plugin": "Bogaudio",
      "version": "0.6.7",
      "model": "Bogaudio-Offset",
      "params": [
        {
          "paramId": 0,
          "value": -0.27000007
        },
        {
          "paramId": 1,
          "value": 0.397000074
        }
      ],
      "data": {
        "disableOutputLimit": false
      },
      "pos": [
        25,
        0
      ]
    },
    {
      "plugin": "Autodafe",
      "version": "0.6.1",
      "model": "MultiMode Filter",
      "params": [
        {
          "paramId": 0,
          "value": 15.0
        },
        {
          "paramId": 2,
          "value": 0.834075093
        },
        {
          "paramId": 3,
          "value": 1.0
        },
        {
          "paramId": 4,
          "value": 0.0
        },
        {
          "paramId": 5,
          "value": 0.130499929
        }
      ],
      "pos": [
        53,
        0
      ]
    },
    {
      "plugin": "Autodafe",
      "version": "0.6.1",
      "model": "MultiMode Filter",
      "params": [
        {
          "paramId": 0,
          "value": 15.0
        },
        {
          "paramId": 2,
          "value": 0.704880178
        },
        {
          "paramId": 3,
          "value": 1.0
        },
        {
          "paramId": 4,
          "value": 0.0
        },
        {
          "paramId": 5,
          "value": 0.145499989
        }
      ],
      "pos": [
        53,
        1
      ]
    },
    {
      "plugin": "Autodafe",
      "version": "0.6.1",
      "model": "MultiMode Filter",
      "params": [
        {
          "paramId": 0,
          "value": 15.0
        },
        {
          "paramId": 2,
          "value": 0.712305546
        },
        {
          "paramId": 3,
          "value": 1.0
        },
        {
          "paramId": 4,
          "value": 0.0
        },
        {
          "paramId": 5,
          "value": 0.253500015
        }
      ],
      "pos": [
        40,
        1
      ]
    },
    {
      "plugin": "AS",
      "version": "0.6.9",
      "model": "SignalDelay",
      "params": [
        {
          "paramId": 0,
          "value": 0.0
        },
        {
          "paramId": 1,
          "value": 0.0
        }
      ],
      "pos": [
        25,
        1
      ]
    },
    {
      "plugin": "Befaco",
      "version": "0.6.0",
      "model": "SlewLimiter",
      "params": [
        {
          "paramId": 0,
          "value": 0.0839999989
        },
        {
          "paramId": 1,
          "value": 0.816000044
        },
        {
          "paramId": 2,
          "value": 0.687000394
        }
      ],
      "pos": [
        19,
        1
      ]
    },
    {
      "plugin": "Befaco",
      "version": "0.6.0",
      "model": "SlewLimiter",
      "params": [
        {
          "paramId": 0,
          "value": 0.126000077
        },
        {
          "paramId": 1,
          "value": 0.606000304
        },
        {
          "paramId": 2,
          "value": 0.675000787
        }
      ],
      "pos": [
        31,
        1
      ]
    },
    {
      "plugin": "Bogaudio",
      "version": "0.6.7",
      "model": "Bogaudio-Stack",
      "params": [
        {
          "paramId": 0,
          "value": 0.0
        },
        {
          "paramId": 1,
          "value": 2.0
        },
        {
          "paramId": 2,
          "value": 0.0
        },
        {
          "paramId": 3,
          "value": 0.0
        }
      ],
      "pos": [
        37,
        1
      ]
    },
    {
      "plugin": "Bogaudio",
      "version": "0.6.7",
      "model": "Bogaudio-Stack",
      "params": [
        {
          "paramId": 0,
          "value": 0.0
        },
        {
          "paramId": 1,
          "value": -1.0
        },
        {
          "paramId": 2,
          "value": 0.0
        },
        {
          "paramId": 3,
          "value": 0.0
        }
      ],
      "pos": [
        16,
        1
      ]
    },
    {
      "plugin": "Bogaudio",
      "version": "0.6.7",
      "model": "Bogaudio-Stack",
      "params": [
        {
          "paramId": 0,
          "value": 0.0
        },
        {
          "paramId": 1,
          "value": 1.0
        },
        {
          "paramId": 2,
          "value": 0.0
        },
        {
          "paramId": 3,
          "value": 0.0
        }
      ],
      "pos": [
        66,
        1
      ]
    },
    {
      "plugin": "Befaco",
      "version": "0.6.0",
      "model": "SlewLimiter",
      "params": [
        {
          "paramId": 0,
          "value": 0.0
        },
        {
          "paramId": 1,
          "value": 0.26399976
        },
        {
          "paramId": 2,
          "value": 0.393000513
        }
      ],
      "pos": [
        69,
        1
      ]
    },
    {
      "plugin": "AS",
      "version": "0.6.9",
      "model": "Mixer8ch",
      "params": [
        {
          "paramId": 9,
          "value": -1.0
        },
        {
          "paramId": 10,
          "value": 1.0
        },
        {
          "paramId": 11,
          "value": -1.0
        },
        {
          "paramId": 12,
          "value": 1.0
        },
        {
          "paramId": 13,
          "value": -1.0
        },
        {
          "paramId": 14,
          "value": 1.0
        },
        {
          "paramId": 15,
          "value": -1.0
        },
        {
          "paramId": 16,
          "value": 1.0
        },
        {
          "paramId": 1,
          "value": 0.49699986
        },
        {
          "paramId": 2,
          "value": 0.502999961
        },
        {
          "paramId": 3,
          "value": 0.00300000003
        },
        {
          "paramId": 4,
          "value": 0.0
        },
        {
          "paramId": 5,
          "value": 0.800000012
        },
        {
          "paramId": 6,
          "value": 0.800000012
        },
        {
          "paramId": 7,
          "value": 0.0
        },
        {
          "paramId": 8,
          "value": 0.0
        },
        {
          "paramId": 17,
          "value": 0.0
        },
        {
          "paramId": 18,
          "value": 0.0
        },
        {
          "paramId": 19,
          "value": 0.0
        },
        {
          "paramId": 20,
          "value": 0.0
        },
        {
          "paramId": 21,
          "value": 0.0
        },
        {
          "paramId": 22,
          "value": 0.0
        },
        {
          "paramId": 23,
          "value": 0.0
        },
        {
          "paramId": 24,
          "value": 0.0
        },
        {
          "paramId": 0,
          "value": 1.0
        },
        {
          "paramId": 25,
          "value": 0.0
        }
      ],
      "data": {
        "as_MixerMutes": [
          0,
          0,
          0,
          0,
          0,
          0,
          0,
          0,
          0
        ]
      },
      "pos": [
        101,
        0
      ]
    },
    {
      "plugin": "VultModulesFree",
      "version": "0.6.11",
      "model": "Stabile",
      "params": [
        {
          "paramId": 0,
          "value": 0.0
        },
        {
          "paramId": 1,
          "value": 0.0
        },
        {
          "paramId": 2,
          "value": 0.131000057
        },
        {
          "paramId": 3,
          "value": 0.0
        },
        {
          "paramId": 4,
          "value": 0.5
        },
        {
          "paramId": 5,
          "value": 0.0
        }
      ],
      "pos": [
        75,
        1
      ]
    },
    {
      "plugin": "VultModulesFree",
      "version": "0.6.11",
      "model": "Stabile",
      "params": [
        {
          "paramId": 0,
          "value": 0.0
        },
        {
          "paramId": 1,
          "value": 0.0
        },
        {
          "paramId": 2,
          "value": 0.131000057
        },
        {
          "paramId": 3,
          "value": 0.0
        },
        {
          "paramId": 4,
          "value": 0.5
        },
        {
          "paramId": 5,
          "value": 0.0
        }
      ],
      "pos": [
        85,
        1
      ]
    },
    {
      "plugin": "VultModulesFree",
      "version": "0.6.11",
      "model": "Stabile",
      "params": [
        {
          "paramId": 0,
          "value": 0.115500011
        },
        {
          "paramId": 1,
          "value": 0.0
        },
        {
          "paramId": 2,
          "value": 1.0
        },
        {
          "paramId": 3,
          "value": 0.0
        },
        {
          "paramId": 4,
          "value": 0.5
        },
        {
          "paramId": 5,
          "value": 0.0
        }
      ],
      "pos": [
        127,
        0
      ]
    },
    {
      "plugin": "Fundamental",
      "version": "0.6.2",
      "model": "LFO",
      "params": [
        {
          "paramId": 0,
          "value": 1.0
        },
        {
          "paramId": 1,
          "value": 1.0
        },
        {
          "paramId": 2,
          "value": 4.32099724
        },
        {
          "paramId": 3,
          "value": 0.0
        },
        {
          "paramId": 5,
          "value": 0.5
        },
        {
          "paramId": 4,
          "value": 0.0
        },
        {
          "paramId": 6,
          "value": 0.0
        }
      ],
      "pos": [
        6,
        1
      ]
    },
    {
      "plugin": "Fundamental",
      "version": "0.6.2",
      "model": "VCF",
      "params": [
        {
          "paramId": 0,
          "value": 0.5
        },
        {
          "paramId": 1,
          "value": 0.5
        },
        {
          "paramId": 2,
          "value": 0.0
        },
        {
          "paramId": 3,
          "value": 1.0
        },
        {
          "paramId": 4,
          "value": 0.111000009
        }
      ],
      "pos": [
        124,
        1
      ]
    },
    {
      "plugin": "Fundamental",
      "version": "0.6.2",
      "model": "VCF",
      "params": [
        {
          "paramId": 0,
          "value": 0.5
        },
        {
          "paramId": 1,
          "value": 0.5
        },
        {
          "paramId": 2,
          "value": 0.0
        },
        {
          "paramId": 3,
          "value": 1.0
        },
        {
          "paramId": 4,
          "value": 0.111000009
        }
      ],
      "pos": [
        132,
        1
      ]
    },
    {
      "plugin": "Fundamental",
      "version": "0.6.2",
      "model": "VCF",
      "params": [
        {
          "paramId": 0,
          "value": 0.5
        },
        {
          "paramId": 1,
          "value": 0.5
        },
        {
          "paramId": 2,
          "value": 0.00150000001
        },
        {
          "paramId": 3,
          "value": 1.0
        },
        {
          "paramId": 4,
          "value": 0.076500006
        }
      ],
      "pos": [
        110,
        2
      ]
    },
    {
      "plugin": "Fundamental",
      "version": "0.6.2",
      "model": "VCF",
      "params": [
        {
          "paramId": 0,
          "value": 0.5
        },
        {
          "paramId": 1,
          "value": 0.5
        },
        {
          "paramId": 2,
          "value": 0.0
        },
        {
          "paramId": 3,
          "value": 1.0
        },
        {
          "paramId": 4,
          "value": 0.076500006
        }
      ],
      "pos": [
        118,
        2
      ]
    },
    {
      "plugin": "VultModulesFree",
      "version": "0.6.11",
      "model": "Rescomb",
      "params": [
        {
          "paramId": 0,
          "value": -0.400000006
        },
        {
          "paramId": 1,
          "value": 1.0
        },
        {
          "paramId": 2,
          "value": 1.10000002
        },
        {
          "paramId": 3,
          "value": 0.0
        },
        {
          "paramId": 4,
          "value": 0.0
        }
      ],
      "pos": [
        48,
        2
      ]
    },
    {
      "plugin": "FrozenWasteland",
      "version": "0.6.7",
      "model": "TheOneRingModulator",
      "params": [
        {
          "paramId": 0,
          "value": 0.0
        },
        {
          "paramId": 3,
          "value": 0.0
        },
        {
          "paramId": 1,
          "value": 4.27000093
        },
        {
          "paramId": 4,
          "value": 0.0
        },
        {
          "paramId": 2,
          "value": 0.643600106
        },
        {
          "paramId": 5,
          "value": 0.0
        },
        {
          "paramId": 6,
          "value": 0.297999829
        }
      ],
      "pos": [
        68,
        2
      ]
    },
    {
      "plugin": "Bogaudio",
      "version": "0.6.7",
      "model": "Bogaudio-Stack",
      "params": [
        {
          "paramId": 0,
          "value": 0.0
        },
        {
          "paramId": 1,
          "value": 2.0
        },
        {
          "paramId": 2,
          "value": 0.0
        },
        {
          "paramId": 3,
          "value": 0.0
        }
      ],
      "pos": [
        140,
        1
      ]
    },
    {
      "plugin": "Bogaudio",
      "version": "0.6.7",
      "model": "Bogaudio-Stack",
      "params": [
        {
          "paramId": 0,
          "value": 0.0
        },
        {
          "paramId": 1,
          "value": -2.0
        },
        {
          "paramId": 2,
          "value": 0.0
        },
        {
          "paramId": 3,
          "value": 0.0
        }
      ],
      "pos": [
        126,
        2
      ]
    },
    {
      "plugin": "CharredDesert",
      "version": "0.6.3",
      "model": "Eq",
      "params": [
        {
          "paramId": 0,
          "value": 1287.30273
        },
        {
          "paramId": 1,
          "value": 3.0
        },
        {
          "paramId": 2,
          "value": 1.88769984
        }
      ],
      "pos": [
        88,
        2
      ]
    },
    {
      "plugin": "CharredDesert",
      "version": "0.6.3",
      "model": "Eq",
      "params": [
        {
          "paramId": 0,
          "value": 1287.30273
        },
        {
          "paramId": 1,
          "value": 3.0
        },
        {
          "paramId": 2,
          "value": 2.07354832
        }
      ],
      "pos": [
        85,
        2
      ]
    },
    {
      "plugin": "Bogaudio",
      "version": "0.6.7",
      "model": "Bogaudio-ADSR",
      "params": [
        {
          "paramId": 0,
          "value": 0.214500085
        },
        {
          "paramId": 1,
          "value": 0.0987298861
        },
        {
          "paramId": 2,
          "value": 0.828000247
        },
        {
          "paramId": 3,
          "value": 0.0329999961
        },
        {
          "paramId": 4,
          "value": 0.0
        }
      ],
      "pos": [
        83,
        0
      ]
    },
    {
      "plugin": "Bogaudio",
      "version": "0.6.7",
      "model": "Bogaudio-ADSR",
      "params": [
        {
          "paramId": 0,
          "value": 0.0719999894
        },
        {
          "paramId": 1,
          "value": 0.0914998651
        },
        {
          "paramId": 2,
          "value": 0.582999706
        },
        {
          "paramId": 3,
          "value": 0.0734998211
        },
        {
          "paramId": 4,
          "value": 0.0
        }
      ],
      "pos": [
        80,
        0
      ]
    },
    {
      "plugin": "Bogaudio",
      "version": "0.6.7",
      "model": "Bogaudio-ADSR",
      "params": [
        {
          "paramId": 0,
          "value": 0.123000033
        },
        {
          "paramId": 1,
          "value": 0.104999952
        },
        {
          "paramId": 2,
          "value": 0.748500347
        },
        {
          "paramId": 3,
          "value": 0.0989999995
        },
        {
          "paramId": 4,
          "value": 0.0
        }
      ],
      "pos": [
        77,
        0
      ]
    },
    {
      "plugin": "AS",
      "version": "0.6.9",
      "model": "PhaserFx",
      "params": [
        {
          "paramId": 0,
          "value": 0.0449999981
        },
        {
          "paramId": 1,
          "value": 0.751924872
        },
        {
          "paramId": 2,
          "value": 0.638500094
        },
        {
          "paramId": 3,
          "value": 0.0
        }
      ],
      "data": {
        "as_FxBypass": [
          false
        ]
      },
      "pos": [
        86,
        0
      ]
    },
    {
      "plugin": "AS",
      "version": "0.6.9",
      "model": "PhaserFx",
      "params": [
        {
          "paramId": 0,
          "value": 0.0449999981
        },
        {
          "paramId": 1,
          "value": 0.751924872
        },
        {
          "paramId": 2,
          "value": 0.638500094
        },
        {
          "paramId": 3,
          "value": 0.0
        }
      ],
      "data": {
        "as_FxBypass": [
          false
        ]
      },
      "pos": [
        92,
        0
      ]
    }
  ],
  "wires": [
    {
      "color": "#c91847",
      "outputModuleId": 5,
      "outputId": 0,
      "inputModuleId": 3,
      "inputId": 0
    },
    {
      "color": "#0c8e15",
      "outputModuleId": 1,
      "outputId": 15,
      "inputModuleId": 7,
      "inputId": 2
    },
    {
      "color": "#c9b70e",
      "outputModuleId": 7,
      "outputId": 0,
      "inputModuleId": 5,
      "inputId": 0
    },
    {
      "color": "#0c8e15",
      "outputModuleId": 5,
      "outputId": 0,
      "inputModuleId": 15,
      "inputId": 1
    },
    {
      "color": "#0986ad",
      "outputModuleId": 12,
      "outputId": 0,
      "inputModuleId": 11,
      "inputId": 2
    },
    {
      "color": "#c91847",
      "outputModuleId": 5,
      "outputId": 0,
      "inputModuleId": 14,
      "inputId": 1
    },
    {
      "color": "#0c8e15",
      "outputModuleId": 13,
      "outputId": 0,
      "inputModuleId": 11,
      "inputId": 3
    },
    {
      "color": "#0986ad",
      "outputModuleId": 11,
      "outputId": 2,
      "inputModuleId": 8,
      "inputId": 0
    },
    {
      "color": "#c91847",
      "outputModuleId": 14,
      "outputId": 1,
      "inputModuleId": 13,
      "inputId": 2
    },
    {
      "color": "#0c8e15",
      "outputModuleId": 11,
      "outputId": 3,
      "inputModuleId": 10,
      "inputId": 0
    },
    {
      "color": "#c9b70e",
      "outputModuleId": 15,
      "outputId": 1,
      "inputModuleId": 12,
      "inputId": 2
    },
    {
      "color": "#c91847",
      "outputModuleId": 5,
      "outputId": 0,
      "inputModuleId": 17,
      "inputId": 2
    },
    {
      "color": "#0c8e15",
      "outputModuleId": 17,
      "outputId": 0,
      "inputModuleId": 16,
      "inputId": 1
    },
    {
      "color": "#0986ad",
      "outputModuleId": 16,
      "outputId": 1,
      "inputModuleId": 9,
      "inputId": 0
    },
    {
      "color": "#c9b70e",
      "outputModuleId": 2,
      "outputId": 2,
      "inputModuleId": 8,
      "inputId": 4
    },
    {
      "color": "#0c8e15",
      "outputModuleId": 2,
      "outputId": 5,
      "inputModuleId": 9,
      "inputId": 4
    },
    {
      "color": "#c9b70e",
      "outputModuleId": 8,
      "outputId": 2,
      "inputModuleId": 19,
      "inputId": 0
    },
    {
      "color": "#c91847",
      "outputModuleId": 8,
      "outputId": 2,
      "inputModuleId": 20,
      "inputId": 0
    },
    {
      "color": "#0986ad",
      "outputModuleId": 18,
      "outputId": 0,
      "inputModuleId": 23,
      "inputId": 3
    },
    {
      "color": "#c9b70e",
      "outputModuleId": 18,
      "outputId": 1,
      "inputModuleId": 24,
      "inputId": 3
    },
    {
      "color": "#0986ad",
      "outputModuleId": 21,
      "outputId": 1,
      "inputModuleId": 18,
      "inputId": 13
    },
    {
      "color": "#c91847",
      "outputModuleId": 5,
      "outputId": 0,
      "inputModuleId": 21,
      "inputId": 1
    },
    {
      "color": "#0c8e15",
      "outputModuleId": 22,
      "outputId": 0,
      "inputModuleId": 15,
      "inputId": 0
    },
    {
      "color": "#0986ad",
      "outputModuleId": 23,
      "outputId": 0,
      "inputModuleId": 25,
      "inputId": 3
    },
    {
      "color": "#c9b70e",
      "outputModuleId": 24,
      "outputId": 0,
      "inputModuleId": 26,
      "inputId": 3
    },
    {
      "color": "#0c8e15",
      "outputModuleId": 5,
      "outputId": 0,
      "inputModuleId": 27,
      "inputId": 0
    },
    {
      "color": "#0986ad",
      "outputModuleId": 11,
      "outputId": 2,
      "inputModuleId": 4,
      "inputId": 0
    },
    {
      "color": "#0c8e15",
      "outputModuleId": 3,
      "outputId": 3,
      "inputModuleId": 28,
      "inputId": 1
    },
    {
      "color": "#0986ad",
      "outputModuleId": 28,
      "outputId": 1,
      "inputModuleId": 18,
      "inputId": 19
    },
    {
      "color": "#c9b70e",
      "outputModuleId": 28,
      "outputId": 1,
      "inputModuleId": 18,
      "inputId": 22
    },
    {
      "color": "#0986ad",
      "outputModuleId": 2,
      "outputId": 5,
      "inputModuleId": 4,
      "inputId": 4
    },
    {
      "color": "#c9b70e",
      "outputModuleId": 2,
      "outputId": 5,
      "inputModuleId": 4,
      "inputId": 1
    },
    {
      "color": "#c91847",
      "outputModuleId": 4,
      "outputId": 0,
      "inputModuleId": 3,
      "inputId": 4
    },
    {
      "color": "#0c8e15",
      "outputModuleId": 3,
      "outputId": 2,
      "inputModuleId": 36,
      "inputId": 0
    },
    {
      "color": "#0986ad",
      "outputModuleId": 3,
      "outputId": 2,
      "inputModuleId": 37,
      "inputId": 0
    },
    {
      "color": "#0c8e15",
      "outputModuleId": 27,
      "outputId": 0,
      "inputModuleId": 10,
      "inputId": 4
    },
    {
      "color": "#0986ad",
      "outputModuleId": 2,
      "outputId": 1,
      "inputModuleId": 27,
      "inputId": 1
    },
    {
      "color": "#c9b70e",
      "outputModuleId": 2,
      "outputId": 5,
      "inputModuleId": 27,
      "inputId": 4
    },
    {
      "color": "#c91847",
      "outputModuleId": 10,
      "outputId": 2,
      "inputModuleId": 21,
      "inputId": 0
    },
    {
      "color": "#0c8e15",
      "outputModuleId": 21,
      "outputId": 1,
      "inputModuleId": 18,
      "inputId": 16
    },
    {
      "color": "#0986ad",
      "outputModuleId": 11,
      "outputId": 3,
      "inputModuleId": 29,
      "inputId": 1
    },
    {
      "color": "#c91847",
      "outputModuleId": 11,
      "outputId": 2,
      "inputModuleId": 30,
      "inputId": 1
    },
    {
      "color": "#c91847",
      "outputModuleId": 29,
      "outputId": 1,
      "inputModuleId": 23,
      "inputId": 0
    },
    {
      "color": "#0c8e15",
      "outputModuleId": 29,
      "outputId": 1,
      "inputModuleId": 24,
      "inputId": 0
    },
    {
      "color": "#0986ad",
      "outputModuleId": 30,
      "outputId": 1,
      "inputModuleId": 25,
      "inputId": 0
    },
    {
      "color": "#c9b70e",
      "outputModuleId": 30,
      "outputId": 1,
      "inputModuleId": 26,
      "inputId": 0
    },
    {
      "color": "#c9b70e",
      "outputModuleId": 6,
      "outputId": 1,
      "inputModuleId": 19,
      "inputId": 1
    },
    {
      "color": "#c91847",
      "outputModuleId": 6,
      "outputId": 1,
      "inputModuleId": 20,
      "inputId": 1
    },
    {
      "color": "#c91847",
      "outputModuleId": 25,
      "outputId": 1,
      "inputModuleId": 32,
      "inputId": 0
    },
    {
      "color": "#0c8e15",
      "outputModuleId": 26,
      "outputId": 1,
      "inputModuleId": 31,
      "inputId": 0
    },
    {
      "color": "#0c8e15",
      "outputModuleId": 9,
      "outputId": 1,
      "inputModuleId": 28,
      "inputId": 0
    },
    {
      "color": "#0c8e15",
      "outputModuleId": 32,
      "outputId": 0,
      "inputModuleId": 0,
      "inputId": 0
    },
    {
      "color": "#0986ad",
      "outputModuleId": 31,
      "outputId": 0,
      "inputModuleId": 0,
      "inputId": 1
    },
    {
      "color": "#c91847",
      "outputModuleId": 6,
      "outputId": 1,
      "inputModuleId": 33,
      "inputId": 0
    },
    {
      "color": "#0c8e15",
      "outputModuleId": 33,
      "outputId": 0,
      "inputModuleId": 18,
      "inputId": 14
    },
    {
      "color": "#0986ad",
      "outputModuleId": 33,
      "outputId": 0,
      "inputModuleId": 18,
      "inputId": 17
    },
    {
      "color": "#c9b70e",
      "outputModuleId": 6,
      "outputId": 1,
      "inputModuleId": 34,
      "inputId": 0
    },
    {
      "color": "#c91847",
      "outputModuleId": 6,
      "outputId": 1,
      "inputModuleId": 35,
      "inputId": 0
    },
    {
      "color": "#0c8e15",
      "outputModuleId": 35,
      "outputId": 0,
      "inputModuleId": 18,
      "inputId": 2
    },
    {
      "color": "#0986ad",
      "outputModuleId": 35,
      "outputId": 0,
      "inputModuleId": 18,
      "inputId": 5
    },
    {
      "color": "#c9b70e",
      "outputModuleId": 34,
      "outputId": 0,
      "inputModuleId": 18,
      "inputId": 20
    },
    {
      "color": "#c91847",
      "outputModuleId": 34,
      "outputId": 0,
      "inputModuleId": 18,
      "inputId": 23
    },
    {
      "color": "#0c8e15",
      "outputModuleId": 36,
      "outputId": 0,
      "inputModuleId": 18,
      "inputId": 1
    },
    {
      "color": "#0986ad",
      "outputModuleId": 37,
      "outputId": 0,
      "inputModuleId": 18,
      "inputId": 4
    },
    {
      "color": "#0c8e15",
      "outputModuleId": 1,
      "outputId": 11,
      "inputModuleId": 11,
      "inputId": 0
    },
    {
      "color": "#0986ad",
      "outputModuleId": 1,
      "outputId": 10,
      "inputModuleId": 11,
      "inputId": 1
    },
    {
      "color": "#0c8e15",
      "outputModuleId": 1,
      "outputId": 12,
      "inputModuleId": 18,
      "inputId": 0
    },
    {
      "color": "#0986ad",
      "outputModuleId": 6,
      "outputId": 11,
      "inputModuleId": 22,
      "inputId": 2
    },
    {
      "color": "#c91847",
      "outputModuleId": 11,
      "outputId": 2,
      "inputModuleId": 4,
      "inputId": 2
    }
  ]
}