{
  "version": "0.6.2c",
  "modules": [
    {
      "plugin": "CatroModulo",
      "version": "0.6.4",
      "model": "CatroModulo_CM-5",
      "params": [
        {
          "paramId": 0,
          "value": 0.0
        }
      ],
      "pos": [
        14,
        0
      ]
    },
    {
      "plugin": "CatroModulo",
      "version": "0.6.4",
      "model": "CatroModulo_CM-4",
      "params": [
        {
          "paramId": 0,
          "value": 0.657003224
        },
        {
          "paramId": 2,
          "value": 1.0
        },
        {
          "paramId": 1,
          "value": 0.0
        }
      ],
      "pos": [
        9,
        0
      ]
    },
    {
      "plugin": "CatroModulo",
      "version": "0.6.4",
      "model": "CatroModulo_CM-4",
      "params": [
        {
          "paramId": 0,
          "value": 3.42000031
        },
        {
          "paramId": 2,
          "value": 1.0
        },
        {
          "paramId": 1,
          "value": 0.0
        }
      ],
      "pos": [
        36,
        0
      ]
    },
    {
      "plugin": "CatroModulo",
      "version": "0.6.4",
      "model": "CatroModulo_CM-5",
      "params": [
        {
          "paramId": 0,
          "value": 0.0
        }
      ],
      "pos": [
        33,
        0
      ]
    },
    {
      "plugin": "CatroModulo",
      "version": "0.6.4",
      "model": "CatroModulo_CM-4",
      "params": [
        {
          "paramId": 0,
          "value": 1.55700004
        },
        {
          "paramId": 2,
          "value": 1.0
        },
        {
          "paramId": 1,
          "value": 0.0
        }
      ],
      "pos": [
        28,
        0
      ]
    },
    {
      "plugin": "Core",
      "version": "0.6.2c",
      "model": "AudioInterface",
      "params": [],
      "data": {
        "audio": {
          "driver": 6,
          "deviceName": "Speakers (High Definition Audio Device)",
          "offset": 0,
          "maxChannels": 8,
          "sampleRate": 48000,
          "blockSize": 256
        }
      },
      "pos": [
        53,
        1
      ]
    },
    {
      "plugin": "CatroModulo",
      "version": "0.6.4",
      "model": "CatroModulo_CM-5",
      "params": [
        {
          "paramId": 0,
          "value": 0.0
        }
      ],
      "pos": [
        14,
        1
      ]
    },
    {
      "plugin": "CatroModulo",
      "version": "0.6.4",
      "model": "CatroModulo_CM-4",
      "params": [
        {
          "paramId": 0,
          "value": 2.16600013
        },
        {
          "paramId": 2,
          "value": 1.0
        },
        {
          "paramId": 1,
          "value": 0.0
        }
      ],
      "pos": [
        9,
        1
      ]
    },
    {
      "plugin": "Fundamental",
      "version": "0.6.2",
      "model": "Scope",
      "params": [
        {
          "paramId": 0,
          "value": 0.0
        },
        {
          "paramId": 1,
          "value": 0.0
        },
        {
          "paramId": 2,
          "value": 0.0
        },
        {
          "paramId": 3,
          "value": 0.0
        },
        {
          "paramId": 4,
          "value": -7.74499941
        },
        {
          "paramId": 5,
          "value": 0.0
        },
        {
          "paramId": 6,
          "value": 0.0
        },
        {
          "paramId": 7,
          "value": 0.0
        }
      ],
      "data": {
        "lissajous": 0,
        "external": 0
      },
      "pos": [
        17,
        1
      ]
    },
    {
      "plugin": "CatroModulo",
      "version": "0.6.4",
      "model": "CatroModulo_CM-2",
      "params": [
        {
          "paramId": 0,
          "value": -0.209999949
        },
        {
          "paramId": 1,
          "value": -0.395999968
        },
        {
          "paramId": 2,
          "value": -0.0419999994
        },
        {
          "paramId": 3,
          "value": -0.0539999977
        },
        {
          "paramId": 4,
          "value": 0.114
        },
        {
          "paramId": 5,
          "value": 0.186000049
        },
        {
          "paramId": 6,
          "value": 0.0519998781
        },
        {
          "paramId": 7,
          "value": 0.167999998
        },
        {
          "paramId": 8,
          "value": -0.0899999812
        },
        {
          "paramId": 9,
          "value": -0.243000001
        },
        {
          "paramId": 10,
          "value": 0.357000083
        },
        {
          "paramId": 11,
          "value": -0.129000068
        },
        {
          "paramId": 12,
          "value": -0.156000078
        },
        {
          "paramId": 13,
          "value": 0.0539999083
        },
        {
          "paramId": 14,
          "value": -0.212999925
        },
        {
          "paramId": 15,
          "value": -0.08699999
        }
      ],
      "pos": [
        17,
        0
      ]
    },
    {
      "plugin": "Fundamental",
      "version": "0.6.2",
      "model": "VCF",
      "params": [
        {
          "paramId": 0,
          "value": 0.743500233
        },
        {
          "paramId": 1,
          "value": 0.5
        },
        {
          "paramId": 2,
          "value": 0.158999979
        },
        {
          "paramId": 3,
          "value": 0.279999971
        },
        {
          "paramId": 4,
          "value": 0.161999971
        }
      ],
      "pos": [
        36,
        1
      ]
    },
    {
      "plugin": "SubmarineFree",
      "version": "0.6.8",
      "model": "FF-206",
      "params": [],
      "data": {
        "voltage0": 0.0,
        "voltage1": 10.0
      },
      "pos": [
        41,
        0
      ]
    },
    {
      "plugin": "Fundamental",
      "version": "0.6.2",
      "model": "VCA-1",
      "params": [
        {
          "paramId": 0,
          "value": 0.903999925
        },
        {
          "paramId": 1,
          "value": 1.0
        }
      ],
      "pos": [
        44,
        1
      ]
    },
    {
      "plugin": "VultModulesFree",
      "version": "0.6.26",
      "model": "Basal",
      "params": [
        {
          "paramId": 0,
          "value": 0.0
        },
        {
          "paramId": 1,
          "value": -0.481000036
        },
        {
          "paramId": 2,
          "value": 0.164999977
        },
        {
          "paramId": 4,
          "value": 0.0630000085
        },
        {
          "paramId": 3,
          "value": 0.823000014
        },
        {
          "paramId": 5,
          "value": 0.778000236
        }
      ],
      "pos": [
        57,
        0
      ]
    },
    {
      "plugin": "VultModulesFree",
      "version": "0.6.26",
      "model": "Basal",
      "params": [
        {
          "paramId": 0,
          "value": 0.0
        },
        {
          "paramId": 1,
          "value": -0.502000153
        },
        {
          "paramId": 2,
          "value": 0.846000075
        },
        {
          "paramId": 4,
          "value": 0.936999917
        },
        {
          "paramId": 3,
          "value": -0.654999912
        },
        {
          "paramId": 5,
          "value": -0.541999996
        }
      ],
      "pos": [
        51,
        0
      ]
    },
    {
      "plugin": "Bogaudio",
      "version": "0.6.14",
      "model": "Bogaudio-UMix",
      "params": [
        {
          "paramId": 0,
          "value": 1.0
        }
      ],
      "data": {
        "sum": true
      },
      "pos": [
        33,
        1
      ]
    },
    {
      "plugin": "JW-Modules",
      "version": "0.6.3",
      "model": "Quantizer",
      "params": [
        {
          "paramId": 0,
          "value": 2.0
        },
        {
          "paramId": 1,
          "value": 9.0
        }
      ],
      "data": {},
      "pos": [
        43,
        0
      ]
    },
    {
      "plugin": "JW-Modules",
      "version": "0.6.3",
      "model": "Quantizer",
      "params": [
        {
          "paramId": 0,
          "value": 2.0
        },
        {
          "paramId": 1,
          "value": 9.0
        }
      ],
      "data": {},
      "pos": [
        47,
        0
      ]
    },
    {
      "plugin": "AS",
      "version": "0.6.13",
      "model": "ReverbFx",
      "params": [
        {
          "paramId": 0,
          "value": 0.537800014
        },
        {
          "paramId": 1,
          "value": 0.340499997
        },
        {
          "paramId": 2,
          "value": 0.267499954
        },
        {
          "paramId": 3,
          "value": 0.0
        }
      ],
      "data": {
        "as_FxBypass": [
          false
        ]
      },
      "pos": [
        47,
        1
      ]
    }
  ],
  "wires": [
    {
      "color": "#c91847",
      "outputModuleId": 2,
      "outputId": 6,
      "inputModuleId": 11,
      "inputId": 0
    },
    {
      "color": "#0986ad",
      "outputModuleId": 4,
      "outputId": 3,
      "inputModuleId": 3,
      "inputId": 0
    },
    {
      "color": "#c91847",
      "outputModuleId": 9,
      "outputId": 0,
      "inputModuleId": 3,
      "inputId": 1
    },
    {
      "color": "#c9b70e",
      "outputModuleId": 9,
      "outputId": 1,
      "inputModuleId": 4,
      "inputId": 0
    },
    {
      "color": "#0c8e15",
      "outputModuleId": 9,
      "outputId": 3,
      "inputModuleId": 2,
      "inputId": 1
    },
    {
      "color": "#0c8e15",
      "outputModuleId": 0,
      "outputId": 3,
      "inputModuleId": 9,
      "inputId": 0
    },
    {
      "color": "#0986ad",
      "outputModuleId": 1,
      "outputId": 6,
      "inputModuleId": 9,
      "inputId": 1
    },
    {
      "color": "#c9b70e",
      "outputModuleId": 1,
      "outputId": 7,
      "inputModuleId": 4,
      "inputId": 3
    },
    {
      "color": "#0986ad",
      "outputModuleId": 1,
      "outputId": 4,
      "inputModuleId": 9,
      "inputId": 3
    },
    {
      "color": "#c9b70e",
      "outputModuleId": 9,
      "outputId": 2,
      "inputModuleId": 4,
      "inputId": 1
    },
    {
      "color": "#c91847",
      "outputModuleId": 0,
      "outputId": 8,
      "inputModuleId": 9,
      "inputId": 2
    },
    {
      "color": "#0986ad",
      "outputModuleId": 6,
      "outputId": 3,
      "inputModuleId": 9,
      "inputId": 4
    },
    {
      "color": "#c9b70e",
      "outputModuleId": 7,
      "outputId": 3,
      "inputModuleId": 6,
      "inputId": 0
    },
    {
      "color": "#c91847",
      "outputModuleId": 6,
      "outputId": 4,
      "inputModuleId": 0,
      "inputId": 2
    },
    {
      "color": "#0c8e15",
      "outputModuleId": 0,
      "outputId": 6,
      "inputModuleId": 2,
      "inputId": 3
    },
    {
      "color": "#0986ad",
      "outputModuleId": 7,
      "outputId": 4,
      "inputModuleId": 11,
      "inputId": 1
    },
    {
      "color": "#c9b70e",
      "outputModuleId": 11,
      "outputId": 1,
      "inputModuleId": 9,
      "inputId": 5
    },
    {
      "color": "#0c8e15",
      "outputModuleId": 9,
      "outputId": 6,
      "inputModuleId": 0,
      "inputId": 1
    },
    {
      "color": "#0986ad",
      "outputModuleId": 11,
      "outputId": 2,
      "inputModuleId": 9,
      "inputId": 6
    },
    {
      "color": "#c9b70e",
      "outputModuleId": 11,
      "outputId": 3,
      "inputModuleId": 3,
      "inputId": 2
    },
    {
      "color": "#0c8e15",
      "outputModuleId": 10,
      "outputId": 0,
      "inputModuleId": 12,
      "inputId": 1
    },
    {
      "color": "#c91847",
      "outputModuleId": 6,
      "outputId": 8,
      "inputModuleId": 13,
      "inputId": 2
    },
    {
      "color": "#0986ad",
      "outputModuleId": 12,
      "outputId": 0,
      "inputModuleId": 18,
      "inputId": 0
    },
    {
      "color": "#c91847",
      "outputModuleId": 9,
      "outputId": 4,
      "inputModuleId": 1,
      "inputId": 0
    },
    {
      "color": "#0c8e15",
      "outputModuleId": 3,
      "outputId": 9,
      "inputModuleId": 2,
      "inputId": 0
    },
    {
      "color": "#c9b70e",
      "outputModuleId": 9,
      "outputId": 8,
      "inputModuleId": 13,
      "inputId": 1
    },
    {
      "color": "#0c8e15",
      "outputModuleId": 9,
      "outputId": 7,
      "inputModuleId": 1,
      "inputId": 1
    },
    {
      "color": "#0986ad",
      "outputModuleId": 7,
      "outputId": 7,
      "inputModuleId": 1,
      "inputId": 3
    },
    {
      "color": "#0c8e15",
      "outputModuleId": 9,
      "outputId": 3,
      "inputModuleId": 7,
      "inputId": 0
    },
    {
      "color": "#0986ad",
      "outputModuleId": 12,
      "outputId": 0,
      "inputModuleId": 8,
      "inputId": 0
    },
    {
      "color": "#0c8e15",
      "outputModuleId": 13,
      "outputId": 0,
      "inputModuleId": 9,
      "inputId": 7
    },
    {
      "color": "#c91847",
      "outputModuleId": 11,
      "outputId": 4,
      "inputModuleId": 7,
      "inputId": 3
    },
    {
      "color": "#0986ad",
      "outputModuleId": 15,
      "outputId": 0,
      "inputModuleId": 10,
      "inputId": 3
    },
    {
      "color": "#c9b70e",
      "outputModuleId": 3,
      "outputId": 8,
      "inputModuleId": 16,
      "inputId": 2
    },
    {
      "color": "#0c8e15",
      "outputModuleId": 9,
      "outputId": 5,
      "inputModuleId": 14,
      "inputId": 1
    },
    {
      "color": "#0986ad",
      "outputModuleId": 9,
      "outputId": 2,
      "inputModuleId": 14,
      "inputId": 2
    },
    {
      "color": "#c9b70e",
      "outputModuleId": 1,
      "outputId": 3,
      "inputModuleId": 0,
      "inputId": 0
    },
    {
      "color": "#c91847",
      "outputModuleId": 9,
      "outputId": 8,
      "inputModuleId": 10,
      "inputId": 0
    },
    {
      "color": "#c9b70e",
      "outputModuleId": 4,
      "outputId": 3,
      "inputModuleId": 12,
      "inputId": 0
    },
    {
      "color": "#c91847",
      "outputModuleId": 16,
      "outputId": 0,
      "inputModuleId": 14,
      "inputId": 0
    },
    {
      "color": "#0c8e15",
      "outputModuleId": 3,
      "outputId": 7,
      "inputModuleId": 17,
      "inputId": 2
    },
    {
      "color": "#0986ad",
      "outputModuleId": 17,
      "outputId": 0,
      "inputModuleId": 13,
      "inputId": 0
    },
    {
      "color": "#c9b70e",
      "outputModuleId": 2,
      "outputId": 0,
      "inputModuleId": 16,
      "inputId": 1
    },
    {
      "color": "#c91847",
      "outputModuleId": 2,
      "outputId": 0,
      "inputModuleId": 17,
      "inputId": 1
    },
    {
      "color": "#0986ad",
      "outputModuleId": 14,
      "outputId": 0,
      "inputModuleId": 15,
      "inputId": 0
    },
    {
      "color": "#c9b70e",
      "outputModuleId": 13,
      "outputId": 0,
      "inputModuleId": 15,
      "inputId": 1
    },
    {
      "color": "#c91847",
      "outputModuleId": 18,
      "outputId": 0,
      "inputModuleId": 5,
      "inputId": 0
    },
    {
      "color": "#0c8e15",
      "outputModuleId": 18,
      "outputId": 0,
      "inputModuleId": 5,
      "inputId": 1
    }
  ]
}