{
  "version": "0.6.2c",
  "modules": [
    {
      "plugin": "Fundamental",
      "version": "0.6.2",
      "model": "VCO",
      "params": [
        {
          "paramId": 0,
          "value": 1.0
        },
        {
          "paramId": 1,
          "value": 1.0
        },
        {
          "paramId": 2,
          "value": 27.8640003
        },
        {
          "paramId": 3,
          "value": 0.0
        },
        {
          "paramId": 5,
          "value": 0.5
        },
        {
          "paramId": 4,
          "value": 0.102000006
        },
        {
          "paramId": 6,
          "value": 0.0
        }
      ],
      "pos": [
        20,
        1
      ]
    },
    {
      "plugin": "Core",
      "version": "0.6.2c",
      "model": "AudioInterface",
      "params": [],
      "data": {
        "audio": {
          "driver": 6,
          "deviceName": "Speakers (High Definition Audio Device)",
          "offset": 0,
          "maxChannels": 8,
          "sampleRate": 48000,
          "blockSize": 256
        }
      },
      "pos": [
        149,
        0
      ]
    },
    {
      "plugin": "AS",
      "version": "0.6.13",
      "model": "VCA",
      "params": [
        {
          "paramId": 0,
          "value": 0.0830000564
        },
        {
          "paramId": 1,
          "value": 0.5
        },
        {
          "paramId": 2,
          "value": 1.0
        },
        {
          "paramId": 3,
          "value": 1.0
        }
      ],
      "pos": [
        143,
        0
      ]
    },
    {
      "plugin": "VultModulesFree",
      "version": "0.6.25",
      "model": "Unstabile",
      "params": [
        {
          "paramId": 0,
          "value": 0.503000677
        },
        {
          "paramId": 1,
          "value": 0.957999945
        },
        {
          "paramId": 2,
          "value": 0.0
        },
        {
          "paramId": 3,
          "value": 0.0
        },
        {
          "paramId": 4,
          "value": 0.5
        },
        {
          "paramId": 5,
          "value": 0.0
        },
        {
          "paramId": 6,
          "value": 0.063000001
        },
        {
          "paramId": 7,
          "value": 0.0
        }
      ],
      "pos": [
        48,
        0
      ]
    },
    {
      "plugin": "VultModulesFree",
      "version": "0.6.25",
      "model": "Unstabile",
      "params": [
        {
          "paramId": 0,
          "value": 0.872000515
        },
        {
          "paramId": 1,
          "value": 0.94149977
        },
        {
          "paramId": 2,
          "value": 0.0
        },
        {
          "paramId": 3,
          "value": 0.0
        },
        {
          "paramId": 4,
          "value": 0.5
        },
        {
          "paramId": 5,
          "value": 0.0
        },
        {
          "paramId": 6,
          "value": 0.0359999985
        },
        {
          "paramId": 7,
          "value": 0.0
        }
      ],
      "pos": [
        48,
        1
      ]
    },
    {
      "plugin": "Bogaudio",
      "version": "0.6.13",
      "model": "Bogaudio-UMix",
      "params": [
        {
          "paramId": 0,
          "value": 1.0
        }
      ],
      "data": {
        "sum": true
      },
      "pos": [
        140,
        0
      ]
    },
    {
      "plugin": "VultModulesFree",
      "version": "0.6.25",
      "model": "Unstabile",
      "params": [
        {
          "paramId": 0,
          "value": 0.710000515
        },
        {
          "paramId": 1,
          "value": 0.947499931
        },
        {
          "paramId": 2,
          "value": 0.0
        },
        {
          "paramId": 3,
          "value": 0.0
        },
        {
          "paramId": 4,
          "value": 0.5
        },
        {
          "paramId": 5,
          "value": 0.0
        },
        {
          "paramId": 6,
          "value": 0.0749999881
        },
        {
          "paramId": 7,
          "value": 0.0
        }
      ],
      "pos": [
        58,
        0
      ]
    },
    {
      "plugin": "VultModulesFree",
      "version": "0.6.25",
      "model": "Unstabile",
      "params": [
        {
          "paramId": 0,
          "value": 0.569000483
        },
        {
          "paramId": 1,
          "value": 0.954999864
        },
        {
          "paramId": 2,
          "value": 0.0
        },
        {
          "paramId": 3,
          "value": 0.0
        },
        {
          "paramId": 4,
          "value": 0.5
        },
        {
          "paramId": 5,
          "value": 0.0
        },
        {
          "paramId": 6,
          "value": 0.0359999985
        },
        {
          "paramId": 7,
          "value": 0.0
        }
      ],
      "pos": [
        58,
        1
      ]
    },
    {
      "plugin": "Fundamental",
      "version": "0.6.2",
      "model": "SEQ3",
      "params": [
        {
          "paramId": 0,
          "value": 2.0
        },
        {
          "paramId": 1,
          "value": 0.0
        },
        {
          "paramId": 2,
          "value": 0.0
        },
        {
          "paramId": 3,
          "value": 8.0
        },
        {
          "paramId": 4,
          "value": 0.50999999
        },
        {
          "paramId": 12,
          "value": 0.0
        },
        {
          "paramId": 20,
          "value": 0.0
        },
        {
          "paramId": 28,
          "value": 0.0
        },
        {
          "paramId": 5,
          "value": 1.40999997
        },
        {
          "paramId": 13,
          "value": 0.0
        },
        {
          "paramId": 21,
          "value": 0.0
        },
        {
          "paramId": 29,
          "value": 0.0
        },
        {
          "paramId": 6,
          "value": 5.31999969
        },
        {
          "paramId": 14,
          "value": 0.0
        },
        {
          "paramId": 22,
          "value": 0.0
        },
        {
          "paramId": 30,
          "value": 0.0
        },
        {
          "paramId": 7,
          "value": 3.1650002
        },
        {
          "paramId": 15,
          "value": 0.0
        },
        {
          "paramId": 23,
          "value": 0.0
        },
        {
          "paramId": 31,
          "value": 0.0
        },
        {
          "paramId": 8,
          "value": 4.69499969
        },
        {
          "paramId": 16,
          "value": 0.0
        },
        {
          "paramId": 24,
          "value": 0.0
        },
        {
          "paramId": 32,
          "value": 0.0
        },
        {
          "paramId": 9,
          "value": 3.16500044
        },
        {
          "paramId": 17,
          "value": 0.0
        },
        {
          "paramId": 25,
          "value": 0.0
        },
        {
          "paramId": 33,
          "value": 0.0
        },
        {
          "paramId": 10,
          "value": 5.38000154
        },
        {
          "paramId": 18,
          "value": 0.0
        },
        {
          "paramId": 26,
          "value": 0.0
        },
        {
          "paramId": 34,
          "value": 0.0
        },
        {
          "paramId": 11,
          "value": 6.44999981
        },
        {
          "paramId": 19,
          "value": 0.0
        },
        {
          "paramId": 27,
          "value": 0.0
        },
        {
          "paramId": 35,
          "value": 0.0
        }
      ],
      "data": {
        "running": true,
        "gates": [
          1,
          1,
          1,
          1,
          1,
          1,
          1,
          1
        ]
      },
      "pos": [
        9,
        0
      ]
    },
    {
      "plugin": "ImpromptuModular",
      "version": "0.6.16",
      "model": "Clocked",
      "params": [
        {
          "paramId": 0,
          "value": 160.0
        },
        {
          "paramId": 12,
          "value": 0.0
        },
        {
          "paramId": 13,
          "value": 0.0
        },
        {
          "paramId": 18,
          "value": 0.0
        },
        {
          "paramId": 19,
          "value": 0.0
        },
        {
          "paramId": 4,
          "value": 0.0
        },
        {
          "paramId": 8,
          "value": 0.5
        },
        {
          "paramId": 1,
          "value": -0.0
        },
        {
          "paramId": 5,
          "value": 0.0
        },
        {
          "paramId": 9,
          "value": 0.5
        },
        {
          "paramId": 15,
          "value": 0.0
        },
        {
          "paramId": 2,
          "value": -17.0
        },
        {
          "paramId": 6,
          "value": 0.0
        },
        {
          "paramId": 10,
          "value": 0.5
        },
        {
          "paramId": 16,
          "value": 0.0
        },
        {
          "paramId": 3,
          "value": 0.0
        },
        {
          "paramId": 7,
          "value": 0.0
        },
        {
          "paramId": 11,
          "value": 0.5
        },
        {
          "paramId": 17,
          "value": 0.0
        }
      ],
      "data": {
        "running": true,
        "panelTheme": 0,
        "expansion": 0,
        "displayDelayNoteMode": true,
        "bpmDetectionMode": false,
        "emitResetOnStopRun": false,
        "ppqn": 4,
        "resetClockOutputsHigh": true
      },
      "pos": [
        0,
        1
      ]
    },
    {
      "plugin": "Befaco",
      "version": "0.6.0",
      "model": "SlewLimiter",
      "params": [
        {
          "paramId": 0,
          "value": 0.0
        },
        {
          "paramId": 1,
          "value": 0.08100003
        },
        {
          "paramId": 2,
          "value": 0.168000028
        }
      ],
      "pos": [
        31,
        0
      ]
    },
    {
      "plugin": "NYSTHI",
      "version": "0.6.42",
      "model": "PitchVoltager",
      "params": [
        {
          "paramId": 1,
          "value": 0.0
        },
        {
          "paramId": 0,
          "value": 0.125100017
        }
      ],
      "data": {
        "pitch_detector_frame_size": 1536,
        "pitch_detector_period": 768,
        "m_current_octave": 0,
        "m_current_semitone": 0
      },
      "pos": [
        69,
        0
      ]
    },
    {
      "plugin": "NYSTHI",
      "version": "0.6.42",
      "model": "PitchVoltager",
      "params": [
        {
          "paramId": 1,
          "value": 0.0
        },
        {
          "paramId": 0,
          "value": 0.125100017
        }
      ],
      "data": {
        "pitch_detector_frame_size": 1536,
        "pitch_detector_period": 768,
        "m_current_octave": 0,
        "m_current_semitone": 0
      },
      "pos": [
        69,
        1
      ]
    },
    {
      "plugin": "NYSTHI",
      "version": "0.6.42",
      "model": "PitchVoltager",
      "params": [
        {
          "paramId": 1,
          "value": 0.0
        },
        {
          "paramId": 0,
          "value": 0.125100017
        }
      ],
      "data": {
        "pitch_detector_frame_size": 1536,
        "pitch_detector_period": 768,
        "m_current_octave": 0,
        "m_current_semitone": 0
      },
      "pos": [
        41,
        0
      ]
    },
    {
      "plugin": "NYSTHI",
      "version": "0.6.42",
      "model": "PitchVoltager",
      "params": [
        {
          "paramId": 1,
          "value": 0.0
        },
        {
          "paramId": 0,
          "value": 0.125100017
        }
      ],
      "data": {
        "pitch_detector_frame_size": 1536,
        "pitch_detector_period": 768,
        "m_current_octave": 0,
        "m_current_semitone": 0
      },
      "pos": [
        41,
        1
      ]
    },
    {
      "plugin": "AudibleInstruments",
      "version": "0.6.3",
      "model": "Plaits",
      "params": [
        {
          "paramId": 0,
          "value": 0.0
        },
        {
          "paramId": 1,
          "value": 0.0
        },
        {
          "paramId": 2,
          "value": -1.85200012
        },
        {
          "paramId": 3,
          "value": 0.706999958
        },
        {
          "paramId": 4,
          "value": 0.245000303
        },
        {
          "paramId": 5,
          "value": 0.5
        },
        {
          "paramId": 6,
          "value": 0.256000012
        },
        {
          "paramId": 7,
          "value": 0.918000042
        },
        {
          "paramId": 8,
          "value": 0.295000017
        }
      ],
      "data": {
        "lowCpu": false,
        "model": 1,
        "lpgColor": 0.5,
        "decay": 0.5
      },
      "pos": [
        87,
        0
      ]
    },
    {
      "plugin": "AudibleInstruments",
      "version": "0.6.3",
      "model": "Plaits",
      "params": [
        {
          "paramId": 0,
          "value": 0.0
        },
        {
          "paramId": 1,
          "value": 0.0
        },
        {
          "paramId": 2,
          "value": -1.85200012
        },
        {
          "paramId": 3,
          "value": 0.706999958
        },
        {
          "paramId": 4,
          "value": 0.245000303
        },
        {
          "paramId": 5,
          "value": 0.5
        },
        {
          "paramId": 6,
          "value": 0.256000012
        },
        {
          "paramId": 7,
          "value": 0.918000042
        },
        {
          "paramId": 8,
          "value": 0.295000017
        }
      ],
      "data": {
        "lowCpu": false,
        "model": 1,
        "lpgColor": 0.5,
        "decay": 0.5
      },
      "pos": [
        103,
        1
      ]
    },
    {
      "plugin": "AudibleInstruments",
      "version": "0.6.3",
      "model": "Plaits",
      "params": [
        {
          "paramId": 0,
          "value": 0.0
        },
        {
          "paramId": 1,
          "value": 0.0
        },
        {
          "paramId": 2,
          "value": -1.85200012
        },
        {
          "paramId": 3,
          "value": 0.706999958
        },
        {
          "paramId": 4,
          "value": 0.245000303
        },
        {
          "paramId": 5,
          "value": 0.5
        },
        {
          "paramId": 6,
          "value": 0.256000012
        },
        {
          "paramId": 7,
          "value": 0.918000042
        },
        {
          "paramId": 8,
          "value": 0.295000017
        }
      ],
      "data": {
        "lowCpu": false,
        "model": 1,
        "lpgColor": 0.5,
        "decay": 0.5
      },
      "pos": [
        115,
        1
      ]
    },
    {
      "plugin": "AudibleInstruments",
      "version": "0.6.3",
      "model": "Plaits",
      "params": [
        {
          "paramId": 0,
          "value": 0.0
        },
        {
          "paramId": 1,
          "value": 0.0
        },
        {
          "paramId": 2,
          "value": -1.85200012
        },
        {
          "paramId": 3,
          "value": 0.706999958
        },
        {
          "paramId": 4,
          "value": 0.245000303
        },
        {
          "paramId": 5,
          "value": 0.5
        },
        {
          "paramId": 6,
          "value": 0.256000012
        },
        {
          "paramId": 7,
          "value": 0.918000042
        },
        {
          "paramId": 8,
          "value": 0.295000017
        }
      ],
      "data": {
        "lowCpu": false,
        "model": 1,
        "lpgColor": 0.5,
        "decay": 0.5
      },
      "pos": [
        115,
        0
      ]
    },
    {
      "plugin": "Befaco",
      "version": "0.6.0",
      "model": "SlewLimiter",
      "params": [
        {
          "paramId": 0,
          "value": 0.0
        },
        {
          "paramId": 1,
          "value": 0.245999917
        },
        {
          "paramId": 2,
          "value": 0.221999869
        }
      ],
      "pos": [
        81,
        0
      ]
    },
    {
      "plugin": "Befaco",
      "version": "0.6.0",
      "model": "SlewLimiter",
      "params": [
        {
          "paramId": 0,
          "value": 0.0
        },
        {
          "paramId": 1,
          "value": 0.245999917
        },
        {
          "paramId": 2,
          "value": 0.221999869
        }
      ],
      "pos": [
        81,
        1
      ]
    },
    {
      "plugin": "Befaco",
      "version": "0.6.0",
      "model": "SlewLimiter",
      "params": [
        {
          "paramId": 0,
          "value": 0.0
        },
        {
          "paramId": 1,
          "value": 0.245999917
        },
        {
          "paramId": 2,
          "value": 0.221999869
        }
      ],
      "pos": [
        127,
        0
      ]
    },
    {
      "plugin": "Befaco",
      "version": "0.6.0",
      "model": "SlewLimiter",
      "params": [
        {
          "paramId": 0,
          "value": 0.0
        },
        {
          "paramId": 1,
          "value": 0.245999917
        },
        {
          "paramId": 2,
          "value": 0.221999869
        }
      ],
      "pos": [
        127,
        1
      ]
    },
    {
      "plugin": "HetrickCV",
      "version": "0.6.0",
      "model": "Boolean3",
      "params": [],
      "pos": [
        76,
        2
      ]
    },
    {
      "plugin": "Alikins",
      "version": "0.6.6",
      "model": "GateLength",
      "params": [
        {
          "paramId": 0,
          "value": 0.165000007
        },
        {
          "paramId": 1,
          "value": 0.175000042
        },
        {
          "paramId": 2,
          "value": 0.144999981
        },
        {
          "paramId": 3,
          "value": 0.120000005
        },
        {
          "paramId": 4,
          "value": 0.100000001
        }
      ],
      "pos": [
        66,
        2
      ]
    },
    {
      "plugin": "HetrickCV",
      "version": "0.6.0",
      "model": "Boolean3",
      "params": [],
      "pos": [
        60,
        2
      ]
    },
    {
      "plugin": "HetrickCV",
      "version": "0.6.0",
      "model": "Boolean3",
      "params": [],
      "pos": [
        86,
        2
      ]
    },
    {
      "plugin": "HetrickCV",
      "version": "0.6.0",
      "model": "Boolean3",
      "params": [],
      "pos": [
        110,
        2
      ]
    },
    {
      "plugin": "Befaco",
      "version": "0.6.0",
      "model": "SlewLimiter",
      "params": [
        {
          "paramId": 0,
          "value": 0.832499921
        },
        {
          "paramId": 1,
          "value": 0.0
        },
        {
          "paramId": 2,
          "value": 0.251999885
        }
      ],
      "pos": [
        116,
        2
      ]
    },
    {
      "plugin": "Befaco",
      "version": "0.6.0",
      "model": "SlewLimiter",
      "params": [
        {
          "paramId": 0,
          "value": 0.832499921
        },
        {
          "paramId": 1,
          "value": 0.0
        },
        {
          "paramId": 2,
          "value": 0.218999833
        }
      ],
      "pos": [
        92,
        2
      ]
    },
    {
      "plugin": "Befaco",
      "version": "0.6.0",
      "model": "SlewLimiter",
      "params": [
        {
          "paramId": 0,
          "value": 0.832499921
        },
        {
          "paramId": 1,
          "value": 0.0
        },
        {
          "paramId": 2,
          "value": 0.284999818
        }
      ],
      "pos": [
        98,
        2
      ]
    },
    {
      "plugin": "Befaco",
      "version": "0.6.0",
      "model": "SlewLimiter",
      "params": [
        {
          "paramId": 0,
          "value": 0.832499921
        },
        {
          "paramId": 1,
          "value": 0.0
        },
        {
          "paramId": 2,
          "value": 0.251999885
        }
      ],
      "pos": [
        122,
        2
      ]
    },
    {
      "plugin": "Befaco",
      "version": "0.6.0",
      "model": "SlewLimiter",
      "params": [
        {
          "paramId": 0,
          "value": 0.832499921
        },
        {
          "paramId": 1,
          "value": 0.0
        },
        {
          "paramId": 2,
          "value": 0.251999885
        }
      ],
      "pos": [
        104,
        2
      ]
    },
    {
      "plugin": "Befaco",
      "version": "0.6.0",
      "model": "SlewLimiter",
      "params": [
        {
          "paramId": 0,
          "value": 0.832499921
        },
        {
          "paramId": 1,
          "value": 0.0
        },
        {
          "paramId": 2,
          "value": 0.251999885
        }
      ],
      "pos": [
        128,
        2
      ]
    },
    {
      "plugin": "NYSTHI",
      "version": "0.6.42",
      "model": "LFOMultiPhase",
      "params": [
        {
          "paramId": 6,
          "value": 0.0
        },
        {
          "paramId": 7,
          "value": 0.0
        },
        {
          "paramId": 9,
          "value": 0.0
        },
        {
          "paramId": 0,
          "value": 0.0500000007
        },
        {
          "paramId": 2,
          "value": 0.0
        },
        {
          "paramId": 1,
          "value": 0.0
        },
        {
          "paramId": 3,
          "value": 0.0
        },
        {
          "paramId": 4,
          "value": 0.5
        },
        {
          "paramId": 5,
          "value": 0.5
        },
        {
          "paramId": 8,
          "value": 0.600000024
        },
        {
          "paramId": 14,
          "value": 0.5
        },
        {
          "paramId": 11,
          "value": 0.0
        },
        {
          "paramId": 12,
          "value": 0.0
        },
        {
          "paramId": 13,
          "value": 0.0
        }
      ],
      "data": {
        "REALFREQUENCY": 0.0166666675
      },
      "pos": [
        30,
        1
      ]
    },
    {
      "plugin": "Hora-ProcessorsFree",
      "version": "0.6.0",
      "model": "Envelope Follower",
      "params": [
        {
          "paramId": 2,
          "value": 0.561999977
        },
        {
          "paramId": 0,
          "value": 0.0
        },
        {
          "paramId": 1,
          "value": 0.88499999
        },
        {
          "paramId": 4,
          "value": 1.0
        }
      ],
      "pos": [
        41,
        3
      ]
    },
    {
      "plugin": "Hora-ProcessorsFree",
      "version": "0.6.0",
      "model": "Envelope Follower",
      "params": [
        {
          "paramId": 2,
          "value": 0.561999977
        },
        {
          "paramId": 0,
          "value": 0.0
        },
        {
          "paramId": 1,
          "value": 4.08000278
        },
        {
          "paramId": 4,
          "value": 1.0
        }
      ],
      "pos": [
        49,
        3
      ]
    },
    {
      "plugin": "Hora-ProcessorsFree",
      "version": "0.6.0",
      "model": "Envelope Follower",
      "params": [
        {
          "paramId": 2,
          "value": 0.561999977
        },
        {
          "paramId": 0,
          "value": 0.0
        },
        {
          "paramId": 1,
          "value": 1.45500255
        },
        {
          "paramId": 4,
          "value": 1.0
        }
      ],
      "pos": [
        57,
        3
      ]
    },
    {
      "plugin": "Hora-ProcessorsFree",
      "version": "0.6.0",
      "model": "Envelope Follower",
      "params": [
        {
          "paramId": 2,
          "value": 0.561999977
        },
        {
          "paramId": 0,
          "value": 0.0
        },
        {
          "paramId": 1,
          "value": 2.67000246
        },
        {
          "paramId": 4,
          "value": 1.0
        }
      ],
      "pos": [
        65,
        3
      ]
    }
  ],
  "wires": [
    {
      "color": "#c91847",
      "outputModuleId": 2,
      "outputId": 0,
      "inputModuleId": 1,
      "inputId": 0
    },
    {
      "color": "#0c8e15",
      "outputModuleId": 2,
      "outputId": 0,
      "inputModuleId": 1,
      "inputId": 1
    },
    {
      "color": "#0986ad",
      "outputModuleId": 0,
      "outputId": 0,
      "inputModuleId": 3,
      "inputId": 0
    },
    {
      "color": "#0c8e15",
      "outputModuleId": 3,
      "outputId": 1,
      "inputModuleId": 13,
      "inputId": 0
    },
    {
      "color": "#0986ad",
      "outputModuleId": 0,
      "outputId": 0,
      "inputModuleId": 4,
      "inputId": 0
    },
    {
      "color": "#c9b70e",
      "outputModuleId": 4,
      "outputId": 1,
      "inputModuleId": 14,
      "inputId": 0
    },
    {
      "color": "#c91847",
      "outputModuleId": 5,
      "outputId": 0,
      "inputModuleId": 2,
      "inputId": 1
    },
    {
      "color": "#0c8e15",
      "outputModuleId": 0,
      "outputId": 0,
      "inputModuleId": 6,
      "inputId": 0
    },
    {
      "color": "#0986ad",
      "outputModuleId": 6,
      "outputId": 1,
      "inputModuleId": 11,
      "inputId": 0
    },
    {
      "color": "#c9b70e",
      "outputModuleId": 0,
      "outputId": 0,
      "inputModuleId": 7,
      "inputId": 0
    },
    {
      "color": "#0c8e15",
      "outputModuleId": 7,
      "outputId": 1,
      "inputModuleId": 12,
      "inputId": 0
    },
    {
      "color": "#0986ad",
      "outputModuleId": 9,
      "outputId": 1,
      "inputModuleId": 8,
      "inputId": 1
    },
    {
      "color": "#0c8e15",
      "outputModuleId": 8,
      "outputId": 0,
      "inputModuleId": 10,
      "inputId": 2
    },
    {
      "color": "#0986ad",
      "outputModuleId": 13,
      "outputId": 1,
      "inputModuleId": 19,
      "inputId": 2
    },
    {
      "color": "#0c8e15",
      "outputModuleId": 3,
      "outputId": 1,
      "inputModuleId": 35,
      "inputId": 0
    },
    {
      "color": "#0986ad",
      "outputModuleId": 35,
      "outputId": 2,
      "inputModuleId": 15,
      "inputId": 5
    },
    {
      "color": "#c9b70e",
      "outputModuleId": 15,
      "outputId": 0,
      "inputModuleId": 5,
      "inputId": 0
    },
    {
      "color": "#c91847",
      "outputModuleId": 11,
      "outputId": 1,
      "inputModuleId": 15,
      "inputId": 1
    },
    {
      "color": "#c91847",
      "outputModuleId": 6,
      "outputId": 1,
      "inputModuleId": 36,
      "inputId": 0
    },
    {
      "color": "#0c8e15",
      "outputModuleId": 4,
      "outputId": 1,
      "inputModuleId": 37,
      "inputId": 0
    },
    {
      "color": "#0986ad",
      "outputModuleId": 7,
      "outputId": 1,
      "inputModuleId": 38,
      "inputId": 0
    },
    {
      "color": "#c9b70e",
      "outputModuleId": 36,
      "outputId": 2,
      "inputModuleId": 18,
      "inputId": 5
    },
    {
      "color": "#c91847",
      "outputModuleId": 37,
      "outputId": 2,
      "inputModuleId": 16,
      "inputId": 5
    },
    {
      "color": "#0c8e15",
      "outputModuleId": 38,
      "outputId": 2,
      "inputModuleId": 17,
      "inputId": 5
    },
    {
      "color": "#c9b70e",
      "outputModuleId": 14,
      "outputId": 1,
      "inputModuleId": 20,
      "inputId": 2
    },
    {
      "color": "#0c8e15",
      "outputModuleId": 12,
      "outputId": 1,
      "inputModuleId": 22,
      "inputId": 2
    },
    {
      "color": "#c9b70e",
      "outputModuleId": 18,
      "outputId": 0,
      "inputModuleId": 5,
      "inputId": 1
    },
    {
      "color": "#c91847",
      "outputModuleId": 16,
      "outputId": 0,
      "inputModuleId": 5,
      "inputId": 2
    },
    {
      "color": "#0c8e15",
      "outputModuleId": 17,
      "outputId": 0,
      "inputModuleId": 5,
      "inputId": 3
    },
    {
      "color": "#0986ad",
      "outputModuleId": 10,
      "outputId": 0,
      "inputModuleId": 0,
      "inputId": 0
    },
    {
      "color": "#c9b70e",
      "outputModuleId": 19,
      "outputId": 0,
      "inputModuleId": 15,
      "inputId": 2
    },
    {
      "color": "#c91847",
      "outputModuleId": 11,
      "outputId": 1,
      "inputModuleId": 21,
      "inputId": 2
    },
    {
      "color": "#0c8e15",
      "outputModuleId": 21,
      "outputId": 0,
      "inputModuleId": 18,
      "inputId": 2
    },
    {
      "color": "#0986ad",
      "outputModuleId": 20,
      "outputId": 0,
      "inputModuleId": 16,
      "inputId": 2
    },
    {
      "color": "#c9b70e",
      "outputModuleId": 22,
      "outputId": 0,
      "inputModuleId": 17,
      "inputId": 2
    },
    {
      "color": "#c91847",
      "outputModuleId": 35,
      "outputId": 2,
      "inputModuleId": 24,
      "inputId": 0
    },
    {
      "color": "#0986ad",
      "outputModuleId": 36,
      "outputId": 2,
      "inputModuleId": 24,
      "inputId": 1
    },
    {
      "color": "#c91847",
      "outputModuleId": 24,
      "outputId": 0,
      "inputModuleId": 23,
      "inputId": 0
    },
    {
      "color": "#0c8e15",
      "outputModuleId": 24,
      "outputId": 1,
      "inputModuleId": 23,
      "inputId": 1
    },
    {
      "color": "#c91847",
      "outputModuleId": 37,
      "outputId": 2,
      "inputModuleId": 24,
      "inputId": 2
    },
    {
      "color": "#0c8e15",
      "outputModuleId": 38,
      "outputId": 2,
      "inputModuleId": 24,
      "inputId": 3
    },
    {
      "color": "#0986ad",
      "outputModuleId": 24,
      "outputId": 2,
      "inputModuleId": 25,
      "inputId": 0
    },
    {
      "color": "#c9b70e",
      "outputModuleId": 24,
      "outputId": 3,
      "inputModuleId": 25,
      "inputId": 1
    },
    {
      "color": "#c91847",
      "outputModuleId": 25,
      "outputId": 2,
      "inputModuleId": 26,
      "inputId": 0
    },
    {
      "color": "#0c8e15",
      "outputModuleId": 23,
      "outputId": 2,
      "inputModuleId": 26,
      "inputId": 1
    },
    {
      "color": "#0986ad",
      "outputModuleId": 25,
      "outputId": 4,
      "inputModuleId": 27,
      "inputId": 0
    },
    {
      "color": "#c9b70e",
      "outputModuleId": 25,
      "outputId": 3,
      "inputModuleId": 27,
      "inputId": 1
    },
    {
      "color": "#c91847",
      "outputModuleId": 26,
      "outputId": 2,
      "inputModuleId": 29,
      "inputId": 2
    },
    {
      "color": "#0c8e15",
      "outputModuleId": 26,
      "outputId": 3,
      "inputModuleId": 30,
      "inputId": 2
    },
    {
      "color": "#0986ad",
      "outputModuleId": 27,
      "outputId": 4,
      "inputModuleId": 28,
      "inputId": 2
    },
    {
      "color": "#c9b70e",
      "outputModuleId": 27,
      "outputId": 2,
      "inputModuleId": 31,
      "inputId": 2
    },
    {
      "color": "#c91847",
      "outputModuleId": 26,
      "outputId": 0,
      "inputModuleId": 32,
      "inputId": 2
    },
    {
      "color": "#0986ad",
      "outputModuleId": 27,
      "outputId": 5,
      "inputModuleId": 33,
      "inputId": 2
    },
    {
      "color": "#c9b70e",
      "outputModuleId": 29,
      "outputId": 0,
      "inputModuleId": 16,
      "inputId": 1
    },
    {
      "color": "#c91847",
      "outputModuleId": 30,
      "outputId": 0,
      "inputModuleId": 17,
      "inputId": 1
    },
    {
      "color": "#0c8e15",
      "outputModuleId": 28,
      "outputId": 0,
      "inputModuleId": 16,
      "inputId": 3
    },
    {
      "color": "#0986ad",
      "outputModuleId": 31,
      "outputId": 0,
      "inputModuleId": 17,
      "inputId": 3
    },
    {
      "color": "#c9b70e",
      "outputModuleId": 32,
      "outputId": 0,
      "inputModuleId": 15,
      "inputId": 3
    },
    {
      "color": "#c91847",
      "outputModuleId": 33,
      "outputId": 0,
      "inputModuleId": 18,
      "inputId": 1
    },
    {
      "color": "#0986ad",
      "outputModuleId": 9,
      "outputId": 4,
      "inputModuleId": 8,
      "inputId": 2
    },
    {
      "color": "#c9b70e",
      "outputModuleId": 34,
      "outputId": 0,
      "inputModuleId": 0,
      "inputId": 1
    },
    {
      "color": "#c91847",
      "outputModuleId": 9,
      "outputId": 2,
      "inputModuleId": 34,
      "inputId": 4
    },
    {
      "color": "#0c8e15",
      "outputModuleId": 9,
      "outputId": 4,
      "inputModuleId": 34,
      "inputId": 6
    },
    {
      "color": "#c91847",
      "outputModuleId": 37,
      "outputId": 1,
      "inputModuleId": 16,
      "inputId": 6
    },
    {
      "color": "#0c8e15",
      "outputModuleId": 38,
      "outputId": 1,
      "inputModuleId": 17,
      "inputId": 6
    },
    {
      "color": "#0986ad",
      "outputModuleId": 36,
      "outputId": 1,
      "inputModuleId": 18,
      "inputId": 6
    },
    {
      "color": "#c9b70e",
      "outputModuleId": 35,
      "outputId": 0,
      "inputModuleId": 15,
      "inputId": 6
    }
  ]
}