{
  "version": "0.6.2c",
  "modules": [
    {
      "plugin": "Fundamental",
      "version": "0.6.2",
      "model": "Scope",
      "params": [
        {
          "paramId": 0,
          "value": -2.0
        },
        {
          "paramId": 1,
          "value": 0.0
        },
        {
          "paramId": 2,
          "value": 1.0
        },
        {
          "paramId": 3,
          "value": 0.0
        },
        {
          "paramId": 4,
          "value": -10.0649986
        },
        {
          "paramId": 5,
          "value": 0.0
        },
        {
          "paramId": 6,
          "value": 0.0
        },
        {
          "paramId": 7,
          "value": 0.0
        }
      ],
      "data": {
        "lissajous": 0,
        "external": 0
      },
      "pos": [
        27,
        1
      ]
    },
    {
      "plugin": "Core",
      "version": "0.6.2c",
      "model": "AudioInterface",
      "params": [],
      "data": {
        "audio": {
          "driver": 6,
          "deviceName": "Speakers (High Definition Audio Device)",
          "offset": 0,
          "maxChannels": 8,
          "sampleRate": 48000,
          "blockSize": 512
        }
      },
      "pos": [
        102,
        2
      ]
    },
    {
      "plugin": "AS",
      "version": "0.6.13",
      "model": "AtNuVrTr",
      "params": [
        {
          "paramId": 0,
          "value": 0.331000239
        },
        {
          "paramId": 1,
          "value": 0.0
        },
        {
          "paramId": 2,
          "value": -1.0
        },
        {
          "paramId": 3,
          "value": 0.0
        }
      ],
      "pos": [
        58,
        0
      ]
    },
    {
      "plugin": "MSM",
      "version": "0.6.51",
      "model": "Wavefolder",
      "params": [
        {
          "paramId": 6,
          "value": 1.0
        },
        {
          "paramId": 7,
          "value": 3.56000018
        },
        {
          "paramId": 0,
          "value": 1.5
        },
        {
          "paramId": 1,
          "value": -0.680000007
        },
        {
          "paramId": 5,
          "value": -0.585999966
        },
        {
          "paramId": 2,
          "value": 0.448499978
        },
        {
          "paramId": 3,
          "value": 0.562499881
        },
        {
          "paramId": 4,
          "value": 1.0
        },
        {
          "paramId": 8,
          "value": -1.0
        }
      ],
      "data": {
        "Theme": 0
      },
      "pos": [
        17,
        1
      ]
    },
    {
      "plugin": "Fundamental",
      "version": "0.6.2",
      "model": "LFO",
      "params": [
        {
          "paramId": 0,
          "value": 1.0
        },
        {
          "paramId": 1,
          "value": 1.0
        },
        {
          "paramId": 2,
          "value": 0.333999932
        },
        {
          "paramId": 3,
          "value": 0.67750001
        },
        {
          "paramId": 5,
          "value": 0.5
        },
        {
          "paramId": 4,
          "value": 0.0
        },
        {
          "paramId": 6,
          "value": 0.0
        }
      ],
      "pos": [
        7,
        1
      ]
    },
    {
      "plugin": "AS",
      "version": "0.6.13",
      "model": "AtNuVrTr",
      "params": [
        {
          "paramId": 0,
          "value": -0.263999999
        },
        {
          "paramId": 1,
          "value": 0.0
        },
        {
          "paramId": 2,
          "value": 0.391000092
        },
        {
          "paramId": 3,
          "value": -0.359999985
        }
      ],
      "pos": [
        21,
        0
      ]
    },
    {
      "plugin": "AudibleInstruments",
      "version": "0.6.3",
      "model": "Plaits",
      "params": [
        {
          "paramId": 0,
          "value": 0.0
        },
        {
          "paramId": 1,
          "value": 0.0
        },
        {
          "paramId": 2,
          "value": 0.0
        },
        {
          "paramId": 3,
          "value": 0.315000057
        },
        {
          "paramId": 4,
          "value": 0.280500174
        },
        {
          "paramId": 5,
          "value": 0.398999989
        },
        {
          "paramId": 6,
          "value": 0.491000026
        },
        {
          "paramId": 7,
          "value": -0.0929996744
        },
        {
          "paramId": 8,
          "value": 0.489999741
        }
      ],
      "data": {
        "lowCpu": false,
        "model": 3,
        "lpgColor": 0.5,
        "decay": 0.5
      },
      "pos": [
        63,
        0
      ]
    },
    {
      "plugin": "NYSTHI",
      "version": "0.6.39",
      "model": "LFOMultiPhase",
      "params": [
        {
          "paramId": 6,
          "value": 0.0
        },
        {
          "paramId": 7,
          "value": 0.0
        },
        {
          "paramId": 9,
          "value": 0.0
        },
        {
          "paramId": 0,
          "value": 0.0500000007
        },
        {
          "paramId": 2,
          "value": 0.0
        },
        {
          "paramId": 1,
          "value": 0.0
        },
        {
          "paramId": 3,
          "value": 0.0
        },
        {
          "paramId": 4,
          "value": 0.5
        },
        {
          "paramId": 5,
          "value": 0.5
        },
        {
          "paramId": 8,
          "value": 0.185229838
        },
        {
          "paramId": 14,
          "value": 0.5
        },
        {
          "paramId": 11,
          "value": 1.0
        },
        {
          "paramId": 12,
          "value": 0.0
        },
        {
          "paramId": 13,
          "value": 0.0
        }
      ],
      "data": {
        "REALFREQUENCY": 1.16666675
      },
      "pos": [
        4,
        0
      ]
    },
    {
      "plugin": "SynthKit",
      "version": "0.6.2",
      "model": "Clock Divider",
      "params": [],
      "pos": [
        0,
        1
      ]
    },
    {
      "plugin": "Alikins",
      "version": "0.6.6",
      "model": "MomentaryOnButtons",
      "params": [
        {
          "paramId": 0,
          "value": 0.0
        },
        {
          "paramId": 1,
          "value": 0.0
        },
        {
          "paramId": 2,
          "value": 0.0
        },
        {
          "paramId": 3,
          "value": 0.0
        },
        {
          "paramId": 4,
          "value": 0.0
        },
        {
          "paramId": 5,
          "value": 0.0
        },
        {
          "paramId": 6,
          "value": 0.0
        },
        {
          "paramId": 7,
          "value": 0.0
        },
        {
          "paramId": 8,
          "value": 0.0
        },
        {
          "paramId": 9,
          "value": 0.0
        },
        {
          "paramId": 10,
          "value": 0.0
        },
        {
          "paramId": 11,
          "value": 0.0
        },
        {
          "paramId": 12,
          "value": 0.0
        }
      ],
      "pos": [
        0,
        0
      ]
    },
    {
      "plugin": "Bogaudio",
      "version": "0.6.13",
      "model": "Bogaudio-XFade",
      "params": [
        {
          "paramId": 0,
          "value": -0.153999954
        },
        {
          "paramId": 1,
          "value": 0.5
        },
        {
          "paramId": 2,
          "value": 0.0
        }
      ],
      "pos": [
        15,
        0
      ]
    },
    {
      "plugin": "AS",
      "version": "0.6.13",
      "model": "Flow",
      "params": [
        {
          "paramId": 2,
          "value": 1.0
        },
        {
          "paramId": 0,
          "value": 0.0
        },
        {
          "paramId": 1,
          "value": 0.0
        }
      ],
      "data": {
        "as_FlowStates": [
          0,
          1
        ]
      },
      "pos": [
        54,
        1
      ]
    },
    {
      "plugin": "Alikins",
      "version": "0.6.6",
      "model": "SpecificValue",
      "params": [
        {
          "paramId": 0,
          "value": 10.0
        }
      ],
      "pos": [
        42,
        1
      ]
    },
    {
      "plugin": "AudibleInstruments",
      "version": "0.6.3",
      "model": "Branches",
      "params": [
        {
          "paramId": 0,
          "value": 0.491499901
        },
        {
          "paramId": 2,
          "value": 0.0
        },
        {
          "paramId": 1,
          "value": 0.278499991
        },
        {
          "paramId": 3,
          "value": 0.0
        }
      ],
      "data": {
        "modes": [
          false,
          false
        ]
      },
      "pos": [
        48,
        1
      ]
    },
    {
      "plugin": "AS",
      "version": "0.6.13",
      "model": "Cv2T",
      "params": [
        {
          "paramId": 0,
          "value": 0.0
        },
        {
          "paramId": 1,
          "value": 0.0
        },
        {
          "paramId": 2,
          "value": 0.0
        },
        {
          "paramId": 3,
          "value": 0.0
        }
      ],
      "pos": [
        23,
        1
      ]
    },
    {
      "plugin": "AS",
      "version": "0.6.13",
      "model": "TriLFO",
      "params": [
        {
          "paramId": 2,
          "value": 4.43900108
        },
        {
          "paramId": 0,
          "value": 1.0
        },
        {
          "paramId": 1,
          "value": 1.0
        },
        {
          "paramId": 5,
          "value": 2.92699933
        },
        {
          "paramId": 3,
          "value": 1.0
        },
        {
          "paramId": 4,
          "value": 1.0
        },
        {
          "paramId": 8,
          "value": 3.20700026
        },
        {
          "paramId": 6,
          "value": 0.0
        },
        {
          "paramId": 7,
          "value": 1.0
        }
      ],
      "pos": [
        26,
        0
      ]
    },
    {
      "plugin": "Befaco",
      "version": "0.6.0",
      "model": "SlewLimiter",
      "params": [
        {
          "paramId": 0,
          "value": 0.190499976
        },
        {
          "paramId": 1,
          "value": 0.494999975
        },
        {
          "paramId": 2,
          "value": 0.138000026
        }
      ],
      "pos": [
        66,
        1
      ]
    },
    {
      "plugin": "Autodafe",
      "version": "0.6.1",
      "model": "MultiMode Filter",
      "params": [
        {
          "paramId": 0,
          "value": 4617.24609
        },
        {
          "paramId": 2,
          "value": 0.509354889
        },
        {
          "paramId": 3,
          "value": 1.0
        },
        {
          "paramId": 4,
          "value": 0.0
        },
        {
          "paramId": 5,
          "value": 0.152999967
        }
      ],
      "pos": [
        36,
        2
      ]
    },
    {
      "plugin": "Befaco",
      "version": "0.6.0",
      "model": "SlewLimiter",
      "params": [
        {
          "paramId": 0,
          "value": 0.743499994
        },
        {
          "paramId": 1,
          "value": 0.114000097
        },
        {
          "paramId": 2,
          "value": 0.108000077
        }
      ],
      "pos": [
        22,
        2
      ]
    },
    {
      "plugin": "Core",
      "version": "0.6.2c",
      "model": "MIDIToCVInterface",
      "params": [],
      "data": {
        "divisions": [
          24,
          6
        ],
        "midi": {
          "driver": -11,
          "deviceName": "QWERTY keyboard (US)",
          "channel": -1
        }
      },
      "pos": [
        36,
        0
      ]
    },
    {
      "plugin": "Befaco",
      "version": "0.6.0",
      "model": "SlewLimiter",
      "params": [
        {
          "paramId": 0,
          "value": 0.0
        },
        {
          "paramId": 1,
          "value": 0.342000008
        },
        {
          "paramId": 2,
          "value": 0.323999852
        }
      ],
      "pos": [
        52,
        0
      ]
    },
    {
      "plugin": "Fundamental",
      "version": "0.6.2",
      "model": "VCA-1",
      "params": [
        {
          "paramId": 0,
          "value": 1.0
        },
        {
          "paramId": 1,
          "value": 1.0
        }
      ],
      "pos": [
        60,
        1
      ]
    },
    {
      "plugin": "Bogaudio",
      "version": "0.6.13",
      "model": "Bogaudio-ADSR",
      "params": [
        {
          "paramId": 0,
          "value": 0.0
        },
        {
          "paramId": 1,
          "value": 0.0
        },
        {
          "paramId": 2,
          "value": 1.0
        },
        {
          "paramId": 3,
          "value": 0.241229907
        },
        {
          "paramId": 4,
          "value": 0.0
        }
      ],
      "pos": [
        63,
        1
      ]
    },
    {
      "plugin": "Bogaudio",
      "version": "0.6.13",
      "model": "Bogaudio-ADSR",
      "params": [
        {
          "paramId": 0,
          "value": 0.0
        },
        {
          "paramId": 1,
          "value": 0.739500165
        },
        {
          "paramId": 2,
          "value": 0.0
        },
        {
          "paramId": 3,
          "value": 0.691230059
        },
        {
          "paramId": 4,
          "value": 1.0
        }
      ],
      "pos": [
        28,
        2
      ]
    },
    {
      "plugin": "AS",
      "version": "0.6.13",
      "model": "AtNuVrTr",
      "params": [
        {
          "paramId": 0,
          "value": 0.429999709
        },
        {
          "paramId": 1,
          "value": -2.37000084
        },
        {
          "paramId": 2,
          "value": 0.214000076
        },
        {
          "paramId": 3,
          "value": -0.030000329
        }
      ],
      "pos": [
        31,
        2
      ]
    },
    {
      "plugin": "AS",
      "version": "0.6.13",
      "model": "Mixer4ch",
      "params": [
        {
          "paramId": 5,
          "value": 0.0
        },
        {
          "paramId": 6,
          "value": 0.0
        },
        {
          "paramId": 7,
          "value": -0.984999955
        },
        {
          "paramId": 8,
          "value": 1.0
        },
        {
          "paramId": 1,
          "value": 0.800000012
        },
        {
          "paramId": 2,
          "value": 0.800000012
        },
        {
          "paramId": 3,
          "value": 0.800000012
        },
        {
          "paramId": 4,
          "value": 0.800000012
        },
        {
          "paramId": 9,
          "value": 0.0
        },
        {
          "paramId": 10,
          "value": 0.0
        },
        {
          "paramId": 11,
          "value": 0.0
        },
        {
          "paramId": 12,
          "value": 0.0
        },
        {
          "paramId": 0,
          "value": 0.332000196
        },
        {
          "paramId": 13,
          "value": 0.0
        }
      ],
      "data": {
        "as_Mixer4Mutes": [
          0,
          0,
          0,
          0,
          0
        ]
      },
      "pos": [
        66,
        2
      ]
    },
    {
      "plugin": "Befaco",
      "version": "0.6.0",
      "model": "SlewLimiter",
      "params": [
        {
          "paramId": 0,
          "value": 1.0
        },
        {
          "paramId": 1,
          "value": 0.177000076
        },
        {
          "paramId": 2,
          "value": 0.422999978
        }
      ],
      "pos": [
        49,
        2
      ]
    },
    {
      "plugin": "Befaco",
      "version": "0.6.0",
      "model": "SlewLimiter",
      "params": [
        {
          "paramId": 0,
          "value": 1.0
        },
        {
          "paramId": 1,
          "value": 0.183000043
        },
        {
          "paramId": 2,
          "value": 0.404999942
        }
      ],
      "pos": [
        55,
        2
      ]
    },
    {
      "plugin": "AS",
      "version": "0.6.13",
      "model": "AtNuVrTr",
      "params": [
        {
          "paramId": 0,
          "value": 0.265000075
        },
        {
          "paramId": 1,
          "value": 2.19000053
        },
        {
          "paramId": 2,
          "value": -0.284999996
        },
        {
          "paramId": 3,
          "value": -3.08999991
        }
      ],
      "pos": [
        61,
        2
      ]
    },
    {
      "plugin": "NYSTHI",
      "version": "0.6.39",
      "model": "ClockableDelay",
      "params": [
        {
          "paramId": 5,
          "value": 1.0
        },
        {
          "paramId": 4,
          "value": 0.634998262
        },
        {
          "paramId": 3,
          "value": 0.608999968
        },
        {
          "paramId": 0,
          "value": 0.0
        },
        {
          "paramId": 2,
          "value": 0.0
        },
        {
          "paramId": 1,
          "value": 0.0
        },
        {
          "paramId": 6,
          "value": 0.304499924
        }
      ],
      "data": {
        "m_delay_time": 0.0288619325,
        "m_delay_time_multiplier": 1.0,
        "m_feedback": 0.686999917,
        "m_feed_in": 0.702000022
      },
      "pos": [
        87,
        2
      ]
    },
    {
      "plugin": "AS",
      "version": "0.6.13",
      "model": "Cv2T",
      "params": [
        {
          "paramId": 0,
          "value": 0.0
        },
        {
          "paramId": 1,
          "value": 0.0
        },
        {
          "paramId": 2,
          "value": 0.0
        },
        {
          "paramId": 3,
          "value": 0.0
        }
      ],
      "pos": [
        11,
        0
      ]
    },
    {
      "plugin": "AS",
      "version": "0.6.13",
      "model": "AtNuVrTr",
      "params": [
        {
          "paramId": 0,
          "value": -0.0639990494
        },
        {
          "paramId": 1,
          "value": -7.02999973
        },
        {
          "paramId": 2,
          "value": -1.0
        },
        {
          "paramId": 3,
          "value": 1.5
        }
      ],
      "pos": [
        82,
        2
      ]
    },
    {
      "plugin": "AS",
      "version": "0.6.13",
      "model": "VCA",
      "params": [
        {
          "paramId": 0,
          "value": 0.5
        },
        {
          "paramId": 1,
          "value": 0.5
        },
        {
          "paramId": 2,
          "value": 1.0
        },
        {
          "paramId": 3,
          "value": 1.0
        }
      ],
      "pos": [
        95,
        2
      ]
    },
    {
      "plugin": "NYSTHI",
      "version": "0.6.39",
      "model": "MasterRecorder",
      "params": [
        {
          "paramId": 0,
          "value": 0.0
        },
        {
          "paramId": 1,
          "value": 0.0
        },
        {
          "paramId": 2,
          "value": 0.0
        }
      ],
      "data": {
        "nysthi_id": "MR_lRIGMCZ8",
        "wavebits": 9
      },
      "pos": [
        112,
        2
      ]
    },
    {
      "plugin": "Core",
      "version": "0.6.2c",
      "model": "MIDICCToCVInterface",
      "params": [],
      "data": {
        "ccs": [
          57,
          58,
          59,
          60,
          61,
          62,
          63,
          64,
          65,
          66,
          67,
          68,
          69,
          70,
          71,
          72
        ],
        "midi": {
          "driver": 4,
          "deviceName": "Midi Fighter Twister 0",
          "channel": -1
        }
      },
      "pos": [
        3,
        2
      ]
    },
    {
      "plugin": "Fundamental",
      "version": "0.6.2",
      "model": "8vert",
      "params": [
        {
          "paramId": 0,
          "value": 0.0580000579
        },
        {
          "paramId": 1,
          "value": 1.0
        },
        {
          "paramId": 2,
          "value": 1.0
        },
        {
          "paramId": 3,
          "value": 1.0
        },
        {
          "paramId": 4,
          "value": 1.0
        },
        {
          "paramId": 5,
          "value": 1.0
        },
        {
          "paramId": 6,
          "value": 1.0
        },
        {
          "paramId": 7,
          "value": 1.0
        }
      ],
      "pos": [
        13,
        2
      ]
    },
    {
      "plugin": "NYSTHI",
      "version": "0.6.39",
      "model": "NYStereoPhaser",
      "params": [
        {
          "paramId": 7,
          "value": 1.0
        },
        {
          "paramId": 8,
          "value": 1.0
        },
        {
          "paramId": 9,
          "value": 0.0
        },
        {
          "paramId": 1,
          "value": 0.879999757
        },
        {
          "paramId": 2,
          "value": 0.384000123
        },
        {
          "paramId": 3,
          "value": 0.195999861
        },
        {
          "paramId": 4,
          "value": 0.569599926
        },
        {
          "paramId": 5,
          "value": 0.445999771
        },
        {
          "paramId": 6,
          "value": 0.0659999996
        },
        {
          "paramId": 10,
          "value": 0.0
        }
      ],
      "pos": [
        79,
        1
      ]
    },
    {
      "plugin": "NYSTHI",
      "version": "0.6.39",
      "model": "StereoChorus2",
      "params": [
        {
          "paramId": 5,
          "value": 0.0
        },
        {
          "paramId": 0,
          "value": 0.159699991
        },
        {
          "paramId": 1,
          "value": 0.51699996
        },
        {
          "paramId": 2,
          "value": -0.365999937
        },
        {
          "paramId": 3,
          "value": 0.696500003
        },
        {
          "paramId": 8,
          "value": 0.0
        },
        {
          "paramId": 4,
          "value": 0.0
        },
        {
          "paramId": 6,
          "value": 1.18750036
        },
        {
          "paramId": 7,
          "value": 0.0
        }
      ],
      "pos": [
        91,
        1
      ]
    }
  ],
  "wires": [
    {
      "color": "#0986ad",
      "outputModuleId": 10,
      "outputId": 0,
      "inputModuleId": 5,
      "inputId": 5
    },
    {
      "color": "#c9b70e",
      "outputModuleId": 5,
      "outputId": 0,
      "inputModuleId": 5,
      "inputId": 3
    },
    {
      "color": "#0986ad",
      "outputModuleId": 9,
      "outputId": 0,
      "inputModuleId": 7,
      "inputId": 6
    },
    {
      "color": "#0986ad",
      "outputModuleId": 9,
      "outputId": 0,
      "inputModuleId": 4,
      "inputId": 2
    },
    {
      "color": "#c9b70e",
      "outputModuleId": 2,
      "outputId": 0,
      "inputModuleId": 6,
      "inputId": 4
    },
    {
      "color": "#c91847",
      "outputModuleId": 12,
      "outputId": 0,
      "inputModuleId": 11,
      "inputId": 0
    },
    {
      "color": "#c91847",
      "outputModuleId": 13,
      "outputId": 0,
      "inputModuleId": 11,
      "inputId": 4
    },
    {
      "color": "#0c8e15",
      "outputModuleId": 6,
      "outputId": 0,
      "inputModuleId": 17,
      "inputId": 4
    },
    {
      "color": "#c9b70e",
      "outputModuleId": 14,
      "outputId": 0,
      "inputModuleId": 13,
      "inputId": 0
    },
    {
      "color": "#c91847",
      "outputModuleId": 14,
      "outputId": 0,
      "inputModuleId": 13,
      "inputId": 1
    },
    {
      "color": "#0c8e15",
      "outputModuleId": 13,
      "outputId": 1,
      "inputModuleId": 11,
      "inputId": 5
    },
    {
      "color": "#c9b70e",
      "outputModuleId": 12,
      "outputId": 0,
      "inputModuleId": 11,
      "inputId": 1
    },
    {
      "color": "#0c8e15",
      "outputModuleId": 16,
      "outputId": 0,
      "inputModuleId": 2,
      "inputId": 4
    },
    {
      "color": "#c9b70e",
      "outputModuleId": 4,
      "outputId": 0,
      "inputModuleId": 3,
      "inputId": 0
    },
    {
      "color": "#c91847",
      "outputModuleId": 3,
      "outputId": 0,
      "inputModuleId": 14,
      "inputId": 0
    },
    {
      "color": "#0c8e15",
      "outputModuleId": 3,
      "outputId": 0,
      "inputModuleId": 0,
      "inputId": 0
    },
    {
      "color": "#0986ad",
      "outputModuleId": 16,
      "outputId": 0,
      "inputModuleId": 6,
      "inputId": 2
    },
    {
      "color": "#c9b70e",
      "outputModuleId": 11,
      "outputId": 0,
      "inputModuleId": 21,
      "inputId": 1
    },
    {
      "color": "#0c8e15",
      "outputModuleId": 35,
      "outputId": 4,
      "inputModuleId": 6,
      "inputId": 1
    },
    {
      "color": "#0986ad",
      "outputModuleId": 35,
      "outputId": 5,
      "inputModuleId": 6,
      "inputId": 3
    },
    {
      "color": "#c9b70e",
      "outputModuleId": 15,
      "outputId": 8,
      "inputModuleId": 13,
      "inputId": 2
    },
    {
      "color": "#c91847",
      "outputModuleId": 11,
      "outputId": 1,
      "inputModuleId": 16,
      "inputId": 2
    },
    {
      "color": "#0c8e15",
      "outputModuleId": 17,
      "outputId": 0,
      "inputModuleId": 36,
      "inputId": 0
    },
    {
      "color": "#0986ad",
      "outputModuleId": 17,
      "outputId": 0,
      "inputModuleId": 36,
      "inputId": 8
    },
    {
      "color": "#c9b70e",
      "outputModuleId": 5,
      "outputId": 1,
      "inputModuleId": 4,
      "inputId": 0
    },
    {
      "color": "#c91847",
      "outputModuleId": 4,
      "outputId": 1,
      "inputModuleId": 10,
      "inputId": 1
    },
    {
      "color": "#0c8e15",
      "outputModuleId": 3,
      "outputId": 0,
      "inputModuleId": 10,
      "inputId": 2
    },
    {
      "color": "#c9b70e",
      "outputModuleId": 13,
      "outputId": 2,
      "inputModuleId": 5,
      "inputId": 4
    },
    {
      "color": "#0c8e15",
      "outputModuleId": 16,
      "outputId": 0,
      "inputModuleId": 18,
      "inputId": 2
    },
    {
      "color": "#0986ad",
      "outputModuleId": 18,
      "outputId": 0,
      "inputModuleId": 24,
      "inputId": 5
    },
    {
      "color": "#c91847",
      "outputModuleId": 20,
      "outputId": 0,
      "inputModuleId": 6,
      "inputId": 7
    },
    {
      "color": "#0c8e15",
      "outputModuleId": 35,
      "outputId": 3,
      "inputModuleId": 20,
      "inputId": 2
    },
    {
      "color": "#0986ad",
      "outputModuleId": 19,
      "outputId": 1,
      "inputModuleId": 6,
      "inputId": 5
    },
    {
      "color": "#c9b70e",
      "outputModuleId": 21,
      "outputId": 0,
      "inputModuleId": 6,
      "inputId": 6
    },
    {
      "color": "#c91847",
      "outputModuleId": 19,
      "outputId": 1,
      "inputModuleId": 22,
      "inputId": 0
    },
    {
      "color": "#0c8e15",
      "outputModuleId": 22,
      "outputId": 0,
      "inputModuleId": 21,
      "inputId": 0
    },
    {
      "color": "#c9b70e",
      "outputModuleId": 19,
      "outputId": 1,
      "inputModuleId": 23,
      "inputId": 0
    },
    {
      "color": "#c91847",
      "outputModuleId": 24,
      "outputId": 1,
      "inputModuleId": 17,
      "inputId": 0
    },
    {
      "color": "#0c8e15",
      "outputModuleId": 24,
      "outputId": 0,
      "inputModuleId": 24,
      "inputId": 3
    },
    {
      "color": "#0c8e15",
      "outputModuleId": 26,
      "outputId": 0,
      "inputModuleId": 25,
      "inputId": 2
    },
    {
      "color": "#0986ad",
      "outputModuleId": 27,
      "outputId": 0,
      "inputModuleId": 25,
      "inputId": 5
    },
    {
      "color": "#0c8e15",
      "outputModuleId": 13,
      "outputId": 0,
      "inputModuleId": 26,
      "inputId": 2
    },
    {
      "color": "#0986ad",
      "outputModuleId": 13,
      "outputId": 2,
      "inputModuleId": 27,
      "inputId": 2
    },
    {
      "color": "#c9b70e",
      "outputModuleId": 28,
      "outputId": 0,
      "inputModuleId": 25,
      "inputId": 3
    },
    {
      "color": "#c91847",
      "outputModuleId": 28,
      "outputId": 1,
      "inputModuleId": 25,
      "inputId": 6
    },
    {
      "color": "#0c8e15",
      "outputModuleId": 3,
      "outputId": 0,
      "inputModuleId": 28,
      "inputId": 4
    },
    {
      "color": "#0986ad",
      "outputModuleId": 3,
      "outputId": 0,
      "inputModuleId": 28,
      "inputId": 5
    },
    {
      "color": "#c91847",
      "outputModuleId": 30,
      "outputId": 0,
      "inputModuleId": 8,
      "inputId": 0
    },
    {
      "color": "#0c8e15",
      "outputModuleId": 7,
      "outputId": 8,
      "inputModuleId": 30,
      "inputId": 0
    },
    {
      "color": "#c91847",
      "outputModuleId": 8,
      "outputId": 1,
      "inputModuleId": 3,
      "inputId": 3
    },
    {
      "color": "#0c8e15",
      "outputModuleId": 20,
      "outputId": 0,
      "inputModuleId": 31,
      "inputId": 5
    },
    {
      "color": "#0986ad",
      "outputModuleId": 31,
      "outputId": 1,
      "inputModuleId": 29,
      "inputId": 8
    },
    {
      "color": "#c9b70e",
      "outputModuleId": 31,
      "outputId": 0,
      "inputModuleId": 29,
      "inputId": 9
    },
    {
      "color": "#0c8e15",
      "outputModuleId": 31,
      "outputId": 1,
      "inputModuleId": 31,
      "inputId": 4
    },
    {
      "color": "#c91847",
      "outputModuleId": 22,
      "outputId": 0,
      "inputModuleId": 31,
      "inputId": 2
    },
    {
      "color": "#c9b70e",
      "outputModuleId": 25,
      "outputId": 2,
      "inputModuleId": 29,
      "inputId": 0
    },
    {
      "color": "#c91847",
      "outputModuleId": 25,
      "outputId": 3,
      "inputModuleId": 29,
      "inputId": 1
    },
    {
      "color": "#c9b70e",
      "outputModuleId": 32,
      "outputId": 0,
      "inputModuleId": 1,
      "inputId": 0
    },
    {
      "color": "#c91847",
      "outputModuleId": 32,
      "outputId": 1,
      "inputModuleId": 1,
      "inputId": 1
    },
    {
      "color": "#0c8e15",
      "outputModuleId": 32,
      "outputId": 0,
      "inputModuleId": 33,
      "inputId": 0
    },
    {
      "color": "#0986ad",
      "outputModuleId": 32,
      "outputId": 1,
      "inputModuleId": 33,
      "inputId": 1
    },
    {
      "color": "#c9b70e",
      "outputModuleId": 35,
      "outputId": 0,
      "inputModuleId": 17,
      "inputId": 2
    },
    {
      "color": "#c91847",
      "outputModuleId": 34,
      "outputId": 0,
      "inputModuleId": 35,
      "inputId": 0
    },
    {
      "color": "#0c8e15",
      "outputModuleId": 34,
      "outputId": 1,
      "inputModuleId": 35,
      "inputId": 1
    },
    {
      "color": "#0986ad",
      "outputModuleId": 34,
      "outputId": 2,
      "inputModuleId": 35,
      "inputId": 2
    },
    {
      "color": "#c9b70e",
      "outputModuleId": 34,
      "outputId": 3,
      "inputModuleId": 35,
      "inputId": 3
    },
    {
      "color": "#c91847",
      "outputModuleId": 34,
      "outputId": 4,
      "inputModuleId": 35,
      "inputId": 4
    },
    {
      "color": "#0c8e15",
      "outputModuleId": 34,
      "outputId": 5,
      "inputModuleId": 35,
      "inputId": 5
    },
    {
      "color": "#0986ad",
      "outputModuleId": 34,
      "outputId": 6,
      "inputModuleId": 35,
      "inputId": 6
    },
    {
      "color": "#c9b70e",
      "outputModuleId": 34,
      "outputId": 7,
      "inputModuleId": 35,
      "inputId": 7
    },
    {
      "color": "#0986ad",
      "outputModuleId": 23,
      "outputId": 0,
      "inputModuleId": 24,
      "inputId": 4
    },
    {
      "color": "#c9b70e",
      "outputModuleId": 35,
      "outputId": 1,
      "inputModuleId": 24,
      "inputId": 2
    },
    {
      "color": "#0c8e15",
      "outputModuleId": 25,
      "outputId": 4,
      "inputModuleId": 32,
      "inputId": 1
    },
    {
      "color": "#0986ad",
      "outputModuleId": 25,
      "outputId": 5,
      "inputModuleId": 32,
      "inputId": 3
    },
    {
      "color": "#c9b70e",
      "outputModuleId": 35,
      "outputId": 2,
      "inputModuleId": 36,
      "inputId": 7
    },
    {
      "color": "#0c8e15",
      "outputModuleId": 36,
      "outputId": 0,
      "inputModuleId": 25,
      "inputId": 1
    },
    {
      "color": "#0986ad",
      "outputModuleId": 36,
      "outputId": 1,
      "inputModuleId": 25,
      "inputId": 4
    },
    {
      "color": "#c91847",
      "outputModuleId": 29,
      "outputId": 8,
      "inputModuleId": 25,
      "inputId": 7
    },
    {
      "color": "#0c8e15",
      "outputModuleId": 29,
      "outputId": 9,
      "inputModuleId": 25,
      "inputId": 10
    },
    {
      "color": "#0986ad",
      "outputModuleId": 29,
      "outputId": 4,
      "inputModuleId": 37,
      "inputId": 0
    },
    {
      "color": "#c9b70e",
      "outputModuleId": 29,
      "outputId": 5,
      "inputModuleId": 37,
      "inputId": 1
    },
    {
      "color": "#c91847",
      "outputModuleId": 37,
      "outputId": 0,
      "inputModuleId": 29,
      "inputId": 4
    },
    {
      "color": "#0c8e15",
      "outputModuleId": 37,
      "outputId": 1,
      "inputModuleId": 29,
      "inputId": 5
    },
    {
      "color": "#0986ad",
      "outputModuleId": 35,
      "outputId": 6,
      "inputModuleId": 37,
      "inputId": 6
    }
  ]
}