{
  "version": "0.6.2c",
  "modules": [
    {
      "plugin": "Core",
      "version": "0.6.2c",
      "model": "AudioInterface",
      "params": [],
      "data": {
        "audio": {
          "driver": 7,
          "deviceName": "MOTU Audio ASIO",
          "offset": 0,
          "maxChannels": 8,
          "sampleRate": 44100,
          "blockSize": 256
        }
      },
      "pos": [
        94,
        0
      ]
    },
    {
      "plugin": "AS",
      "version": "0.6.12",
      "model": "BPMClock",
      "params": [
        {
          "paramId": 0,
          "value": 40.0
        },
        {
          "paramId": 1,
          "value": 1.0
        },
        {
          "paramId": 2,
          "value": 4.0
        },
        {
          "paramId": 3,
          "value": 1.0
        },
        {
          "paramId": 5,
          "value": 0.0
        },
        {
          "paramId": 4,
          "value": 0.0
        }
      ],
      "data": {
        "run": [
          1
        ]
      },
      "pos": [
        0,
        0
      ]
    },
    {
      "plugin": "mscHack",
      "version": "0.6.3",
      "model": "Alienz",
      "params": [
        {
          "paramId": 0,
          "value": 4.0
        }
      ],
      "data": {
        "m_Seed": [
          -1745669755
        ]
      },
      "pos": [
        0,
        1
      ]
    },
    {
      "plugin": "AS",
      "version": "0.6.12",
      "model": "VCA",
      "params": [
        {
          "paramId": 0,
          "value": 0.5
        },
        {
          "paramId": 1,
          "value": 0.5
        },
        {
          "paramId": 2,
          "value": 1.0
        },
        {
          "paramId": 3,
          "value": 1.0
        }
      ],
      "pos": [
        84,
        0
      ]
    },
    {
      "plugin": "Befaco",
      "version": "0.6.0",
      "model": "EvenVCO",
      "params": [
        {
          "paramId": 0,
          "value": -2.0
        },
        {
          "paramId": 1,
          "value": 0.0
        },
        {
          "paramId": 2,
          "value": 0.0
        }
      ],
      "pos": [
        11,
        0
      ]
    },
    {
      "plugin": "Bogaudio",
      "version": "0.6.12",
      "model": "Bogaudio-Offset",
      "params": [
        {
          "paramId": 0,
          "value": 0.0
        },
        {
          "paramId": 1,
          "value": -0.414999872
        }
      ],
      "data": {
        "disableOutputLimit": false
      },
      "pos": [
        8,
        0
      ]
    },
    {
      "plugin": "Befaco",
      "version": "0.6.0",
      "model": "SlewLimiter",
      "params": [
        {
          "paramId": 0,
          "value": 0.99849999
        },
        {
          "paramId": 1,
          "value": 0.215999991
        },
        {
          "paramId": 2,
          "value": 0.0929999426
        }
      ],
      "pos": [
        78,
        0
      ]
    },
    {
      "plugin": "mscHack",
      "version": "0.6.3",
      "model": "Alienz",
      "params": [
        {
          "paramId": 0,
          "value": 4.0
        }
      ],
      "data": {
        "m_Seed": [
          1685678170
        ]
      },
      "pos": [
        5,
        1
      ]
    },
    {
      "plugin": "mscHack",
      "version": "0.6.3",
      "model": "Alienz",
      "params": [
        {
          "paramId": 0,
          "value": 4.0
        }
      ],
      "data": {
        "m_Seed": [
          36141526
        ]
      },
      "pos": [
        10,
        1
      ]
    },
    {
      "plugin": "mscHack",
      "version": "0.6.3",
      "model": "Alienz",
      "params": [
        {
          "paramId": 0,
          "value": 4.0
        }
      ],
      "data": {
        "m_Seed": [
          1995833393
        ]
      },
      "pos": [
        15,
        1
      ]
    },
    {
      "plugin": "AS",
      "version": "0.6.12",
      "model": "QuadVCA",
      "params": [
        {
          "paramId": 0,
          "value": 0.5
        },
        {
          "paramId": 1,
          "value": 0.5
        },
        {
          "paramId": 2,
          "value": 0.5
        },
        {
          "paramId": 3,
          "value": 0.5
        },
        {
          "paramId": 4,
          "value": 1.0
        },
        {
          "paramId": 5,
          "value": 0.0
        },
        {
          "paramId": 6,
          "value": 0.0
        },
        {
          "paramId": 7,
          "value": 0.0
        }
      ],
      "pos": [
        60,
        0
      ]
    },
    {
      "plugin": "AudibleInstruments",
      "version": "0.6.3",
      "model": "Branches",
      "params": [
        {
          "paramId": 0,
          "value": 0.0
        },
        {
          "paramId": 2,
          "value": 0.0
        },
        {
          "paramId": 1,
          "value": 0.00600000005
        },
        {
          "paramId": 3,
          "value": 0.0
        }
      ],
      "data": {
        "modes": [
          false,
          false
        ]
      },
      "pos": [
        20,
        1
      ]
    },
    {
      "plugin": "AudibleInstruments",
      "version": "0.6.3",
      "model": "Branches",
      "params": [
        {
          "paramId": 0,
          "value": 0.00749999983
        },
        {
          "paramId": 2,
          "value": 0.0
        },
        {
          "paramId": 1,
          "value": 0.022499999
        },
        {
          "paramId": 3,
          "value": 0.0
        }
      ],
      "data": {
        "modes": [
          false,
          false
        ]
      },
      "pos": [
        26,
        1
      ]
    },
    {
      "plugin": "AudibleInstruments",
      "version": "0.6.3",
      "model": "Branches",
      "params": [
        {
          "paramId": 0,
          "value": 0.0
        },
        {
          "paramId": 2,
          "value": 0.0
        },
        {
          "paramId": 1,
          "value": 0.00600000005
        },
        {
          "paramId": 3,
          "value": 0.0
        }
      ],
      "data": {
        "modes": [
          false,
          false
        ]
      },
      "pos": [
        32,
        1
      ]
    },
    {
      "plugin": "AudibleInstruments",
      "version": "0.6.3",
      "model": "Branches",
      "params": [
        {
          "paramId": 0,
          "value": 0.0425001867
        },
        {
          "paramId": 2,
          "value": 0.0
        },
        {
          "paramId": 1,
          "value": 0.00150000001
        },
        {
          "paramId": 3,
          "value": 0.0
        }
      ],
      "data": {
        "modes": [
          false,
          false
        ]
      },
      "pos": [
        38,
        1
      ]
    },
    {
      "plugin": "Fundamental",
      "version": "0.6.2",
      "model": "Unity",
      "params": [
        {
          "paramId": 0,
          "value": 1.0
        },
        {
          "paramId": 1,
          "value": 1.0
        }
      ],
      "data": {
        "merge": false
      },
      "pos": [
        54,
        0
      ]
    },
    {
      "plugin": "Fundamental",
      "version": "0.6.2",
      "model": "Unity",
      "params": [
        {
          "paramId": 0,
          "value": 1.0
        },
        {
          "paramId": 1,
          "value": 1.0
        }
      ],
      "data": {
        "merge": false
      },
      "pos": [
        48,
        0
      ]
    },
    {
      "plugin": "Befaco",
      "version": "0.6.0",
      "model": "EvenVCO",
      "params": [
        {
          "paramId": 0,
          "value": -2.0
        },
        {
          "paramId": 1,
          "value": 0.77700001
        },
        {
          "paramId": 2,
          "value": 0.0
        }
      ],
      "pos": [
        31,
        0
      ]
    },
    {
      "plugin": "Bogaudio",
      "version": "0.6.12",
      "model": "Bogaudio-Offset",
      "params": [
        {
          "paramId": 0,
          "value": 0.0
        },
        {
          "paramId": 1,
          "value": 0.253000051
        }
      ],
      "data": {
        "disableOutputLimit": false
      },
      "pos": [
        39,
        0
      ]
    },
    {
      "plugin": "Befaco",
      "version": "0.6.0",
      "model": "SlewLimiter",
      "params": [
        {
          "paramId": 0,
          "value": 0.58799994
        },
        {
          "paramId": 1,
          "value": 0.0
        },
        {
          "paramId": 2,
          "value": 0.186000019
        }
      ],
      "pos": [
        19,
        0
      ]
    },
    {
      "plugin": "Befaco",
      "version": "0.6.0",
      "model": "SlewLimiter",
      "params": [
        {
          "paramId": 0,
          "value": 0.638999999
        },
        {
          "paramId": 1,
          "value": 0.0
        },
        {
          "paramId": 2,
          "value": 0.230999872
        }
      ],
      "pos": [
        25,
        0
      ]
    },
    {
      "plugin": "AudibleInstruments",
      "version": "0.6.3",
      "model": "Warps",
      "params": [
        {
          "paramId": 0,
          "value": 0.0
        },
        {
          "paramId": 1,
          "value": 0.0
        },
        {
          "paramId": 2,
          "value": 0.0
        },
        {
          "paramId": 3,
          "value": 0.996999979
        },
        {
          "paramId": 4,
          "value": 0.719499826
        }
      ],
      "data": {
        "shape": 0
      },
      "pos": [
        46,
        1
      ]
    },
    {
      "plugin": "Fundamental",
      "version": "0.6.2",
      "model": "Delay",
      "params": [
        {
          "paramId": 0,
          "value": 0.0
        },
        {
          "paramId": 1,
          "value": 0.0
        },
        {
          "paramId": 2,
          "value": 0.0
        },
        {
          "paramId": 3,
          "value": 0.989499927
        }
      ],
      "pos": [
        56,
        1
      ]
    },
    {
      "plugin": "AS",
      "version": "0.6.12",
      "model": "QuadVCA",
      "params": [
        {
          "paramId": 0,
          "value": 0.5
        },
        {
          "paramId": 1,
          "value": 0.524999917
        },
        {
          "paramId": 2,
          "value": 0.5
        },
        {
          "paramId": 3,
          "value": 0.5
        },
        {
          "paramId": 4,
          "value": 1.0
        },
        {
          "paramId": 5,
          "value": 0.0
        },
        {
          "paramId": 6,
          "value": 1.0
        },
        {
          "paramId": 7,
          "value": 1.0
        }
      ],
      "pos": [
        68,
        0
      ]
    },
    {
      "plugin": "Befaco",
      "version": "0.6.0",
      "model": "SlewLimiter",
      "params": [
        {
          "paramId": 0,
          "value": 0.810000122
        },
        {
          "paramId": 1,
          "value": 0.0599999726
        },
        {
          "paramId": 2,
          "value": 0.233999938
        }
      ],
      "pos": [
        72,
        1
      ]
    },
    {
      "plugin": "Bogaudio",
      "version": "0.6.12",
      "model": "Bogaudio-Follow",
      "params": [
        {
          "paramId": 0,
          "value": 0.0629999936
        },
        {
          "paramId": 1,
          "value": 0.996999979
        }
      ],
      "pos": [
        64,
        1
      ]
    },
    {
      "plugin": "Bogaudio",
      "version": "0.6.12",
      "model": "Bogaudio-Offset",
      "params": [
        {
          "paramId": 0,
          "value": -0.470999956
        },
        {
          "paramId": 1,
          "value": -0.286999732
        }
      ],
      "data": {
        "disableOutputLimit": false
      },
      "pos": [
        67,
        1
      ]
    },
    {
      "plugin": "Core",
      "version": "0.6.2c",
      "model": "MIDICCToCVInterface",
      "params": [],
      "data": {
        "ccs": [
          96,
          97,
          98,
          99,
          100,
          101,
          102,
          103,
          60,
          61,
          62,
          63,
          92,
          93,
          94,
          95
        ],
        "midi": {
          "driver": 4,
          "deviceName": "MIDIIN3 (microKONTROL) 2",
          "channel": -1
        }
      },
      "pos": [
        107,
        2
      ]
    },
    {
      "plugin": "Bogaudio",
      "version": "0.6.12",
      "model": "Bogaudio-Offset",
      "params": [
        {
          "paramId": 0,
          "value": -0.23999989
        },
        {
          "paramId": 1,
          "value": -0.142999783
        }
      ],
      "data": {
        "disableOutputLimit": false
      },
      "pos": [
        78,
        1
      ]
    },
    {
      "plugin": "Befaco",
      "version": "0.6.0",
      "model": "SlewLimiter",
      "params": [
        {
          "paramId": 0,
          "value": 0.760500133
        },
        {
          "paramId": 1,
          "value": 0.258000046
        },
        {
          "paramId": 2,
          "value": 0.0599999428
        }
      ],
      "pos": [
        81,
        1
      ]
    },
    {
      "plugin": "AS",
      "version": "0.6.12",
      "model": "TriLFO",
      "params": [
        {
          "paramId": 2,
          "value": -2.88999963
        },
        {
          "paramId": 0,
          "value": 1.0
        },
        {
          "paramId": 1,
          "value": 1.0
        },
        {
          "paramId": 5,
          "value": 0.511999965
        },
        {
          "paramId": 3,
          "value": 1.0
        },
        {
          "paramId": 4,
          "value": 1.0
        },
        {
          "paramId": 8,
          "value": 1.85599995
        },
        {
          "paramId": 6,
          "value": 1.0
        },
        {
          "paramId": 7,
          "value": 1.0
        }
      ],
      "pos": [
        33,
        2
      ]
    },
    {
      "plugin": "AS",
      "version": "0.6.12",
      "model": "TriLFO",
      "params": [
        {
          "paramId": 2,
          "value": 0.322999865
        },
        {
          "paramId": 0,
          "value": 1.0
        },
        {
          "paramId": 1,
          "value": 1.0
        },
        {
          "paramId": 5,
          "value": 4.17299795
        },
        {
          "paramId": 3,
          "value": 1.0
        },
        {
          "paramId": 4,
          "value": 1.0
        },
        {
          "paramId": 8,
          "value": -4.10800028
        },
        {
          "paramId": 6,
          "value": 1.0
        },
        {
          "paramId": 7,
          "value": 1.0
        }
      ],
      "pos": [
        43,
        2
      ]
    },
    {
      "plugin": "Bogaudio",
      "version": "0.6.12",
      "model": "Bogaudio-SampleHold",
      "params": [
        {
          "paramId": 0,
          "value": 0.0
        },
        {
          "paramId": 1,
          "value": 0.0
        }
      ],
      "pos": [
        64,
        2
      ]
    },
    {
      "plugin": "AudibleInstruments",
      "version": "0.6.3",
      "model": "Branches",
      "params": [
        {
          "paramId": 0,
          "value": 0.5
        },
        {
          "paramId": 2,
          "value": 0.0
        },
        {
          "paramId": 1,
          "value": 0.5
        },
        {
          "paramId": 3,
          "value": 0.0
        }
      ],
      "data": {
        "modes": [
          false,
          false
        ]
      },
      "pos": [
        58,
        2
      ]
    },
    {
      "plugin": "mental",
      "version": "0.6.3",
      "model": "MentalGates",
      "params": [
        {
          "paramId": 0,
          "value": 0.0
        },
        {
          "paramId": 1,
          "value": 0.0
        },
        {
          "paramId": 2,
          "value": 0.0
        },
        {
          "paramId": 3,
          "value": 0.0
        }
      ],
      "data": {
        "buttons": [
          0,
          0,
          0,
          0
        ]
      },
      "pos": [
        69,
        2
      ]
    },
    {
      "plugin": "Fundamental",
      "version": "0.6.2",
      "model": "Unity",
      "params": [
        {
          "paramId": 0,
          "value": 0.0
        },
        {
          "paramId": 1,
          "value": 0.0
        }
      ],
      "data": {
        "merge": false
      },
      "pos": [
        73,
        2
      ]
    },
    {
      "plugin": "Bogaudio",
      "version": "0.6.12",
      "model": "Bogaudio-Offset",
      "params": [
        {
          "paramId": 0,
          "value": 0.0
        },
        {
          "paramId": 1,
          "value": 0.274000078
        }
      ],
      "data": {
        "disableOutputLimit": false
      },
      "pos": [
        79,
        2
      ]
    },
    {
      "plugin": "Bogaudio",
      "version": "0.6.12",
      "model": "Bogaudio-Offset",
      "params": [
        {
          "paramId": 0,
          "value": 0.0
        },
        {
          "paramId": 1,
          "value": 0.244000018
        }
      ],
      "data": {
        "disableOutputLimit": false
      },
      "pos": [
        82,
        2
      ]
    },
    {
      "plugin": "NYSTHI",
      "version": "0.6.37",
      "model": "DL",
      "params": [
        {
          "paramId": 0,
          "value": 0.671999693
        },
        {
          "paramId": 1,
          "value": 0.254500031
        },
        {
          "paramId": 2,
          "value": 0.0
        },
        {
          "paramId": 3,
          "value": 0.878500044
        },
        {
          "paramId": 4,
          "value": 0.414999843
        },
        {
          "paramId": 5,
          "value": 0.175999984
        },
        {
          "paramId": 6,
          "value": 0.0125999991
        },
        {
          "paramId": 7,
          "value": 0.78549993
        }
      ],
      "data": {},
      "pos": [
        89,
        1
      ]
    },
    {
      "plugin": "NYSTHI",
      "version": "0.6.37",
      "model": "DL",
      "params": [
        {
          "paramId": 0,
          "value": 0.548999846
        },
        {
          "paramId": 1,
          "value": 0.158500075
        },
        {
          "paramId": 2,
          "value": 0.0346499979
        },
        {
          "paramId": 3,
          "value": 0.888999939
        },
        {
          "paramId": 4,
          "value": 0.54399991
        },
        {
          "paramId": 5,
          "value": 0.199999973
        },
        {
          "paramId": 6,
          "value": 0.0
        },
        {
          "paramId": 7,
          "value": 0.5
        }
      ],
      "data": {},
      "pos": [
        92,
        1
      ]
    },
    {
      "plugin": "Fundamental",
      "version": "0.6.2",
      "model": "VCF",
      "params": [
        {
          "paramId": 0,
          "value": 0.0
        },
        {
          "paramId": 1,
          "value": 0.5
        },
        {
          "paramId": 2,
          "value": 0.470999986
        },
        {
          "paramId": 3,
          "value": 0.990999997
        },
        {
          "paramId": 4,
          "value": 0.240000039
        }
      ],
      "pos": [
        98,
        1
      ]
    },
    {
      "plugin": "ArableInstruments",
      "version": "0.6.0",
      "model": "Joni",
      "params": [
        {
          "paramId": 0,
          "value": 0.179499924
        },
        {
          "paramId": 1,
          "value": 0.63899982
        },
        {
          "paramId": 2,
          "value": -2.0
        },
        {
          "paramId": 3,
          "value": 0.675500035
        },
        {
          "paramId": 4,
          "value": 0.605999887
        },
        {
          "paramId": 5,
          "value": 0.437500089
        },
        {
          "paramId": 6,
          "value": 0.0
        },
        {
          "paramId": 7,
          "value": 0.33099997
        },
        {
          "paramId": 8,
          "value": 0.332999974
        },
        {
          "paramId": 9,
          "value": 0.5
        },
        {
          "paramId": 10,
          "value": 0.0
        }
      ],
      "data": {
        "playbackmode": 0,
        "lofi": 0,
        "mono": 0,
        "freeze": 0,
        "buffersize": 1
      },
      "pos": [
        114,
        1
      ]
    },
    {
      "plugin": "Bogaudio",
      "version": "0.6.12",
      "model": "Bogaudio-Pan",
      "params": [
        {
          "paramId": 0,
          "value": -0.0959999934
        },
        {
          "paramId": 1,
          "value": 0.0659999922
        }
      ],
      "pos": [
        106,
        1
      ]
    },
    {
      "plugin": "NYSTHI",
      "version": "0.6.37",
      "model": "MasterRecorder",
      "params": [
        {
          "paramId": 0,
          "value": 0.0
        },
        {
          "paramId": 1,
          "value": 0.0
        },
        {
          "paramId": 2,
          "value": 1.0
        }
      ],
      "data": {
        "nysthi_id": "MR_k02rISgf",
        "wavebits": 9
      },
      "pos": [
        104,
        0
      ]
    },
    {
      "plugin": "AudibleInstruments",
      "version": "0.6.3",
      "model": "Shades",
      "params": [
        {
          "paramId": 0,
          "value": 0.359000057
        },
        {
          "paramId": 1,
          "value": 0.399499893
        },
        {
          "paramId": 2,
          "value": 0.5
        },
        {
          "paramId": 3,
          "value": 0.0
        },
        {
          "paramId": 4,
          "value": 0.0
        },
        {
          "paramId": 5,
          "value": 1.0
        }
      ],
      "pos": [
        96,
        2
      ]
    },
    {
      "plugin": "Fundamental",
      "version": "0.6.2",
      "model": "Unity",
      "params": [
        {
          "paramId": 0,
          "value": 0.0
        },
        {
          "paramId": 1,
          "value": 0.0
        }
      ],
      "data": {
        "merge": false
      },
      "pos": [
        131,
        2
      ]
    },
    {
      "plugin": "Bogaudio",
      "version": "0.6.12",
      "model": "Bogaudio-Offset",
      "params": [
        {
          "paramId": 0,
          "value": 0.0
        },
        {
          "paramId": 1,
          "value": 0.234999791
        }
      ],
      "data": {
        "disableOutputLimit": false
      },
      "pos": [
        137,
        2
      ]
    },
    {
      "plugin": "Bogaudio",
      "version": "0.6.12",
      "model": "Bogaudio-ADSR",
      "params": [
        {
          "paramId": 0,
          "value": 0.0
        },
        {
          "paramId": 1,
          "value": 0.0
        },
        {
          "paramId": 2,
          "value": 1.0
        },
        {
          "paramId": 3,
          "value": 0.137999997
        },
        {
          "paramId": 4,
          "value": 0.0
        }
      ],
      "pos": [
        117,
        2
      ]
    },
    {
      "plugin": "Bogaudio",
      "version": "0.6.12",
      "model": "Bogaudio-ADSR",
      "params": [
        {
          "paramId": 0,
          "value": 0.157499999
        },
        {
          "paramId": 1,
          "value": 0.189000025
        },
        {
          "paramId": 2,
          "value": 0.287999988
        },
        {
          "paramId": 3,
          "value": 0.617730081
        },
        {
          "paramId": 4,
          "value": 0.0
        }
      ],
      "pos": [
        120,
        2
      ]
    },
    {
      "plugin": "Bogaudio",
      "version": "0.6.12",
      "model": "Bogaudio-ADSR",
      "params": [
        {
          "paramId": 0,
          "value": 0.493500024
        },
        {
          "paramId": 1,
          "value": 0.0
        },
        {
          "paramId": 2,
          "value": 0.26699996
        },
        {
          "paramId": 3,
          "value": 0.142230093
        },
        {
          "paramId": 4,
          "value": 0.0
        }
      ],
      "pos": [
        123,
        2
      ]
    },
    {
      "plugin": "Bogaudio",
      "version": "0.6.12",
      "model": "Bogaudio-ADSR",
      "params": [
        {
          "paramId": 0,
          "value": 0.340500027
        },
        {
          "paramId": 1,
          "value": 0.0
        },
        {
          "paramId": 2,
          "value": 0.208499968
        },
        {
          "paramId": 3,
          "value": 0.34923014
        },
        {
          "paramId": 4,
          "value": 0.0
        }
      ],
      "pos": [
        126,
        2
      ]
    },
    {
      "plugin": "Fundamental",
      "version": "0.6.2",
      "model": "ADSR",
      "params": [
        {
          "paramId": 0,
          "value": 0.0614999942
        },
        {
          "paramId": 1,
          "value": 0.0
        },
        {
          "paramId": 2,
          "value": 0.265000135
        },
        {
          "paramId": 3,
          "value": 0.36499992
        }
      ],
      "pos": [
        109,
        3
      ]
    },
    {
      "plugin": "Fundamental",
      "version": "0.6.2",
      "model": "ADSR",
      "params": [
        {
          "paramId": 0,
          "value": 0.124499992
        },
        {
          "paramId": 1,
          "value": 0.23999998
        },
        {
          "paramId": 2,
          "value": 0.231999874
        },
        {
          "paramId": 3,
          "value": 0.609499991
        }
      ],
      "pos": [
        117,
        3
      ]
    },
    {
      "plugin": "Fundamental",
      "version": "0.6.2",
      "model": "ADSR",
      "params": [
        {
          "paramId": 0,
          "value": 0.64049989
        },
        {
          "paramId": 1,
          "value": 0.0150000006
        },
        {
          "paramId": 2,
          "value": 0.214000016
        },
        {
          "paramId": 3,
          "value": 0.143999994
        }
      ],
      "pos": [
        125,
        3
      ]
    },
    {
      "plugin": "Fundamental",
      "version": "0.6.2",
      "model": "ADSR",
      "params": [
        {
          "paramId": 0,
          "value": 0.334500045
        },
        {
          "paramId": 1,
          "value": 0.0
        },
        {
          "paramId": 2,
          "value": 0.219999954
        },
        {
          "paramId": 3,
          "value": 0.36800012
        }
      ],
      "pos": [
        133,
        3
      ]
    },
    {
      "plugin": "Bogaudio",
      "version": "0.6.12",
      "model": "Bogaudio-Offset",
      "params": [
        {
          "paramId": 0,
          "value": 0.0
        },
        {
          "paramId": 1,
          "value": 0.0789997652
        }
      ],
      "data": {
        "disableOutputLimit": false
      },
      "pos": [
        140,
        2
      ]
    }
  ],
  "wires": [
    {
      "color": "#0986ad",
      "outputModuleId": 2,
      "outputId": 0,
      "inputModuleId": 5,
      "inputId": 2
    },
    {
      "color": "#c9b70e",
      "outputModuleId": 3,
      "outputId": 0,
      "inputModuleId": 40,
      "inputId": 3
    },
    {
      "color": "#0c8e15",
      "outputModuleId": 4,
      "outputId": 1,
      "inputModuleId": 10,
      "inputId": 1
    },
    {
      "color": "#0986ad",
      "outputModuleId": 5,
      "outputId": 0,
      "inputModuleId": 19,
      "inputId": 2
    },
    {
      "color": "#c9b70e",
      "outputModuleId": 1,
      "outputId": 2,
      "inputModuleId": 6,
      "inputId": 2
    },
    {
      "color": "#0986ad",
      "outputModuleId": 1,
      "outputId": 2,
      "inputModuleId": 11,
      "inputId": 0
    },
    {
      "color": "#c9b70e",
      "outputModuleId": 1,
      "outputId": 2,
      "inputModuleId": 12,
      "inputId": 0
    },
    {
      "color": "#c91847",
      "outputModuleId": 1,
      "outputId": 2,
      "inputModuleId": 13,
      "inputId": 0
    },
    {
      "color": "#0c8e15",
      "outputModuleId": 1,
      "outputId": 2,
      "inputModuleId": 14,
      "inputId": 0
    },
    {
      "color": "#0986ad",
      "outputModuleId": 1,
      "outputId": 2,
      "inputModuleId": 11,
      "inputId": 1
    },
    {
      "color": "#c9b70e",
      "outputModuleId": 1,
      "outputId": 2,
      "inputModuleId": 12,
      "inputId": 1
    },
    {
      "color": "#c91847",
      "outputModuleId": 1,
      "outputId": 2,
      "inputModuleId": 13,
      "inputId": 1
    },
    {
      "color": "#0c8e15",
      "outputModuleId": 1,
      "outputId": 2,
      "inputModuleId": 14,
      "inputId": 1
    },
    {
      "color": "#0986ad",
      "outputModuleId": 11,
      "outputId": 0,
      "inputModuleId": 16,
      "inputId": 0
    },
    {
      "color": "#c9b70e",
      "outputModuleId": 12,
      "outputId": 0,
      "inputModuleId": 16,
      "inputId": 2
    },
    {
      "color": "#c91847",
      "outputModuleId": 13,
      "outputId": 0,
      "inputModuleId": 16,
      "inputId": 4
    },
    {
      "color": "#0c8e15",
      "outputModuleId": 14,
      "outputId": 0,
      "inputModuleId": 16,
      "inputId": 1
    },
    {
      "color": "#0986ad",
      "outputModuleId": 11,
      "outputId": 1,
      "inputModuleId": 16,
      "inputId": 6
    },
    {
      "color": "#c9b70e",
      "outputModuleId": 12,
      "outputId": 1,
      "inputModuleId": 16,
      "inputId": 8
    },
    {
      "color": "#c91847",
      "outputModuleId": 13,
      "outputId": 1,
      "inputModuleId": 16,
      "inputId": 10
    },
    {
      "color": "#0c8e15",
      "outputModuleId": 14,
      "outputId": 1,
      "inputModuleId": 16,
      "inputId": 7
    },
    {
      "color": "#0986ad",
      "outputModuleId": 1,
      "outputId": 3,
      "inputModuleId": 4,
      "inputId": 3
    },
    {
      "color": "#c9b70e",
      "outputModuleId": 7,
      "outputId": 0,
      "inputModuleId": 38,
      "inputId": 1
    },
    {
      "color": "#c91847",
      "outputModuleId": 10,
      "outputId": 3,
      "inputModuleId": 23,
      "inputId": 1
    },
    {
      "color": "#0c8e15",
      "outputModuleId": 8,
      "outputId": 0,
      "inputModuleId": 38,
      "inputId": 5
    },
    {
      "color": "#0986ad",
      "outputModuleId": 16,
      "outputId": 0,
      "inputModuleId": 10,
      "inputId": 2
    },
    {
      "color": "#c91847",
      "outputModuleId": 16,
      "outputId": 2,
      "inputModuleId": 10,
      "inputId": 4
    },
    {
      "color": "#c91847",
      "outputModuleId": 9,
      "outputId": 0,
      "inputModuleId": 18,
      "inputId": 2
    },
    {
      "color": "#0c8e15",
      "outputModuleId": 18,
      "outputId": 0,
      "inputModuleId": 20,
      "inputId": 2
    },
    {
      "color": "#0986ad",
      "outputModuleId": 17,
      "outputId": 1,
      "inputModuleId": 39,
      "inputId": 1
    },
    {
      "color": "#c9b70e",
      "outputModuleId": 19,
      "outputId": 0,
      "inputModuleId": 4,
      "inputId": 2
    },
    {
      "color": "#c91847",
      "outputModuleId": 20,
      "outputId": 0,
      "inputModuleId": 17,
      "inputId": 2
    },
    {
      "color": "#c91847",
      "outputModuleId": 2,
      "outputId": 0,
      "inputModuleId": 21,
      "inputId": 4
    },
    {
      "color": "#0c8e15",
      "outputModuleId": 9,
      "outputId": 0,
      "inputModuleId": 21,
      "inputId": 5
    },
    {
      "color": "#c9b70e",
      "outputModuleId": 21,
      "outputId": 1,
      "inputModuleId": 22,
      "inputId": 4
    },
    {
      "color": "#0c8e15",
      "outputModuleId": 1,
      "outputId": 3,
      "inputModuleId": 17,
      "inputId": 3
    },
    {
      "color": "#0986ad",
      "outputModuleId": 11,
      "outputId": 3,
      "inputModuleId": 2,
      "inputId": 0
    },
    {
      "color": "#c9b70e",
      "outputModuleId": 12,
      "outputId": 2,
      "inputModuleId": 7,
      "inputId": 0
    },
    {
      "color": "#c91847",
      "outputModuleId": 13,
      "outputId": 3,
      "inputModuleId": 8,
      "inputId": 0
    },
    {
      "color": "#0c8e15",
      "outputModuleId": 14,
      "outputId": 2,
      "inputModuleId": 9,
      "inputId": 0
    },
    {
      "color": "#0986ad",
      "outputModuleId": 23,
      "outputId": 3,
      "inputModuleId": 3,
      "inputId": 1
    },
    {
      "color": "#c9b70e",
      "outputModuleId": 22,
      "outputId": 0,
      "inputModuleId": 23,
      "inputId": 3
    },
    {
      "color": "#c91847",
      "outputModuleId": 22,
      "outputId": 0,
      "inputModuleId": 25,
      "inputId": 2
    },
    {
      "color": "#0986ad",
      "outputModuleId": 25,
      "outputId": 0,
      "inputModuleId": 26,
      "inputId": 2
    },
    {
      "color": "#c9b70e",
      "outputModuleId": 26,
      "outputId": 0,
      "inputModuleId": 10,
      "inputId": 0
    },
    {
      "color": "#0c8e15",
      "outputModuleId": 12,
      "outputId": 3,
      "inputModuleId": 21,
      "inputId": 3
    },
    {
      "color": "#0986ad",
      "outputModuleId": 14,
      "outputId": 3,
      "inputModuleId": 21,
      "inputId": 2
    },
    {
      "color": "#0c8e15",
      "outputModuleId": 27,
      "outputId": 0,
      "inputModuleId": 11,
      "inputId": 2
    },
    {
      "color": "#c9b70e",
      "outputModuleId": 27,
      "outputId": 1,
      "inputModuleId": 12,
      "inputId": 2
    },
    {
      "color": "#c91847",
      "outputModuleId": 27,
      "outputId": 2,
      "inputModuleId": 13,
      "inputId": 2
    },
    {
      "color": "#0c8e15",
      "outputModuleId": 27,
      "outputId": 3,
      "inputModuleId": 14,
      "inputId": 2
    },
    {
      "color": "#0986ad",
      "outputModuleId": 27,
      "outputId": 4,
      "inputModuleId": 11,
      "inputId": 3
    },
    {
      "color": "#c9b70e",
      "outputModuleId": 27,
      "outputId": 5,
      "inputModuleId": 12,
      "inputId": 3
    },
    {
      "color": "#c91847",
      "outputModuleId": 27,
      "outputId": 6,
      "inputModuleId": 13,
      "inputId": 3
    },
    {
      "color": "#0c8e15",
      "outputModuleId": 27,
      "outputId": 7,
      "inputModuleId": 14,
      "inputId": 3
    },
    {
      "color": "#0986ad",
      "outputModuleId": 21,
      "outputId": 0,
      "inputModuleId": 24,
      "inputId": 2
    },
    {
      "color": "#0c8e15",
      "outputModuleId": 24,
      "outputId": 0,
      "inputModuleId": 28,
      "inputId": 2
    },
    {
      "color": "#0c8e15",
      "outputModuleId": 1,
      "outputId": 2,
      "inputModuleId": 29,
      "inputId": 2
    },
    {
      "color": "#0986ad",
      "outputModuleId": 29,
      "outputId": 0,
      "inputModuleId": 10,
      "inputId": 6
    },
    {
      "color": "#c91847",
      "outputModuleId": 29,
      "outputId": 0,
      "inputModuleId": 21,
      "inputId": 0
    },
    {
      "color": "#0c8e15",
      "outputModuleId": 29,
      "outputId": 0,
      "inputModuleId": 21,
      "inputId": 1
    },
    {
      "color": "#c91847",
      "outputModuleId": 30,
      "outputId": 0,
      "inputModuleId": 34,
      "inputId": 0
    },
    {
      "color": "#0c8e15",
      "outputModuleId": 30,
      "outputId": 4,
      "inputModuleId": 34,
      "inputId": 1
    },
    {
      "color": "#0986ad",
      "outputModuleId": 30,
      "outputId": 8,
      "inputModuleId": 34,
      "inputId": 2
    },
    {
      "color": "#c9b70e",
      "outputModuleId": 31,
      "outputId": 0,
      "inputModuleId": 34,
      "inputId": 3
    },
    {
      "color": "#c91847",
      "outputModuleId": 33,
      "outputId": 0,
      "inputModuleId": 34,
      "inputId": 4
    },
    {
      "color": "#0c8e15",
      "outputModuleId": 33,
      "outputId": 2,
      "inputModuleId": 34,
      "inputId": 5
    },
    {
      "color": "#0986ad",
      "outputModuleId": 1,
      "outputId": 0,
      "inputModuleId": 33,
      "inputId": 0
    },
    {
      "color": "#c9b70e",
      "outputModuleId": 1,
      "outputId": 2,
      "inputModuleId": 33,
      "inputId": 1
    },
    {
      "color": "#c91847",
      "outputModuleId": 33,
      "outputId": 1,
      "inputModuleId": 34,
      "inputId": 6
    },
    {
      "color": "#0c8e15",
      "outputModuleId": 33,
      "outputId": 3,
      "inputModuleId": 34,
      "inputId": 7
    },
    {
      "color": "#0986ad",
      "outputModuleId": 34,
      "outputId": 0,
      "inputModuleId": 35,
      "inputId": 0
    },
    {
      "color": "#c9b70e",
      "outputModuleId": 34,
      "outputId": 1,
      "inputModuleId": 35,
      "inputId": 2
    },
    {
      "color": "#c91847",
      "outputModuleId": 34,
      "outputId": 2,
      "inputModuleId": 35,
      "inputId": 6
    },
    {
      "color": "#0c8e15",
      "outputModuleId": 34,
      "outputId": 3,
      "inputModuleId": 35,
      "inputId": 8
    },
    {
      "color": "#0986ad",
      "outputModuleId": 36,
      "outputId": 0,
      "inputModuleId": 17,
      "inputId": 1
    },
    {
      "color": "#c9b70e",
      "outputModuleId": 37,
      "outputId": 0,
      "inputModuleId": 4,
      "inputId": 1
    },
    {
      "color": "#c91847",
      "outputModuleId": 35,
      "outputId": 0,
      "inputModuleId": 36,
      "inputId": 2
    },
    {
      "color": "#0c8e15",
      "outputModuleId": 35,
      "outputId": 2,
      "inputModuleId": 37,
      "inputId": 2
    },
    {
      "color": "#c91847",
      "outputModuleId": 38,
      "outputId": 0,
      "inputModuleId": 10,
      "inputId": 3
    },
    {
      "color": "#0c8e15",
      "outputModuleId": 38,
      "outputId": 1,
      "inputModuleId": 10,
      "inputId": 5
    },
    {
      "color": "#0986ad",
      "outputModuleId": 39,
      "outputId": 0,
      "inputModuleId": 10,
      "inputId": 7
    },
    {
      "color": "#c91847",
      "outputModuleId": 40,
      "outputId": 0,
      "inputModuleId": 42,
      "inputId": 1
    },
    {
      "color": "#0c8e15",
      "outputModuleId": 40,
      "outputId": 0,
      "inputModuleId": 42,
      "inputId": 3
    },
    {
      "color": "#c9b70e",
      "outputModuleId": 41,
      "outputId": 0,
      "inputModuleId": 0,
      "inputId": 0
    },
    {
      "color": "#c91847",
      "outputModuleId": 41,
      "outputId": 1,
      "inputModuleId": 0,
      "inputId": 1
    },
    {
      "color": "#0986ad",
      "outputModuleId": 9,
      "outputId": 0,
      "inputModuleId": 32,
      "inputId": 1
    },
    {
      "color": "#c9b70e",
      "outputModuleId": 1,
      "outputId": 2,
      "inputModuleId": 32,
      "inputId": 0
    },
    {
      "color": "#c91847",
      "outputModuleId": 42,
      "outputId": 0,
      "inputModuleId": 41,
      "inputId": 9
    },
    {
      "color": "#0c8e15",
      "outputModuleId": 42,
      "outputId": 1,
      "inputModuleId": 41,
      "inputId": 10
    },
    {
      "color": "#0986ad",
      "outputModuleId": 31,
      "outputId": 4,
      "inputModuleId": 44,
      "inputId": 0
    },
    {
      "color": "#c9b70e",
      "outputModuleId": 41,
      "outputId": 0,
      "inputModuleId": 43,
      "inputId": 0
    },
    {
      "color": "#c91847",
      "outputModuleId": 41,
      "outputId": 1,
      "inputModuleId": 43,
      "inputId": 1
    },
    {
      "color": "#0c8e15",
      "outputModuleId": 31,
      "outputId": 8,
      "inputModuleId": 44,
      "inputId": 1
    },
    {
      "color": "#0986ad",
      "outputModuleId": 44,
      "outputId": 1,
      "inputModuleId": 41,
      "inputId": 11
    },
    {
      "color": "#c9b70e",
      "outputModuleId": 27,
      "outputId": 8,
      "inputModuleId": 51,
      "inputId": 4
    },
    {
      "color": "#0c8e15",
      "outputModuleId": 51,
      "outputId": 0,
      "inputModuleId": 45,
      "inputId": 0
    },
    {
      "color": "#0986ad",
      "outputModuleId": 52,
      "outputId": 0,
      "inputModuleId": 45,
      "inputId": 2
    },
    {
      "color": "#c9b70e",
      "outputModuleId": 53,
      "outputId": 0,
      "inputModuleId": 45,
      "inputId": 4
    },
    {
      "color": "#c91847",
      "outputModuleId": 54,
      "outputId": 0,
      "inputModuleId": 45,
      "inputId": 1
    },
    {
      "color": "#0c8e15",
      "outputModuleId": 27,
      "outputId": 9,
      "inputModuleId": 52,
      "inputId": 4
    },
    {
      "color": "#0986ad",
      "outputModuleId": 27,
      "outputId": 10,
      "inputModuleId": 53,
      "inputId": 4
    },
    {
      "color": "#c9b70e",
      "outputModuleId": 27,
      "outputId": 11,
      "inputModuleId": 54,
      "inputId": 4
    },
    {
      "color": "#c91847",
      "outputModuleId": 45,
      "outputId": 0,
      "inputModuleId": 41,
      "inputId": 4
    },
    {
      "color": "#0c8e15",
      "outputModuleId": 53,
      "outputId": 0,
      "inputModuleId": 55,
      "inputId": 2
    },
    {
      "color": "#c91847",
      "outputModuleId": 45,
      "outputId": 0,
      "inputModuleId": 46,
      "inputId": 2
    },
    {
      "color": "#0c8e15",
      "outputModuleId": 46,
      "outputId": 0,
      "inputModuleId": 41,
      "inputId": 5
    },
    {
      "color": "#0986ad",
      "outputModuleId": 27,
      "outputId": 12,
      "inputModuleId": 45,
      "inputId": 3
    },
    {
      "color": "#c9b70e",
      "outputModuleId": 27,
      "outputId": 13,
      "inputModuleId": 40,
      "inputId": 0
    },
    {
      "color": "#c91847",
      "outputModuleId": 27,
      "outputId": 14,
      "inputModuleId": 38,
      "inputId": 3
    },
    {
      "color": "#0c8e15",
      "outputModuleId": 27,
      "outputId": 14,
      "inputModuleId": 39,
      "inputId": 3
    },
    {
      "color": "#0986ad",
      "outputModuleId": 27,
      "outputId": 14,
      "inputModuleId": 38,
      "inputId": 7
    },
    {
      "color": "#c9b70e",
      "outputModuleId": 27,
      "outputId": 15,
      "inputModuleId": 38,
      "inputId": 2
    },
    {
      "color": "#c91847",
      "outputModuleId": 27,
      "outputId": 15,
      "inputModuleId": 39,
      "inputId": 2
    },
    {
      "color": "#0c8e15",
      "outputModuleId": 27,
      "outputId": 15,
      "inputModuleId": 38,
      "inputId": 6
    },
    {
      "color": "#0986ad",
      "outputModuleId": 51,
      "outputId": 0,
      "inputModuleId": 41,
      "inputId": 12
    },
    {
      "color": "#c9b70e",
      "outputModuleId": 52,
      "outputId": 0,
      "inputModuleId": 36,
      "inputId": 1
    },
    {
      "color": "#c91847",
      "outputModuleId": 53,
      "outputId": 0,
      "inputModuleId": 37,
      "inputId": 1
    },
    {
      "color": "#0c8e15",
      "outputModuleId": 27,
      "outputId": 7,
      "inputModuleId": 23,
      "inputId": 2
    },
    {
      "color": "#0c8e15",
      "outputModuleId": 27,
      "outputId": 5,
      "inputModuleId": 22,
      "inputId": 0
    },
    {
      "color": "#0986ad",
      "outputModuleId": 27,
      "outputId": 6,
      "inputModuleId": 22,
      "inputId": 1
    },
    {
      "color": "#c91847",
      "outputModuleId": 55,
      "outputId": 0,
      "inputModuleId": 41,
      "inputId": 7
    }
  ]
}