{
  "version": "0.6.2c",
  "modules": [
    {
      "plugin": "Core",
      "version": "0.6.2c",
      "model": "AudioInterface",
      "params": [],
      "data": {
        "audio": {
          "driver": -12512,
          "deviceName": "1",
          "offset": 0,
          "maxChannels": 8,
          "sampleRate": 44100,
          "blockSize": 512
        }
      },
      "pos": [
        109,
        0
      ]
    },
    {
      "plugin": "Core",
      "version": "0.6.2c",
      "model": "MIDIToCVInterface",
      "params": [],
      "data": {
        "divisions": [
          24,
          6
        ],
        "midi": {
          "driver": -12512,
          "deviceName": "Port 1",
          "channel": -1
        }
      },
      "pos": [
        10,
        0
      ]
    },
    {
      "plugin": "AS",
      "version": "0.6.13",
      "model": "Mixer4ch",
      "params": [
        {
          "paramId": 5,
          "value": 0.0
        },
        {
          "paramId": 6,
          "value": 0.0
        },
        {
          "paramId": 7,
          "value": 0.0
        },
        {
          "paramId": 8,
          "value": 0.0
        },
        {
          "paramId": 1,
          "value": 0.800000012
        },
        {
          "paramId": 2,
          "value": 0.388999969
        },
        {
          "paramId": 3,
          "value": 0.627000034
        },
        {
          "paramId": 4,
          "value": 0.800000012
        },
        {
          "paramId": 9,
          "value": 0.0
        },
        {
          "paramId": 10,
          "value": 0.0
        },
        {
          "paramId": 11,
          "value": 0.0
        },
        {
          "paramId": 12,
          "value": 0.0
        },
        {
          "paramId": 0,
          "value": 0.800000012
        },
        {
          "paramId": 13,
          "value": 0.0
        }
      ],
      "data": {
        "as_Mixer4Mutes": [
          0,
          0,
          0,
          0,
          0
        ]
      },
      "pos": [
        89,
        0
      ]
    },
    {
      "plugin": "Bogaudio",
      "version": "0.6.13",
      "model": "Bogaudio-Stack",
      "params": [
        {
          "paramId": 0,
          "value": 0.0
        },
        {
          "paramId": 1,
          "value": 1.0
        },
        {
          "paramId": 2,
          "value": 0.0356400013
        },
        {
          "paramId": 3,
          "value": 1.0
        }
      ],
      "pos": [
        52,
        0
      ]
    },
    {
      "plugin": "Bogaudio",
      "version": "0.6.13",
      "model": "Bogaudio-DADSRHPlus",
      "params": [
        {
          "paramId": 0,
          "value": 0.0
        },
        {
          "paramId": 1,
          "value": 0.0
        },
        {
          "paramId": 2,
          "value": 0.0689998865
        },
        {
          "paramId": 3,
          "value": 0.378000051
        },
        {
          "paramId": 4,
          "value": 0.277500033
        },
        {
          "paramId": 5,
          "value": 0.449999988
        },
        {
          "paramId": 6,
          "value": 1.0
        },
        {
          "paramId": 7,
          "value": 1.0
        },
        {
          "paramId": 8,
          "value": 2.0
        },
        {
          "paramId": 9,
          "value": 0.0
        },
        {
          "paramId": 10,
          "value": 1.0
        },
        {
          "paramId": 11,
          "value": 1.0
        },
        {
          "paramId": 12,
          "value": 1.0
        },
        {
          "paramId": 13,
          "value": 1.0
        }
      ],
      "data": {
        "triggerOnLoad": true,
        "shouldTriggerOnLoad": true
      },
      "pos": [
        60,
        1
      ]
    },
    {
      "plugin": "VultModulesFree",
      "version": "0.6.25",
      "model": "Trummor2",
      "params": [
        {
          "paramId": 0,
          "value": 0.300000012
        },
        {
          "paramId": 1,
          "value": 0.449000001
        },
        {
          "paramId": 2,
          "value": 0.0989999995
        },
        {
          "paramId": 5,
          "value": 0.996999979
        },
        {
          "paramId": 3,
          "value": 0.867999375
        },
        {
          "paramId": 4,
          "value": 0.205500022
        },
        {
          "paramId": 6,
          "value": 0.0
        },
        {
          "paramId": 7,
          "value": 0.0090001421
        },
        {
          "paramId": 8,
          "value": 0.29850027
        },
        {
          "paramId": 9,
          "value": 0.0
        },
        {
          "paramId": 10,
          "value": 0.0
        },
        {
          "paramId": 11,
          "value": 0.863499999
        },
        {
          "paramId": 23,
          "value": 0.0
        },
        {
          "paramId": 12,
          "value": 0.898499966
        },
        {
          "paramId": 14,
          "value": -0.744999945
        },
        {
          "paramId": 13,
          "value": 0.12699984
        },
        {
          "paramId": 15,
          "value": 0.679249644
        },
        {
          "paramId": 16,
          "value": 0.484499991
        },
        {
          "paramId": 18,
          "value": 0.0
        },
        {
          "paramId": 19,
          "value": 0.0990002155
        },
        {
          "paramId": 20,
          "value": 0.326000005
        },
        {
          "paramId": 17,
          "value": 0.0
        },
        {
          "paramId": 22,
          "value": 0.0
        },
        {
          "paramId": 21,
          "value": 0.0
        },
        {
          "paramId": 25,
          "value": 0.996999979
        },
        {
          "paramId": 26,
          "value": 0.996999979
        },
        {
          "paramId": 27,
          "value": 0.40599975
        },
        {
          "paramId": 28,
          "value": -1.0
        },
        {
          "paramId": 29,
          "value": 0.0
        },
        {
          "paramId": 30,
          "value": 0.0
        },
        {
          "paramId": 31,
          "value": 0.0
        },
        {
          "paramId": 32,
          "value": 0.0
        }
      ],
      "data": {
        "mod_a": 0,
        "mod_b": 12,
        "mod_c": 11,
        "mod_d": 13
      },
      "pos": [
        55,
        0
      ]
    },
    {
      "plugin": "Fundamental",
      "version": "0.6.2",
      "model": "VCF",
      "params": [
        {
          "paramId": 0,
          "value": 0.571999967
        },
        {
          "paramId": 1,
          "value": 0.5
        },
        {
          "paramId": 2,
          "value": 0.172500029
        },
        {
          "paramId": 3,
          "value": 1.0
        },
        {
          "paramId": 4,
          "value": 0.149999917
        }
      ],
      "pos": [
        75,
        0
      ]
    },
    {
      "plugin": "Blamsoft-XFXDistortionPack",
      "version": "0.6.0",
      "model": "Blamsoft-XFXOverdrive",
      "params": [
        {
          "paramId": 0,
          "value": 1.0
        },
        {
          "paramId": 1,
          "value": 0.824499965
        },
        {
          "paramId": 2,
          "value": 0.606999993
        },
        {
          "paramId": 3,
          "value": 0.00449999981
        },
        {
          "paramId": 4,
          "value": 0.75
        }
      ],
      "pos": [
        83,
        0
      ]
    },
    {
      "plugin": "Bogaudio",
      "version": "0.6.13",
      "model": "Bogaudio-DADSRHPlus",
      "params": [
        {
          "paramId": 0,
          "value": 0.0
        },
        {
          "paramId": 1,
          "value": 0.264000088
        },
        {
          "paramId": 2,
          "value": 0.0
        },
        {
          "paramId": 3,
          "value": 0.99849999
        },
        {
          "paramId": 4,
          "value": 0.255000055
        },
        {
          "paramId": 5,
          "value": 0.449999988
        },
        {
          "paramId": 6,
          "value": 1.0
        },
        {
          "paramId": 7,
          "value": 1.0
        },
        {
          "paramId": 8,
          "value": 2.0
        },
        {
          "paramId": 9,
          "value": 0.0
        },
        {
          "paramId": 10,
          "value": 1.0
        },
        {
          "paramId": 11,
          "value": 1.0
        },
        {
          "paramId": 12,
          "value": 1.0
        },
        {
          "paramId": 13,
          "value": 1.0
        }
      ],
      "data": {
        "triggerOnLoad": true,
        "shouldTriggerOnLoad": true
      },
      "pos": [
        39,
        1
      ]
    },
    {
      "plugin": "AS",
      "version": "0.6.13",
      "model": "AtNuVrTr",
      "params": [
        {
          "paramId": 0,
          "value": 1.0
        },
        {
          "paramId": 1,
          "value": 0.0
        },
        {
          "paramId": 2,
          "value": -0.54400003
        },
        {
          "paramId": 3,
          "value": 5.5800004
        }
      ],
      "pos": [
        55,
        1
      ]
    },
    {
      "plugin": "HetrickCV",
      "version": "0.6.0",
      "model": "Exponent",
      "params": [
        {
          "paramId": 0,
          "value": 5.0
        },
        {
          "paramId": 1,
          "value": 1.0
        },
        {
          "paramId": 2,
          "value": 1.0
        }
      ],
      "pos": [
        75,
        1
      ]
    },
    {
      "plugin": "Hora-treasureFree",
      "version": "0.6.0",
      "model": "SnareDrum-VCV",
      "params": [
        {
          "paramId": 1,
          "value": 44.9899979
        },
        {
          "paramId": 4,
          "value": 0.99851501
        },
        {
          "paramId": 0,
          "value": 0.568400085
        },
        {
          "paramId": 10,
          "value": 0.528999925
        },
        {
          "paramId": 11,
          "value": 1.0
        },
        {
          "paramId": 8,
          "value": 0.838999987
        },
        {
          "paramId": 9,
          "value": 0.647600591
        },
        {
          "paramId": 6,
          "value": 0.889300048
        },
        {
          "paramId": 7,
          "value": 0.99849999
        },
        {
          "paramId": 12,
          "value": 0.299550027
        },
        {
          "paramId": 5,
          "value": 0.411000222
        },
        {
          "paramId": 13,
          "value": 0.473500043
        }
      ],
      "pos": [
        34,
        0
      ]
    },
    {
      "plugin": "VultModulesFree",
      "version": "0.6.25",
      "model": "Tangents",
      "params": [
        {
          "paramId": 0,
          "value": 0.556749821
        },
        {
          "paramId": 1,
          "value": 0.10799998
        },
        {
          "paramId": 2,
          "value": 0.0
        },
        {
          "paramId": 3,
          "value": 0.0
        },
        {
          "paramId": 4,
          "value": 0.358999968
        },
        {
          "paramId": 5,
          "value": 0.390999973
        }
      ],
      "pos": [
        42,
        0
      ]
    },
    {
      "plugin": "Fundamental",
      "version": "0.6.2",
      "model": "Delay",
      "params": [
        {
          "paramId": 0,
          "value": 0.0
        },
        {
          "paramId": 1,
          "value": 0.412000299
        },
        {
          "paramId": 2,
          "value": 1.0
        },
        {
          "paramId": 3,
          "value": 1.0
        }
      ],
      "pos": [
        31,
        1
      ]
    },
    {
      "plugin": "Fundamental",
      "version": "0.6.2",
      "model": "LFO",
      "params": [
        {
          "paramId": 0,
          "value": 1.0
        },
        {
          "paramId": 1,
          "value": 1.0
        },
        {
          "paramId": 2,
          "value": 1.0
        },
        {
          "paramId": 3,
          "value": 1.0
        },
        {
          "paramId": 5,
          "value": 0.0
        },
        {
          "paramId": 4,
          "value": 0.00150000001
        },
        {
          "paramId": 6,
          "value": 1.0
        }
      ],
      "pos": [
        24,
        0
      ]
    },
    {
      "plugin": "AS",
      "version": "0.6.13",
      "model": "BPMClock",
      "params": [
        {
          "paramId": 0,
          "value": 148.980057
        },
        {
          "paramId": 1,
          "value": 1.0
        },
        {
          "paramId": 2,
          "value": 4.0
        },
        {
          "paramId": 3,
          "value": 1.0
        },
        {
          "paramId": 5,
          "value": 0.0
        },
        {
          "paramId": 4,
          "value": 0.0
        }
      ],
      "data": {
        "run": [
          1
        ]
      },
      "pos": [
        18,
        0
      ]
    },
    {
      "plugin": "mental",
      "version": "0.6.3",
      "model": "MentalClockDivider",
      "params": [
        {
          "paramId": 0,
          "value": 0.0
        }
      ],
      "pos": [
        13,
        1
      ]
    },
    {
      "plugin": "Core",
      "version": "0.6.2c",
      "model": "MIDICCToCVInterface",
      "params": [],
      "data": {
        "ccs": [
          57,
          58,
          59,
          60,
          61,
          62,
          63,
          64,
          65,
          66,
          67,
          68,
          69,
          70,
          71,
          72
        ],
        "midi": {
          "driver": -12512,
          "deviceName": "Port 1",
          "channel": -1
        }
      },
      "pos": [
        0,
        0
      ]
    },
    {
      "plugin": "Bogaudio",
      "version": "0.6.13",
      "model": "Bogaudio-VCM",
      "params": [
        {
          "paramId": 0,
          "value": 1.0
        },
        {
          "paramId": 1,
          "value": 1.0
        },
        {
          "paramId": 2,
          "value": 1.0
        },
        {
          "paramId": 3,
          "value": 1.0
        },
        {
          "paramId": 4,
          "value": 1.0
        },
        {
          "paramId": 5,
          "value": 0.0
        }
      ],
      "data": {
        "disableOutputLimit": false
      },
      "pos": [
        0,
        1
      ]
    },
    {
      "plugin": "mental",
      "version": "0.6.3",
      "model": "MentalClockDivider",
      "params": [
        {
          "paramId": 0,
          "value": 0.0
        }
      ],
      "pos": [
        10,
        1
      ]
    },
    {
      "plugin": "AS",
      "version": "0.6.13",
      "model": "AtNuVrTr",
      "params": [
        {
          "paramId": 0,
          "value": 1.0
        },
        {
          "paramId": 1,
          "value": -2.18999958
        },
        {
          "paramId": 2,
          "value": -1.0
        },
        {
          "paramId": 3,
          "value": 0.0
        }
      ],
      "pos": [
        81,
        1
      ]
    },
    {
      "plugin": "Fundamental",
      "version": "0.6.2",
      "model": "VCF",
      "params": [
        {
          "paramId": 0,
          "value": 0.5
        },
        {
          "paramId": 1,
          "value": 0.5
        },
        {
          "paramId": 2,
          "value": 0.172500029
        },
        {
          "paramId": 3,
          "value": 0.996999979
        },
        {
          "paramId": 4,
          "value": 0.149999917
        }
      ],
      "pos": [
        86,
        1
      ]
    },
    {
      "plugin": "Bogaudio",
      "version": "0.6.13",
      "model": "Bogaudio-DADSRHPlus",
      "params": [
        {
          "paramId": 0,
          "value": 0.0
        },
        {
          "paramId": 1,
          "value": 0.99849999
        },
        {
          "paramId": 2,
          "value": 1.0
        },
        {
          "paramId": 3,
          "value": 0.50949955
        },
        {
          "paramId": 4,
          "value": 0.880000055
        },
        {
          "paramId": 5,
          "value": 0.00150000001
        },
        {
          "paramId": 6,
          "value": 1.0
        },
        {
          "paramId": 7,
          "value": 1.0
        },
        {
          "paramId": 8,
          "value": 2.0
        },
        {
          "paramId": 9,
          "value": 0.0
        },
        {
          "paramId": 10,
          "value": 1.0
        },
        {
          "paramId": 11,
          "value": 1.0
        },
        {
          "paramId": 12,
          "value": 1.0
        },
        {
          "paramId": 13,
          "value": 1.0
        }
      ],
      "data": {
        "triggerOnLoad": true,
        "shouldTriggerOnLoad": true
      },
      "pos": [
        16,
        1
      ]
    },
    {
      "plugin": "LindenbergResearch",
      "version": "0.6.4",
      "model": "MS20 VCF",
      "params": [
        {
          "paramId": 0,
          "value": 0.0
        },
        {
          "paramId": 1,
          "value": 0.201000139
        },
        {
          "paramId": 2,
          "value": 0.0
        },
        {
          "paramId": 4,
          "value": 0.0
        },
        {
          "paramId": 3,
          "value": 1.0
        },
        {
          "paramId": 5,
          "value": 0.721900165
        },
        {
          "paramId": 6,
          "value": 1.0
        }
      ],
      "gestaltID": 1,
      "gradient": true,
      "patina": false,
      "patina_a_x": -776.627991,
      "patina_a_y": -278.008728,
      "patina_b_x": -464.135559,
      "patina_b_y": -27.4772644,
      "pos": [
        94,
        1
      ]
    }
  ],
  "wires": [
    {
      "color": "#c9b70e",
      "outputModuleId": 2,
      "outputId": 0,
      "inputModuleId": 21,
      "inputId": 3
    },
    {
      "color": "#0986ad",
      "outputModuleId": 1,
      "outputId": 0,
      "inputModuleId": 3,
      "inputId": 1
    },
    {
      "color": "#c9b70e",
      "outputModuleId": 14,
      "outputId": 3,
      "inputModuleId": 4,
      "inputId": 6
    },
    {
      "color": "#c9b70e",
      "outputModuleId": 5,
      "outputId": 0,
      "inputModuleId": 6,
      "inputId": 3
    },
    {
      "color": "#0c8e15",
      "outputModuleId": 14,
      "outputId": 3,
      "inputModuleId": 5,
      "inputId": 0
    },
    {
      "color": "#0986ad",
      "outputModuleId": 3,
      "outputId": 1,
      "inputModuleId": 5,
      "inputId": 3
    },
    {
      "color": "#c91847",
      "outputModuleId": 1,
      "outputId": 0,
      "inputModuleId": 5,
      "inputId": 4
    },
    {
      "color": "#c9b70e",
      "outputModuleId": 6,
      "outputId": 0,
      "inputModuleId": 7,
      "inputId": 4
    },
    {
      "color": "#0986ad",
      "outputModuleId": 14,
      "outputId": 3,
      "inputModuleId": 8,
      "inputId": 6
    },
    {
      "color": "#0c8e15",
      "outputModuleId": 8,
      "outputId": 5,
      "inputModuleId": 9,
      "inputId": 5
    },
    {
      "color": "#0986ad",
      "outputModuleId": 9,
      "outputId": 1,
      "inputModuleId": 5,
      "inputId": 5
    },
    {
      "color": "#c9b70e",
      "outputModuleId": 8,
      "outputId": 5,
      "inputModuleId": 5,
      "inputId": 6
    },
    {
      "color": "#0c8e15",
      "outputModuleId": 4,
      "outputId": 5,
      "inputModuleId": 10,
      "inputId": 0
    },
    {
      "color": "#0986ad",
      "outputModuleId": 14,
      "outputId": 3,
      "inputModuleId": 11,
      "inputId": 0
    },
    {
      "color": "#c91847",
      "outputModuleId": 1,
      "outputId": 0,
      "inputModuleId": 11,
      "inputId": 2
    },
    {
      "color": "#0c8e15",
      "outputModuleId": 4,
      "outputId": 5,
      "inputModuleId": 11,
      "inputId": 3
    },
    {
      "color": "#0986ad",
      "outputModuleId": 4,
      "outputId": 5,
      "inputModuleId": 11,
      "inputId": 5
    },
    {
      "color": "#c91847",
      "outputModuleId": 11,
      "outputId": 2,
      "inputModuleId": 12,
      "inputId": 1
    },
    {
      "color": "#0c8e15",
      "outputModuleId": 12,
      "outputId": 0,
      "inputModuleId": 2,
      "inputId": 4
    },
    {
      "color": "#0986ad",
      "outputModuleId": 4,
      "outputId": 5,
      "inputModuleId": 12,
      "inputId": 5
    },
    {
      "color": "#c9b70e",
      "outputModuleId": 11,
      "outputId": 2,
      "inputModuleId": 13,
      "inputId": 4
    },
    {
      "color": "#c91847",
      "outputModuleId": 13,
      "outputId": 0,
      "inputModuleId": 2,
      "inputId": 7
    },
    {
      "color": "#0986ad",
      "outputModuleId": 22,
      "outputId": 5,
      "inputModuleId": 2,
      "inputId": 8
    },
    {
      "color": "#c9b70e",
      "outputModuleId": 14,
      "outputId": 3,
      "inputModuleId": 22,
      "inputId": 6
    },
    {
      "color": "#0986ad",
      "outputModuleId": 22,
      "outputId": 5,
      "inputModuleId": 13,
      "inputId": 0
    },
    {
      "color": "#c9b70e",
      "outputModuleId": 22,
      "outputId": 5,
      "inputModuleId": 13,
      "inputId": 1
    },
    {
      "color": "#0986ad",
      "outputModuleId": 1,
      "outputId": 11,
      "inputModuleId": 15,
      "inputId": 1
    },
    {
      "color": "#c9b70e",
      "outputModuleId": 18,
      "outputId": 0,
      "inputModuleId": 14,
      "inputId": 2
    },
    {
      "color": "#c9b70e",
      "outputModuleId": 15,
      "outputId": 2,
      "inputModuleId": 16,
      "inputId": 0
    },
    {
      "color": "#c91847",
      "outputModuleId": 19,
      "outputId": 1,
      "inputModuleId": 18,
      "inputId": 4
    },
    {
      "color": "#c91847",
      "outputModuleId": 16,
      "outputId": 2,
      "inputModuleId": 18,
      "inputId": 0
    },
    {
      "color": "#0c8e15",
      "outputModuleId": 16,
      "outputId": 1,
      "inputModuleId": 18,
      "inputId": 2
    },
    {
      "color": "#c91847",
      "outputModuleId": 17,
      "outputId": 0,
      "inputModuleId": 18,
      "inputId": 1
    },
    {
      "color": "#0c8e15",
      "outputModuleId": 17,
      "outputId": 4,
      "inputModuleId": 18,
      "inputId": 3
    },
    {
      "color": "#0986ad",
      "outputModuleId": 17,
      "outputId": 8,
      "inputModuleId": 18,
      "inputId": 5
    },
    {
      "color": "#c9b70e",
      "outputModuleId": 17,
      "outputId": 12,
      "inputModuleId": 18,
      "inputId": 7
    },
    {
      "color": "#c91847",
      "outputModuleId": 17,
      "outputId": 1,
      "inputModuleId": 14,
      "inputId": 0
    },
    {
      "color": "#0c8e15",
      "outputModuleId": 17,
      "outputId": 2,
      "inputModuleId": 14,
      "inputId": 3
    },
    {
      "color": "#0986ad",
      "outputModuleId": 16,
      "outputId": 6,
      "inputModuleId": 19,
      "inputId": 0
    },
    {
      "color": "#c9b70e",
      "outputModuleId": 15,
      "outputId": 4,
      "inputModuleId": 16,
      "inputId": 1
    },
    {
      "color": "#c91847",
      "outputModuleId": 15,
      "outputId": 4,
      "inputModuleId": 19,
      "inputId": 1
    },
    {
      "color": "#c9b70e",
      "outputModuleId": 10,
      "outputId": 0,
      "inputModuleId": 20,
      "inputId": 4
    },
    {
      "color": "#0986ad",
      "outputModuleId": 20,
      "outputId": 0,
      "inputModuleId": 6,
      "inputId": 0
    },
    {
      "color": "#c9b70e",
      "outputModuleId": 20,
      "outputId": 1,
      "inputModuleId": 20,
      "inputId": 2
    },
    {
      "color": "#c91847",
      "outputModuleId": 17,
      "outputId": 1,
      "inputModuleId": 20,
      "inputId": 5
    },
    {
      "color": "#0c8e15",
      "outputModuleId": 20,
      "outputId": 0,
      "inputModuleId": 21,
      "inputId": 0
    },
    {
      "color": "#c91847",
      "outputModuleId": 7,
      "outputId": 0,
      "inputModuleId": 2,
      "inputId": 1
    },
    {
      "color": "#0c8e15",
      "outputModuleId": 21,
      "outputId": 0,
      "inputModuleId": 23,
      "inputId": 0
    },
    {
      "color": "#c9b70e",
      "outputModuleId": 17,
      "outputId": 3,
      "inputModuleId": 22,
      "inputId": 1
    },
    {
      "color": "#c91847",
      "outputModuleId": 17,
      "outputId": 7,
      "inputModuleId": 22,
      "inputId": 2
    },
    {
      "color": "#0c8e15",
      "outputModuleId": 17,
      "outputId": 11,
      "inputModuleId": 22,
      "inputId": 3
    },
    {
      "color": "#0986ad",
      "outputModuleId": 17,
      "outputId": 15,
      "inputModuleId": 22,
      "inputId": 4
    },
    {
      "color": "#c9b70e",
      "outputModuleId": 16,
      "outputId": 6,
      "inputModuleId": 18,
      "inputId": 6
    },
    {
      "color": "#c91847",
      "outputModuleId": 17,
      "outputId": 14,
      "inputModuleId": 20,
      "inputId": 3
    },
    {
      "color": "#0c8e15",
      "outputModuleId": 17,
      "outputId": 13,
      "inputModuleId": 23,
      "inputId": 1
    },
    {
      "color": "#0986ad",
      "outputModuleId": 23,
      "outputId": 0,
      "inputModuleId": 0,
      "inputId": 0
    },
    {
      "color": "#c9b70e",
      "outputModuleId": 23,
      "outputId": 0,
      "inputModuleId": 0,
      "inputId": 1
    },
    {
      "color": "#c91847",
      "outputModuleId": 17,
      "outputId": 9,
      "inputModuleId": 23,
      "inputId": 3
    },
    {
      "color": "#0c8e15",
      "outputModuleId": 17,
      "outputId": 10,
      "inputModuleId": 7,
      "inputId": 2
    }
  ]
}