{
  "version": "0.6.2b",
  "modules": [
    {
      "plugin": "Core",
      "version": "0.6.2b",
      "model": "AudioInterface",
      "params": [],
      "data": {
        "audio": {
          "driver": -12512,
          "deviceName": "1",
          "offset": 0,
          "maxChannels": 8,
          "sampleRate": 44100,
          "blockSize": 256
        }
      },
      "pos": [
        91,
        1
      ]
    },
    {
      "plugin": "AS",
      "version": "0.6.13",
      "model": "Mixer4ch",
      "params": [
        {
          "paramId": 5,
          "value": -1.0
        },
        {
          "paramId": 6,
          "value": 1.0
        },
        {
          "paramId": 7,
          "value": 0.0
        },
        {
          "paramId": 8,
          "value": 0.0
        },
        {
          "paramId": 1,
          "value": 0.800000012
        },
        {
          "paramId": 2,
          "value": 0.800000012
        },
        {
          "paramId": 3,
          "value": 0.800000012
        },
        {
          "paramId": 4,
          "value": 0.800000012
        },
        {
          "paramId": 9,
          "value": 0.0
        },
        {
          "paramId": 10,
          "value": 0.0
        },
        {
          "paramId": 11,
          "value": 0.0
        },
        {
          "paramId": 12,
          "value": 0.0
        },
        {
          "paramId": 0,
          "value": 0.800000012
        },
        {
          "paramId": 13,
          "value": 0.0
        }
      ],
      "data": {
        "as_Mixer4Mutes": [
          0,
          0,
          0,
          0,
          0
        ]
      },
      "pos": [
        74,
        0
      ]
    },
    {
      "plugin": "Core",
      "version": "0.6.2b",
      "model": "MIDICCToCVInterface",
      "params": [],
      "data": {
        "ccs": [
          0,
          1,
          2,
          3,
          4,
          5,
          6,
          7,
          8,
          9,
          10,
          11,
          12,
          13,
          14,
          15
        ],
        "midi": {
          "driver": -12512,
          "deviceName": "Port 1",
          "channel": -1
        }
      },
      "pos": [
        4,
        0
      ]
    },
    {
      "plugin": "AS",
      "version": "0.6.13",
      "model": "AtNuVrTr",
      "params": [
        {
          "paramId": 0,
          "value": 0.521999776
        },
        {
          "paramId": 1,
          "value": -1.01999998
        },
        {
          "paramId": 2,
          "value": 0.108000055
        },
        {
          "paramId": 3,
          "value": 0.0
        }
      ],
      "pos": [
        29,
        0
      ]
    },
    {
      "plugin": "Edge",
      "version": "0.6.5",
      "model": "WCO_Osc",
      "params": [
        {
          "paramId": 0,
          "value": 0.0
        },
        {
          "paramId": 1,
          "value": 1.0
        },
        {
          "paramId": 2,
          "value": 1.0
        },
        {
          "paramId": 3,
          "value": 0.360000342
        },
        {
          "paramId": 4,
          "value": 0.53850013
        },
        {
          "paramId": 5,
          "value": 0.263999999
        },
        {
          "paramId": 6,
          "value": 0.0389999934
        },
        {
          "paramId": 7,
          "value": 0.0810000077
        },
        {
          "paramId": 8,
          "value": 0.037499994
        },
        {
          "paramId": 9,
          "value": 0.0
        },
        {
          "paramId": 10,
          "value": 0.0
        },
        {
          "paramId": 11,
          "value": 0.271500051
        }
      ],
      "pos": [
        34,
        0
      ]
    },
    {
      "plugin": "NYSTHI",
      "version": "0.6.42",
      "model": "LFOMultiPhase",
      "params": [
        {
          "paramId": 6,
          "value": 3.45599937
        },
        {
          "paramId": 7,
          "value": 0.0
        },
        {
          "paramId": 9,
          "value": 0.0
        },
        {
          "paramId": 0,
          "value": 0.0500000007
        },
        {
          "paramId": 2,
          "value": 0.0
        },
        {
          "paramId": 1,
          "value": 0.0
        },
        {
          "paramId": 3,
          "value": 0.0
        },
        {
          "paramId": 4,
          "value": 0.5
        },
        {
          "paramId": 5,
          "value": 0.5
        },
        {
          "paramId": 8,
          "value": 0.277754724
        },
        {
          "paramId": 14,
          "value": 0.5
        },
        {
          "paramId": 11,
          "value": 0.0
        },
        {
          "paramId": 12,
          "value": 0.0
        },
        {
          "paramId": 13,
          "value": 0.0
        }
      ],
      "data": {
        "REALFREQUENCY": 2.32332993
      },
      "pos": [
        22,
        0
      ]
    },
    {
      "plugin": "Core",
      "version": "0.6.2b",
      "model": "MIDIToCVInterface",
      "params": [],
      "data": {
        "divisions": [
          3,
          3
        ],
        "midi": {
          "driver": -12512,
          "deviceName": "Port 1",
          "channel": -1
        }
      },
      "pos": [
        14,
        0
      ]
    },
    {
      "plugin": "Alikins",
      "version": "0.6.6",
      "model": "GateLength",
      "params": [
        {
          "paramId": 0,
          "value": 0.0178125016
        },
        {
          "paramId": 1,
          "value": 0.0175000429
        },
        {
          "paramId": 2,
          "value": 0.100000001
        },
        {
          "paramId": 3,
          "value": 0.100000001
        },
        {
          "paramId": 4,
          "value": 0.100000001
        }
      ],
      "pos": [
        44,
        0
      ]
    },
    {
      "plugin": "Befaco",
      "version": "0.6.0",
      "model": "SlewLimiter",
      "params": [
        {
          "paramId": 0,
          "value": 1.0
        },
        {
          "paramId": 1,
          "value": 0.0299999993
        },
        {
          "paramId": 2,
          "value": 0.102000147
        }
      ],
      "pos": [
        54,
        0
      ]
    },
    {
      "plugin": "AS",
      "version": "0.6.13",
      "model": "AtNuVrTr",
      "params": [
        {
          "paramId": 0,
          "value": -0.622000039
        },
        {
          "paramId": 1,
          "value": 0.0
        },
        {
          "paramId": 2,
          "value": 0.694000065
        },
        {
          "paramId": 3,
          "value": 3.62999821
        }
      ],
      "pos": [
        21,
        1
      ]
    },
    {
      "plugin": "Befaco",
      "version": "0.6.0",
      "model": "SlewLimiter",
      "params": [
        {
          "paramId": 0,
          "value": 0.0
        },
        {
          "paramId": 1,
          "value": 0.155999988
        },
        {
          "paramId": 2,
          "value": 0.17700015
        }
      ],
      "pos": [
        15,
        1
      ]
    },
    {
      "plugin": "Fundamental",
      "version": "0.6.2",
      "model": "VCA-1",
      "params": [
        {
          "paramId": 0,
          "value": 1.0
        },
        {
          "paramId": 1,
          "value": 1.0
        }
      ],
      "pos": [
        60,
        0
      ]
    },
    {
      "plugin": "AudibleInstruments",
      "version": "0.6.3",
      "model": "Branches",
      "params": [
        {
          "paramId": 0,
          "value": 0.0155624961
        },
        {
          "paramId": 2,
          "value": 0.0
        },
        {
          "paramId": 1,
          "value": 0.130500004
        },
        {
          "paramId": 3,
          "value": 0.0
        }
      ],
      "data": {
        "modes": [
          false,
          false
        ]
      },
      "pos": [
        7,
        1
      ]
    },
    {
      "plugin": "SubmarineFree",
      "version": "0.6.8",
      "model": "FF-206",
      "params": [],
      "data": {
        "voltage0": 0.0,
        "voltage1": 10.0
      },
      "pos": [
        13,
        1
      ]
    },
    {
      "plugin": "AS",
      "version": "0.6.13",
      "model": "AtNuVrTr",
      "params": [
        {
          "paramId": 0,
          "value": -1.0
        },
        {
          "paramId": 1,
          "value": 0.0
        },
        {
          "paramId": 2,
          "value": 1.0
        },
        {
          "paramId": 3,
          "value": 0.0
        }
      ],
      "pos": [
        63,
        0
      ]
    },
    {
      "plugin": "Befaco",
      "version": "0.6.0",
      "model": "SlewLimiter",
      "params": [
        {
          "paramId": 0,
          "value": 1.0
        },
        {
          "paramId": 1,
          "value": 0.0
        },
        {
          "paramId": 2,
          "value": 0.0660002381
        }
      ],
      "pos": [
        68,
        0
      ]
    },
    {
      "plugin": "AS",
      "version": "0.6.13",
      "model": "TriLFO",
      "params": [
        {
          "paramId": 2,
          "value": -0.223000005
        },
        {
          "paramId": 0,
          "value": 0.0
        },
        {
          "paramId": 1,
          "value": 1.0
        },
        {
          "paramId": 5,
          "value": 0.25999999
        },
        {
          "paramId": 3,
          "value": 0.0
        },
        {
          "paramId": 4,
          "value": 1.0
        },
        {
          "paramId": 8,
          "value": -1.0
        },
        {
          "paramId": 6,
          "value": 1.0
        },
        {
          "paramId": 7,
          "value": 1.0
        }
      ],
      "pos": [
        34,
        1
      ]
    },
    {
      "plugin": "AS",
      "version": "0.6.13",
      "model": "AtNuVrTr",
      "params": [
        {
          "paramId": 0,
          "value": 0.128999978
        },
        {
          "paramId": 1,
          "value": 0.0
        },
        {
          "paramId": 2,
          "value": 0.191999912
        },
        {
          "paramId": 3,
          "value": 0.0
        }
      ],
      "pos": [
        44,
        1
      ]
    },
    {
      "plugin": "AS",
      "version": "0.6.13",
      "model": "AtNuVrTr",
      "params": [
        {
          "paramId": 0,
          "value": 0.225937545
        },
        {
          "paramId": 1,
          "value": 0.131249994
        },
        {
          "paramId": 2,
          "value": 0.239062503
        },
        {
          "paramId": 3,
          "value": 0.172499999
        }
      ],
      "pos": [
        49,
        1
      ]
    },
    {
      "plugin": "AS",
      "version": "0.6.13",
      "model": "DelayPlusStereoFx",
      "params": [
        {
          "paramId": 0,
          "value": 0.0
        },
        {
          "paramId": 1,
          "value": 0.89049989
        },
        {
          "paramId": 2,
          "value": 0.5
        },
        {
          "paramId": 3,
          "value": 0.0
        },
        {
          "paramId": 4,
          "value": 0.887499988
        },
        {
          "paramId": 5,
          "value": 0.5
        },
        {
          "paramId": 6,
          "value": 0.0
        },
        {
          "paramId": 7,
          "value": 0.0
        },
        {
          "paramId": 8,
          "value": 0.160499975
        },
        {
          "paramId": 9,
          "value": 0.0
        }
      ],
      "data": {
        "as_FxBypass": [
          false
        ]
      },
      "pos": [
        72,
        1
      ]
    },
    {
      "plugin": "VultModulesFree",
      "version": "0.6.26",
      "model": "Tohe",
      "params": [
        {
          "paramId": 0,
          "value": 0.203999951
        },
        {
          "paramId": 1,
          "value": 0.0
        },
        {
          "paramId": 2,
          "value": 0.0
        }
      ],
      "pos": [
        68,
        1
      ]
    },
    {
      "plugin": "cf",
      "version": "0.6.8",
      "model": "CUTS",
      "params": [
        {
          "paramId": 3,
          "value": 5.0
        },
        {
          "paramId": 1,
          "value": 0.120000005
        },
        {
          "paramId": 0,
          "value": 0.904000163
        },
        {
          "paramId": 2,
          "value": 0.0
        }
      ],
      "data": {
        "linkstate": 0,
        "linkdelta": 0.0
      },
      "pos": [
        87,
        1
      ]
    },
    {
      "plugin": "Befaco",
      "version": "0.6.0",
      "model": "SlewLimiter",
      "params": [
        {
          "paramId": 0,
          "value": 0.0
        },
        {
          "paramId": 1,
          "value": 0.746999919
        },
        {
          "paramId": 2,
          "value": 0.750000358
        }
      ],
      "pos": [
        54,
        1
      ]
    },
    {
      "plugin": "Befaco",
      "version": "0.6.0",
      "model": "SlewLimiter",
      "params": [
        {
          "paramId": 0,
          "value": 0.0
        },
        {
          "paramId": 1,
          "value": 0.746999919
        },
        {
          "paramId": 2,
          "value": 0.750000358
        }
      ],
      "pos": [
        60,
        1
      ]
    },
    {
      "plugin": "rcm",
      "version": "0.6.13",
      "model": "rcm-seq-adapter",
      "params": [],
      "backgroundHue": 0.527999997,
      "backgroundSaturation": 0.600000024,
      "backgroundLuminosity": 0.400000006,
      "pos": [
        90,
        0
      ]
    }
  ],
  "wires": [
    {
      "color": "#0986ad",
      "outputModuleId": 2,
      "outputId": 0,
      "inputModuleId": 3,
      "inputId": 4
    },
    {
      "color": "#0c8e15",
      "outputModuleId": 3,
      "outputId": 0,
      "inputModuleId": 4,
      "inputId": 2
    },
    {
      "color": "#0986ad",
      "outputModuleId": 4,
      "outputId": 0,
      "inputModuleId": 20,
      "inputId": 0
    },
    {
      "color": "#c9b70e",
      "outputModuleId": 4,
      "outputId": 0,
      "inputModuleId": 20,
      "inputId": 2
    },
    {
      "color": "#c91847",
      "outputModuleId": 5,
      "outputId": 8,
      "inputModuleId": 3,
      "inputId": 5
    },
    {
      "color": "#c91847",
      "outputModuleId": 6,
      "outputId": 11,
      "inputModuleId": 5,
      "inputId": 6
    },
    {
      "color": "#c91847",
      "outputModuleId": 8,
      "outputId": 0,
      "inputModuleId": 11,
      "inputId": 1
    },
    {
      "color": "#0986ad",
      "outputModuleId": 7,
      "outputId": 0,
      "inputModuleId": 8,
      "inputId": 2
    },
    {
      "color": "#c9b70e",
      "outputModuleId": 6,
      "outputId": 8,
      "inputModuleId": 12,
      "inputId": 0
    },
    {
      "color": "#0c8e15",
      "outputModuleId": 9,
      "outputId": 0,
      "inputModuleId": 3,
      "inputId": 3
    },
    {
      "color": "#0986ad",
      "outputModuleId": 10,
      "outputId": 0,
      "inputModuleId": 9,
      "inputId": 4
    },
    {
      "color": "#c91847",
      "outputModuleId": 9,
      "outputId": 0,
      "inputModuleId": 4,
      "inputId": 4
    },
    {
      "color": "#0c8e15",
      "outputModuleId": 6,
      "outputId": 11,
      "inputModuleId": 4,
      "inputId": 1
    },
    {
      "color": "#0986ad",
      "outputModuleId": 2,
      "outputId": 0,
      "inputModuleId": 4,
      "inputId": 3
    },
    {
      "color": "#c9b70e",
      "outputModuleId": 2,
      "outputId": 0,
      "inputModuleId": 4,
      "inputId": 5
    },
    {
      "color": "#0c8e15",
      "outputModuleId": 14,
      "outputId": 1,
      "inputModuleId": 1,
      "inputId": 2
    },
    {
      "color": "#0986ad",
      "outputModuleId": 14,
      "outputId": 1,
      "inputModuleId": 1,
      "inputId": 5
    },
    {
      "color": "#c9b70e",
      "outputModuleId": 9,
      "outputId": 1,
      "inputModuleId": 11,
      "inputId": 0
    },
    {
      "color": "#0c8e15",
      "outputModuleId": 2,
      "outputId": 0,
      "inputModuleId": 9,
      "inputId": 5
    },
    {
      "color": "#c91847",
      "outputModuleId": 12,
      "outputId": 0,
      "inputModuleId": 13,
      "inputId": 0
    },
    {
      "color": "#0986ad",
      "outputModuleId": 13,
      "outputId": 0,
      "inputModuleId": 13,
      "inputId": 1
    },
    {
      "color": "#c91847",
      "outputModuleId": 11,
      "outputId": 0,
      "inputModuleId": 14,
      "inputId": 5
    },
    {
      "color": "#0c8e15",
      "outputModuleId": 12,
      "outputId": 2,
      "inputModuleId": 15,
      "inputId": 2
    },
    {
      "color": "#0986ad",
      "outputModuleId": 15,
      "outputId": 0,
      "inputModuleId": 14,
      "inputId": 4
    },
    {
      "color": "#c9b70e",
      "outputModuleId": 14,
      "outputId": 0,
      "inputModuleId": 14,
      "inputId": 3
    },
    {
      "color": "#c91847",
      "outputModuleId": 17,
      "outputId": 0,
      "inputModuleId": 4,
      "inputId": 0
    },
    {
      "color": "#0c8e15",
      "outputModuleId": 16,
      "outputId": 0,
      "inputModuleId": 17,
      "inputId": 4
    },
    {
      "color": "#c9b70e",
      "outputModuleId": 16,
      "outputId": 5,
      "inputModuleId": 17,
      "inputId": 5
    },
    {
      "color": "#c91847",
      "outputModuleId": 17,
      "outputId": 1,
      "inputModuleId": 17,
      "inputId": 2
    },
    {
      "color": "#c9b70e",
      "outputModuleId": 7,
      "outputId": 1,
      "inputModuleId": 10,
      "inputId": 2
    },
    {
      "color": "#c91847",
      "outputModuleId": 12,
      "outputId": 0,
      "inputModuleId": 7,
      "inputId": 0
    },
    {
      "color": "#0c8e15",
      "outputModuleId": 13,
      "outputId": 0,
      "inputModuleId": 7,
      "inputId": 1
    },
    {
      "color": "#0986ad",
      "outputModuleId": 17,
      "outputId": 0,
      "inputModuleId": 18,
      "inputId": 4
    },
    {
      "color": "#c9b70e",
      "outputModuleId": 17,
      "outputId": 0,
      "inputModuleId": 18,
      "inputId": 5
    },
    {
      "color": "#c91847",
      "outputModuleId": 18,
      "outputId": 0,
      "inputModuleId": 1,
      "inputId": 3
    },
    {
      "color": "#0c8e15",
      "outputModuleId": 18,
      "outputId": 1,
      "inputModuleId": 1,
      "inputId": 6
    },
    {
      "color": "#0c8e15",
      "outputModuleId": 18,
      "outputId": 1,
      "inputModuleId": 22,
      "inputId": 2
    },
    {
      "color": "#c9b70e",
      "outputModuleId": 19,
      "outputId": 2,
      "inputModuleId": 1,
      "inputId": 1
    },
    {
      "color": "#c91847",
      "outputModuleId": 19,
      "outputId": 3,
      "inputModuleId": 1,
      "inputId": 4
    },
    {
      "color": "#c91847",
      "outputModuleId": 13,
      "outputId": 0,
      "inputModuleId": 19,
      "inputId": 11
    },
    {
      "color": "#0c8e15",
      "outputModuleId": 20,
      "outputId": 0,
      "inputModuleId": 19,
      "inputId": 9
    },
    {
      "color": "#0986ad",
      "outputModuleId": 20,
      "outputId": 1,
      "inputModuleId": 19,
      "inputId": 10
    },
    {
      "color": "#c9b70e",
      "outputModuleId": 1,
      "outputId": 0,
      "inputModuleId": 21,
      "inputId": 0
    },
    {
      "color": "#c91847",
      "outputModuleId": 1,
      "outputId": 1,
      "inputModuleId": 21,
      "inputId": 1
    },
    {
      "color": "#0c8e15",
      "outputModuleId": 21,
      "outputId": 0,
      "inputModuleId": 0,
      "inputId": 0
    },
    {
      "color": "#0986ad",
      "outputModuleId": 21,
      "outputId": 1,
      "inputModuleId": 0,
      "inputId": 1
    },
    {
      "color": "#0986ad",
      "outputModuleId": 18,
      "outputId": 0,
      "inputModuleId": 23,
      "inputId": 2
    },
    {
      "color": "#c9b70e",
      "outputModuleId": 22,
      "outputId": 0,
      "inputModuleId": 19,
      "inputId": 0
    },
    {
      "color": "#c91847",
      "outputModuleId": 23,
      "outputId": 0,
      "inputModuleId": 19,
      "inputId": 4
    },
    {
      "color": "#c9b70e",
      "outputModuleId": 2,
      "outputId": 1,
      "inputModuleId": 1,
      "inputId": 0
    }
  ]
}