{
  "version": "0.6.2b",
  "modules": [
    {
      "plugin": "Core",
      "version": "0.6.2b",
      "model": "AudioInterface",
      "params": [],
      "data": {
        "audio": {
          "driver": 6,
          "deviceName": "Speakers (High Definition Audio Device)",
          "offset": 0,
          "maxChannels": 8,
          "sampleRate": 44100,
          "blockSize": 256
        }
      },
      "pos": [
        43,
        1
      ]
    },
    {
      "plugin": "AS",
      "version": "0.6.9",
      "model": "StereoVUmeter",
      "params": [],
      "pos": [
        39,
        1
      ]
    },
    {
      "plugin": "AS",
      "version": "0.6.9",
      "model": "VCA",
      "params": [
        {
          "paramId": 0,
          "value": 0.767000198
        },
        {
          "paramId": 1,
          "value": 0.743000209
        },
        {
          "paramId": 2,
          "value": 1.0
        },
        {
          "paramId": 3,
          "value": 1.0
        }
      ],
      "pos": [
        33,
        0
      ]
    },
    {
      "plugin": "Autodafe - REDs FREE",
      "version": "0.6.0",
      "model": "CO[S]INE",
      "params": [
        {
          "paramId": 0,
          "value": -29.8399811
        },
        {
          "paramId": 1,
          "value": 0.0
        },
        {
          "paramId": 2,
          "value": 1.0
        },
        {
          "paramId": 3,
          "value": 18.887989
        },
        {
          "paramId": 4,
          "value": 1.0
        }
      ],
      "pos": [
        75,
        1
      ]
    },
    {
      "plugin": "AS",
      "version": "0.6.9",
      "model": "QuadVCA",
      "params": [
        {
          "paramId": 0,
          "value": 0.489000052
        },
        {
          "paramId": 1,
          "value": 0.473999798
        },
        {
          "paramId": 2,
          "value": 0.0450000018
        },
        {
          "paramId": 3,
          "value": 0.0
        },
        {
          "paramId": 4,
          "value": 1.0
        },
        {
          "paramId": 5,
          "value": 1.0
        },
        {
          "paramId": 6,
          "value": 1.0
        },
        {
          "paramId": 7,
          "value": 1.0
        }
      ],
      "pos": [
        39,
        0
      ]
    },
    {
      "plugin": "Core",
      "version": "0.6.2b",
      "model": "MIDIToCVInterface",
      "params": [],
      "data": {
        "divisions": [
          24,
          6
        ],
        "midi": {
          "driver": -11,
          "deviceName": "QWERTY keyboard (US)",
          "channel": -1
        }
      },
      "pos": [
        53,
        1
      ]
    },
    {
      "plugin": "Bidoo",
      "version": "0.6.8",
      "model": "ForK",
      "params": [
        {
          "paramId": 1,
          "value": -26.7300415
        },
        {
          "paramId": 2,
          "value": 0.0
        },
        {
          "paramId": 3,
          "value": 400.0
        },
        {
          "paramId": 7,
          "value": 1.0
        },
        {
          "paramId": 4,
          "value": 900.0
        },
        {
          "paramId": 8,
          "value": 0.699999988
        },
        {
          "paramId": 5,
          "value": 2300.0
        },
        {
          "paramId": 9,
          "value": 0.200000003
        },
        {
          "paramId": 6,
          "value": 3000.0
        },
        {
          "paramId": 10,
          "value": 0.200000003
        }
      ],
      "pos": [
        75,
        0
      ]
    },
    {
      "plugin": "NYSTHI",
      "version": "0.6.17",
      "model": "DualFeedbackEcho",
      "params": [
        {
          "paramId": 0,
          "value": 0.461000443
        },
        {
          "paramId": 1,
          "value": 0.315000027
        },
        {
          "paramId": 4,
          "value": 0.487012535
        },
        {
          "paramId": 5,
          "value": 0.421078503
        }
      ],
      "pos": [
        73,
        0
      ]
    },
    {
      "plugin": "cf",
      "version": "0.6.0",
      "model": "CUBE",
      "params": [],
      "pos": [
        81,
        0
      ]
    },
    {
      "plugin": "Fundamental",
      "version": "0.6.1",
      "model": "LFO2",
      "params": [
        {
          "paramId": 0,
          "value": 0.0
        },
        {
          "paramId": 1,
          "value": 1.0
        },
        {
          "paramId": 2,
          "value": -2.15899992
        },
        {
          "paramId": 3,
          "value": 1.30200016
        },
        {
          "paramId": 4,
          "value": 0.13699995
        }
      ],
      "pos": [
        101,
        0
      ]
    },
    {
      "plugin": "Bogaudio",
      "version": "0.6.7",
      "model": "Bogaudio-Offset",
      "params": [
        {
          "paramId": 0,
          "value": 0.0
        },
        {
          "paramId": 1,
          "value": 0.247000113
        }
      ],
      "data": {
        "disableOutputLimit": false
      },
      "pos": [
        89,
        0
      ]
    },
    {
      "plugin": "Bogaudio",
      "version": "0.6.7",
      "model": "Bogaudio-Offset",
      "params": [
        {
          "paramId": 0,
          "value": 0.183000043
        },
        {
          "paramId": 1,
          "value": -0.170000285
        }
      ],
      "data": {
        "disableOutputLimit": false
      },
      "pos": [
        92,
        0
      ]
    },
    {
      "plugin": "Bogaudio",
      "version": "0.6.7",
      "model": "Bogaudio-Offset",
      "params": [
        {
          "paramId": 0,
          "value": -0.204999685
        },
        {
          "paramId": 1,
          "value": 0.345999986
        }
      ],
      "data": {
        "disableOutputLimit": false
      },
      "pos": [
        95,
        0
      ]
    },
    {
      "plugin": "Bogaudio",
      "version": "0.6.7",
      "model": "Bogaudio-Offset",
      "params": [
        {
          "paramId": 0,
          "value": 0.0
        },
        {
          "paramId": 1,
          "value": -0.170000181
        }
      ],
      "data": {
        "disableOutputLimit": false
      },
      "pos": [
        98,
        0
      ]
    },
    {
      "plugin": "Fundamental",
      "version": "0.6.1",
      "model": "LFO2",
      "params": [
        {
          "paramId": 0,
          "value": 0.0
        },
        {
          "paramId": 1,
          "value": 1.0
        },
        {
          "paramId": 2,
          "value": -2.2670002
        },
        {
          "paramId": 3,
          "value": 1.30200016
        },
        {
          "paramId": 4,
          "value": 0.236000031
        }
      ],
      "pos": [
        107,
        0
      ]
    },
    {
      "plugin": "AS",
      "version": "0.6.9",
      "model": "TriLFO",
      "params": [
        {
          "paramId": 2,
          "value": -3.30999899
        },
        {
          "paramId": 0,
          "value": 1.0
        },
        {
          "paramId": 1,
          "value": 1.0
        },
        {
          "paramId": 5,
          "value": -4.29700804
        },
        {
          "paramId": 3,
          "value": 1.0
        },
        {
          "paramId": 4,
          "value": 1.0
        },
        {
          "paramId": 8,
          "value": -3.18400025
        },
        {
          "paramId": 6,
          "value": 0.0
        },
        {
          "paramId": 7,
          "value": 1.0
        }
      ],
      "pos": [
        113,
        0
      ]
    },
    {
      "plugin": "Bogaudio",
      "version": "0.6.7",
      "model": "Bogaudio-Offset",
      "params": [
        {
          "paramId": 0,
          "value": 0.0
        },
        {
          "paramId": 1,
          "value": 0.150999993
        }
      ],
      "data": {
        "disableOutputLimit": false
      },
      "pos": [
        70,
        0
      ]
    },
    {
      "plugin": "ML_modules",
      "version": "0.6.2",
      "model": "TrigDelay",
      "params": [
        {
          "paramId": 0,
          "value": 0.0
        },
        {
          "paramId": 2,
          "value": 0.180959493
        },
        {
          "paramId": 1,
          "value": 0.0
        },
        {
          "paramId": 3,
          "value": 0.549725533
        }
      ],
      "pos": [
        62,
        0
      ]
    },
    {
      "plugin": "Bogaudio",
      "version": "0.6.7",
      "model": "Bogaudio-ADSR",
      "params": [
        {
          "paramId": 0,
          "value": 0.222000033
        },
        {
          "paramId": 1,
          "value": 0.316229999
        },
        {
          "paramId": 2,
          "value": 0.0240000002
        },
        {
          "paramId": 3,
          "value": 0.634230256
        },
        {
          "paramId": 4,
          "value": 0.0
        }
      ],
      "pos": [
        59,
        0
      ]
    },
    {
      "plugin": "NYSTHI",
      "version": "0.6.17",
      "model": "DualFeedbackEcho",
      "params": [
        {
          "paramId": 0,
          "value": 0.745999932
        },
        {
          "paramId": 1,
          "value": 0.411000013
        },
        {
          "paramId": 4,
          "value": 0.274225593
        },
        {
          "paramId": 5,
          "value": 0.253246725
        }
      ],
      "pos": [
        73,
        1
      ]
    },
    {
      "plugin": "NYSTHI",
      "version": "0.6.17",
      "model": "DualFeedbackEcho",
      "params": [
        {
          "paramId": 0,
          "value": 1.04100025
        },
        {
          "paramId": 1,
          "value": 0.739499688
        },
        {
          "paramId": 4,
          "value": 0.338661224
        },
        {
          "paramId": 5,
          "value": 0.172327474
        }
      ],
      "pos": [
        70,
        1
      ]
    },
    {
      "plugin": "moDllz",
      "version": "0.6.6",
      "model": "TwinGlider",
      "params": [
        {
          "paramId": 0,
          "value": 0.431499988
        },
        {
          "paramId": 2,
          "value": 0.395999879
        },
        {
          "paramId": 4,
          "value": 0.0
        },
        {
          "paramId": 6,
          "value": 2.0
        },
        {
          "paramId": 8,
          "value": 2.0
        },
        {
          "paramId": 12,
          "value": 0.0
        },
        {
          "paramId": 1,
          "value": 0.0855000019
        },
        {
          "paramId": 3,
          "value": 0.0990000144
        },
        {
          "paramId": 5,
          "value": 1.0
        },
        {
          "paramId": 7,
          "value": 2.0
        },
        {
          "paramId": 9,
          "value": 2.0
        },
        {
          "paramId": 13,
          "value": 0.0
        }
      ],
      "pos": [
        85,
        1
      ]
    },
    {
      "plugin": "AS",
      "version": "0.6.9",
      "model": "BPMClock",
      "params": [
        {
          "paramId": 0,
          "value": 168.099915
        },
        {
          "paramId": 1,
          "value": 1.0
        },
        {
          "paramId": 2,
          "value": 4.0
        },
        {
          "paramId": 3,
          "value": 1.0
        },
        {
          "paramId": 5,
          "value": 0.0
        },
        {
          "paramId": 4,
          "value": 0.0
        }
      ],
      "data": {
        "run": [
          1
        ]
      },
      "pos": [
        28,
        1
      ]
    },
    {
      "plugin": "AudibleInstruments",
      "version": "0.6.0",
      "model": "Branches",
      "params": [
        {
          "paramId": 0,
          "value": 0.480000228
        },
        {
          "paramId": 2,
          "value": 0.0
        },
        {
          "paramId": 1,
          "value": 0.302000225
        },
        {
          "paramId": 3,
          "value": 0.0
        }
      ],
      "pos": [
        102,
        1
      ]
    },
    {
      "plugin": "Bogaudio",
      "version": "0.6.7",
      "model": "Bogaudio-ADSR",
      "params": [
        {
          "paramId": 0,
          "value": 0.0419999957
        },
        {
          "paramId": 1,
          "value": 0.316229999
        },
        {
          "paramId": 2,
          "value": 0.959500134
        },
        {
          "paramId": 3,
          "value": 0.313230366
        },
        {
          "paramId": 4,
          "value": 0.0
        }
      ],
      "pos": [
        56,
        0
      ]
    },
    {
      "plugin": "Bogaudio",
      "version": "0.6.7",
      "model": "Bogaudio-Bool",
      "params": [],
      "pos": [
        61,
        1
      ]
    },
    {
      "plugin": "cf",
      "version": "0.6.0",
      "model": "SLIDERSEQ",
      "params": [
        {
          "paramId": 0,
          "value": 0.0
        },
        {
          "paramId": 1,
          "value": 0.707999885
        },
        {
          "paramId": 2,
          "value": 0.356999904
        },
        {
          "paramId": 3,
          "value": 0.582000017
        },
        {
          "paramId": 4,
          "value": 0.257999986
        },
        {
          "paramId": 5,
          "value": 0.513000011
        },
        {
          "paramId": 6,
          "value": 0.168000028
        },
        {
          "paramId": 7,
          "value": 0.284999996
        },
        {
          "paramId": 8,
          "value": 0.513000071
        },
        {
          "paramId": 9,
          "value": 0.318000019
        },
        {
          "paramId": 10,
          "value": 0.0989999995
        },
        {
          "paramId": 11,
          "value": 0.237000003
        },
        {
          "paramId": 12,
          "value": 0.0780000165
        },
        {
          "paramId": 13,
          "value": 0.330000013
        },
        {
          "paramId": 14,
          "value": 0.222000033
        },
        {
          "paramId": 15,
          "value": 0.393000066
        },
        {
          "paramId": 16,
          "value": 0.0989999846
        }
      ],
      "data": {
        "offsetstate": 0
      },
      "pos": [
        84,
        2
      ]
    },
    {
      "plugin": "Fundamental",
      "version": "0.6.1",
      "model": "VCA-1",
      "params": [
        {
          "paramId": 0,
          "value": 1.0
        },
        {
          "paramId": 1,
          "value": 1.0
        }
      ],
      "pos": [
        96,
        1
      ]
    },
    {
      "plugin": "Bogaudio",
      "version": "0.6.7",
      "model": "Bogaudio-ADSR",
      "params": [
        {
          "paramId": 0,
          "value": 0.0314999968
        },
        {
          "paramId": 1,
          "value": 0.470730036
        },
        {
          "paramId": 2,
          "value": 0.534999907
        },
        {
          "paramId": 3,
          "value": 0.190230101
        },
        {
          "paramId": 4,
          "value": 0.0
        }
      ],
      "pos": [
        99,
        1
      ]
    },
    {
      "plugin": "SonusModular",
      "version": "0.6.1",
      "model": "Ctrl",
      "params": [
        {
          "paramId": 0,
          "value": 0.0
        },
        {
          "paramId": 1,
          "value": 0.0
        },
        {
          "paramId": 2,
          "value": 0.215000078
        },
        {
          "paramId": 3,
          "value": 0.0
        },
        {
          "paramId": 4,
          "value": 0.0
        },
        {
          "paramId": 5,
          "value": 0.0
        },
        {
          "paramId": 6,
          "value": 0.0
        },
        {
          "paramId": 7,
          "value": 0.0
        }
      ],
      "knob_1_label": "",
      "knob_2_label": "",
      "knob_3_label": "",
      "knob_4_label": "",
      "knob_5_label": "",
      "knob_6_label": "",
      "knob_7_label": "",
      "knob_8_label": "",
      "pos": [
        57,
        2
      ]
    },
    {
      "plugin": "Fundamental",
      "version": "0.6.1",
      "model": "SequentialSwitch1",
      "params": [
        {
          "paramId": 0,
          "value": 0.0
        }
      ],
      "pos": [
        107,
        2
      ]
    },
    {
      "plugin": "Fundamental",
      "version": "0.6.1",
      "model": "SequentialSwitch2",
      "params": [
        {
          "paramId": 0,
          "value": 0.0
        }
      ],
      "pos": [
        123,
        1
      ]
    },
    {
      "plugin": "Bogaudio",
      "version": "0.6.7",
      "model": "Bogaudio-Offset",
      "params": [
        {
          "paramId": 0,
          "value": -0.233999476
        },
        {
          "paramId": 1,
          "value": -0.259999931
        }
      ],
      "data": {
        "disableOutputLimit": false
      },
      "pos": [
        43,
        2
      ]
    },
    {
      "plugin": "Bogaudio",
      "version": "0.6.7",
      "model": "Bogaudio-ADSR",
      "params": [
        {
          "paramId": 0,
          "value": 0.0
        },
        {
          "paramId": 1,
          "value": 0.0555000007
        },
        {
          "paramId": 2,
          "value": 1.0
        },
        {
          "paramId": 3,
          "value": 0.691230595
        },
        {
          "paramId": 4,
          "value": 0.0
        }
      ],
      "pos": [
        46,
        2
      ]
    }
  ],
  "wires": [
    {
      "color": "#c91847",
      "outputModuleId": 1,
      "outputId": 0,
      "inputModuleId": 0,
      "inputId": 0
    },
    {
      "color": "#0c8e15",
      "outputModuleId": 1,
      "outputId": 1,
      "inputModuleId": 0,
      "inputId": 1
    },
    {
      "color": "#0986ad",
      "outputModuleId": 2,
      "outputId": 0,
      "inputModuleId": 1,
      "inputId": 0
    },
    {
      "color": "#c9b70e",
      "outputModuleId": 2,
      "outputId": 1,
      "inputModuleId": 1,
      "inputId": 1
    },
    {
      "color": "#c91847",
      "outputModuleId": 4,
      "outputId": 3,
      "inputModuleId": 2,
      "inputId": 1
    },
    {
      "color": "#0c8e15",
      "outputModuleId": 4,
      "outputId": 3,
      "inputModuleId": 2,
      "inputId": 3
    },
    {
      "color": "#c91847",
      "outputModuleId": 5,
      "outputId": 0,
      "inputModuleId": 3,
      "inputId": 0
    },
    {
      "color": "#c9b70e",
      "outputModuleId": 5,
      "outputId": 0,
      "inputModuleId": 32,
      "inputId": 2
    },
    {
      "color": "#c91847",
      "outputModuleId": 6,
      "outputId": 0,
      "inputModuleId": 7,
      "inputId": 0
    },
    {
      "color": "#0c8e15",
      "outputModuleId": 7,
      "outputId": 0,
      "inputModuleId": 7,
      "inputId": 1
    },
    {
      "color": "#0986ad",
      "outputModuleId": 7,
      "outputId": 1,
      "inputModuleId": 4,
      "inputId": 3
    },
    {
      "color": "#0986ad",
      "outputModuleId": 9,
      "outputId": 0,
      "inputModuleId": 10,
      "inputId": 2
    },
    {
      "color": "#0986ad",
      "outputModuleId": 10,
      "outputId": 0,
      "inputModuleId": 12,
      "inputId": 1
    },
    {
      "color": "#c9b70e",
      "outputModuleId": 11,
      "outputId": 0,
      "inputModuleId": 12,
      "inputId": 2
    },
    {
      "color": "#c91847",
      "outputModuleId": 12,
      "outputId": 0,
      "inputModuleId": 6,
      "inputId": 2
    },
    {
      "color": "#0c8e15",
      "outputModuleId": 15,
      "outputId": 0,
      "inputModuleId": 11,
      "inputId": 2
    },
    {
      "color": "#c91847",
      "outputModuleId": 15,
      "outputId": 4,
      "inputModuleId": 9,
      "inputId": 0
    },
    {
      "color": "#0c8e15",
      "outputModuleId": 8,
      "outputId": 0,
      "inputModuleId": 14,
      "inputId": 0
    },
    {
      "color": "#c91847",
      "outputModuleId": 5,
      "outputId": 6,
      "inputModuleId": 15,
      "inputId": 2
    },
    {
      "color": "#0986ad",
      "outputModuleId": 5,
      "outputId": 6,
      "inputModuleId": 15,
      "inputId": 4
    },
    {
      "color": "#c9b70e",
      "outputModuleId": 5,
      "outputId": 0,
      "inputModuleId": 10,
      "inputId": 0
    },
    {
      "color": "#0986ad",
      "outputModuleId": 17,
      "outputId": 0,
      "inputModuleId": 17,
      "inputId": 1
    },
    {
      "color": "#0c8e15",
      "outputModuleId": 18,
      "outputId": 0,
      "inputModuleId": 13,
      "inputId": 2
    },
    {
      "color": "#0986ad",
      "outputModuleId": 5,
      "outputId": 6,
      "inputModuleId": 15,
      "inputId": 3
    },
    {
      "color": "#c91847",
      "outputModuleId": 15,
      "outputId": 8,
      "inputModuleId": 8,
      "inputId": 1
    },
    {
      "color": "#0c8e15",
      "outputModuleId": 19,
      "outputId": 0,
      "inputModuleId": 19,
      "inputId": 1
    },
    {
      "color": "#0986ad",
      "outputModuleId": 19,
      "outputId": 1,
      "inputModuleId": 20,
      "inputId": 0
    },
    {
      "color": "#c91847",
      "outputModuleId": 20,
      "outputId": 0,
      "inputModuleId": 20,
      "inputId": 1
    },
    {
      "color": "#0c8e15",
      "outputModuleId": 20,
      "outputId": 1,
      "inputModuleId": 4,
      "inputId": 1
    },
    {
      "color": "#0986ad",
      "outputModuleId": 5,
      "outputId": 0,
      "inputModuleId": 21,
      "inputId": 8
    },
    {
      "color": "#c9b70e",
      "outputModuleId": 21,
      "outputId": 10,
      "inputModuleId": 20,
      "inputId": 2
    },
    {
      "color": "#c91847",
      "outputModuleId": 21,
      "outputId": 10,
      "inputModuleId": 19,
      "inputId": 4
    },
    {
      "color": "#0986ad",
      "outputModuleId": 21,
      "outputId": 10,
      "inputModuleId": 19,
      "inputId": 2
    },
    {
      "color": "#c9b70e",
      "outputModuleId": 21,
      "outputId": 10,
      "inputModuleId": 19,
      "inputId": 3
    },
    {
      "color": "#0986ad",
      "outputModuleId": 5,
      "outputId": 0,
      "inputModuleId": 16,
      "inputId": 2
    },
    {
      "color": "#c9b70e",
      "outputModuleId": 21,
      "outputId": 10,
      "inputModuleId": 7,
      "inputId": 3
    },
    {
      "color": "#c9b70e",
      "outputModuleId": 10,
      "outputId": 0,
      "inputModuleId": 20,
      "inputId": 3
    },
    {
      "color": "#0c8e15",
      "outputModuleId": 22,
      "outputId": 2,
      "inputModuleId": 23,
      "inputId": 0
    },
    {
      "color": "#c91847",
      "outputModuleId": 24,
      "outputId": 0,
      "inputModuleId": 2,
      "inputId": 0
    },
    {
      "color": "#c9b70e",
      "outputModuleId": 17,
      "outputId": 0,
      "inputModuleId": 24,
      "inputId": 0
    },
    {
      "color": "#0986ad",
      "outputModuleId": 23,
      "outputId": 0,
      "inputModuleId": 25,
      "inputId": 1
    },
    {
      "color": "#c9b70e",
      "outputModuleId": 18,
      "outputId": 0,
      "inputModuleId": 25,
      "inputId": 2
    },
    {
      "color": "#0c8e15",
      "outputModuleId": 24,
      "outputId": 0,
      "inputModuleId": 2,
      "inputId": 2
    },
    {
      "color": "#0986ad",
      "outputModuleId": 25,
      "outputId": 0,
      "inputModuleId": 17,
      "inputId": 0
    },
    {
      "color": "#0986ad",
      "outputModuleId": 5,
      "outputId": 1,
      "inputModuleId": 25,
      "inputId": 0
    },
    {
      "color": "#0c8e15",
      "outputModuleId": 22,
      "outputId": 2,
      "inputModuleId": 26,
      "inputId": 1
    },
    {
      "color": "#0986ad",
      "outputModuleId": 5,
      "outputId": 6,
      "inputModuleId": 26,
      "inputId": 0
    },
    {
      "color": "#c91847",
      "outputModuleId": 26,
      "outputId": 0,
      "inputModuleId": 21,
      "inputId": 9
    },
    {
      "color": "#0c8e15",
      "outputModuleId": 21,
      "outputId": 11,
      "inputModuleId": 3,
      "inputId": 1
    },
    {
      "color": "#0986ad",
      "outputModuleId": 26,
      "outputId": 0,
      "inputModuleId": 8,
      "inputId": 0
    },
    {
      "color": "#c9b70e",
      "outputModuleId": 18,
      "outputId": 0,
      "inputModuleId": 7,
      "inputId": 2
    },
    {
      "color": "#c91847",
      "outputModuleId": 5,
      "outputId": 1,
      "inputModuleId": 18,
      "inputId": 0
    },
    {
      "color": "#0986ad",
      "outputModuleId": 23,
      "outputId": 1,
      "inputModuleId": 28,
      "inputId": 0
    },
    {
      "color": "#c9b70e",
      "outputModuleId": 25,
      "outputId": 2,
      "inputModuleId": 23,
      "inputId": 1
    },
    {
      "color": "#0c8e15",
      "outputModuleId": 28,
      "outputId": 0,
      "inputModuleId": 27,
      "inputId": 0
    },
    {
      "color": "#0986ad",
      "outputModuleId": 3,
      "outputId": 0,
      "inputModuleId": 27,
      "inputId": 1
    },
    {
      "color": "#c9b70e",
      "outputModuleId": 27,
      "outputId": 0,
      "inputModuleId": 19,
      "inputId": 0
    },
    {
      "color": "#c91847",
      "outputModuleId": 16,
      "outputId": 0,
      "inputModuleId": 12,
      "inputId": 0
    },
    {
      "color": "#c91847",
      "outputModuleId": 10,
      "outputId": 0,
      "inputModuleId": 6,
      "inputId": 6
    },
    {
      "color": "#0c8e15",
      "outputModuleId": 11,
      "outputId": 0,
      "inputModuleId": 6,
      "inputId": 3
    },
    {
      "color": "#0986ad",
      "outputModuleId": 23,
      "outputId": 0,
      "inputModuleId": 6,
      "inputId": 7
    },
    {
      "color": "#c9b70e",
      "outputModuleId": 23,
      "outputId": 1,
      "inputModuleId": 6,
      "inputId": 4
    },
    {
      "color": "#c91847",
      "outputModuleId": 14,
      "outputId": 0,
      "inputModuleId": 6,
      "inputId": 8
    },
    {
      "color": "#0c8e15",
      "outputModuleId": 23,
      "outputId": 0,
      "inputModuleId": 14,
      "inputId": 2
    },
    {
      "color": "#0986ad",
      "outputModuleId": 29,
      "outputId": 0,
      "inputModuleId": 16,
      "inputId": 0
    },
    {
      "color": "#c9b70e",
      "outputModuleId": 29,
      "outputId": 1,
      "inputModuleId": 16,
      "inputId": 1
    },
    {
      "color": "#0c8e15",
      "outputModuleId": 29,
      "outputId": 2,
      "inputModuleId": 30,
      "inputId": 2
    },
    {
      "color": "#c9b70e",
      "outputModuleId": 32,
      "outputId": 0,
      "inputModuleId": 6,
      "inputId": 1
    },
    {
      "color": "#c91847",
      "outputModuleId": 33,
      "outputId": 0,
      "inputModuleId": 32,
      "inputId": 0
    },
    {
      "color": "#0c8e15",
      "outputModuleId": 5,
      "outputId": 6,
      "inputModuleId": 33,
      "inputId": 0
    }
  ]
}