{
  "version": "0.6.2c",
  "modules": [
    {
      "plugin": "Fundamental",
      "version": "0.6.2",
      "model": "VCO",
      "params": [
        {
          "paramId": 0,
          "value": 1.0
        },
        {
          "paramId": 1,
          "value": 1.0
        },
        {
          "paramId": 2,
          "value": -54.0
        },
        {
          "paramId": 3,
          "value": 0.0
        },
        {
          "paramId": 5,
          "value": 0.5
        },
        {
          "paramId": 4,
          "value": 0.70900017
        },
        {
          "paramId": 6,
          "value": 0.0
        }
      ],
      "pos": [
        14,
        0
      ]
    },
    {
      "plugin": "Core",
      "version": "0.6.2c",
      "model": "AudioInterface",
      "params": [],
      "data": {
        "audio": {
          "driver": 6,
          "deviceName": "Speakers (High Definition Audio Device)",
          "offset": 0,
          "maxChannels": 8,
          "sampleRate": 48000,
          "blockSize": 512
        }
      },
      "pos": [
        66,
        0
      ]
    },
    {
      "plugin": "Fundamental",
      "version": "0.6.2",
      "model": "VCO",
      "params": [
        {
          "paramId": 0,
          "value": 1.0
        },
        {
          "paramId": 1,
          "value": 1.0
        },
        {
          "paramId": 2,
          "value": -53.5139999
        },
        {
          "paramId": 3,
          "value": 0.0
        },
        {
          "paramId": 5,
          "value": 0.5
        },
        {
          "paramId": 4,
          "value": 0.166500047
        },
        {
          "paramId": 6,
          "value": 0.0
        }
      ],
      "pos": [
        4,
        0
      ]
    },
    {
      "plugin": "Fundamental",
      "version": "0.6.2",
      "model": "VCF",
      "params": [
        {
          "paramId": 0,
          "value": 0.273499906
        },
        {
          "paramId": 1,
          "value": 0.5
        },
        {
          "paramId": 2,
          "value": 0.317999929
        },
        {
          "paramId": 3,
          "value": 1.0
        },
        {
          "paramId": 4,
          "value": 0.123000011
        }
      ],
      "pos": [
        25,
        0
      ]
    },
    {
      "plugin": "Fundamental",
      "version": "0.6.2",
      "model": "VCF",
      "params": [
        {
          "paramId": 0,
          "value": 0.372000098
        },
        {
          "paramId": 1,
          "value": 0.5
        },
        {
          "paramId": 2,
          "value": 0.370500028
        },
        {
          "paramId": 3,
          "value": 1.0
        },
        {
          "paramId": 4,
          "value": 0.304500073
        }
      ],
      "pos": [
        33,
        0
      ]
    },
    {
      "plugin": "CatroModulo",
      "version": "0.6.6",
      "model": "CatroModulo_CM-3",
      "params": [
        {
          "paramId": 0,
          "value": 0.0
        },
        {
          "paramId": 1,
          "value": 0.0
        },
        {
          "paramId": 2,
          "value": 0.0
        },
        {
          "paramId": 3,
          "value": 0.0
        },
        {
          "paramId": 4,
          "value": 0.0
        },
        {
          "paramId": 5,
          "value": 0.0
        },
        {
          "paramId": 6,
          "value": 0.0
        },
        {
          "paramId": 7,
          "value": 0.0
        },
        {
          "paramId": 8,
          "value": 0.720999897
        },
        {
          "paramId": 9,
          "value": 0.210000008
        },
        {
          "paramId": 10,
          "value": 0.0
        },
        {
          "paramId": 11,
          "value": 0.0
        },
        {
          "paramId": 12,
          "value": 0.0
        },
        {
          "paramId": 13,
          "value": 0.0
        },
        {
          "paramId": 14,
          "value": 0.0
        },
        {
          "paramId": 15,
          "value": 0.0
        },
        {
          "paramId": 16,
          "value": 15.0
        },
        {
          "paramId": 17,
          "value": 0.0
        },
        {
          "paramId": 18,
          "value": 7.0
        },
        {
          "paramId": 19,
          "value": 0.0
        },
        {
          "paramId": 20,
          "value": 0.0
        },
        {
          "paramId": 21,
          "value": 0.0
        },
        {
          "paramId": 23,
          "value": 0.0
        },
        {
          "paramId": 24,
          "value": 0.0
        },
        {
          "paramId": 25,
          "value": 0.0
        }
      ],
      "data": {
        "recorder": [
          0.438520461,
          0.0795617551,
          0.35508287,
          0.142674029,
          0.675740838,
          0.694021404,
          0.54399246,
          0.0496230982,
          0.969969809,
          0.679921865,
          0.388622701,
          0.169560835,
          0.784478307,
          0.48466444,
          0.507858515,
          0.40107426,
          0.942319989,
          0.0534684286,
          0.386761069,
          0.0267036967,
          0.0186162908,
          0.857936323,
          0.727286577,
          0.875423431,
          0.0790124238,
          0.59062469,
          0.816064954,
          0.0102237007,
          0.23209326,
          0.869869053,
          0.628925443,
          0.53556931,
          0.965208888,
          0.797418118,
          0.890347004,
          0.616931677,
          0.732200086,
          0.713889003,
          0.806543171,
          0.307473987,
          0.762047172,
          0.995025456,
          0.691640973,
          0.274971783,
          0.556657612,
          0.232520521,
          0.204596087,
          0.0228888821,
          0.046967987,
          0.643879533,
          0.416516632,
          0.699270606,
          0.876247466,
          0.0539872423,
          0.426801354,
          0.0874355286,
          0.778466165,
          0.293008208,
          0.746848941,
          0.871913791,
          0.521958053,
          0.354014724,
          0.169835508,
          0.773552656
        ]
      },
      "pos": [
        6,
        1
      ]
    },
    {
      "plugin": "CatroModulo",
      "version": "0.6.6",
      "model": "CatroModulo_CM-4",
      "params": [
        {
          "paramId": 0,
          "value": 4.00500393
        },
        {
          "paramId": 2,
          "value": 1.0
        },
        {
          "paramId": 1,
          "value": 0.0
        }
      ],
      "pos": [
        0,
        1
      ]
    },
    {
      "plugin": "Core",
      "version": "0.6.2c",
      "model": "MIDICCToCVInterface",
      "params": [],
      "data": {
        "ccs": [
          57,
          58,
          59,
          60,
          61,
          62,
          6,
          7,
          8,
          9,
          10,
          11,
          12,
          13,
          14,
          15
        ],
        "midi": {
          "driver": 4,
          "deviceName": "Midi Fighter Twister 0",
          "channel": -1
        }
      },
      "pos": [
        48,
        1
      ]
    },
    {
      "plugin": "VultModulesFree",
      "version": "0.6.26",
      "model": "Slap",
      "params": [
        {
          "paramId": 0,
          "value": 0.0
        },
        {
          "paramId": 1,
          "value": 0.108499974
        },
        {
          "paramId": 2,
          "value": 1.0
        },
        {
          "paramId": 3,
          "value": 0.220499858
        },
        {
          "paramId": 4,
          "value": 0.0
        },
        {
          "paramId": 5,
          "value": 0.0
        },
        {
          "paramId": 6,
          "value": 0.0
        },
        {
          "paramId": 7,
          "value": 0.0
        },
        {
          "paramId": 8,
          "value": 0.0
        }
      ],
      "pos": [
        41,
        0
      ]
    },
    {
      "plugin": "Fundamental",
      "version": "0.6.2",
      "model": "VCA-1",
      "params": [
        {
          "paramId": 0,
          "value": 1.0
        },
        {
          "paramId": 1,
          "value": 1.0
        }
      ],
      "pos": [
        51,
        0
      ]
    },
    {
      "plugin": "ML_modules",
      "version": "0.6.3",
      "model": "TrigDelay",
      "params": [
        {
          "paramId": 0,
          "value": 0.0
        },
        {
          "paramId": 2,
          "value": 0.126936987
        },
        {
          "paramId": 1,
          "value": 0.0
        },
        {
          "paramId": 3,
          "value": 0.100000001
        }
      ],
      "pos": [
        35,
        1
      ]
    },
    {
      "plugin": "AlrightDevices",
      "version": "0.6.1",
      "model": "Chronoblob2",
      "params": [
        {
          "paramId": 0,
          "value": 0.549500287
        },
        {
          "paramId": 1,
          "value": 0.231499985
        },
        {
          "paramId": 2,
          "value": 0.251499951
        },
        {
          "paramId": 3,
          "value": 0.0
        },
        {
          "paramId": 4,
          "value": 0.306000084
        },
        {
          "paramId": 5,
          "value": 0.0
        },
        {
          "paramId": 6,
          "value": 0.0
        },
        {
          "paramId": 7,
          "value": 0.0
        },
        {
          "paramId": 8,
          "value": 0.0
        },
        {
          "paramId": 9,
          "value": 0.0
        }
      ],
      "data": {
        "delay_mode": 1,
        "hold_behavior": 0,
        "sync_prescaler": 6
      },
      "pos": [
        54,
        0
      ]
    },
    {
      "plugin": "NYSTHI",
      "version": "0.6.42",
      "model": "MasterRecorder",
      "params": [
        {
          "paramId": 0,
          "value": 0.0
        },
        {
          "paramId": 1,
          "value": 0.0
        },
        {
          "paramId": 2,
          "value": 0.0
        }
      ],
      "data": {
        "nysthi_id": "MR_CwhWoOXJ",
        "wavebits": 9
      },
      "pos": [
        59,
        1
      ]
    }
  ],
  "wires": [
    {
      "color": "#0986ad",
      "outputModuleId": 0,
      "outputId": 1,
      "inputModuleId": 3,
      "inputId": 3
    },
    {
      "color": "#c91847",
      "outputModuleId": 3,
      "outputId": 0,
      "inputModuleId": 4,
      "inputId": 3
    },
    {
      "color": "#0986ad",
      "outputModuleId": 2,
      "outputId": 1,
      "inputModuleId": 0,
      "inputId": 1
    },
    {
      "color": "#0c8e15",
      "outputModuleId": 5,
      "outputId": 0,
      "inputModuleId": 3,
      "inputId": 0
    },
    {
      "color": "#0986ad",
      "outputModuleId": 5,
      "outputId": 0,
      "inputModuleId": 4,
      "inputId": 0
    },
    {
      "color": "#0c8e15",
      "outputModuleId": 6,
      "outputId": 3,
      "inputModuleId": 5,
      "inputId": 22
    },
    {
      "color": "#0986ad",
      "outputModuleId": 7,
      "outputId": 0,
      "inputModuleId": 5,
      "inputId": 8
    },
    {
      "color": "#c9b70e",
      "outputModuleId": 7,
      "outputId": 1,
      "inputModuleId": 5,
      "inputId": 18
    },
    {
      "color": "#0986ad",
      "outputModuleId": 6,
      "outputId": 6,
      "inputModuleId": 10,
      "inputId": 0
    },
    {
      "color": "#c91847",
      "outputModuleId": 4,
      "outputId": 1,
      "inputModuleId": 9,
      "inputId": 1
    },
    {
      "color": "#0c8e15",
      "outputModuleId": 8,
      "outputId": 1,
      "inputModuleId": 9,
      "inputId": 0
    },
    {
      "color": "#0986ad",
      "outputModuleId": 9,
      "outputId": 0,
      "inputModuleId": 11,
      "inputId": 5
    },
    {
      "color": "#c9b70e",
      "outputModuleId": 9,
      "outputId": 0,
      "inputModuleId": 11,
      "inputId": 6
    },
    {
      "color": "#c91847",
      "outputModuleId": 10,
      "outputId": 0,
      "inputModuleId": 8,
      "inputId": 0
    },
    {
      "color": "#0c8e15",
      "outputModuleId": 7,
      "outputId": 2,
      "inputModuleId": 8,
      "inputId": 4
    },
    {
      "color": "#c9b70e",
      "outputModuleId": 2,
      "outputId": 0,
      "inputModuleId": 5,
      "inputId": 9
    },
    {
      "color": "#c91847",
      "outputModuleId": 5,
      "outputId": 1,
      "inputModuleId": 2,
      "inputId": 1
    },
    {
      "color": "#c9b70e",
      "outputModuleId": 6,
      "outputId": 7,
      "inputModuleId": 5,
      "inputId": 19
    },
    {
      "color": "#c91847",
      "outputModuleId": 7,
      "outputId": 2,
      "inputModuleId": 10,
      "inputId": 4
    },
    {
      "color": "#0c8e15",
      "outputModuleId": 11,
      "outputId": 0,
      "inputModuleId": 1,
      "inputId": 0
    },
    {
      "color": "#0986ad",
      "outputModuleId": 11,
      "outputId": 1,
      "inputModuleId": 1,
      "inputId": 1
    },
    {
      "color": "#c9b70e",
      "outputModuleId": 6,
      "outputId": 5,
      "inputModuleId": 11,
      "inputId": 7
    },
    {
      "color": "#c91847",
      "outputModuleId": 7,
      "outputId": 1,
      "inputModuleId": 11,
      "inputId": 1
    },
    {
      "color": "#0c8e15",
      "outputModuleId": 7,
      "outputId": 3,
      "inputModuleId": 5,
      "inputId": 16
    },
    {
      "color": "#0986ad",
      "outputModuleId": 6,
      "outputId": 0,
      "inputModuleId": 6,
      "inputId": 1
    },
    {
      "color": "#c91847",
      "outputModuleId": 7,
      "outputId": 4,
      "inputModuleId": 2,
      "inputId": 0
    },
    {
      "color": "#0c8e15",
      "outputModuleId": 7,
      "outputId": 5,
      "inputModuleId": 0,
      "inputId": 0
    },
    {
      "color": "#0986ad",
      "outputModuleId": 11,
      "outputId": 0,
      "inputModuleId": 12,
      "inputId": 0
    },
    {
      "color": "#c9b70e",
      "outputModuleId": 11,
      "outputId": 1,
      "inputModuleId": 12,
      "inputId": 1
    }
  ]
}