{
  "version": "0.6.2c",
  "modules": [
    {
      "plugin": "Core",
      "version": "0.6.2c",
      "model": "AudioInterface",
      "params": [],
      "data": {
        "audio": {
          "driver": 6,
          "deviceName": "Speakers (High Definition Audio Device)",
          "offset": 0,
          "maxChannels": 8,
          "sampleRate": 48000,
          "blockSize": 1024
        }
      },
      "pos": [
        110,
        1
      ]
    },
    {
      "plugin": "AudibleInstruments",
      "version": "0.6.3",
      "model": "Plaits",
      "params": [
        {
          "paramId": 0,
          "value": 0.0
        },
        {
          "paramId": 1,
          "value": 0.0
        },
        {
          "paramId": 2,
          "value": 0.0
        },
        {
          "paramId": 3,
          "value": 0.5
        },
        {
          "paramId": 4,
          "value": 0.273500174
        },
        {
          "paramId": 5,
          "value": 0.5
        },
        {
          "paramId": 6,
          "value": 0.0
        },
        {
          "paramId": 7,
          "value": 0.0
        },
        {
          "paramId": 8,
          "value": 0.326999962
        }
      ],
      "data": {
        "lowCpu": false,
        "model": 4,
        "lpgColor": 0.5,
        "decay": 0.5
      },
      "pos": [
        66,
        0
      ]
    },
    {
      "plugin": "CatroModulo",
      "version": "0.6.4",
      "model": "CatroModulo_CM-4",
      "params": [
        {
          "paramId": 0,
          "value": 1.02600098
        },
        {
          "paramId": 2,
          "value": 1.0
        },
        {
          "paramId": 1,
          "value": 0.0
        }
      ],
      "pos": [
        24,
        0
      ]
    },
    {
      "plugin": "CatroModulo",
      "version": "0.6.4",
      "model": "CatroModulo_CM-5",
      "params": [
        {
          "paramId": 0,
          "value": 0.0
        }
      ],
      "pos": [
        29,
        0
      ]
    },
    {
      "plugin": "AudibleInstruments",
      "version": "0.6.3",
      "model": "Plaits",
      "params": [
        {
          "paramId": 0,
          "value": 0.0
        },
        {
          "paramId": 1,
          "value": 0.0
        },
        {
          "paramId": 2,
          "value": 0.0
        },
        {
          "paramId": 3,
          "value": 0.5
        },
        {
          "paramId": 4,
          "value": 0.273500174
        },
        {
          "paramId": 5,
          "value": 0.5
        },
        {
          "paramId": 6,
          "value": 0.0
        },
        {
          "paramId": 7,
          "value": 0.0
        },
        {
          "paramId": 8,
          "value": 0.326999962
        }
      ],
      "data": {
        "lowCpu": false,
        "model": 4,
        "lpgColor": 0.5,
        "decay": 0.5
      },
      "pos": [
        43,
        0
      ]
    },
    {
      "plugin": "AudibleInstruments",
      "version": "0.6.3",
      "model": "Plaits",
      "params": [
        {
          "paramId": 0,
          "value": 0.0
        },
        {
          "paramId": 1,
          "value": 0.0
        },
        {
          "paramId": 2,
          "value": 0.0
        },
        {
          "paramId": 3,
          "value": 0.5
        },
        {
          "paramId": 4,
          "value": 0.273500174
        },
        {
          "paramId": 5,
          "value": 0.5
        },
        {
          "paramId": 6,
          "value": 0.0
        },
        {
          "paramId": 7,
          "value": 0.0
        },
        {
          "paramId": 8,
          "value": 0.326999962
        }
      ],
      "data": {
        "lowCpu": false,
        "model": 4,
        "lpgColor": 0.5,
        "decay": 0.5
      },
      "pos": [
        43,
        1
      ]
    },
    {
      "plugin": "AudibleInstruments",
      "version": "0.6.3",
      "model": "Plaits",
      "params": [
        {
          "paramId": 0,
          "value": 0.0
        },
        {
          "paramId": 1,
          "value": 0.0
        },
        {
          "paramId": 2,
          "value": 0.0
        },
        {
          "paramId": 3,
          "value": 0.5
        },
        {
          "paramId": 4,
          "value": 0.273500174
        },
        {
          "paramId": 5,
          "value": 0.5
        },
        {
          "paramId": 6,
          "value": 0.0
        },
        {
          "paramId": 7,
          "value": 0.0
        },
        {
          "paramId": 8,
          "value": 0.326999962
        }
      ],
      "data": {
        "lowCpu": false,
        "model": 4,
        "lpgColor": 0.5,
        "decay": 0.5
      },
      "pos": [
        66,
        1
      ]
    },
    {
      "plugin": "CatroModulo",
      "version": "0.6.4",
      "model": "CatroModulo_CM-1",
      "params": [
        {
          "paramId": 0,
          "value": 0.0540000014
        },
        {
          "paramId": 1,
          "value": 1.72799969
        },
        {
          "paramId": 2,
          "value": 0.364499867
        },
        {
          "paramId": 3,
          "value": 0.193499982
        },
        {
          "paramId": 4,
          "value": 0.0
        },
        {
          "paramId": 5,
          "value": 0.0
        },
        {
          "paramId": 6,
          "value": 0.0
        },
        {
          "paramId": 7,
          "value": 0.0
        },
        {
          "paramId": 8,
          "value": -8.0
        },
        {
          "paramId": 9,
          "value": -7.40600014
        },
        {
          "paramId": 10,
          "value": -8.0
        },
        {
          "paramId": 11,
          "value": -8.0
        },
        {
          "paramId": 12,
          "value": -2.51000023
        },
        {
          "paramId": 13,
          "value": -2.6990006
        },
        {
          "paramId": 14,
          "value": -2.5909996
        },
        {
          "paramId": 15,
          "value": -2.3210001
        },
        {
          "paramId": 16,
          "value": 0.5
        },
        {
          "paramId": 17,
          "value": 0.5
        },
        {
          "paramId": 18,
          "value": 0.230269909
        },
        {
          "paramId": 19,
          "value": 0.5
        },
        {
          "paramId": 20,
          "value": 0.5
        },
        {
          "paramId": 21,
          "value": 0.5
        },
        {
          "paramId": 22,
          "value": 0.5
        },
        {
          "paramId": 23,
          "value": 0.5
        },
        {
          "paramId": 24,
          "value": 0.368000001
        },
        {
          "paramId": 25,
          "value": 0.99849999
        },
        {
          "paramId": 26,
          "value": 0.63349998
        },
        {
          "paramId": 27,
          "value": 0.616999984
        },
        {
          "paramId": 28,
          "value": 0.5
        },
        {
          "paramId": 29,
          "value": 0.5
        },
        {
          "paramId": 30,
          "value": 0.5
        },
        {
          "paramId": 31,
          "value": 0.5
        },
        {
          "paramId": 32,
          "value": 0.0
        },
        {
          "paramId": 33,
          "value": 0.0
        }
      ],
      "pos": [
        13,
        1
      ]
    },
    {
      "plugin": "CatroModulo",
      "version": "0.6.4",
      "model": "CatroModulo_CM-2",
      "params": [
        {
          "paramId": 0,
          "value": 0.218999982
        },
        {
          "paramId": 1,
          "value": 0.315000057
        },
        {
          "paramId": 2,
          "value": 0.276000023
        },
        {
          "paramId": 3,
          "value": 0.303000003
        },
        {
          "paramId": 4,
          "value": 0.296999991
        },
        {
          "paramId": 5,
          "value": 0.34800002
        },
        {
          "paramId": 6,
          "value": 0.342000037
        },
        {
          "paramId": 7,
          "value": 0.203999981
        },
        {
          "paramId": 8,
          "value": 0.0
        },
        {
          "paramId": 9,
          "value": 0.0
        },
        {
          "paramId": 10,
          "value": 0.0
        },
        {
          "paramId": 11,
          "value": 0.0
        },
        {
          "paramId": 12,
          "value": 0.447000355
        },
        {
          "paramId": 13,
          "value": 0.473999947
        },
        {
          "paramId": 14,
          "value": 0.462000012
        },
        {
          "paramId": 15,
          "value": 0.546000004
        }
      ],
      "pos": [
        13,
        0
      ]
    },
    {
      "plugin": "JW-Modules",
      "version": "0.6.3",
      "model": "Quantizer",
      "params": [
        {
          "paramId": 0,
          "value": 3.0
        },
        {
          "paramId": 1,
          "value": 11.0
        }
      ],
      "data": {},
      "pos": [
        39,
        0
      ]
    },
    {
      "plugin": "JW-Modules",
      "version": "0.6.3",
      "model": "Quantizer",
      "params": [
        {
          "paramId": 0,
          "value": 3.0
        },
        {
          "paramId": 1,
          "value": 11.0
        }
      ],
      "data": {},
      "pos": [
        39,
        1
      ]
    },
    {
      "plugin": "JW-Modules",
      "version": "0.6.3",
      "model": "Quantizer",
      "params": [
        {
          "paramId": 0,
          "value": 3.0
        },
        {
          "paramId": 1,
          "value": 11.0
        }
      ],
      "data": {},
      "pos": [
        62,
        1
      ]
    },
    {
      "plugin": "JW-Modules",
      "version": "0.6.3",
      "model": "Quantizer",
      "params": [
        {
          "paramId": 0,
          "value": 3.0
        },
        {
          "paramId": 1,
          "value": 11.0
        }
      ],
      "data": {},
      "pos": [
        62,
        0
      ]
    },
    {
      "plugin": "AudibleInstruments",
      "version": "0.6.3",
      "model": "Kinks",
      "params": [],
      "pos": [
        55,
        0
      ]
    },
    {
      "plugin": "AudibleInstruments",
      "version": "0.6.3",
      "model": "Kinks",
      "params": [],
      "pos": [
        55,
        1
      ]
    },
    {
      "plugin": "AudibleInstruments",
      "version": "0.6.3",
      "model": "Kinks",
      "params": [],
      "pos": [
        32,
        0
      ]
    },
    {
      "plugin": "AudibleInstruments",
      "version": "0.6.3",
      "model": "Kinks",
      "params": [],
      "pos": [
        32,
        1
      ]
    },
    {
      "plugin": "Bogaudio",
      "version": "0.6.14",
      "model": "Bogaudio-Stack",
      "params": [
        {
          "paramId": 0,
          "value": 0.0
        },
        {
          "paramId": 1,
          "value": -0.0
        },
        {
          "paramId": 2,
          "value": 0.0
        },
        {
          "paramId": 3,
          "value": 1.0
        }
      ],
      "pos": [
        36,
        0
      ]
    },
    {
      "plugin": "Bogaudio",
      "version": "0.6.14",
      "model": "Bogaudio-Stack",
      "params": [
        {
          "paramId": 0,
          "value": 0.0
        },
        {
          "paramId": 1,
          "value": -0.0
        },
        {
          "paramId": 2,
          "value": 0.0
        },
        {
          "paramId": 3,
          "value": 1.0
        }
      ],
      "pos": [
        36,
        1
      ]
    },
    {
      "plugin": "Bogaudio",
      "version": "0.6.14",
      "model": "Bogaudio-Stack",
      "params": [
        {
          "paramId": 0,
          "value": 0.0
        },
        {
          "paramId": 1,
          "value": -1.0
        },
        {
          "paramId": 2,
          "value": 0.0
        },
        {
          "paramId": 3,
          "value": 1.0
        }
      ],
      "pos": [
        59,
        1
      ]
    },
    {
      "plugin": "Bogaudio",
      "version": "0.6.14",
      "model": "Bogaudio-Stack",
      "params": [
        {
          "paramId": 0,
          "value": 0.0
        },
        {
          "paramId": 1,
          "value": -1.0
        },
        {
          "paramId": 2,
          "value": 0.0
        },
        {
          "paramId": 3,
          "value": 1.0
        }
      ],
      "pos": [
        59,
        0
      ]
    },
    {
      "plugin": "BaconMusic",
      "version": "0.6.3",
      "model": "SampleDelay",
      "params": [
        {
          "paramId": 0,
          "value": 32.0
        }
      ],
      "pos": [
        78,
        0
      ]
    },
    {
      "plugin": "BaconMusic",
      "version": "0.6.3",
      "model": "SampleDelay",
      "params": [
        {
          "paramId": 0,
          "value": 48.0
        }
      ],
      "pos": [
        78,
        1
      ]
    },
    {
      "plugin": "BaconMusic",
      "version": "0.6.3",
      "model": "SampleDelay",
      "params": [
        {
          "paramId": 0,
          "value": 72.0
        }
      ],
      "pos": [
        83,
        1
      ]
    },
    {
      "plugin": "AS",
      "version": "0.6.13",
      "model": "ReverbStereoFx",
      "params": [
        {
          "paramId": 0,
          "value": 0.383799493
        },
        {
          "paramId": 1,
          "value": 0.612999976
        },
        {
          "paramId": 2,
          "value": 0.165000051
        },
        {
          "paramId": 3,
          "value": 0.0
        }
      ],
      "data": {
        "as_FxBypass": [
          false
        ]
      },
      "pos": [
        104,
        1
      ]
    },
    {
      "plugin": "AS",
      "version": "0.6.13",
      "model": "Mixer4ch",
      "params": [
        {
          "paramId": 5,
          "value": -0.185999975
        },
        {
          "paramId": 6,
          "value": 0.167999983
        },
        {
          "paramId": 7,
          "value": -0.107999973
        },
        {
          "paramId": 8,
          "value": 0.0360000767
        },
        {
          "paramId": 1,
          "value": 0.68599993
        },
        {
          "paramId": 2,
          "value": 0.688999951
        },
        {
          "paramId": 3,
          "value": 0.679999948
        },
        {
          "paramId": 4,
          "value": 0.676999927
        },
        {
          "paramId": 9,
          "value": 0.0
        },
        {
          "paramId": 10,
          "value": 0.0
        },
        {
          "paramId": 11,
          "value": 0.0
        },
        {
          "paramId": 12,
          "value": 0.0
        },
        {
          "paramId": 0,
          "value": 0.769999981
        },
        {
          "paramId": 13,
          "value": 0.0
        }
      ],
      "data": {
        "as_Mixer4Mutes": [
          0,
          0,
          0,
          0,
          0
        ]
      },
      "pos": [
        91,
        0
      ]
    },
    {
      "plugin": "AS",
      "version": "0.6.13",
      "model": "SineOSC",
      "params": [
        {
          "paramId": 0,
          "value": -3.0
        },
        {
          "paramId": 1,
          "value": 0.0
        }
      ],
      "pos": [
        88,
        1
      ]
    },
    {
      "plugin": "Bogaudio",
      "version": "0.6.14",
      "model": "Bogaudio-UMix",
      "params": [
        {
          "paramId": 0,
          "value": 0.0629999936
        }
      ],
      "data": {
        "sum": true
      },
      "pos": [
        84,
        0
      ]
    },
    {
      "plugin": "VultModulesFree",
      "version": "0.6.26",
      "model": "Tohe",
      "params": [
        {
          "paramId": 0,
          "value": -0.825999618
        },
        {
          "paramId": 1,
          "value": 0.0
        },
        {
          "paramId": 2,
          "value": 0.0
        }
      ],
      "pos": [
        87,
        0
      ]
    },
    {
      "plugin": "CatroModulo",
      "version": "0.6.4",
      "model": "CatroModulo_CM-6",
      "params": [],
      "pos": [
        83,
        0
      ]
    },
    {
      "plugin": "AlrightDevices",
      "version": "0.6.1",
      "model": "Chronoblob2",
      "params": [
        {
          "paramId": 0,
          "value": 0.0915000066
        },
        {
          "paramId": 1,
          "value": 0.212000087
        },
        {
          "paramId": 2,
          "value": 0.098999992
        },
        {
          "paramId": 3,
          "value": 0.0
        },
        {
          "paramId": 4,
          "value": -0.229000017
        },
        {
          "paramId": 5,
          "value": 0.201000109
        },
        {
          "paramId": 6,
          "value": 0.0
        },
        {
          "paramId": 7,
          "value": 0.0
        },
        {
          "paramId": 8,
          "value": 1.0
        },
        {
          "paramId": 9,
          "value": 0.0
        }
      ],
      "data": {
        "delay_mode": 1,
        "hold_behavior": 0,
        "sync_prescaler": 6
      },
      "pos": [
        107,
        0
      ]
    },
    {
      "plugin": "AS",
      "version": "0.6.13",
      "model": "QuadVCA",
      "params": [
        {
          "paramId": 0,
          "value": 0.678999841
        },
        {
          "paramId": 1,
          "value": 0.744999945
        },
        {
          "paramId": 2,
          "value": 0.745000184
        },
        {
          "paramId": 3,
          "value": 0.70599997
        },
        {
          "paramId": 4,
          "value": 1.0
        },
        {
          "paramId": 5,
          "value": 1.0
        },
        {
          "paramId": 6,
          "value": 1.0
        },
        {
          "paramId": 7,
          "value": 1.0
        }
      ],
      "pos": [
        96,
        1
      ]
    },
    {
      "plugin": "AS",
      "version": "0.6.13",
      "model": "SineOSC",
      "params": [
        {
          "paramId": 0,
          "value": -3.0
        },
        {
          "paramId": 1,
          "value": 0.0
        }
      ],
      "pos": [
        92,
        1
      ]
    },
    {
      "plugin": "CatroModulo",
      "version": "0.6.4",
      "model": "CatroModulo_CM-6",
      "params": [],
      "pos": [
        119,
        0
      ]
    }
  ],
  "wires": [
    {
      "color": "#c91847",
      "outputModuleId": 3,
      "outputId": 0,
      "inputModuleId": 1,
      "inputId": 5
    },
    {
      "color": "#0986ad",
      "outputModuleId": 2,
      "outputId": 0,
      "inputModuleId": 3,
      "inputId": 0
    },
    {
      "color": "#c9b70e",
      "outputModuleId": 2,
      "outputId": 7,
      "inputModuleId": 3,
      "inputId": 1
    },
    {
      "color": "#c91847",
      "outputModuleId": 3,
      "outputId": 2,
      "inputModuleId": 4,
      "inputId": 5
    },
    {
      "color": "#c91847",
      "outputModuleId": 4,
      "outputId": 0,
      "inputModuleId": 25,
      "inputId": 1
    },
    {
      "color": "#0c8e15",
      "outputModuleId": 1,
      "outputId": 0,
      "inputModuleId": 21,
      "inputId": 0
    },
    {
      "color": "#0986ad",
      "outputModuleId": 3,
      "outputId": 3,
      "inputModuleId": 5,
      "inputId": 5
    },
    {
      "color": "#c9b70e",
      "outputModuleId": 5,
      "outputId": 0,
      "inputModuleId": 22,
      "inputId": 0
    },
    {
      "color": "#0c8e15",
      "outputModuleId": 3,
      "outputId": 1,
      "inputModuleId": 6,
      "inputId": 5
    },
    {
      "color": "#0986ad",
      "outputModuleId": 6,
      "outputId": 0,
      "inputModuleId": 23,
      "inputId": 0
    },
    {
      "color": "#c9b70e",
      "outputModuleId": 7,
      "outputId": 0,
      "inputModuleId": 8,
      "inputId": 0
    },
    {
      "color": "#c91847",
      "outputModuleId": 7,
      "outputId": 1,
      "inputModuleId": 8,
      "inputId": 1
    },
    {
      "color": "#0c8e15",
      "outputModuleId": 7,
      "outputId": 2,
      "inputModuleId": 8,
      "inputId": 2
    },
    {
      "color": "#0986ad",
      "outputModuleId": 7,
      "outputId": 3,
      "inputModuleId": 8,
      "inputId": 3
    },
    {
      "color": "#c9b70e",
      "outputModuleId": 8,
      "outputId": 0,
      "inputModuleId": 15,
      "inputId": 3
    },
    {
      "color": "#c91847",
      "outputModuleId": 8,
      "outputId": 1,
      "inputModuleId": 13,
      "inputId": 3
    },
    {
      "color": "#0c8e15",
      "outputModuleId": 8,
      "outputId": 2,
      "inputModuleId": 16,
      "inputId": 3
    },
    {
      "color": "#0986ad",
      "outputModuleId": 8,
      "outputId": 3,
      "inputModuleId": 14,
      "inputId": 3
    },
    {
      "color": "#c9b70e",
      "outputModuleId": 9,
      "outputId": 0,
      "inputModuleId": 4,
      "inputId": 7
    },
    {
      "color": "#0c8e15",
      "outputModuleId": 12,
      "outputId": 0,
      "inputModuleId": 1,
      "inputId": 7
    },
    {
      "color": "#0986ad",
      "outputModuleId": 10,
      "outputId": 0,
      "inputModuleId": 5,
      "inputId": 7
    },
    {
      "color": "#c9b70e",
      "outputModuleId": 11,
      "outputId": 0,
      "inputModuleId": 6,
      "inputId": 7
    },
    {
      "color": "#c91847",
      "outputModuleId": 3,
      "outputId": 2,
      "inputModuleId": 15,
      "inputId": 4
    },
    {
      "color": "#0986ad",
      "outputModuleId": 15,
      "outputId": 6,
      "inputModuleId": 17,
      "inputId": 1
    },
    {
      "color": "#c9b70e",
      "outputModuleId": 3,
      "outputId": 3,
      "inputModuleId": 16,
      "inputId": 4
    },
    {
      "color": "#c91847",
      "outputModuleId": 16,
      "outputId": 6,
      "inputModuleId": 18,
      "inputId": 1
    },
    {
      "color": "#0c8e15",
      "outputModuleId": 13,
      "outputId": 6,
      "inputModuleId": 20,
      "inputId": 1
    },
    {
      "color": "#0986ad",
      "outputModuleId": 3,
      "outputId": 0,
      "inputModuleId": 13,
      "inputId": 4
    },
    {
      "color": "#c9b70e",
      "outputModuleId": 14,
      "outputId": 6,
      "inputModuleId": 19,
      "inputId": 1
    },
    {
      "color": "#c91847",
      "outputModuleId": 3,
      "outputId": 1,
      "inputModuleId": 14,
      "inputId": 4
    },
    {
      "color": "#0c8e15",
      "outputModuleId": 7,
      "outputId": 4,
      "inputModuleId": 8,
      "inputId": 4
    },
    {
      "color": "#0986ad",
      "outputModuleId": 7,
      "outputId": 5,
      "inputModuleId": 8,
      "inputId": 5
    },
    {
      "color": "#c9b70e",
      "outputModuleId": 7,
      "outputId": 6,
      "inputModuleId": 8,
      "inputId": 6
    },
    {
      "color": "#c91847",
      "outputModuleId": 7,
      "outputId": 7,
      "inputModuleId": 8,
      "inputId": 7
    },
    {
      "color": "#0c8e15",
      "outputModuleId": 8,
      "outputId": 4,
      "inputModuleId": 7,
      "inputId": 8
    },
    {
      "color": "#0986ad",
      "outputModuleId": 8,
      "outputId": 5,
      "inputModuleId": 7,
      "inputId": 9
    },
    {
      "color": "#c9b70e",
      "outputModuleId": 8,
      "outputId": 6,
      "inputModuleId": 7,
      "inputId": 10
    },
    {
      "color": "#c91847",
      "outputModuleId": 8,
      "outputId": 7,
      "inputModuleId": 7,
      "inputId": 11
    },
    {
      "color": "#0c8e15",
      "outputModuleId": 17,
      "outputId": 1,
      "inputModuleId": 9,
      "inputId": 2
    },
    {
      "color": "#0986ad",
      "outputModuleId": 18,
      "outputId": 1,
      "inputModuleId": 10,
      "inputId": 2
    },
    {
      "color": "#c9b70e",
      "outputModuleId": 19,
      "outputId": 1,
      "inputModuleId": 11,
      "inputId": 2
    },
    {
      "color": "#c91847",
      "outputModuleId": 20,
      "outputId": 1,
      "inputModuleId": 12,
      "inputId": 2
    },
    {
      "color": "#0c8e15",
      "outputModuleId": 8,
      "outputId": 2,
      "inputModuleId": 4,
      "inputId": 3
    },
    {
      "color": "#0986ad",
      "outputModuleId": 8,
      "outputId": 3,
      "inputModuleId": 1,
      "inputId": 3
    },
    {
      "color": "#c9b70e",
      "outputModuleId": 8,
      "outputId": 0,
      "inputModuleId": 5,
      "inputId": 3
    },
    {
      "color": "#c91847",
      "outputModuleId": 8,
      "outputId": 1,
      "inputModuleId": 6,
      "inputId": 3
    },
    {
      "color": "#0986ad",
      "outputModuleId": 21,
      "outputId": 0,
      "inputModuleId": 25,
      "inputId": 4
    },
    {
      "color": "#c9b70e",
      "outputModuleId": 22,
      "outputId": 0,
      "inputModuleId": 25,
      "inputId": 7
    },
    {
      "color": "#c91847",
      "outputModuleId": 23,
      "outputId": 0,
      "inputModuleId": 25,
      "inputId": 10
    },
    {
      "color": "#0c8e15",
      "outputModuleId": 25,
      "outputId": 0,
      "inputModuleId": 24,
      "inputId": 0
    },
    {
      "color": "#0986ad",
      "outputModuleId": 25,
      "outputId": 1,
      "inputModuleId": 24,
      "inputId": 1
    },
    {
      "color": "#c9b70e",
      "outputModuleId": 24,
      "outputId": 0,
      "inputModuleId": 30,
      "inputId": 5
    },
    {
      "color": "#c91847",
      "outputModuleId": 24,
      "outputId": 1,
      "inputModuleId": 30,
      "inputId": 6
    },
    {
      "color": "#0986ad",
      "outputModuleId": 32,
      "outputId": 0,
      "inputModuleId": 31,
      "inputId": 1
    },
    {
      "color": "#c9b70e",
      "outputModuleId": 31,
      "outputId": 0,
      "inputModuleId": 28,
      "inputId": 0
    },
    {
      "color": "#0986ad",
      "outputModuleId": 9,
      "outputId": 0,
      "inputModuleId": 27,
      "inputId": 0
    },
    {
      "color": "#c9b70e",
      "outputModuleId": 12,
      "outputId": 0,
      "inputModuleId": 27,
      "inputId": 1
    },
    {
      "color": "#0986ad",
      "outputModuleId": 27,
      "outputId": 0,
      "inputModuleId": 26,
      "inputId": 0
    },
    {
      "color": "#c91847",
      "outputModuleId": 31,
      "outputId": 1,
      "inputModuleId": 27,
      "inputId": 5
    },
    {
      "color": "#0c8e15",
      "outputModuleId": 14,
      "outputId": 5,
      "inputModuleId": 14,
      "inputId": 1
    },
    {
      "color": "#c9b70e",
      "outputModuleId": 14,
      "outputId": 3,
      "inputModuleId": 31,
      "inputId": 3
    },
    {
      "color": "#c91847",
      "outputModuleId": 8,
      "outputId": 0,
      "inputModuleId": 25,
      "inputId": 3
    },
    {
      "color": "#0c8e15",
      "outputModuleId": 8,
      "outputId": 1,
      "inputModuleId": 25,
      "inputId": 6
    },
    {
      "color": "#0986ad",
      "outputModuleId": 8,
      "outputId": 2,
      "inputModuleId": 25,
      "inputId": 9
    },
    {
      "color": "#c9b70e",
      "outputModuleId": 8,
      "outputId": 3,
      "inputModuleId": 25,
      "inputId": 12
    },
    {
      "color": "#0986ad",
      "outputModuleId": 30,
      "outputId": 0,
      "inputModuleId": 0,
      "inputId": 0
    },
    {
      "color": "#c9b70e",
      "outputModuleId": 30,
      "outputId": 1,
      "inputModuleId": 0,
      "inputId": 1
    },
    {
      "color": "#c91847",
      "outputModuleId": 8,
      "outputId": 2,
      "inputModuleId": 30,
      "inputId": 1
    },
    {
      "color": "#0c8e15",
      "outputModuleId": 8,
      "outputId": 3,
      "inputModuleId": 30,
      "inputId": 3
    },
    {
      "color": "#0986ad",
      "outputModuleId": 28,
      "outputId": 0,
      "inputModuleId": 28,
      "inputId": 2
    },
    {
      "color": "#c9b70e",
      "outputModuleId": 2,
      "outputId": 4,
      "inputModuleId": 30,
      "inputId": 7
    },
    {
      "color": "#c91847",
      "outputModuleId": 28,
      "outputId": 1,
      "inputModuleId": 25,
      "inputId": 13
    },
    {
      "color": "#0c8e15",
      "outputModuleId": 28,
      "outputId": 1,
      "inputModuleId": 25,
      "inputId": 14
    },
    {
      "color": "#0c8e15",
      "outputModuleId": 26,
      "outputId": 0,
      "inputModuleId": 31,
      "inputId": 5
    },
    {
      "color": "#0986ad",
      "outputModuleId": 31,
      "outputId": 2,
      "inputModuleId": 32,
      "inputId": 0
    },
    {
      "color": "#c9b70e",
      "outputModuleId": 31,
      "outputId": 3,
      "inputModuleId": 27,
      "inputId": 4
    },
    {
      "color": "#0986ad",
      "outputModuleId": 8,
      "outputId": 2,
      "inputModuleId": 27,
      "inputId": 2
    },
    {
      "color": "#c9b70e",
      "outputModuleId": 8,
      "outputId": 3,
      "inputModuleId": 27,
      "inputId": 3
    },
    {
      "color": "#c91847",
      "outputModuleId": 15,
      "outputId": 2,
      "inputModuleId": 13,
      "inputId": 1
    },
    {
      "color": "#0c8e15",
      "outputModuleId": 8,
      "outputId": 8,
      "inputModuleId": 15,
      "inputId": 0
    },
    {
      "color": "#0986ad",
      "outputModuleId": 16,
      "outputId": 2,
      "inputModuleId": 31,
      "inputId": 7
    },
    {
      "color": "#c9b70e",
      "outputModuleId": 7,
      "outputId": 8,
      "inputModuleId": 16,
      "inputId": 0
    },
    {
      "color": "#c91847",
      "outputModuleId": 16,
      "outputId": 2,
      "inputModuleId": 13,
      "inputId": 2
    },
    {
      "color": "#0986ad",
      "outputModuleId": 7,
      "outputId": 8,
      "inputModuleId": 14,
      "inputId": 2
    },
    {
      "color": "#c9b70e",
      "outputModuleId": 13,
      "outputId": 3,
      "inputModuleId": 31,
      "inputId": 0
    },
    {
      "color": "#c91847",
      "outputModuleId": 2,
      "outputId": 7,
      "inputModuleId": 7,
      "inputId": 32
    },
    {
      "color": "#0986ad",
      "outputModuleId": 13,
      "outputId": 4,
      "inputModuleId": 31,
      "inputId": 2
    }
  ]
}