{
  "version": "1.1.6",
  "modules": [
    {
      "id": 1,
      "plugin": "Core",
      "version": "1.1.6",
      "model": "AudioInterface",
      "params": [],
      "leftModuleId": 42,
      "rightModuleId": 47,
      "data": {
        "audio": {
          "driver": 6,
          "deviceName": "Speaker / Headphone (Realtek(R) Audio)",
          "offset": 0,
          "maxChannels": 8,
          "sampleRate": 44100,
          "blockSize": 256
        }
      },
      "pos": [
        177,
        0
      ]
    },
    {
      "id": 12,
      "plugin": "Core",
      "version": "1.1.6",
      "model": "MIDICCToCVInterface",
      "params": [],
      "leftModuleId": 30,
      "rightModuleId": 16,
      "data": {
        "ccs": [
          0,
          1,
          2,
          3,
          4,
          5,
          6,
          7,
          16,
          17,
          18,
          19,
          20,
          21,
          22,
          23
        ],
        "values": [
          127,
          127,
          127,
          68,
          125,
          103,
          92,
          35,
          0,
          0,
          0,
          0,
          0,
          0,
          0,
          0,
          75,
          3,
          0,
          1,
          60,
          71,
          54,
          71,
          0,
          0,
          0,
          0,
          0,
          0,
          0,
          0,
          0,
          0,
          0,
          0,
          0,
          0,
          0,
          0,
          0,
          0,
          0,
          0,
          0,
          0,
          0,
          0,
          0,
          0,
          0,
          0,
          0,
          0,
          0,
          0,
          0,
          0,
          0,
          0,
          0,
          0,
          0,
          0,
          0,
          0,
          0,
          0,
          0,
          0,
          0,
          0,
          0,
          0,
          0,
          0,
          0,
          0,
          0,
          0,
          0,
          0,
          0,
          0,
          0,
          0,
          0,
          0,
          0,
          0,
          0,
          0,
          0,
          0,
          0,
          0,
          0,
          0,
          0,
          0,
          0,
          0,
          0,
          0,
          0,
          0,
          0,
          0,
          0,
          0,
          0,
          0,
          0,
          0,
          0,
          0,
          0,
          0,
          0,
          0,
          0,
          0,
          0,
          0,
          0,
          0,
          0,
          0
        ],
        "midi": {
          "driver": 4,
          "channel": -1
        }
      },
      "pos": [
        10,
        0
      ]
    },
    {
      "id": 16,
      "plugin": "CatroModulo",
      "version": "1.0.2",
      "model": "CatroModulo_CM-4",
      "params": [
        {
          "id": 0,
          "value": 3.50999951
        },
        {
          "id": 1,
          "value": 0.0
        },
        {
          "id": 2,
          "value": 2.0
        }
      ],
      "leftModuleId": 12,
      "rightModuleId": 17,
      "pos": [
        20,
        0
      ]
    },
    {
      "id": 17,
      "plugin": "CatroModulo",
      "version": "1.0.2",
      "model": "CatroModulo_CM-5",
      "params": [
        {
          "id": 0,
          "value": 0.0
        }
      ],
      "leftModuleId": 16,
      "rightModuleId": 35,
      "pos": [
        25,
        0
      ]
    },
    {
      "id": 25,
      "plugin": "Fundamental",
      "version": "1.4.0",
      "model": "Merge",
      "params": [],
      "leftModuleId": 29,
      "data": {
        "channels": -1
      },
      "pos": [
        30,
        1
      ]
    },
    {
      "id": 29,
      "plugin": "NYSTHI",
      "version": "1.0.9",
      "model": "SQ1",
      "params": [
        {
          "id": 0,
          "value": 0.0
        },
        {
          "id": 1,
          "value": 0.0
        },
        {
          "id": 2,
          "value": 0.0
        },
        {
          "id": 3,
          "value": 0.5
        },
        {
          "id": 4,
          "value": 5.0
        },
        {
          "id": 5,
          "value": 0.154987141
        },
        {
          "id": 6,
          "value": 5.0
        },
        {
          "id": 7,
          "value": 5.19999981
        },
        {
          "id": 8,
          "value": 5.37000036
        },
        {
          "id": 9,
          "value": 5.62500191
        },
        {
          "id": 10,
          "value": 5.77500105
        },
        {
          "id": 11,
          "value": 5.89500093
        },
        {
          "id": 12,
          "value": 6.1500001
        },
        {
          "id": 13,
          "value": 6.29999876
        },
        {
          "id": 14,
          "value": 6.41999912
        },
        {
          "id": 15,
          "value": 6.54000425
        },
        {
          "id": 16,
          "value": 6.78000116
        },
        {
          "id": 17,
          "value": 6.88500214
        },
        {
          "id": 18,
          "value": 7.03499985
        },
        {
          "id": 19,
          "value": 7.27500296
        },
        {
          "id": 20,
          "value": 7.45500135
        },
        {
          "id": 21,
          "value": 7.50000095
        },
        {
          "id": 22,
          "value": 0.0
        },
        {
          "id": 23,
          "value": 0.0
        }
      ],
      "rightModuleId": 25,
      "data": {
        "m_active": true,
        "m_sequence_mode": 0,
        "m_base_octave": 0
      },
      "pos": [
        28,
        1
      ]
    },
    {
      "id": 30,
      "plugin": "Core",
      "version": "1.1.6",
      "model": "MIDITriggerToCVInterface",
      "params": [],
      "rightModuleId": 12,
      "data": {
        "notes": [
          72,
          74,
          76,
          77,
          79,
          81,
          83,
          84,
          86,
          88,
          9,
          61,
          63,
          5,
          66,
          68
        ],
        "velocity": false,
        "midi": {
          "driver": -11,
          "deviceName": "QWERTY keyboard (US)",
          "channel": -1
        }
      },
      "pos": [
        0,
        0
      ]
    },
    {
      "id": 32,
      "plugin": "VultModulesFree",
      "version": "1.6.0",
      "model": "Trummor2",
      "params": [
        {
          "id": 0,
          "value": 0.0794000477
        },
        {
          "id": 1,
          "value": 0.233002126
        },
        {
          "id": 2,
          "value": 0.300000519
        },
        {
          "id": 3,
          "value": 0.193500057
        },
        {
          "id": 4,
          "value": 1.0
        },
        {
          "id": 5,
          "value": -1.0
        },
        {
          "id": 6,
          "value": 0.0
        },
        {
          "id": 7,
          "value": 0.275000125
        },
        {
          "id": 8,
          "value": 0.721002758
        },
        {
          "id": 9,
          "value": 0.0
        },
        {
          "id": 10,
          "value": 0.0
        },
        {
          "id": 11,
          "value": 0.719500422
        },
        {
          "id": 12,
          "value": 0.100000001
        },
        {
          "id": 13,
          "value": 0.0
        },
        {
          "id": 14,
          "value": 0.0
        },
        {
          "id": 15,
          "value": 0.949999988
        },
        {
          "id": 16,
          "value": 0.0
        },
        {
          "id": 17,
          "value": 0.0
        },
        {
          "id": 18,
          "value": 0.0
        },
        {
          "id": 19,
          "value": 0.0500000007
        },
        {
          "id": 20,
          "value": 0.0500000007
        },
        {
          "id": 21,
          "value": 0.0
        },
        {
          "id": 22,
          "value": 0.0
        },
        {
          "id": 23,
          "value": 0.201000094
        },
        {
          "id": 24,
          "value": 0.0
        },
        {
          "id": 25,
          "value": 0.0
        },
        {
          "id": 26,
          "value": 0.0
        },
        {
          "id": 27,
          "value": 0.0
        },
        {
          "id": 28,
          "value": 0.0
        },
        {
          "id": 29,
          "value": 0.0
        },
        {
          "id": 30,
          "value": 0.0
        },
        {
          "id": 31,
          "value": 0.0
        },
        {
          "id": 32,
          "value": 0.0
        }
      ],
      "rightModuleId": 33,
      "data": {
        "mod_a": 0,
        "mod_b": 0,
        "mod_c": 0,
        "mod_d": 0,
        "mk2": true
      },
      "pos": [
        43,
        1
      ]
    },
    {
      "id": 33,
      "plugin": "Hora-treasureFree",
      "version": "1.0.2",
      "model": "HiHat",
      "params": [
        {
          "id": 0,
          "value": 0.382400244
        },
        {
          "id": 1,
          "value": 0.370051354
        },
        {
          "id": 2,
          "value": 0.544939995
        },
        {
          "id": 3,
          "value": 0.0
        },
        {
          "id": 4,
          "value": 0.0
        },
        {
          "id": 5,
          "value": 0.0
        },
        {
          "id": 6,
          "value": 1.0
        },
        {
          "id": 7,
          "value": 0.800000012
        },
        {
          "id": 8,
          "value": 0.720499933
        },
        {
          "id": 9,
          "value": 0.600000024
        },
        {
          "id": 10,
          "value": 0.850599289
        },
        {
          "id": 11,
          "value": 0.176500171
        }
      ],
      "leftModuleId": 32,
      "rightModuleId": 43,
      "pos": [
        63,
        1
      ]
    },
    {
      "id": 34,
      "plugin": "AS",
      "version": "1.0.3",
      "model": "Mixer8ch",
      "params": [
        {
          "id": 0,
          "value": 0.559999943
        },
        {
          "id": 1,
          "value": 0.490999848
        },
        {
          "id": 2,
          "value": 0.463999867
        },
        {
          "id": 3,
          "value": 0.800000012
        },
        {
          "id": 4,
          "value": 0.800000012
        },
        {
          "id": 5,
          "value": 0.374000043
        },
        {
          "id": 6,
          "value": 0.358999997
        },
        {
          "id": 7,
          "value": 0.800000012
        },
        {
          "id": 8,
          "value": 0.800000012
        },
        {
          "id": 9,
          "value": 0.0
        },
        {
          "id": 10,
          "value": 0.0
        },
        {
          "id": 11,
          "value": 0.0
        },
        {
          "id": 12,
          "value": 0.0
        },
        {
          "id": 13,
          "value": -1.0
        },
        {
          "id": 14,
          "value": 1.0
        },
        {
          "id": 15,
          "value": 0.0
        },
        {
          "id": 16,
          "value": 0.0
        },
        {
          "id": 17,
          "value": 0.0
        },
        {
          "id": 18,
          "value": 0.0
        },
        {
          "id": 19,
          "value": 0.0
        },
        {
          "id": 20,
          "value": 0.0
        },
        {
          "id": 21,
          "value": 0.0
        },
        {
          "id": 22,
          "value": 0.0
        },
        {
          "id": 23,
          "value": 0.0
        },
        {
          "id": 24,
          "value": 0.0
        },
        {
          "id": 25,
          "value": 0.0
        }
      ],
      "leftModuleId": 48,
      "rightModuleId": 42,
      "data": {
        "as_MixerMutes": [
          0,
          0,
          0,
          1,
          0,
          0,
          0,
          0,
          0
        ]
      },
      "pos": [
        139,
        0
      ]
    },
    {
      "id": 35,
      "plugin": "CatroModulo",
      "version": "1.0.2",
      "model": "CatroModulo_CM-9",
      "params": [
        {
          "id": 0,
          "value": 3.06600022
        }
      ],
      "leftModuleId": 17,
      "rightModuleId": 36,
      "pos": [
        28,
        0
      ]
    },
    {
      "id": 36,
      "plugin": "CatroModulo",
      "version": "1.0.2",
      "model": "CatroModulo_CM-9",
      "params": [
        {
          "id": 0,
          "value": 3.06600022
        }
      ],
      "leftModuleId": 35,
      "rightModuleId": 37,
      "pos": [
        33,
        0
      ]
    },
    {
      "id": 37,
      "plugin": "CatroModulo",
      "version": "1.0.2",
      "model": "CatroModulo_CM-9",
      "params": [
        {
          "id": 0,
          "value": 3.06600022
        }
      ],
      "leftModuleId": 36,
      "pos": [
        38,
        0
      ]
    },
    {
      "id": 38,
      "plugin": "Fundamental",
      "version": "1.4.0",
      "model": "VCO",
      "params": [
        {
          "id": 0,
          "value": 1.0
        },
        {
          "id": 1,
          "value": 1.0
        },
        {
          "id": 2,
          "value": 0.0
        },
        {
          "id": 3,
          "value": 0.0
        },
        {
          "id": 4,
          "value": 0.662499487
        },
        {
          "id": 5,
          "value": 0.5
        },
        {
          "id": 6,
          "value": 0.0
        }
      ],
      "pos": [
        64,
        0
      ]
    },
    {
      "id": 39,
      "plugin": "VultModulesFree",
      "version": "1.6.0",
      "model": "Tohe",
      "params": [
        {
          "id": 0,
          "value": -0.448818922
        },
        {
          "id": 1,
          "value": 0.0
        },
        {
          "id": 2,
          "value": 0.0
        }
      ],
      "leftModuleId": 49,
      "rightModuleId": 48,
      "pos": [
        125,
        0
      ]
    },
    {
      "id": 40,
      "plugin": "CatroModulo",
      "version": "1.0.2",
      "model": "CatroModulo_CM-1",
      "params": [
        {
          "id": 0,
          "value": 0.0
        },
        {
          "id": 1,
          "value": 0.0
        },
        {
          "id": 2,
          "value": 0.0
        },
        {
          "id": 3,
          "value": 0.0
        },
        {
          "id": 4,
          "value": 0.0
        },
        {
          "id": 5,
          "value": 0.0
        },
        {
          "id": 6,
          "value": 0.0
        },
        {
          "id": 7,
          "value": 0.0
        },
        {
          "id": 8,
          "value": 0.763779521
        },
        {
          "id": 9,
          "value": 0.795275569
        },
        {
          "id": 10,
          "value": 0.811023593
        },
        {
          "id": 11,
          "value": 0.724409461
        },
        {
          "id": 12,
          "value": 0.597500205
        },
        {
          "id": 13,
          "value": 0.5
        },
        {
          "id": 14,
          "value": 0.5
        },
        {
          "id": 15,
          "value": 0.5
        },
        {
          "id": 16,
          "value": 0.5
        },
        {
          "id": 17,
          "value": 0.5
        },
        {
          "id": 18,
          "value": 0.5
        },
        {
          "id": 19,
          "value": 0.5
        },
        {
          "id": 20,
          "value": 0.5
        },
        {
          "id": 21,
          "value": 0.5
        },
        {
          "id": 22,
          "value": 0.5
        },
        {
          "id": 23,
          "value": 0.5
        },
        {
          "id": 24,
          "value": 0.5
        },
        {
          "id": 25,
          "value": 0.5
        },
        {
          "id": 26,
          "value": 0.5
        },
        {
          "id": 27,
          "value": 0.5
        },
        {
          "id": 28,
          "value": 0.5
        },
        {
          "id": 29,
          "value": 0.5
        },
        {
          "id": 30,
          "value": 0.5
        },
        {
          "id": 31,
          "value": 0.5
        },
        {
          "id": 32,
          "value": 0.0
        },
        {
          "id": 33,
          "value": 0.0
        }
      ],
      "rightModuleId": 44,
      "pos": [
        79,
        0
      ]
    },
    {
      "id": 41,
      "plugin": "Edge",
      "version": "1.0.2",
      "model": "K_Rush",
      "params": [
        {
          "id": 0,
          "value": 1.0
        },
        {
          "id": 1,
          "value": 0.855999827
        },
        {
          "id": 2,
          "value": 0.783999979
        },
        {
          "id": 3,
          "value": 2.8160007
        },
        {
          "id": 4,
          "value": 7.89750957
        },
        {
          "id": 5,
          "value": 0.0
        },
        {
          "id": 6,
          "value": 0.0
        }
      ],
      "leftModuleId": 44,
      "rightModuleId": 49,
      "data": {
        "first_alg": 1
      },
      "pos": [
        109,
        0
      ]
    },
    {
      "id": 42,
      "plugin": "AlrightDevices",
      "version": "1.0.2",
      "model": "Chronoblob2",
      "params": [
        {
          "id": 0,
          "value": 0.230000198
        },
        {
          "id": 1,
          "value": 0.734000325
        },
        {
          "id": 2,
          "value": 0.244999975
        },
        {
          "id": 3,
          "value": 0.0
        },
        {
          "id": 4,
          "value": 0.0
        },
        {
          "id": 5,
          "value": 0.0
        },
        {
          "id": 6,
          "value": 0.0
        },
        {
          "id": 7,
          "value": 0.0
        },
        {
          "id": 8,
          "value": 0.0
        },
        {
          "id": 9,
          "value": 0.0
        }
      ],
      "leftModuleId": 34,
      "rightModuleId": 1,
      "data": {
        "delay_mode": 1,
        "hold_behavior": 0,
        "sync_prescaler": 6
      },
      "pos": [
        165,
        0
      ]
    },
    {
      "id": 43,
      "plugin": "Core",
      "version": "1.1.6",
      "model": "MIDI-Map",
      "params": [],
      "leftModuleId": 33,
      "data": {
        "maps": [
          {
            "cc": 3,
            "moduleId": -1,
            "paramId": 0
          },
          {
            "cc": 3,
            "moduleId": 44,
            "paramId": 13
          },
          {
            "cc": 5,
            "moduleId": 40,
            "paramId": 10
          },
          {
            "cc": 6,
            "moduleId": 40,
            "paramId": 11
          },
          {
            "cc": 7,
            "moduleId": 39,
            "paramId": 0
          },
          {
            "cc": 3,
            "moduleId": -1,
            "paramId": 0
          },
          {
            "cc": -1,
            "moduleId": -1,
            "paramId": 0
          }
        ],
        "midi": {
          "driver": 4,
          "channel": -1
        }
      },
      "pos": [
        71,
        1
      ]
    },
    {
      "id": 44,
      "plugin": "CatroModulo",
      "version": "1.0.2",
      "model": "CatroModulo_CM-2",
      "params": [
        {
          "id": 0,
          "value": 0.432999939
        },
        {
          "id": 1,
          "value": 0.20100008
        },
        {
          "id": 2,
          "value": 0.464999944
        },
        {
          "id": 3,
          "value": 0.477000058
        },
        {
          "id": 4,
          "value": 0.171000034
        },
        {
          "id": 5,
          "value": 0.21600008
        },
        {
          "id": 6,
          "value": 0.234000027
        },
        {
          "id": 7,
          "value": 0.0
        },
        {
          "id": 8,
          "value": 0.0
        },
        {
          "id": 9,
          "value": 0.465000033
        },
        {
          "id": 10,
          "value": -0.569999933
        },
        {
          "id": 11,
          "value": -0.179999933
        },
        {
          "id": 12,
          "value": 0.0
        },
        {
          "id": 13,
          "value": 0.35433054
        },
        {
          "id": 14,
          "value": 0.0
        },
        {
          "id": 15,
          "value": 0.0
        },
        {
          "id": 16,
          "value": 1.0
        }
      ],
      "leftModuleId": 40,
      "rightModuleId": 41,
      "pos": [
        98,
        0
      ]
    },
    {
      "id": 45,
      "plugin": "AudibleInstruments",
      "version": "1.0.0",
      "model": "Plaits",
      "params": [
        {
          "id": 0,
          "value": 0.0
        },
        {
          "id": 1,
          "value": 0.0
        },
        {
          "id": 2,
          "value": -4.0
        },
        {
          "id": 3,
          "value": 1.0
        },
        {
          "id": 4,
          "value": 0.559999943
        },
        {
          "id": 5,
          "value": 0.152500078
        },
        {
          "id": 6,
          "value": 0.0
        },
        {
          "id": 7,
          "value": 0.990000486
        },
        {
          "id": 8,
          "value": 0.0
        }
      ],
      "data": {
        "lowCpu": false,
        "model": 0,
        "lpgColor": 0.5,
        "decay": 0.5
      },
      "pos": [
        87,
        1
      ]
    },
    {
      "id": 46,
      "plugin": "FrozenWasteland",
      "version": "1.10.0",
      "model": "PortlandWeather",
      "params": [
        {
          "id": 0,
          "value": 0.0
        },
        {
          "id": 1,
          "value": 0.13499999
        },
        {
          "id": 2,
          "value": 0.0
        },
        {
          "id": 3,
          "value": 0.0
        },
        {
          "id": 4,
          "value": 1.0
        },
        {
          "id": 5,
          "value": 0.112500101
        },
        {
          "id": 6,
          "value": 15.0
        },
        {
          "id": 7,
          "value": 12.0
        },
        {
          "id": 8,
          "value": 0.0
        },
        {
          "id": 9,
          "value": 0.0
        },
        {
          "id": 10,
          "value": 0.216000021
        },
        {
          "id": 11,
          "value": 0.0
        },
        {
          "id": 12,
          "value": 0.0
        },
        {
          "id": 13,
          "value": 0.0
        },
        {
          "id": 14,
          "value": 0.0
        },
        {
          "id": 15,
          "value": 0.0
        },
        {
          "id": 16,
          "value": 0.0
        },
        {
          "id": 17,
          "value": 0.321500033
        },
        {
          "id": 18,
          "value": 0.0
        },
        {
          "id": 19,
          "value": 0.0
        },
        {
          "id": 20,
          "value": 0.0
        },
        {
          "id": 21,
          "value": 0.0
        },
        {
          "id": 22,
          "value": 0.0
        },
        {
          "id": 23,
          "value": 0.0
        },
        {
          "id": 24,
          "value": 0.0
        },
        {
          "id": 25,
          "value": 0.0
        },
        {
          "id": 26,
          "value": 0.0
        },
        {
          "id": 27,
          "value": 0.0
        },
        {
          "id": 28,
          "value": 0.0
        },
        {
          "id": 29,
          "value": 0.0
        },
        {
          "id": 30,
          "value": 0.0
        },
        {
          "id": 31,
          "value": 0.0
        },
        {
          "id": 32,
          "value": 0.0
        },
        {
          "id": 33,
          "value": 0.0
        },
        {
          "id": 34,
          "value": 0.0
        },
        {
          "id": 35,
          "value": 0.0
        },
        {
          "id": 36,
          "value": 0.0
        },
        {
          "id": 37,
          "value": 0.0
        },
        {
          "id": 38,
          "value": 0.0
        },
        {
          "id": 39,
          "value": 0.0
        },
        {
          "id": 40,
          "value": 0.0
        },
        {
          "id": 41,
          "value": 0.0
        },
        {
          "id": 42,
          "value": 0.0
        },
        {
          "id": 43,
          "value": 0.0
        },
        {
          "id": 44,
          "value": 0.0
        },
        {
          "id": 45,
          "value": 0.0
        },
        {
          "id": 46,
          "value": 0.0
        },
        {
          "id": 47,
          "value": 0.0
        },
        {
          "id": 48,
          "value": 0.0
        },
        {
          "id": 49,
          "value": 0.0
        },
        {
          "id": 50,
          "value": 0.5
        },
        {
          "id": 51,
          "value": 0.5
        },
        {
          "id": 52,
          "value": 0.5
        },
        {
          "id": 53,
          "value": 0.5
        },
        {
          "id": 54,
          "value": 0.5
        },
        {
          "id": 55,
          "value": 0.5
        },
        {
          "id": 56,
          "value": 0.5
        },
        {
          "id": 57,
          "value": 0.5
        },
        {
          "id": 58,
          "value": 0.5
        },
        {
          "id": 59,
          "value": 0.5
        },
        {
          "id": 60,
          "value": 0.5
        },
        {
          "id": 61,
          "value": 0.5
        },
        {
          "id": 62,
          "value": 0.5
        },
        {
          "id": 63,
          "value": 0.5
        },
        {
          "id": 64,
          "value": 0.5
        },
        {
          "id": 65,
          "value": 0.5
        },
        {
          "id": 66,
          "value": 0.5
        },
        {
          "id": 67,
          "value": 0.5
        },
        {
          "id": 68,
          "value": 0.5
        },
        {
          "id": 69,
          "value": 0.5
        },
        {
          "id": 70,
          "value": 0.5
        },
        {
          "id": 71,
          "value": 0.5
        },
        {
          "id": 72,
          "value": 0.5
        },
        {
          "id": 73,
          "value": 0.5
        },
        {
          "id": 74,
          "value": 0.5
        },
        {
          "id": 75,
          "value": 0.5
        },
        {
          "id": 76,
          "value": 0.5
        },
        {
          "id": 77,
          "value": 0.5
        },
        {
          "id": 78,
          "value": 0.5
        },
        {
          "id": 79,
          "value": 0.5
        },
        {
          "id": 80,
          "value": 0.5
        },
        {
          "id": 81,
          "value": 0.5
        },
        {
          "id": 82,
          "value": 0.0
        },
        {
          "id": 83,
          "value": 0.0
        },
        {
          "id": 84,
          "value": 0.0
        },
        {
          "id": 85,
          "value": 0.0
        },
        {
          "id": 86,
          "value": 0.0
        },
        {
          "id": 87,
          "value": 0.0
        },
        {
          "id": 88,
          "value": 0.0
        },
        {
          "id": 89,
          "value": 0.0
        },
        {
          "id": 90,
          "value": 0.0
        },
        {
          "id": 91,
          "value": 0.0
        },
        {
          "id": 92,
          "value": 0.0
        },
        {
          "id": 93,
          "value": 0.0
        },
        {
          "id": 94,
          "value": 0.0
        },
        {
          "id": 95,
          "value": 0.0
        },
        {
          "id": 96,
          "value": 0.0
        },
        {
          "id": 97,
          "value": 0.0
        },
        {
          "id": 98,
          "value": 0.5
        },
        {
          "id": 99,
          "value": 0.5
        },
        {
          "id": 100,
          "value": 0.5
        },
        {
          "id": 101,
          "value": 0.5
        },
        {
          "id": 102,
          "value": 0.5
        },
        {
          "id": 103,
          "value": 0.5
        },
        {
          "id": 104,
          "value": 0.5
        },
        {
          "id": 105,
          "value": 0.5
        },
        {
          "id": 106,
          "value": 0.5
        },
        {
          "id": 107,
          "value": 0.5
        },
        {
          "id": 108,
          "value": 0.5
        },
        {
          "id": 109,
          "value": 0.5
        },
        {
          "id": 110,
          "value": 0.5
        },
        {
          "id": 111,
          "value": 0.5
        },
        {
          "id": 112,
          "value": 0.5
        },
        {
          "id": 113,
          "value": 0.5
        },
        {
          "id": 114,
          "value": 0.100000001
        },
        {
          "id": 115,
          "value": 0.100000001
        },
        {
          "id": 116,
          "value": 0.100000001
        },
        {
          "id": 117,
          "value": 0.100000001
        },
        {
          "id": 118,
          "value": 0.100000001
        },
        {
          "id": 119,
          "value": 0.100000001
        },
        {
          "id": 120,
          "value": 0.100000001
        },
        {
          "id": 121,
          "value": 0.100000001
        },
        {
          "id": 122,
          "value": 0.100000001
        },
        {
          "id": 123,
          "value": 0.100000001
        },
        {
          "id": 124,
          "value": 0.100000001
        },
        {
          "id": 125,
          "value": 0.100000001
        },
        {
          "id": 126,
          "value": 0.100000001
        },
        {
          "id": 127,
          "value": 0.100000001
        },
        {
          "id": 128,
          "value": 0.100000001
        },
        {
          "id": 129,
          "value": 0.100000001
        },
        {
          "id": 130,
          "value": 0.0
        },
        {
          "id": 131,
          "value": 0.0
        },
        {
          "id": 132,
          "value": 0.0
        },
        {
          "id": 133,
          "value": 0.0
        },
        {
          "id": 134,
          "value": 0.0
        },
        {
          "id": 135,
          "value": 0.0
        },
        {
          "id": 136,
          "value": 0.0
        },
        {
          "id": 137,
          "value": 0.0
        },
        {
          "id": 138,
          "value": 0.0
        },
        {
          "id": 139,
          "value": 0.0
        },
        {
          "id": 140,
          "value": 0.0
        },
        {
          "id": 141,
          "value": 0.0
        },
        {
          "id": 142,
          "value": 0.0
        },
        {
          "id": 143,
          "value": 0.0
        },
        {
          "id": 144,
          "value": 0.0
        },
        {
          "id": 145,
          "value": 0.0
        },
        {
          "id": 146,
          "value": 0.0
        },
        {
          "id": 147,
          "value": 0.0
        },
        {
          "id": 148,
          "value": 0.0
        },
        {
          "id": 149,
          "value": 0.0
        },
        {
          "id": 150,
          "value": 0.0
        },
        {
          "id": 151,
          "value": 0.0
        },
        {
          "id": 152,
          "value": 0.0
        },
        {
          "id": 153,
          "value": 0.0
        },
        {
          "id": 154,
          "value": 0.0
        },
        {
          "id": 155,
          "value": 0.0
        },
        {
          "id": 156,
          "value": 0.0
        },
        {
          "id": 157,
          "value": 0.0
        },
        {
          "id": 158,
          "value": 0.0
        },
        {
          "id": 159,
          "value": 0.0
        },
        {
          "id": 160,
          "value": 0.0
        },
        {
          "id": 161,
          "value": 0.0
        },
        {
          "id": 162,
          "value": 0.0
        },
        {
          "id": 163,
          "value": 0.0
        },
        {
          "id": 164,
          "value": 0.0
        },
        {
          "id": 165,
          "value": 0.0
        },
        {
          "id": 166,
          "value": 0.0
        },
        {
          "id": 167,
          "value": 0.0
        }
      ],
      "data": {
        "pingPong": 0,
        "reverse": 0,
        "compressionMode": 0,
        "grainCount": 3,
        "grainSize": 0.5,
        "muted1": 0,
        "stacked1": 0,
        "muted2": 0,
        "stacked2": 0,
        "muted3": 0,
        "stacked3": 0,
        "muted4": 0,
        "stacked4": 0,
        "muted5": 0,
        "stacked5": 0,
        "muted6": 0,
        "stacked6": 0,
        "muted7": 0,
        "stacked7": 0,
        "muted8": 0,
        "stacked8": 0,
        "muted9": 0,
        "stacked9": 0,
        "muted10": 0,
        "stacked10": 0,
        "muted11": 0,
        "stacked11": 0,
        "muted12": 0,
        "stacked12": 0,
        "muted13": 0,
        "stacked13": 0,
        "muted14": 0,
        "stacked14": 0,
        "muted15": 0,
        "stacked15": 0,
        "muted16": 0,
        "stacked16": 0
      },
      "pos": [
        100,
        1
      ]
    },
    {
      "id": 47,
      "plugin": "NYSTHI",
      "version": "1.0.9",
      "model": "MasterRecorder",
      "params": [
        {
          "id": 0,
          "value": 0.0
        },
        {
          "id": 1,
          "value": 0.0
        },
        {
          "id": 2,
          "value": 1.0
        }
      ],
      "leftModuleId": 1,
      "data": {
        "nysthi_id": "MR_H0AcMxNP",
        "wavebits": 9,
        "m_attenuation": 1.0
      },
      "pos": [
        187,
        0
      ]
    },
    {
      "id": 48,
      "plugin": "VultModulesFree",
      "version": "1.6.0",
      "model": "Slap",
      "params": [
        {
          "id": 0,
          "value": 0.0
        },
        {
          "id": 1,
          "value": 0.5
        },
        {
          "id": 2,
          "value": 0.5
        },
        {
          "id": 3,
          "value": 0.5
        },
        {
          "id": 4,
          "value": 0.0
        },
        {
          "id": 5,
          "value": 0.0
        },
        {
          "id": 6,
          "value": 0.0
        },
        {
          "id": 7,
          "value": 0.0
        },
        {
          "id": 8,
          "value": 0.0
        }
      ],
      "leftModuleId": 39,
      "rightModuleId": 34,
      "pos": [
        129,
        0
      ]
    },
    {
      "id": 49,
      "plugin": "SonusModular",
      "version": "1.3.0",
      "model": "PanintheHaas",
      "params": [
        {
          "id": 0,
          "value": 5.82499647
        }
      ],
      "leftModuleId": 41,
      "rightModuleId": 39,
      "pos": [
        119,
        0
      ]
    },
    {
      "id": 50,
      "plugin": "Core",
      "version": "1.1.6",
      "model": "MIDIToCVInterface",
      "params": [],
      "data": {
        "channels": 1,
        "polyMode": 0,
        "clockDivision": 24,
        "lastPitch": 8192,
        "lastMod": 0,
        "midi": {
          "driver": -11,
          "deviceName": "QWERTY keyboard (US)",
          "channel": -1
        }
      },
      "pos": [
        10,
        1
      ]
    }
  ],
  "cables": [
    {
      "id": 1,
      "outputModuleId": 16,
      "outputId": 7,
      "inputModuleId": 17,
      "inputId": 2,
      "color": "#0c8e15"
    },
    {
      "id": 2,
      "outputModuleId": 16,
      "outputId": 0,
      "inputModuleId": 17,
      "inputId": 0,
      "color": "#c91847"
    },
    {
      "id": 18,
      "outputModuleId": 30,
      "outputId": 0,
      "inputModuleId": 29,
      "inputId": 6,
      "color": "#c9b70e"
    },
    {
      "id": 17,
      "outputModuleId": 29,
      "outputId": 3,
      "inputModuleId": 25,
      "inputId": 0,
      "color": "#0986ad"
    },
    {
      "id": 15,
      "outputModuleId": 29,
      "outputId": 3,
      "inputModuleId": 25,
      "inputId": 1,
      "color": "#0c8e15"
    },
    {
      "id": 27,
      "outputModuleId": 35,
      "outputId": 0,
      "inputModuleId": 32,
      "inputId": 0,
      "color": "#c91847"
    },
    {
      "id": 28,
      "outputModuleId": 17,
      "outputId": 3,
      "inputModuleId": 35,
      "inputId": 1,
      "color": "#0986ad"
    },
    {
      "id": 30,
      "outputModuleId": 12,
      "outputId": 8,
      "inputModuleId": 34,
      "inputId": 0,
      "color": "#c91847"
    },
    {
      "id": 26,
      "outputModuleId": 12,
      "outputId": 0,
      "inputModuleId": 35,
      "inputId": 0,
      "color": "#0c8e15"
    },
    {
      "id": 31,
      "outputModuleId": 17,
      "outputId": 3,
      "inputModuleId": 36,
      "inputId": 1,
      "color": "#0986ad"
    },
    {
      "id": 32,
      "outputModuleId": 12,
      "outputId": 1,
      "inputModuleId": 36,
      "inputId": 0,
      "color": "#c9b70e"
    },
    {
      "id": 34,
      "outputModuleId": 12,
      "outputId": 2,
      "inputModuleId": 37,
      "inputId": 0,
      "color": "#c91847"
    },
    {
      "id": 39,
      "outputModuleId": 39,
      "outputId": 0,
      "inputModuleId": 34,
      "inputId": 1,
      "color": "#0986ad"
    },
    {
      "id": 42,
      "outputModuleId": 39,
      "outputId": 1,
      "inputModuleId": 34,
      "inputId": 4,
      "color": "#c91847"
    },
    {
      "id": 49,
      "outputModuleId": 34,
      "outputId": 0,
      "inputModuleId": 42,
      "inputId": 5,
      "color": "#0c8e15"
    },
    {
      "id": 50,
      "outputModuleId": 34,
      "outputId": 1,
      "inputModuleId": 42,
      "inputId": 6,
      "color": "#c91847"
    },
    {
      "id": 51,
      "outputModuleId": 42,
      "outputId": 0,
      "inputModuleId": 1,
      "inputId": 0,
      "color": "#0986ad"
    },
    {
      "id": 52,
      "outputModuleId": 42,
      "outputId": 1,
      "inputModuleId": 1,
      "inputId": 1,
      "color": "#c9b70e"
    },
    {
      "id": 53,
      "outputModuleId": 35,
      "outputId": 0,
      "inputModuleId": 34,
      "inputId": 2,
      "color": "#0c8e15"
    },
    {
      "id": 54,
      "outputModuleId": 36,
      "outputId": 0,
      "inputModuleId": 34,
      "inputId": 5,
      "color": "#c91847"
    },
    {
      "id": 55,
      "outputModuleId": 32,
      "outputId": 0,
      "inputModuleId": 34,
      "inputId": 7,
      "color": "#0986ad"
    },
    {
      "id": 56,
      "outputModuleId": 33,
      "outputId": 2,
      "inputModuleId": 34,
      "inputId": 10,
      "color": "#c9b70e"
    },
    {
      "id": 57,
      "outputModuleId": 17,
      "outputId": 3,
      "inputModuleId": 37,
      "inputId": 1,
      "color": "#0c8e15"
    },
    {
      "id": 46,
      "outputModuleId": 44,
      "outputId": 2,
      "inputModuleId": 40,
      "inputId": 9,
      "color": "#c91847"
    },
    {
      "id": 59,
      "outputModuleId": 40,
      "outputId": 2,
      "inputModuleId": 44,
      "inputId": 2,
      "color": "#0986ad"
    },
    {
      "id": 47,
      "outputModuleId": 44,
      "outputId": 3,
      "inputModuleId": 40,
      "inputId": 10,
      "color": "#0986ad"
    },
    {
      "id": 60,
      "outputModuleId": 40,
      "outputId": 3,
      "inputModuleId": 44,
      "inputId": 3,
      "color": "#c9b70e"
    },
    {
      "id": 62,
      "outputModuleId": 45,
      "outputId": 0,
      "inputModuleId": 46,
      "inputId": 150,
      "color": "#0986ad"
    },
    {
      "id": 63,
      "outputModuleId": 46,
      "outputId": 0,
      "inputModuleId": 34,
      "inputId": 13,
      "color": "#0c8e15"
    },
    {
      "id": 64,
      "outputModuleId": 45,
      "outputId": 0,
      "inputModuleId": 46,
      "inputId": 151,
      "color": "#c91847"
    },
    {
      "id": 65,
      "outputModuleId": 46,
      "outputId": 1,
      "inputModuleId": 34,
      "inputId": 16,
      "color": "#0986ad"
    },
    {
      "id": 66,
      "outputModuleId": 12,
      "outputId": 10,
      "inputModuleId": 45,
      "inputId": 7,
      "color": "#c9b70e"
    },
    {
      "id": 67,
      "outputModuleId": 16,
      "outputId": 5,
      "inputModuleId": 42,
      "inputId": 7,
      "color": "#0c8e15"
    },
    {
      "id": 68,
      "outputModuleId": 42,
      "outputId": 0,
      "inputModuleId": 47,
      "inputId": 0,
      "color": "#c91847"
    },
    {
      "id": 69,
      "outputModuleId": 42,
      "outputId": 1,
      "inputModuleId": 47,
      "inputId": 1,
      "color": "#c9b70e"
    },
    {
      "id": 70,
      "outputModuleId": 37,
      "outputId": 0,
      "inputModuleId": 48,
      "inputId": 0,
      "color": "#0c8e15"
    },
    {
      "id": 72,
      "outputModuleId": 48,
      "outputId": 1,
      "inputModuleId": 34,
      "inputId": 14,
      "color": "#c9b70e"
    },
    {
      "id": 73,
      "outputModuleId": 48,
      "outputId": 1,
      "inputModuleId": 34,
      "inputId": 17,
      "color": "#0c8e15"
    },
    {
      "id": 74,
      "outputModuleId": 30,
      "outputId": 2,
      "inputModuleId": 35,
      "inputId": 2,
      "color": "#c91847"
    },
    {
      "id": 75,
      "outputModuleId": 30,
      "outputId": 2,
      "inputModuleId": 36,
      "inputId": 2,
      "color": "#0986ad"
    },
    {
      "id": 76,
      "outputModuleId": 30,
      "outputId": 2,
      "inputModuleId": 37,
      "inputId": 2,
      "color": "#c9b70e"
    },
    {
      "id": 48,
      "outputModuleId": 40,
      "outputId": 4,
      "inputModuleId": 44,
      "inputId": 4,
      "color": "#c9b70e"
    },
    {
      "id": 77,
      "outputModuleId": 44,
      "outputId": 4,
      "inputModuleId": 41,
      "inputId": 0,
      "color": "#0c8e15"
    },
    {
      "id": 44,
      "outputModuleId": 41,
      "outputId": 0,
      "inputModuleId": 49,
      "inputId": 0,
      "color": "#c9b70e"
    },
    {
      "id": 80,
      "outputModuleId": 49,
      "outputId": 0,
      "inputModuleId": 39,
      "inputId": 0,
      "color": "#c9b70e"
    },
    {
      "id": 81,
      "outputModuleId": 49,
      "outputId": 1,
      "inputModuleId": 39,
      "inputId": 2,
      "color": "#0c8e15"
    },
    {
      "id": 58,
      "outputModuleId": 40,
      "outputId": 1,
      "inputModuleId": 44,
      "inputId": 0,
      "color": "#c91847"
    },
    {
      "id": 45,
      "outputModuleId": 44,
      "outputId": 1,
      "inputModuleId": 40,
      "inputId": 8,
      "color": "#0c8e15"
    },
    {
      "id": 82,
      "outputModuleId": 40,
      "outputId": 0,
      "inputModuleId": 44,
      "inputId": 1,
      "color": "#c91847"
    },
    {
      "id": 85,
      "outputModuleId": 44,
      "outputId": 5,
      "inputModuleId": 44,
      "inputId": 17,
      "color": "#0c8e15"
    },
    {
      "id": 43,
      "outputModuleId": 40,
      "outputId": 0,
      "inputModuleId": 38,
      "inputId": 1,
      "color": "#0986ad"
    },
    {
      "id": 86,
      "outputModuleId": 38,
      "outputId": 0,
      "inputModuleId": 41,
      "inputId": 2,
      "color": "#c91847"
    },
    {
      "id": 40,
      "outputModuleId": 50,
      "outputId": 0,
      "inputModuleId": 38,
      "inputId": 0,
      "color": "#c9b70e"
    },
    {
      "id": 87,
      "outputModuleId": 40,
      "outputId": 0,
      "inputModuleId": 45,
      "inputId": 2,
      "color": "#0986ad"
    },
    {
      "id": 35,
      "outputModuleId": 37,
      "outputId": 0,
      "inputModuleId": 33,
      "inputId": 0,
      "color": "#0986ad"
    },
    {
      "id": 88,
      "outputModuleId": 44,
      "outputId": 2,
      "inputModuleId": 33,
      "inputId": 4,
      "color": "#c9b70e"
    },
    {
      "id": 61,
      "outputModuleId": 35,
      "outputId": 2,
      "inputModuleId": 45,
      "inputId": 6,
      "color": "#c91847"
    }
  ]
}