{
  "version": "1.1.6",
  "modules": [
    {
      "id": 1,
      "plugin": "Core",
      "version": "1.1.6",
      "model": "AudioInterface",
      "params": [],
      "leftModuleId": 282,
      "rightModuleId": 293,
      "data": {
        "audio": {
          "driver": 6,
          "deviceName": "CABLE Input (VB-Audio Virtual Cable)",
          "offset": 0,
          "maxChannels": 8,
          "sampleRate": 44100,
          "blockSize": 256
        }
      },
      "pos": [
        134,
        1
      ]
    },
    {
      "id": 193,
      "plugin": "Fundamental",
      "version": "1.4.0",
      "model": "VCO",
      "params": [
        {
          "id": 0,
          "value": 1.0
        },
        {
          "id": 1,
          "value": 0.0
        },
        {
          "id": 2,
          "value": -18.8999996
        },
        {
          "id": 3,
          "value": 0.0
        },
        {
          "id": 4,
          "value": 0.0
        },
        {
          "id": 5,
          "value": 0.5
        },
        {
          "id": 6,
          "value": 0.0
        }
      ],
      "leftModuleId": 200,
      "rightModuleId": 254,
      "pos": [
        10,
        0
      ]
    },
    {
      "id": 200,
      "plugin": "Fundamental",
      "version": "1.4.0",
      "model": "VCO",
      "params": [
        {
          "id": 0,
          "value": 1.0
        },
        {
          "id": 1,
          "value": 0.0
        },
        {
          "id": 2,
          "value": 0.0
        },
        {
          "id": 3,
          "value": 0.0
        },
        {
          "id": 4,
          "value": 0.0
        },
        {
          "id": 5,
          "value": 0.5
        },
        {
          "id": 6,
          "value": 0.0
        }
      ],
      "rightModuleId": 193,
      "pos": [
        0,
        0
      ]
    },
    {
      "id": 201,
      "plugin": "AudibleInstruments",
      "version": "1.0.0",
      "model": "Rings",
      "params": [
        {
          "id": 0,
          "value": 0.0
        },
        {
          "id": 1,
          "value": 0.0
        },
        {
          "id": 2,
          "value": 30.0
        },
        {
          "id": 3,
          "value": 0.0
        },
        {
          "id": 4,
          "value": 0.037499994
        },
        {
          "id": 5,
          "value": 0.0449999943
        },
        {
          "id": 6,
          "value": 0.5
        },
        {
          "id": 7,
          "value": 0.497999966
        },
        {
          "id": 8,
          "value": 0.0
        },
        {
          "id": 9,
          "value": 0.276000232
        },
        {
          "id": 10,
          "value": 0.0
        },
        {
          "id": 11,
          "value": 0.0
        }
      ],
      "rightModuleId": 258,
      "data": {
        "polyphony": 0,
        "model": 0,
        "easterEgg": false
      },
      "pos": [
        70,
        3
      ]
    },
    {
      "id": 203,
      "plugin": "CatroModulo",
      "version": "1.0.3",
      "model": "CatroModulo_CM-4",
      "params": [
        {
          "id": 0,
          "value": 1.755
        },
        {
          "id": 1,
          "value": 0.0
        },
        {
          "id": 2,
          "value": 1.0
        }
      ],
      "leftModuleId": 286,
      "rightModuleId": 204,
      "pos": [
        22,
        1
      ]
    },
    {
      "id": 204,
      "plugin": "CatroModulo",
      "version": "1.0.3",
      "model": "CatroModulo_CM-5",
      "params": [
        {
          "id": 0,
          "value": 0.0
        }
      ],
      "leftModuleId": 203,
      "rightModuleId": 226,
      "pos": [
        27,
        1
      ]
    },
    {
      "id": 212,
      "plugin": "Hora-treasureFree",
      "version": "1.0.2",
      "model": "SnareDrum-VCV",
      "params": [
        {
          "id": 0,
          "value": 0.537799776
        },
        {
          "id": 1,
          "value": 2824.88184
        },
        {
          "id": 2,
          "value": 0.0
        },
        {
          "id": 3,
          "value": 0.0
        },
        {
          "id": 4,
          "value": 0.861894965
        },
        {
          "id": 5,
          "value": 0.563499987
        },
        {
          "id": 6,
          "value": 0.455750078
        },
        {
          "id": 7,
          "value": 0.573000014
        },
        {
          "id": 8,
          "value": 1.0
        },
        {
          "id": 9,
          "value": 0.649800479
        },
        {
          "id": 10,
          "value": 0.811499715
        },
        {
          "id": 11,
          "value": 0.636174917
        },
        {
          "id": 12,
          "value": 0.0126000037
        },
        {
          "id": 13,
          "value": 0.5424999
        }
      ],
      "leftModuleId": 263,
      "rightModuleId": 264,
      "pos": [
        14,
        3
      ]
    },
    {
      "id": 215,
      "plugin": "CatroModulo",
      "version": "1.0.3",
      "model": "CatroModulo_CM-8",
      "params": [
        {
          "id": 0,
          "value": 0.0
        },
        {
          "id": 1,
          "value": -4.23999739
        },
        {
          "id": 2,
          "value": 1.0
        },
        {
          "id": 3,
          "value": 0.0
        },
        {
          "id": 4,
          "value": 0.0
        }
      ],
      "leftModuleId": 271,
      "rightModuleId": 275,
      "pos": [
        88,
        2
      ]
    },
    {
      "id": 220,
      "plugin": "Valley",
      "version": "1.0.1",
      "model": "Plateau",
      "params": [
        {
          "id": 0,
          "value": 0.671500206
        },
        {
          "id": 1,
          "value": 0.476999432
        },
        {
          "id": 2,
          "value": 0.0202499982
        },
        {
          "id": 3,
          "value": 3.95499873
        },
        {
          "id": 4,
          "value": 8.26000023
        },
        {
          "id": 5,
          "value": 0.244499877
        },
        {
          "id": 6,
          "value": 10.0
        },
        {
          "id": 7,
          "value": 0.456359863
        },
        {
          "id": 8,
          "value": 5.90500021
        },
        {
          "id": 9,
          "value": 7.41999722
        },
        {
          "id": 10,
          "value": 0.0
        },
        {
          "id": 11,
          "value": 0.5
        },
        {
          "id": 12,
          "value": 0.5
        },
        {
          "id": 13,
          "value": 0.0
        },
        {
          "id": 14,
          "value": 0.0
        },
        {
          "id": 15,
          "value": 0.0
        },
        {
          "id": 16,
          "value": 0.0
        },
        {
          "id": 17,
          "value": 0.0
        },
        {
          "id": 18,
          "value": 0.0
        },
        {
          "id": 19,
          "value": 0.0
        },
        {
          "id": 20,
          "value": 0.0
        },
        {
          "id": 21,
          "value": 0.159000024
        },
        {
          "id": 22,
          "value": 0.0
        },
        {
          "id": 23,
          "value": 0.0
        },
        {
          "id": 24,
          "value": 0.0
        },
        {
          "id": 25,
          "value": 0.0
        },
        {
          "id": 26,
          "value": 0.0
        },
        {
          "id": 27,
          "value": 0.0
        },
        {
          "id": 28,
          "value": 0.0
        },
        {
          "id": 29,
          "value": 0.0
        },
        {
          "id": 30,
          "value": 0.0
        }
      ],
      "leftModuleId": 274,
      "data": {
        "frozen": false,
        "freezeToggle": false,
        "panelStyle": 0,
        "tuned": 0,
        "diffuseInput": 0,
        "preDelayCVSens": 0,
        "inputSensitivity": 0,
        "outputSaturation": 0
      },
      "pos": [
        123,
        2
      ]
    },
    {
      "id": 222,
      "plugin": "Hora-treasureFree",
      "version": "1.0.2",
      "model": "HiHat",
      "params": [
        {
          "id": 0,
          "value": 0.567199647
        },
        {
          "id": 1,
          "value": 0.546450198
        },
        {
          "id": 2,
          "value": 0.758298814
        },
        {
          "id": 3,
          "value": 0.0
        },
        {
          "id": 4,
          "value": 0.199350074
        },
        {
          "id": 5,
          "value": 1.0
        },
        {
          "id": 6,
          "value": 2.77599978
        },
        {
          "id": 7,
          "value": 0.25849992
        },
        {
          "id": 8,
          "value": 0.686000049
        },
        {
          "id": 9,
          "value": 0.424500674
        },
        {
          "id": 10,
          "value": 0.518049538
        },
        {
          "id": 11,
          "value": 0.820499957
        }
      ],
      "leftModuleId": 264,
      "rightModuleId": 285,
      "pos": [
        27,
        3
      ]
    },
    {
      "id": 223,
      "plugin": "Valley",
      "version": "1.0.1",
      "model": "Plateau",
      "params": [
        {
          "id": 0,
          "value": 0.509500146
        },
        {
          "id": 1,
          "value": 0.643999934
        },
        {
          "id": 2,
          "value": 0.00600000052
        },
        {
          "id": 3,
          "value": 8.31999969
        },
        {
          "id": 4,
          "value": 8.84499931
        },
        {
          "id": 5,
          "value": 0.382500112
        },
        {
          "id": 6,
          "value": 10.0
        },
        {
          "id": 7,
          "value": 0.363671303
        },
        {
          "id": 8,
          "value": 8.24499321
        },
        {
          "id": 9,
          "value": 7.24000263
        },
        {
          "id": 10,
          "value": 0.0
        },
        {
          "id": 11,
          "value": 0.5
        },
        {
          "id": 12,
          "value": 0.5
        },
        {
          "id": 13,
          "value": 0.0
        },
        {
          "id": 14,
          "value": 0.0
        },
        {
          "id": 15,
          "value": 0.0
        },
        {
          "id": 16,
          "value": 0.0
        },
        {
          "id": 17,
          "value": 0.0
        },
        {
          "id": 18,
          "value": 0.0
        },
        {
          "id": 19,
          "value": 1.0
        },
        {
          "id": 20,
          "value": 1.0
        },
        {
          "id": 21,
          "value": 0.0
        },
        {
          "id": 22,
          "value": 0.0
        },
        {
          "id": 23,
          "value": 0.0
        },
        {
          "id": 24,
          "value": 0.0
        },
        {
          "id": 25,
          "value": 0.0
        },
        {
          "id": 26,
          "value": 0.0
        },
        {
          "id": 27,
          "value": 0.0
        },
        {
          "id": 28,
          "value": 0.0
        },
        {
          "id": 29,
          "value": 1.0
        },
        {
          "id": 30,
          "value": 0.0
        }
      ],
      "leftModuleId": 258,
      "rightModuleId": 261,
      "data": {
        "frozen": false,
        "freezeToggle": false,
        "panelStyle": 0,
        "tuned": 1,
        "diffuseInput": 0,
        "preDelayCVSens": 0,
        "inputSensitivity": 0,
        "outputSaturation": 0
      },
      "pos": [
        94,
        3
      ]
    },
    {
      "id": 225,
      "plugin": "VultCompacts",
      "version": "1.7.0",
      "model": "Freak",
      "params": [
        {
          "id": 0,
          "value": 0.329500377
        },
        {
          "id": 1,
          "value": 0.0
        },
        {
          "id": 2,
          "value": 0.0
        },
        {
          "id": 3,
          "value": 0.235500008
        },
        {
          "id": 4,
          "value": 0.0
        },
        {
          "id": 5,
          "value": 0.785999715
        },
        {
          "id": 6,
          "value": 0.0
        },
        {
          "id": 7,
          "value": 0.0
        },
        {
          "id": 8,
          "value": 0.0
        },
        {
          "id": 9,
          "value": 0.0
        },
        {
          "id": 10,
          "value": 0.0
        },
        {
          "id": 11,
          "value": 0.0
        },
        {
          "id": 12,
          "value": 0.0
        },
        {
          "id": 13,
          "value": 0.30399999
        }
      ],
      "leftModuleId": 256,
      "rightModuleId": 266,
      "data": {
        "filter": 7,
        "mode": 0,
        "mode1": 0,
        "mode2": 0,
        "mode3": 0,
        "mode4": 0,
        "mode5": 0,
        "mode6": 0,
        "mode7": 0,
        "mode8": 0,
        "mode9": 0,
        "mode10": 0,
        "mode11": 0,
        "mode12": 0
      },
      "pos": [
        40,
        0
      ]
    },
    {
      "id": 226,
      "plugin": "CatroModulo",
      "version": "1.0.3",
      "model": "CatroModulo_CM-9",
      "params": [
        {
          "id": 0,
          "value": 3.0
        }
      ],
      "leftModuleId": 204,
      "rightModuleId": 243,
      "data": {
        "opmode": [
          0
        ]
      },
      "pos": [
        30,
        1
      ]
    },
    {
      "id": 227,
      "plugin": "CatroModulo",
      "version": "1.0.3",
      "model": "CatroModulo_CM-9",
      "params": [
        {
          "id": 0,
          "value": 3.0
        }
      ],
      "leftModuleId": 255,
      "rightModuleId": 281,
      "data": {
        "opmode": [
          0
        ]
      },
      "pos": [
        55,
        1
      ]
    },
    {
      "id": 228,
      "plugin": "CatroModulo",
      "version": "1.0.3",
      "model": "CatroModulo_CM-9",
      "params": [
        {
          "id": 0,
          "value": 3.0
        }
      ],
      "rightModuleId": 209,
      "data": {
        "opmode": [
          0
        ]
      },
      "pos": [
        23,
        2
      ]
    },
    {
      "id": 240,
      "plugin": "Core",
      "version": "1.1.6",
      "model": "MIDICCToCVInterface",
      "params": [],
      "leftModuleId": 262,
      "rightModuleId": 244,
      "data": {
        "ccs": [
          0,
          1,
          2,
          3,
          4,
          5,
          6,
          7,
          16,
          17,
          18,
          19,
          20,
          21,
          22,
          23
        ],
        "values": [
          0,
          0,
          0,
          0,
          0,
          0,
          0,
          0,
          0,
          0,
          0,
          0,
          0,
          0,
          0,
          0,
          0,
          0,
          71,
          30,
          50,
          0,
          58,
          0,
          0,
          0,
          0,
          0,
          0,
          0,
          0,
          0,
          0,
          0,
          0,
          0,
          0,
          0,
          0,
          0,
          0,
          0,
          0,
          0,
          0,
          0,
          0,
          0,
          0,
          0,
          0,
          0,
          0,
          0,
          0,
          0,
          0,
          0,
          0,
          0,
          0,
          0,
          0,
          0,
          0,
          127,
          0,
          0,
          0,
          0,
          0,
          0,
          0,
          0,
          0,
          0,
          0,
          0,
          0,
          0,
          0,
          0,
          0,
          0,
          0,
          0,
          0,
          0,
          0,
          0,
          0,
          0,
          0,
          0,
          0,
          0,
          0,
          0,
          0,
          0,
          0,
          0,
          0,
          0,
          0,
          0,
          0,
          0,
          0,
          0,
          0,
          0,
          0,
          0,
          0,
          0,
          0,
          0,
          0,
          0,
          0,
          0,
          0,
          0,
          0,
          0,
          0,
          0
        ],
        "midi": {
          "driver": 4,
          "deviceName": "nanoKONTROL2 1 SLIDER/KNOB 0",
          "channel": -1
        }
      },
      "pos": [
        73,
        1
      ]
    },
    {
      "id": 243,
      "plugin": "CatroModulo",
      "version": "1.0.3",
      "model": "CatroModulo_CM-2",
      "params": [
        {
          "id": 0,
          "value": 0.624999821
        },
        {
          "id": 1,
          "value": -1.0
        },
        {
          "id": 2,
          "value": 1.0
        },
        {
          "id": 3,
          "value": -1.0
        },
        {
          "id": 4,
          "value": 0.332999915
        },
        {
          "id": 5,
          "value": 0.552000105
        },
        {
          "id": 6,
          "value": 0.579000413
        },
        {
          "id": 7,
          "value": 0.0
        },
        {
          "id": 8,
          "value": 0.0
        },
        {
          "id": 9,
          "value": 5.0
        },
        {
          "id": 10,
          "value": 0.0
        },
        {
          "id": 11,
          "value": 5.0
        },
        {
          "id": 12,
          "value": 0.120000005
        },
        {
          "id": 13,
          "value": 0.0
        },
        {
          "id": 14,
          "value": 0.0
        },
        {
          "id": 15,
          "value": 0.0
        },
        {
          "id": 16,
          "value": 1.0
        }
      ],
      "leftModuleId": 226,
      "rightModuleId": 253,
      "pos": [
        35,
        1
      ]
    },
    {
      "id": 244,
      "plugin": "NYSTHI",
      "version": "1.0.9",
      "model": "mix8",
      "params": [
        {
          "id": 0,
          "value": 0.0
        },
        {
          "id": 1,
          "value": 0.0
        },
        {
          "id": 2,
          "value": 0.0
        },
        {
          "id": 3,
          "value": 0.0
        },
        {
          "id": 4,
          "value": 0.0
        },
        {
          "id": 5,
          "value": 0.0
        },
        {
          "id": 6,
          "value": 0.0
        },
        {
          "id": 7,
          "value": 0.0
        },
        {
          "id": 8,
          "value": 0.0
        },
        {
          "id": 9,
          "value": 0.0
        },
        {
          "id": 10,
          "value": 0.0
        },
        {
          "id": 11,
          "value": 0.0
        },
        {
          "id": 12,
          "value": 0.0
        },
        {
          "id": 13,
          "value": 0.0
        },
        {
          "id": 14,
          "value": 0.0
        },
        {
          "id": 15,
          "value": 0.0
        },
        {
          "id": 16,
          "value": 0.0
        },
        {
          "id": 17,
          "value": 0.0
        },
        {
          "id": 18,
          "value": 0.0781500563
        },
        {
          "id": 19,
          "value": 0.0
        },
        {
          "id": 20,
          "value": 0.0
        },
        {
          "id": 21,
          "value": 0.0
        },
        {
          "id": 22,
          "value": 0.0217500273
        },
        {
          "id": 23,
          "value": 0.0
        },
        {
          "id": 24,
          "value": 0.0
        },
        {
          "id": 25,
          "value": 0.0
        },
        {
          "id": 26,
          "value": 0.0
        },
        {
          "id": 27,
          "value": 0.0
        },
        {
          "id": 28,
          "value": 0.0
        },
        {
          "id": 29,
          "value": 0.0
        },
        {
          "id": 30,
          "value": 0.0
        },
        {
          "id": 31,
          "value": 0.0
        },
        {
          "id": 32,
          "value": 0.0
        },
        {
          "id": 33,
          "value": 0.0
        },
        {
          "id": 34,
          "value": 0.0
        },
        {
          "id": 35,
          "value": 0.0
        },
        {
          "id": 36,
          "value": 0.0
        },
        {
          "id": 37,
          "value": 0.0
        },
        {
          "id": 38,
          "value": 0.0
        },
        {
          "id": 39,
          "value": 0.0
        }
      ],
      "leftModuleId": 240,
      "rightModuleId": 282,
      "data": {
        "m_channels": [
          0.25073275,
          0.5,
          false,
          false,
          0.343750596,
          0.5,
          false,
          false,
          0.661799371,
          0.58196497,
          false,
          false,
          0.375469327,
          0.44636929,
          false,
          false,
          0.000999061391,
          0.5,
          false,
          false,
          1.0,
          0.5,
          false,
          false,
          1.0,
          0.5,
          false,
          false,
          1.0,
          0.5,
          false,
          false
        ],
        "m_master_volume": 1.0,
        "m_master_mute_trig": false,
        "m_low_power": false,
        "m_cvcompatible": false,
        "m_show_post_out": false,
        "m_post_outputs_unaffected_by_solo_mode": false,
        "m_attenuation": 1.0,
        "m_limiting_mode": 0,
        "m_poly_out": 8
      },
      "pos": [
        83,
        1
      ]
    },
    {
      "id": 251,
      "plugin": "JW-Modules",
      "version": "1.0.9",
      "model": "Quantizer",
      "params": [
        {
          "id": 0,
          "value": 5.0
        },
        {
          "id": 1,
          "value": 11.0
        }
      ],
      "leftModuleId": 281,
      "rightModuleId": 257,
      "data": {},
      "pos": [
        63,
        1
      ]
    },
    {
      "id": 253,
      "plugin": "JW-Modules",
      "version": "1.0.9",
      "model": "Quantizer",
      "params": [
        {
          "id": 0,
          "value": 0.0
        },
        {
          "id": 1,
          "value": 9.0
        }
      ],
      "leftModuleId": 243,
      "rightModuleId": 255,
      "data": {},
      "pos": [
        46,
        1
      ]
    },
    {
      "id": 254,
      "plugin": "VultModulesFree",
      "version": "1.7.0",
      "model": "Slap",
      "params": [
        {
          "id": 0,
          "value": 0.0314999968
        },
        {
          "id": 1,
          "value": 0.253499895
        },
        {
          "id": 2,
          "value": 0.346500218
        },
        {
          "id": 3,
          "value": 0.0779999942
        },
        {
          "id": 4,
          "value": 0.0
        },
        {
          "id": 5,
          "value": 0.0
        },
        {
          "id": 6,
          "value": 0.0
        },
        {
          "id": 7,
          "value": 0.0
        },
        {
          "id": 8,
          "value": 1.0
        }
      ],
      "leftModuleId": 193,
      "rightModuleId": 256,
      "pos": [
        20,
        0
      ]
    },
    {
      "id": 255,
      "plugin": "CatroModulo",
      "version": "1.0.3",
      "model": "CatroModulo_CM-8",
      "params": [
        {
          "id": 0,
          "value": 3.63000369
        },
        {
          "id": 1,
          "value": 4.82999611
        },
        {
          "id": 2,
          "value": 2.0
        },
        {
          "id": 3,
          "value": 0.0
        },
        {
          "id": 4,
          "value": 0.0
        }
      ],
      "leftModuleId": 253,
      "rightModuleId": 227,
      "pos": [
        50,
        1
      ]
    },
    {
      "id": 256,
      "plugin": "VultModulesFree",
      "version": "1.7.0",
      "model": "Slap",
      "params": [
        {
          "id": 0,
          "value": 0.0645000413
        },
        {
          "id": 1,
          "value": 0.47999981
        },
        {
          "id": 2,
          "value": 0.643000007
        },
        {
          "id": 3,
          "value": 0.117000148
        },
        {
          "id": 4,
          "value": 0.0
        },
        {
          "id": 5,
          "value": 0.0
        },
        {
          "id": 6,
          "value": 0.0
        },
        {
          "id": 7,
          "value": 0.0
        },
        {
          "id": 8,
          "value": 0.0
        }
      ],
      "leftModuleId": 254,
      "rightModuleId": 225,
      "pos": [
        30,
        0
      ]
    },
    {
      "id": 257,
      "plugin": "Bogaudio",
      "version": "1.1.26",
      "model": "Bogaudio-Stack",
      "params": [
        {
          "id": 0,
          "value": 0.0
        },
        {
          "id": 1,
          "value": -2.0
        },
        {
          "id": 2,
          "value": 0.0
        },
        {
          "id": 3,
          "value": 1.0
        }
      ],
      "leftModuleId": 251,
      "rightModuleId": 262,
      "pos": [
        67,
        1
      ]
    },
    {
      "id": 209,
      "plugin": "VultModulesFree",
      "version": "1.7.0",
      "model": "Trummor2",
      "params": [
        {
          "id": 0,
          "value": 0.0230000168
        },
        {
          "id": 1,
          "value": 0.566001594
        },
        {
          "id": 2,
          "value": 0.144000262
        },
        {
          "id": 3,
          "value": 0.128999919
        },
        {
          "id": 4,
          "value": 0.791999817
        },
        {
          "id": 5,
          "value": 0.158000872
        },
        {
          "id": 6,
          "value": 0.0344999954
        },
        {
          "id": 7,
          "value": 0.291500092
        },
        {
          "id": 8,
          "value": 0.20349887
        },
        {
          "id": 9,
          "value": 0.0
        },
        {
          "id": 10,
          "value": 0.0
        },
        {
          "id": 11,
          "value": 0.5819996
        },
        {
          "id": 12,
          "value": 0.100000001
        },
        {
          "id": 13,
          "value": 0.0
        },
        {
          "id": 14,
          "value": 0.0
        },
        {
          "id": 15,
          "value": 0.381423891
        },
        {
          "id": 16,
          "value": 0.0
        },
        {
          "id": 17,
          "value": 0.0
        },
        {
          "id": 18,
          "value": 0.0285000056
        },
        {
          "id": 19,
          "value": 0.0500000007
        },
        {
          "id": 20,
          "value": 0.0500000007
        },
        {
          "id": 21,
          "value": 0.0
        },
        {
          "id": 22,
          "value": 0.0
        },
        {
          "id": 23,
          "value": 0.197999924
        },
        {
          "id": 24,
          "value": 0.0
        },
        {
          "id": 25,
          "value": 0.0
        },
        {
          "id": 26,
          "value": 0.0
        },
        {
          "id": 27,
          "value": 0.0
        },
        {
          "id": 28,
          "value": 0.0
        },
        {
          "id": 29,
          "value": 0.0
        },
        {
          "id": 30,
          "value": 0.0
        },
        {
          "id": 31,
          "value": 0.0
        },
        {
          "id": 32,
          "value": 0.0
        }
      ],
      "leftModuleId": 228,
      "data": {
        "mod_a": 5,
        "mod_b": 20,
        "mod_c": 19,
        "mod_d": 8,
        "mk2": true
      },
      "pos": [
        28,
        2
      ]
    },
    {
      "id": 258,
      "plugin": "VultModulesFree",
      "version": "1.7.0",
      "model": "Slap",
      "params": [
        {
          "id": 0,
          "value": 0.139500007
        },
        {
          "id": 1,
          "value": 0.239999965
        },
        {
          "id": 2,
          "value": 0.761499822
        },
        {
          "id": 3,
          "value": 0.108000062
        },
        {
          "id": 4,
          "value": 0.0
        },
        {
          "id": 5,
          "value": 0.0
        },
        {
          "id": 6,
          "value": 0.0
        },
        {
          "id": 7,
          "value": 0.0
        },
        {
          "id": 8,
          "value": 0.0
        }
      ],
      "leftModuleId": 201,
      "rightModuleId": 223,
      "pos": [
        84,
        3
      ]
    },
    {
      "id": 261,
      "plugin": "AlrightDevices",
      "version": "1.0.2",
      "model": "Chronoblob2",
      "params": [
        {
          "id": 0,
          "value": 0.429499745
        },
        {
          "id": 1,
          "value": 0.189500093
        },
        {
          "id": 2,
          "value": 0.429499984
        },
        {
          "id": 3,
          "value": 0.0
        },
        {
          "id": 4,
          "value": 1.0
        },
        {
          "id": 5,
          "value": 1.0
        },
        {
          "id": 6,
          "value": 0.0
        },
        {
          "id": 7,
          "value": 0.0
        },
        {
          "id": 8,
          "value": 0.0
        },
        {
          "id": 9,
          "value": 0.0
        }
      ],
      "leftModuleId": 223,
      "data": {
        "delay_mode": 0,
        "hold_behavior": 0,
        "sync_prescaler": 6
      },
      "pos": [
        106,
        3
      ]
    },
    {
      "id": 262,
      "plugin": "Bogaudio",
      "version": "1.1.26",
      "model": "Bogaudio-Stack",
      "params": [
        {
          "id": 0,
          "value": 0.0
        },
        {
          "id": 1,
          "value": 1.0
        },
        {
          "id": 2,
          "value": 0.0
        },
        {
          "id": 3,
          "value": 1.0
        }
      ],
      "leftModuleId": 257,
      "rightModuleId": 240,
      "pos": [
        70,
        1
      ]
    },
    {
      "id": 263,
      "plugin": "CatroModulo",
      "version": "1.0.3",
      "model": "CatroModulo_CM-9",
      "params": [
        {
          "id": 0,
          "value": 3.0
        }
      ],
      "rightModuleId": 212,
      "data": {
        "opmode": [
          0
        ]
      },
      "pos": [
        9,
        3
      ]
    },
    {
      "id": 264,
      "plugin": "CatroModulo",
      "version": "1.0.3",
      "model": "CatroModulo_CM-9",
      "params": [
        {
          "id": 0,
          "value": 3.0
        }
      ],
      "leftModuleId": 212,
      "rightModuleId": 222,
      "data": {
        "opmode": [
          0
        ]
      },
      "pos": [
        22,
        3
      ]
    },
    {
      "id": 265,
      "plugin": "AlrightDevices",
      "version": "1.0.2",
      "model": "Chronoblob2",
      "params": [
        {
          "id": 0,
          "value": 0.38000083
        },
        {
          "id": 1,
          "value": 0.172999993
        },
        {
          "id": 2,
          "value": 0.293000013
        },
        {
          "id": 3,
          "value": 0.0
        },
        {
          "id": 4,
          "value": 0.425999999
        },
        {
          "id": 5,
          "value": 0.386999965
        },
        {
          "id": 6,
          "value": 0.0
        },
        {
          "id": 7,
          "value": 0.0
        },
        {
          "id": 8,
          "value": 0.0
        },
        {
          "id": 9,
          "value": 0.0
        }
      ],
      "leftModuleId": 285,
      "data": {
        "delay_mode": 1,
        "hold_behavior": 0,
        "sync_prescaler": 6
      },
      "pos": [
        46,
        3
      ]
    },
    {
      "id": 266,
      "plugin": "VultCompacts",
      "version": "1.7.0",
      "model": "Vorg",
      "params": [
        {
          "id": 0,
          "value": 0.727500379
        },
        {
          "id": 1,
          "value": 0.167999953
        },
        {
          "id": 2,
          "value": 0.0
        },
        {
          "id": 3,
          "value": 0.0
        },
        {
          "id": 4,
          "value": 0.501500428
        },
        {
          "id": 5,
          "value": 0.0
        }
      ],
      "leftModuleId": 225,
      "rightModuleId": 289,
      "data": {
        "state": 0
      },
      "pos": [
        50,
        0
      ]
    },
    {
      "id": 269,
      "plugin": "AudibleInstruments",
      "version": "1.0.0",
      "model": "Branches",
      "params": [
        {
          "id": 0,
          "value": 0.5
        },
        {
          "id": 1,
          "value": 0.5
        },
        {
          "id": 2,
          "value": 0.0
        },
        {
          "id": 3,
          "value": 0.0
        }
      ],
      "leftModuleId": 276,
      "rightModuleId": 270,
      "data": {
        "modes": [
          false,
          false
        ]
      },
      "pos": [
        66,
        2
      ]
    },
    {
      "id": 270,
      "plugin": "AudibleInstruments",
      "version": "1.0.0",
      "model": "Branches",
      "params": [
        {
          "id": 0,
          "value": 0.5
        },
        {
          "id": 1,
          "value": 0.5
        },
        {
          "id": 2,
          "value": 0.0
        },
        {
          "id": 3,
          "value": 0.0
        }
      ],
      "leftModuleId": 269,
      "rightModuleId": 277,
      "data": {
        "modes": [
          false,
          false
        ]
      },
      "pos": [
        72,
        2
      ]
    },
    {
      "id": 271,
      "plugin": "CatroModulo",
      "version": "1.0.3",
      "model": "CatroModulo_CM-9",
      "params": [
        {
          "id": 0,
          "value": 3.0
        }
      ],
      "leftModuleId": 277,
      "rightModuleId": 215,
      "data": {
        "opmode": [
          0
        ]
      },
      "pos": [
        83,
        2
      ]
    },
    {
      "id": 272,
      "plugin": "Fundamental",
      "version": "1.4.0",
      "model": "VCO",
      "params": [
        {
          "id": 0,
          "value": 1.0
        },
        {
          "id": 1,
          "value": 0.0
        },
        {
          "id": 2,
          "value": 0.0
        },
        {
          "id": 3,
          "value": 0.0
        },
        {
          "id": 4,
          "value": 0.0
        },
        {
          "id": 5,
          "value": 0.5
        },
        {
          "id": 6,
          "value": 0.0
        }
      ],
      "leftModuleId": 273,
      "rightModuleId": 278,
      "pos": [
        100,
        2
      ]
    },
    {
      "id": 273,
      "plugin": "Bogaudio",
      "version": "1.1.26",
      "model": "Bogaudio-Stack",
      "params": [
        {
          "id": 0,
          "value": 0.0
        },
        {
          "id": 1,
          "value": -1.0
        },
        {
          "id": 2,
          "value": 0.0
        },
        {
          "id": 3,
          "value": 1.0
        }
      ],
      "leftModuleId": 275,
      "rightModuleId": 272,
      "pos": [
        97,
        2
      ]
    },
    {
      "id": 274,
      "plugin": "VultModulesFree",
      "version": "1.7.0",
      "model": "Slap",
      "params": [
        {
          "id": 0,
          "value": 0.238500074
        },
        {
          "id": 1,
          "value": 0.342000097
        },
        {
          "id": 2,
          "value": 0.188499883
        },
        {
          "id": 3,
          "value": 0.139500141
        },
        {
          "id": 4,
          "value": 0.0
        },
        {
          "id": 5,
          "value": 0.0
        },
        {
          "id": 6,
          "value": 0.0
        },
        {
          "id": 7,
          "value": 0.0
        },
        {
          "id": 8,
          "value": 0.0
        }
      ],
      "leftModuleId": 278,
      "rightModuleId": 220,
      "pos": [
        113,
        2
      ]
    },
    {
      "id": 275,
      "plugin": "JW-Modules",
      "version": "1.0.9",
      "model": "Quantizer",
      "params": [
        {
          "id": 0,
          "value": 5.0
        },
        {
          "id": 1,
          "value": 11.0
        }
      ],
      "leftModuleId": 215,
      "rightModuleId": 273,
      "data": {},
      "pos": [
        93,
        2
      ]
    },
    {
      "id": 276,
      "plugin": "CatroModulo",
      "version": "1.0.3",
      "model": "CatroModulo_CM-7",
      "params": [
        {
          "id": 0,
          "value": 0.0
        }
      ],
      "rightModuleId": 269,
      "pos": [
        63,
        2
      ]
    },
    {
      "id": 277,
      "plugin": "CatroModulo",
      "version": "1.0.3",
      "model": "CatroModulo_CM-9",
      "params": [
        {
          "id": 0,
          "value": 3.0
        }
      ],
      "leftModuleId": 270,
      "rightModuleId": 271,
      "data": {
        "opmode": [
          0
        ]
      },
      "pos": [
        78,
        2
      ]
    },
    {
      "id": 278,
      "plugin": "Stoermelder-P1",
      "version": "1.5.0",
      "model": "CVMapMicro",
      "params": [
        {
          "id": 0,
          "value": 0.0
        },
        {
          "id": 1,
          "value": 1.0
        },
        {
          "id": 2,
          "value": 1.0
        }
      ],
      "leftModuleId": 272,
      "rightModuleId": 274,
      "data": {
        "textScrolling": true,
        "mappingIndicatorHidden": false,
        "maps": [
          {
            "moduleId": 272,
            "paramId": 4
          }
        ],
        "lockParameterChanges": true,
        "bipolarInput": false,
        "panelTheme": 0,
        "invertedOutput": false
      },
      "pos": [
        110,
        2
      ]
    },
    {
      "id": 279,
      "plugin": "VCV-Parametra",
      "version": "1.0.0",
      "model": "Parametra",
      "params": [
        {
          "id": 0,
          "value": 1.0
        }
      ],
      "leftModuleId": 290,
      "data": {
        "nodes": [
          {
            "filterId": 204,
            "enabled": true,
            "freq": 47.3687973,
            "gain": 0.494768798
          },
          {
            "filterId": 300,
            "enabled": false,
            "freq": 669.188477,
            "gain": 0.567406654
          },
          {
            "filterId": 601,
            "enabled": true,
            "freq": 164.478912,
            "gain": 0.809962332
          },
          {
            "filterId": 602,
            "enabled": false,
            "freq": 426.188202,
            "gain": 1.0
          },
          {
            "filterId": 602,
            "enabled": false,
            "freq": 938.55249,
            "gain": 1.0
          },
          {
            "filterId": 602,
            "enabled": false,
            "freq": 2066.88281,
            "gain": 1.0
          },
          {
            "filterId": 400,
            "enabled": true,
            "freq": 724.89209,
            "gain": 0.7410236
          },
          {
            "filterId": 102,
            "enabled": false,
            "freq": 10023.7471,
            "gain": 1.0
          }
        ],
        "bypassed": false,
        "spectrumOff": false,
        "spectrumPre": false
      },
      "pos": [
        80,
        0
      ]
    },
    {
      "id": 281,
      "plugin": "Bogaudio",
      "version": "1.1.26",
      "model": "Bogaudio-Stack",
      "params": [
        {
          "id": 0,
          "value": 1.0
        },
        {
          "id": 1,
          "value": -1.0
        },
        {
          "id": 2,
          "value": 0.0
        },
        {
          "id": 3,
          "value": 1.0
        }
      ],
      "leftModuleId": 227,
      "rightModuleId": 251,
      "pos": [
        60,
        1
      ]
    },
    {
      "id": 282,
      "plugin": "VCV-Parametra",
      "version": "1.0.0",
      "model": "Parametra",
      "params": [
        {
          "id": 0,
          "value": 3.1107118e-33
        }
      ],
      "leftModuleId": 244,
      "rightModuleId": 1,
      "data": {
        "nodes": [
          {
            "filterId": 203,
            "enabled": true,
            "freq": 30.1519184,
            "gain": 0.653112829
          },
          {
            "filterId": 300,
            "enabled": false,
            "freq": 669.188477,
            "gain": 0.567406654
          },
          {
            "filterId": 602,
            "enabled": true,
            "freq": 242.555511,
            "gain": 0.846914887
          },
          {
            "filterId": 602,
            "enabled": false,
            "freq": 426.188202,
            "gain": 1.0
          },
          {
            "filterId": 602,
            "enabled": false,
            "freq": 938.55249,
            "gain": 1.0
          },
          {
            "filterId": 602,
            "enabled": false,
            "freq": 2066.88281,
            "gain": 1.0
          },
          {
            "filterId": 400,
            "enabled": true,
            "freq": 1344.31128,
            "gain": 1.22350395
          },
          {
            "filterId": 102,
            "enabled": true,
            "freq": 10276.1602,
            "gain": 0.747785926
          }
        ],
        "bypassed": false,
        "spectrumOff": false,
        "spectrumPre": false
      },
      "pos": [
        96,
        1
      ]
    },
    {
      "id": 285,
      "plugin": "AS",
      "version": "1.0.3",
      "model": "Mixer2ch",
      "params": [
        {
          "id": 0,
          "value": 0.800000012
        },
        {
          "id": 1,
          "value": 0.800000012
        },
        {
          "id": 2,
          "value": 0.800000012
        },
        {
          "id": 3,
          "value": -0.150000021
        },
        {
          "id": 4,
          "value": 0.156000018
        },
        {
          "id": 5,
          "value": 0.0
        },
        {
          "id": 6,
          "value": 0.0
        },
        {
          "id": 7,
          "value": 0.0
        }
      ],
      "leftModuleId": 222,
      "rightModuleId": 265,
      "data": {
        "as_Mixer2Mutes": [
          0,
          0,
          0
        ]
      },
      "pos": [
        35,
        3
      ]
    },
    {
      "id": 286,
      "plugin": "rcm",
      "version": "1.1.0",
      "model": "rcm-sync",
      "params": [],
      "leftModuleId": 287,
      "rightModuleId": 203,
      "data": {
        "backgroundHue": 1.0,
        "backgroundSaturation": 0.600000024,
        "backgroundLuminosity": 0.400000006
      },
      "pos": [
        20,
        1
      ]
    },
    {
      "id": 287,
      "plugin": "AS",
      "version": "1.0.3",
      "model": "TriggersMKIII",
      "params": [
        {
          "id": 0,
          "value": 0.0
        },
        {
          "id": 1,
          "value": 0.0
        }
      ],
      "rightModuleId": 286,
      "data": {
        "label1": "",
        "label2": ""
      },
      "pos": [
        14,
        1
      ]
    },
    {
      "id": 289,
      "plugin": "VultModulesFree",
      "version": "1.7.0",
      "model": "UtilSend",
      "params": [
        {
          "id": 0,
          "value": 0.0
        },
        {
          "id": 1,
          "value": 1.0
        }
      ],
      "leftModuleId": 266,
      "rightModuleId": 292,
      "pos": [
        58,
        0
      ]
    },
    {
      "id": 290,
      "plugin": "Fundamental",
      "version": "1.4.0",
      "model": "Delay",
      "params": [
        {
          "id": 0,
          "value": 0.280500174
        },
        {
          "id": 1,
          "value": 0.51949954
        },
        {
          "id": 2,
          "value": 0.558500707
        },
        {
          "id": 3,
          "value": 0.417499781
        }
      ],
      "leftModuleId": 292,
      "rightModuleId": 279,
      "pos": [
        72,
        0
      ]
    },
    {
      "id": 292,
      "plugin": "VultModulesFree",
      "version": "1.7.0",
      "model": "Debriatus",
      "params": [
        {
          "id": 0,
          "value": 0.0749999732
        },
        {
          "id": 1,
          "value": 0.0
        },
        {
          "id": 2,
          "value": 0.0
        },
        {
          "id": 3,
          "value": 0.0
        },
        {
          "id": 4,
          "value": 0.131999969
        },
        {
          "id": 5,
          "value": 0.146999821
        },
        {
          "id": 6,
          "value": 0.0
        },
        {
          "id": 7,
          "value": 0.0
        }
      ],
      "leftModuleId": 289,
      "rightModuleId": 290,
      "pos": [
        62,
        0
      ]
    },
    {
      "id": 293,
      "plugin": "Stoermelder-P1",
      "version": "1.5.0",
      "model": "CVMapMicro",
      "params": [
        {
          "id": 0,
          "value": 0.0
        },
        {
          "id": 1,
          "value": 0.0
        },
        {
          "id": 2,
          "value": 1.0
        }
      ],
      "leftModuleId": 1,
      "data": {
        "textScrolling": true,
        "mappingIndicatorHidden": false,
        "maps": [
          {
            "moduleId": 282,
            "paramId": 0
          }
        ],
        "lockParameterChanges": true,
        "bipolarInput": false,
        "panelTheme": 0,
        "invertedOutput": false
      },
      "pos": [
        144,
        1
      ]
    }
  ],
  "cables": [
    {
      "id": 1038,
      "outputModuleId": 203,
      "outputId": 0,
      "inputModuleId": 204,
      "inputId": 0,
      "color": "#c91847"
    },
    {
      "id": 1039,
      "outputModuleId": 203,
      "outputId": 7,
      "inputModuleId": 204,
      "inputId": 2,
      "color": "#0986ad"
    },
    {
      "id": 1045,
      "outputModuleId": 193,
      "outputId": 1,
      "inputModuleId": 254,
      "inputId": 5,
      "color": "#0c8e15"
    },
    {
      "id": 1054,
      "outputModuleId": 253,
      "outputId": 0,
      "inputModuleId": 255,
      "inputId": 0,
      "color": "#0986ad"
    },
    {
      "id": 1055,
      "outputModuleId": 253,
      "outputId": 0,
      "inputModuleId": 255,
      "inputId": 1,
      "color": "#c9b70e"
    },
    {
      "id": 1057,
      "outputModuleId": 243,
      "outputId": 0,
      "inputModuleId": 253,
      "inputId": 2,
      "color": "#c91847"
    },
    {
      "id": 1058,
      "outputModuleId": 204,
      "outputId": 3,
      "inputModuleId": 255,
      "inputId": 4,
      "color": "#0986ad"
    },
    {
      "id": 1060,
      "outputModuleId": 204,
      "outputId": 3,
      "inputModuleId": 227,
      "inputId": 4,
      "color": "#c91847"
    },
    {
      "id": 1061,
      "outputModuleId": 204,
      "outputId": 1,
      "inputModuleId": 227,
      "inputId": 5,
      "color": "#0986ad"
    },
    {
      "id": 1062,
      "outputModuleId": 204,
      "outputId": 3,
      "inputModuleId": 227,
      "inputId": 6,
      "color": "#c9b70e"
    },
    {
      "id": 1063,
      "outputModuleId": 203,
      "outputId": 5,
      "inputModuleId": 227,
      "inputId": 7,
      "color": "#0c8e15"
    },
    {
      "id": 1064,
      "outputModuleId": 204,
      "outputId": 3,
      "inputModuleId": 226,
      "inputId": 1,
      "color": "#c91847"
    },
    {
      "id": 1065,
      "outputModuleId": 226,
      "outputId": 2,
      "inputModuleId": 227,
      "inputId": 8,
      "color": "#0986ad"
    },
    {
      "id": 1066,
      "outputModuleId": 204,
      "outputId": 3,
      "inputModuleId": 227,
      "inputId": 9,
      "color": "#c9b70e"
    },
    {
      "id": 1049,
      "outputModuleId": 200,
      "outputId": 3,
      "inputModuleId": 254,
      "inputId": 0,
      "color": "#0c8e15"
    },
    {
      "id": 1068,
      "outputModuleId": 227,
      "outputId": 8,
      "inputModuleId": 256,
      "inputId": 0,
      "color": "#c91847"
    },
    {
      "id": 1069,
      "outputModuleId": 254,
      "outputId": 1,
      "inputModuleId": 256,
      "inputId": 5,
      "color": "#0986ad"
    },
    {
      "id": 1070,
      "outputModuleId": 203,
      "outputId": 7,
      "inputModuleId": 226,
      "inputId": 2,
      "color": "#c9b70e"
    },
    {
      "id": 1042,
      "outputModuleId": 257,
      "outputId": 1,
      "inputModuleId": 200,
      "inputId": 0,
      "color": "#c91847"
    },
    {
      "id": 1072,
      "outputModuleId": 251,
      "outputId": 0,
      "inputModuleId": 257,
      "inputId": 1,
      "color": "#c91847"
    },
    {
      "id": 1048,
      "outputModuleId": 256,
      "outputId": 0,
      "inputModuleId": 225,
      "inputId": 0,
      "color": "#c9b70e"
    },
    {
      "id": 1076,
      "outputModuleId": 256,
      "outputId": 0,
      "inputModuleId": 201,
      "inputId": 7,
      "color": "#c91847"
    },
    {
      "id": 1080,
      "outputModuleId": 204,
      "outputId": 3,
      "inputModuleId": 258,
      "inputId": 0,
      "color": "#0986ad"
    },
    {
      "id": 1077,
      "outputModuleId": 201,
      "outputId": 0,
      "inputModuleId": 258,
      "inputId": 5,
      "color": "#0986ad"
    },
    {
      "id": 1081,
      "outputModuleId": 258,
      "outputId": 0,
      "inputModuleId": 223,
      "inputId": 0,
      "color": "#c9b70e"
    },
    {
      "id": 1085,
      "outputModuleId": 257,
      "outputId": 1,
      "inputModuleId": 223,
      "inputId": 5,
      "color": "#c9b70e"
    },
    {
      "id": 1086,
      "outputModuleId": 257,
      "outputId": 1,
      "inputModuleId": 223,
      "inputId": 6,
      "color": "#0c8e15"
    },
    {
      "id": 1082,
      "outputModuleId": 258,
      "outputId": 0,
      "inputModuleId": 223,
      "inputId": 1,
      "color": "#0c8e15"
    },
    {
      "id": 1091,
      "outputModuleId": 223,
      "outputId": 0,
      "inputModuleId": 261,
      "inputId": 5,
      "color": "#0986ad"
    },
    {
      "id": 1092,
      "outputModuleId": 223,
      "outputId": 1,
      "inputModuleId": 261,
      "inputId": 6,
      "color": "#c9b70e"
    },
    {
      "id": 1093,
      "outputModuleId": 261,
      "outputId": 0,
      "inputModuleId": 244,
      "inputId": 1,
      "color": "#0c8e15"
    },
    {
      "id": 1094,
      "outputModuleId": 261,
      "outputId": 1,
      "inputModuleId": 244,
      "inputId": 10,
      "color": "#c91847"
    },
    {
      "id": 1095,
      "outputModuleId": 203,
      "outputId": 5,
      "inputModuleId": 261,
      "inputId": 7,
      "color": "#0986ad"
    },
    {
      "id": 1079,
      "outputModuleId": 257,
      "outputId": 1,
      "inputModuleId": 262,
      "inputId": 1,
      "color": "#0c8e15"
    },
    {
      "id": 1096,
      "outputModuleId": 262,
      "outputId": 1,
      "inputModuleId": 201,
      "inputId": 6,
      "color": "#c9b70e"
    },
    {
      "id": 1056,
      "outputModuleId": 240,
      "outputId": 1,
      "inputModuleId": 243,
      "inputId": 0,
      "color": "#0c8e15"
    },
    {
      "id": 1101,
      "outputModuleId": 240,
      "outputId": 0,
      "inputModuleId": 228,
      "inputId": 0,
      "color": "#0c8e15"
    },
    {
      "id": 1098,
      "outputModuleId": 203,
      "outputId": 5,
      "inputModuleId": 228,
      "inputId": 7,
      "color": "#c91847"
    },
    {
      "id": 1099,
      "outputModuleId": 204,
      "outputId": 1,
      "inputModuleId": 228,
      "inputId": 6,
      "color": "#0986ad"
    },
    {
      "id": 1100,
      "outputModuleId": 204,
      "outputId": 3,
      "inputModuleId": 228,
      "inputId": 5,
      "color": "#c9b70e"
    },
    {
      "id": 1102,
      "outputModuleId": 228,
      "outputId": 8,
      "inputModuleId": 209,
      "inputId": 0,
      "color": "#c91847"
    },
    {
      "id": 1114,
      "outputModuleId": 240,
      "outputId": 8,
      "inputModuleId": 201,
      "inputId": 0,
      "color": "#c91847"
    },
    {
      "id": 1115,
      "outputModuleId": 240,
      "outputId": 9,
      "inputModuleId": 201,
      "inputId": 2,
      "color": "#0986ad"
    },
    {
      "id": 1118,
      "outputModuleId": 263,
      "outputId": 8,
      "inputModuleId": 212,
      "inputId": 0,
      "color": "#0986ad"
    },
    {
      "id": 1120,
      "outputModuleId": 204,
      "outputId": 3,
      "inputModuleId": 263,
      "inputId": 6,
      "color": "#0c8e15"
    },
    {
      "id": 1121,
      "outputModuleId": 204,
      "outputId": 1,
      "inputModuleId": 263,
      "inputId": 5,
      "color": "#c91847"
    },
    {
      "id": 1122,
      "outputModuleId": 240,
      "outputId": 3,
      "inputModuleId": 263,
      "inputId": 0,
      "color": "#c9b70e"
    },
    {
      "id": 1119,
      "outputModuleId": 226,
      "outputId": 2,
      "inputModuleId": 263,
      "inputId": 7,
      "color": "#c9b70e"
    },
    {
      "id": 1124,
      "outputModuleId": 204,
      "outputId": 3,
      "inputModuleId": 264,
      "inputId": 7,
      "color": "#0986ad"
    },
    {
      "id": 1125,
      "outputModuleId": 226,
      "outputId": 2,
      "inputModuleId": 264,
      "inputId": 5,
      "color": "#c9b70e"
    },
    {
      "id": 1126,
      "outputModuleId": 203,
      "outputId": 4,
      "inputModuleId": 264,
      "inputId": 6,
      "color": "#0c8e15"
    },
    {
      "id": 1127,
      "outputModuleId": 264,
      "outputId": 8,
      "inputModuleId": 222,
      "inputId": 0,
      "color": "#c91847"
    },
    {
      "id": 1131,
      "outputModuleId": 240,
      "outputId": 4,
      "inputModuleId": 264,
      "inputId": 0,
      "color": "#c91847"
    },
    {
      "id": 1132,
      "outputModuleId": 265,
      "outputId": 0,
      "inputModuleId": 244,
      "inputId": 3,
      "color": "#0986ad"
    },
    {
      "id": 1133,
      "outputModuleId": 265,
      "outputId": 1,
      "inputModuleId": 244,
      "inputId": 12,
      "color": "#c9b70e"
    },
    {
      "id": 1137,
      "outputModuleId": 225,
      "outputId": 0,
      "inputModuleId": 266,
      "inputId": 0,
      "color": "#c9b70e"
    },
    {
      "id": 1138,
      "outputModuleId": 240,
      "outputId": 10,
      "inputModuleId": 261,
      "inputId": 1,
      "color": "#0c8e15"
    },
    {
      "id": 1139,
      "outputModuleId": 240,
      "outputId": 10,
      "inputModuleId": 261,
      "inputId": 3,
      "color": "#c91847"
    },
    {
      "id": 1134,
      "outputModuleId": 240,
      "outputId": 11,
      "inputModuleId": 265,
      "inputId": 1,
      "color": "#0c8e15"
    },
    {
      "id": 1135,
      "outputModuleId": 240,
      "outputId": 11,
      "inputModuleId": 265,
      "inputId": 3,
      "color": "#c91847"
    },
    {
      "id": 1141,
      "outputModuleId": 243,
      "outputId": 1,
      "inputModuleId": 244,
      "inputId": 18,
      "color": "#c9b70e"
    },
    {
      "id": 1140,
      "outputModuleId": 209,
      "outputId": 2,
      "inputModuleId": 243,
      "inputId": 1,
      "color": "#0986ad"
    },
    {
      "id": 1144,
      "outputModuleId": 204,
      "outputId": 3,
      "inputModuleId": 269,
      "inputId": 1,
      "color": "#0986ad"
    },
    {
      "id": 1145,
      "outputModuleId": 203,
      "outputId": 5,
      "inputModuleId": 270,
      "inputId": 0,
      "color": "#c9b70e"
    },
    {
      "id": 1147,
      "outputModuleId": 203,
      "outputId": 4,
      "inputModuleId": 269,
      "inputId": 0,
      "color": "#c91847"
    },
    {
      "id": 1148,
      "outputModuleId": 204,
      "outputId": 3,
      "inputModuleId": 270,
      "inputId": 1,
      "color": "#0986ad"
    },
    {
      "id": 1149,
      "outputModuleId": 269,
      "outputId": 0,
      "inputModuleId": 271,
      "inputId": 4,
      "color": "#c9b70e"
    },
    {
      "id": 1150,
      "outputModuleId": 270,
      "outputId": 0,
      "inputModuleId": 271,
      "inputId": 5,
      "color": "#0c8e15"
    },
    {
      "id": 1151,
      "outputModuleId": 269,
      "outputId": 1,
      "inputModuleId": 271,
      "inputId": 6,
      "color": "#c91847"
    },
    {
      "id": 1152,
      "outputModuleId": 270,
      "outputId": 1,
      "inputModuleId": 271,
      "inputId": 7,
      "color": "#0986ad"
    },
    {
      "id": 1153,
      "outputModuleId": 204,
      "outputId": 3,
      "inputModuleId": 271,
      "inputId": 1,
      "color": "#c9b70e"
    },
    {
      "id": 1155,
      "outputModuleId": 253,
      "outputId": 0,
      "inputModuleId": 215,
      "inputId": 1,
      "color": "#c91847"
    },
    {
      "id": 1158,
      "outputModuleId": 273,
      "outputId": 1,
      "inputModuleId": 272,
      "inputId": 0,
      "color": "#0c8e15"
    },
    {
      "id": 1159,
      "outputModuleId": 271,
      "outputId": 8,
      "inputModuleId": 215,
      "inputId": 4,
      "color": "#c91847"
    },
    {
      "id": 1160,
      "outputModuleId": 272,
      "outputId": 1,
      "inputModuleId": 274,
      "inputId": 5,
      "color": "#0986ad"
    },
    {
      "id": 1154,
      "outputModuleId": 275,
      "outputId": 0,
      "inputModuleId": 273,
      "inputId": 1,
      "color": "#0c8e15"
    },
    {
      "id": 1163,
      "outputModuleId": 215,
      "outputId": 8,
      "inputModuleId": 275,
      "inputId": 2,
      "color": "#c91847"
    },
    {
      "id": 1166,
      "outputModuleId": 220,
      "outputId": 0,
      "inputModuleId": 244,
      "inputId": 4,
      "color": "#0c8e15"
    },
    {
      "id": 1167,
      "outputModuleId": 220,
      "outputId": 1,
      "inputModuleId": 244,
      "inputId": 13,
      "color": "#c91847"
    },
    {
      "id": 1168,
      "outputModuleId": 274,
      "outputId": 0,
      "inputModuleId": 220,
      "inputId": 1,
      "color": "#0986ad"
    },
    {
      "id": 1169,
      "outputModuleId": 274,
      "outputId": 0,
      "inputModuleId": 220,
      "inputId": 0,
      "color": "#c9b70e"
    },
    {
      "id": 1170,
      "outputModuleId": 203,
      "outputId": 2,
      "inputModuleId": 276,
      "inputId": 0,
      "color": "#0c8e15"
    },
    {
      "id": 1171,
      "outputModuleId": 203,
      "outputId": 7,
      "inputModuleId": 276,
      "inputId": 2,
      "color": "#c91847"
    },
    {
      "id": 1172,
      "outputModuleId": 204,
      "outputId": 3,
      "inputModuleId": 277,
      "inputId": 1,
      "color": "#0986ad"
    },
    {
      "id": 1173,
      "outputModuleId": 203,
      "outputId": 7,
      "inputModuleId": 277,
      "inputId": 2,
      "color": "#c9b70e"
    },
    {
      "id": 1174,
      "outputModuleId": 203,
      "outputId": 7,
      "inputModuleId": 271,
      "inputId": 2,
      "color": "#0c8e15"
    },
    {
      "id": 1161,
      "outputModuleId": 243,
      "outputId": 2,
      "inputModuleId": 274,
      "inputId": 0,
      "color": "#c9b70e"
    },
    {
      "id": 1175,
      "outputModuleId": 271,
      "outputId": 8,
      "inputModuleId": 243,
      "inputId": 2,
      "color": "#c91847"
    },
    {
      "id": 1176,
      "outputModuleId": 277,
      "outputId": 8,
      "inputModuleId": 243,
      "inputId": 10,
      "color": "#0986ad"
    },
    {
      "id": 1177,
      "outputModuleId": 277,
      "outputId": 8,
      "inputModuleId": 243,
      "inputId": 3,
      "color": "#c9b70e"
    },
    {
      "id": 1178,
      "outputModuleId": 243,
      "outputId": 3,
      "inputModuleId": 243,
      "inputId": 18,
      "color": "#0c8e15"
    },
    {
      "id": 1179,
      "outputModuleId": 276,
      "outputId": 0,
      "inputModuleId": 277,
      "inputId": 4,
      "color": "#c91847"
    },
    {
      "id": 1180,
      "outputModuleId": 276,
      "outputId": 1,
      "inputModuleId": 277,
      "inputId": 5,
      "color": "#0986ad"
    },
    {
      "id": 1181,
      "outputModuleId": 276,
      "outputId": 3,
      "inputModuleId": 277,
      "inputId": 6,
      "color": "#c9b70e"
    },
    {
      "id": 1182,
      "outputModuleId": 240,
      "outputId": 5,
      "inputModuleId": 244,
      "inputId": 22,
      "color": "#0c8e15"
    },
    {
      "id": 1185,
      "outputModuleId": 262,
      "outputId": 1,
      "inputModuleId": 278,
      "inputId": 0,
      "color": "#c9b70e"
    },
    {
      "id": 1186,
      "outputModuleId": 279,
      "outputId": 0,
      "inputModuleId": 244,
      "inputId": 0,
      "color": "#c9b70e"
    },
    {
      "id": 1187,
      "outputModuleId": 279,
      "outputId": 0,
      "inputModuleId": 244,
      "inputId": 9,
      "color": "#0c8e15"
    },
    {
      "id": 1103,
      "outputModuleId": 209,
      "outputId": 0,
      "inputModuleId": 279,
      "inputId": 25,
      "color": "#0986ad"
    },
    {
      "id": 1188,
      "outputModuleId": 279,
      "outputId": 1,
      "inputModuleId": 244,
      "inputId": 2,
      "color": "#c91847"
    },
    {
      "id": 1189,
      "outputModuleId": 279,
      "outputId": 1,
      "inputModuleId": 244,
      "inputId": 11,
      "color": "#0986ad"
    },
    {
      "id": 1190,
      "outputModuleId": 281,
      "outputId": 1,
      "inputModuleId": 251,
      "inputId": 2,
      "color": "#c9b70e"
    },
    {
      "id": 1052,
      "outputModuleId": 255,
      "outputId": 8,
      "inputModuleId": 281,
      "inputId": 1,
      "color": "#c9b70e"
    },
    {
      "id": 1046,
      "outputModuleId": 244,
      "outputId": 0,
      "inputModuleId": 282,
      "inputId": 24,
      "color": "#c91847"
    },
    {
      "id": 1047,
      "outputModuleId": 244,
      "outputId": 1,
      "inputModuleId": 282,
      "inputId": 25,
      "color": "#0986ad"
    },
    {
      "id": 1191,
      "outputModuleId": 282,
      "outputId": 0,
      "inputModuleId": 1,
      "inputId": 0,
      "color": "#0c8e15"
    },
    {
      "id": 1192,
      "outputModuleId": 282,
      "outputId": 1,
      "inputModuleId": 1,
      "inputId": 1,
      "color": "#c91847"
    },
    {
      "id": 1136,
      "outputModuleId": 203,
      "outputId": 5,
      "inputModuleId": 265,
      "inputId": 7,
      "color": "#0986ad"
    },
    {
      "id": 1128,
      "outputModuleId": 222,
      "outputId": 2,
      "inputModuleId": 285,
      "inputId": 1,
      "color": "#0986ad"
    },
    {
      "id": 1116,
      "outputModuleId": 212,
      "outputId": 2,
      "inputModuleId": 285,
      "inputId": 4,
      "color": "#c9b70e"
    },
    {
      "id": 1193,
      "outputModuleId": 285,
      "outputId": 0,
      "inputModuleId": 265,
      "inputId": 5,
      "color": "#0c8e15"
    },
    {
      "id": 1194,
      "outputModuleId": 285,
      "outputId": 1,
      "inputModuleId": 265,
      "inputId": 6,
      "color": "#c91847"
    },
    {
      "id": 1195,
      "outputModuleId": 203,
      "outputId": 5,
      "inputModuleId": 286,
      "inputId": 0,
      "color": "#0986ad"
    },
    {
      "id": 1196,
      "outputModuleId": 287,
      "outputId": 0,
      "inputModuleId": 286,
      "inputId": 1,
      "color": "#0c8e15"
    },
    {
      "id": 1197,
      "outputModuleId": 286,
      "outputId": 1,
      "inputModuleId": 203,
      "inputId": 2,
      "color": "#c91847"
    },
    {
      "id": 1043,
      "outputModuleId": 200,
      "outputId": 3,
      "inputModuleId": 193,
      "inputId": 2,
      "color": "#0986ad"
    },
    {
      "id": 1075,
      "outputModuleId": 256,
      "outputId": 1,
      "inputModuleId": 225,
      "inputId": 6,
      "color": "#0c8e15"
    },
    {
      "id": 1071,
      "outputModuleId": 255,
      "outputId": 9,
      "inputModuleId": 227,
      "inputId": 0,
      "color": "#0c8e15"
    },
    {
      "id": 1074,
      "outputModuleId": 266,
      "outputId": 0,
      "inputModuleId": 289,
      "inputId": 1,
      "color": "#c9b70e"
    },
    {
      "id": 1199,
      "outputModuleId": 289,
      "outputId": 0,
      "inputModuleId": 279,
      "inputId": 24,
      "color": "#c9b70e"
    },
    {
      "id": 1200,
      "outputModuleId": 243,
      "outputId": 4,
      "inputModuleId": 290,
      "inputId": 0,
      "color": "#0c8e15"
    },
    {
      "id": 1201,
      "outputModuleId": 240,
      "outputId": 12,
      "inputModuleId": 243,
      "inputId": 4,
      "color": "#c91847"
    },
    {
      "id": 1203,
      "outputModuleId": 290,
      "outputId": 0,
      "inputModuleId": 289,
      "inputId": 3,
      "color": "#c9b70e"
    },
    {
      "id": 1204,
      "outputModuleId": 240,
      "outputId": 1,
      "inputModuleId": 289,
      "inputId": 0,
      "color": "#0c8e15"
    },
    {
      "id": 1202,
      "outputModuleId": 289,
      "outputId": 2,
      "inputModuleId": 292,
      "inputId": 0,
      "color": "#0986ad"
    },
    {
      "id": 1205,
      "outputModuleId": 292,
      "outputId": 0,
      "inputModuleId": 290,
      "inputId": 4,
      "color": "#c91847"
    },
    {
      "id": 1206,
      "outputModuleId": 256,
      "outputId": 1,
      "inputModuleId": 292,
      "inputId": 1,
      "color": "#0986ad"
    },
    {
      "id": 1208,
      "outputModuleId": 256,
      "outputId": 1,
      "inputModuleId": 292,
      "inputId": 2,
      "color": "#0c8e15"
    },
    {
      "id": 1210,
      "outputModuleId": 240,
      "outputId": 13,
      "inputModuleId": 220,
      "inputId": 7,
      "color": "#0986ad"
    },
    {
      "id": 1209,
      "outputModuleId": 272,
      "outputId": 1,
      "inputModuleId": 272,
      "inputId": 1,
      "color": "#c91847"
    },
    {
      "id": 1184,
      "outputModuleId": 240,
      "outputId": 13,
      "inputModuleId": 278,
      "inputId": 2,
      "color": "#0986ad"
    },
    {
      "id": 1097,
      "outputModuleId": 240,
      "outputId": 2,
      "inputModuleId": 243,
      "inputId": 5,
      "color": "#0c8e15"
    },
    {
      "id": 1211,
      "outputModuleId": 243,
      "outputId": 5,
      "inputModuleId": 262,
      "inputId": 0,
      "color": "#c9b70e"
    },
    {
      "id": 1212,
      "outputModuleId": 240,
      "outputId": 15,
      "inputModuleId": 243,
      "inputId": 6,
      "color": "#c9b70e"
    },
    {
      "id": 1213,
      "outputModuleId": 243,
      "outputId": 6,
      "inputModuleId": 293,
      "inputId": 2,
      "color": "#0c8e15"
    }
  ]
}