{
  "version": "1.dev.7a789af",
  "modules": [
    {
      "id": 1,
      "plugin": "Core",
      "version": "1.1.6",
      "model": "AudioInterface",
      "params": [],
      "leftModuleId": 65,
      "rightModuleId": 68,
      "data": {
        "audio": {
          "driver": 6,
          "deviceName": "Speaker / Headphone (Realtek(R) Audio)",
          "offset": 0,
          "maxChannels": 8,
          "sampleRate": 48000,
          "blockSize": 256
        }
      },
      "pos": [
        52,
        1
      ]
    },
    {
      "id": 18,
      "plugin": "CatroModulo",
      "version": "1.0.2",
      "model": "CatroModulo_CM-4",
      "params": [
        {
          "id": 0,
          "value": 0.0
        },
        {
          "id": 1,
          "value": 0.0
        },
        {
          "id": 2,
          "value": 0.0
        }
      ],
      "leftModuleId": 61,
      "rightModuleId": 43,
      "pos": [
        11,
        0
      ]
    },
    {
      "id": 43,
      "plugin": "CatroModulo",
      "version": "1.0.2",
      "model": "CatroModulo_CM-9",
      "params": [
        {
          "id": 0,
          "value": 1.25149715
        }
      ],
      "leftModuleId": 18,
      "rightModuleId": 62,
      "pos": [
        16,
        0
      ]
    },
    {
      "id": 52,
      "plugin": "Fundamental",
      "version": "1.4.0",
      "model": "ADSR",
      "params": [
        {
          "id": 0,
          "value": 0.0
        },
        {
          "id": 1,
          "value": 0.140000433
        },
        {
          "id": 2,
          "value": 0.139499873
        },
        {
          "id": 3,
          "value": 0.45050016
        }
      ],
      "leftModuleId": 83,
      "rightModuleId": 60,
      "pos": [
        42,
        0
      ]
    },
    {
      "id": 55,
      "plugin": "Fundamental",
      "version": "1.4.0",
      "model": "VCO",
      "params": [
        {
          "id": 0,
          "value": 1.0
        },
        {
          "id": 1,
          "value": 1.0
        },
        {
          "id": 2,
          "value": 0.0
        },
        {
          "id": 3,
          "value": 0.0
        },
        {
          "id": 4,
          "value": 0.119500041
        },
        {
          "id": 5,
          "value": 0.5
        },
        {
          "id": 6,
          "value": 0.0
        }
      ],
      "leftModuleId": 87,
      "rightModuleId": 81,
      "pos": [
        66,
        0
      ]
    },
    {
      "id": 60,
      "plugin": "Fundamental",
      "version": "1.4.0",
      "model": "ADSR",
      "params": [
        {
          "id": 0,
          "value": 0.0
        },
        {
          "id": 1,
          "value": 0.277500033
        },
        {
          "id": 2,
          "value": 0.149999872
        },
        {
          "id": 3,
          "value": 0.459500134
        }
      ],
      "leftModuleId": 52,
      "rightModuleId": 86,
      "pos": [
        50,
        0
      ]
    },
    {
      "id": 61,
      "plugin": "CatroModulo",
      "version": "1.0.2",
      "model": "CatroModulo_CM-8",
      "params": [
        {
          "id": 0,
          "value": -4.73999929
        },
        {
          "id": 1,
          "value": 1.28999949
        },
        {
          "id": 2,
          "value": 1.0
        },
        {
          "id": 3,
          "value": 0.0
        }
      ],
      "leftModuleId": 74,
      "rightModuleId": 18,
      "pos": [
        6,
        0
      ]
    },
    {
      "id": 62,
      "plugin": "CatroModulo",
      "version": "1.0.2",
      "model": "CatroModulo_CM-9",
      "params": [
        {
          "id": 0,
          "value": 3.80300641
        }
      ],
      "leftModuleId": 43,
      "rightModuleId": 63,
      "pos": [
        21,
        0
      ]
    },
    {
      "id": 63,
      "plugin": "CatroModulo",
      "version": "1.0.2",
      "model": "CatroModulo_CM-9",
      "params": [
        {
          "id": 0,
          "value": 3.85300255
        }
      ],
      "leftModuleId": 62,
      "rightModuleId": 83,
      "pos": [
        26,
        0
      ]
    },
    {
      "id": 64,
      "plugin": "AS",
      "version": "1.0.3",
      "model": "DelayPlusStereoFx",
      "params": [
        {
          "id": 0,
          "value": 0.0
        },
        {
          "id": 1,
          "value": 0.5
        },
        {
          "id": 2,
          "value": 0.5
        },
        {
          "id": 3,
          "value": 0.0
        },
        {
          "id": 4,
          "value": 0.5
        },
        {
          "id": 5,
          "value": 0.5
        },
        {
          "id": 6,
          "value": 0.0
        },
        {
          "id": 7,
          "value": 0.0
        },
        {
          "id": 8,
          "value": 0.326000035
        },
        {
          "id": 9,
          "value": 0.0
        }
      ],
      "leftModuleId": 80,
      "rightModuleId": 65,
      "data": {
        "as_FxBypass": [
          false
        ]
      },
      "pos": [
        34,
        1
      ]
    },
    {
      "id": 65,
      "plugin": "AS",
      "version": "1.0.3",
      "model": "ReverbStereoFx",
      "params": [
        {
          "id": 0,
          "value": 0.503000259
        },
        {
          "id": 1,
          "value": 0.7099998
        },
        {
          "id": 2,
          "value": 0.331500441
        },
        {
          "id": 3,
          "value": 0.0
        }
      ],
      "leftModuleId": 64,
      "rightModuleId": 1,
      "data": {
        "as_FxBypass": [
          false
        ]
      },
      "pos": [
        46,
        1
      ]
    },
    {
      "id": 68,
      "plugin": "Fundamental",
      "version": "1.4.0",
      "model": "Scope",
      "params": [
        {
          "id": 0,
          "value": 1.0
        },
        {
          "id": 1,
          "value": 0.0
        },
        {
          "id": 2,
          "value": 1.0
        },
        {
          "id": 3,
          "value": 0.0
        },
        {
          "id": 4,
          "value": 13.8849974
        },
        {
          "id": 5,
          "value": 0.0
        },
        {
          "id": 6,
          "value": 0.0
        },
        {
          "id": 7,
          "value": 0.0
        }
      ],
      "leftModuleId": 1,
      "rightModuleId": 70,
      "data": {
        "lissajous": 0,
        "external": 1
      },
      "pos": [
        62,
        1
      ]
    },
    {
      "id": 70,
      "plugin": "CatroModulo",
      "version": "1.0.2",
      "model": "CatroModulo_CM-4",
      "params": [
        {
          "id": 0,
          "value": 0.0
        },
        {
          "id": 1,
          "value": 0.0
        },
        {
          "id": 2,
          "value": 0.0
        }
      ],
      "leftModuleId": 68,
      "pos": [
        75,
        1
      ]
    },
    {
      "id": 74,
      "plugin": "CatroModulo",
      "version": "1.0.2",
      "model": "CatroModulo_CM-6",
      "params": [],
      "leftModuleId": 85,
      "rightModuleId": 61,
      "pos": [
        5,
        0
      ]
    },
    {
      "id": 80,
      "plugin": "AS",
      "version": "1.0.3",
      "model": "Mixer4ch",
      "params": [
        {
          "id": 0,
          "value": 0.800000012
        },
        {
          "id": 1,
          "value": 0.778999865
        },
        {
          "id": 2,
          "value": 0.772999883
        },
        {
          "id": 3,
          "value": 0.562999725
        },
        {
          "id": 4,
          "value": 0.538999796
        },
        {
          "id": 5,
          "value": -0.575999975
        },
        {
          "id": 6,
          "value": 0.578999758
        },
        {
          "id": 7,
          "value": 0.0
        },
        {
          "id": 8,
          "value": 0.0
        },
        {
          "id": 9,
          "value": 0.0
        },
        {
          "id": 10,
          "value": 0.0
        },
        {
          "id": 11,
          "value": 0.0
        },
        {
          "id": 12,
          "value": 0.0
        },
        {
          "id": 13,
          "value": 0.0
        }
      ],
      "leftModuleId": 82,
      "rightModuleId": 64,
      "data": {
        "as_Mixer4Mutes": [
          0,
          0,
          0,
          0,
          0
        ]
      },
      "pos": [
        18,
        1
      ]
    },
    {
      "id": 81,
      "plugin": "Fundamental",
      "version": "1.4.0",
      "model": "VCO",
      "params": [
        {
          "id": 0,
          "value": 1.0
        },
        {
          "id": 1,
          "value": 1.0
        },
        {
          "id": 2,
          "value": 0.0
        },
        {
          "id": 3,
          "value": 0.0
        },
        {
          "id": 4,
          "value": 0.161999896
        },
        {
          "id": 5,
          "value": 0.5
        },
        {
          "id": 6,
          "value": 0.0
        }
      ],
      "leftModuleId": 55,
      "rightModuleId": 84,
      "pos": [
        76,
        0
      ]
    },
    {
      "id": 82,
      "plugin": "AS",
      "version": "1.0.3",
      "model": "DelayPlusStereoFx",
      "params": [
        {
          "id": 0,
          "value": 0.0900000036
        },
        {
          "id": 1,
          "value": 0.436999738
        },
        {
          "id": 2,
          "value": 0.5
        },
        {
          "id": 3,
          "value": 0.0900000036
        },
        {
          "id": 4,
          "value": 0.456500113
        },
        {
          "id": 5,
          "value": 0.5
        },
        {
          "id": 6,
          "value": 0.0
        },
        {
          "id": 7,
          "value": 0.0
        },
        {
          "id": 8,
          "value": 0.628000259
        },
        {
          "id": 9,
          "value": 0.0
        }
      ],
      "rightModuleId": 80,
      "data": {
        "as_FxBypass": [
          true
        ]
      },
      "pos": [
        6,
        1
      ]
    },
    {
      "id": 83,
      "plugin": "CatroModulo",
      "version": "1.0.2",
      "model": "CatroModulo_CM-2",
      "params": [
        {
          "id": 0,
          "value": -0.23999995
        },
        {
          "id": 1,
          "value": 0.26699996
        },
        {
          "id": 2,
          "value": -0.155999988
        },
        {
          "id": 3,
          "value": 0.0
        },
        {
          "id": 4,
          "value": 0.0
        },
        {
          "id": 5,
          "value": 0.0
        },
        {
          "id": 6,
          "value": 0.0
        },
        {
          "id": 7,
          "value": 0.0
        },
        {
          "id": 8,
          "value": 2.5999999
        },
        {
          "id": 9,
          "value": 0.0
        },
        {
          "id": 10,
          "value": 0.314999998
        },
        {
          "id": 11,
          "value": 0.0
        },
        {
          "id": 12,
          "value": 0.0
        },
        {
          "id": 13,
          "value": 0.0
        },
        {
          "id": 14,
          "value": 0.0
        },
        {
          "id": 15,
          "value": 0.0
        },
        {
          "id": 16,
          "value": 1.0
        }
      ],
      "leftModuleId": 63,
      "rightModuleId": 52,
      "pos": [
        31,
        0
      ]
    },
    {
      "id": 84,
      "plugin": "CatroModulo",
      "version": "1.0.2",
      "model": "CatroModulo_CM-6",
      "params": [],
      "leftModuleId": 81,
      "pos": [
        86,
        0
      ]
    },
    {
      "id": 85,
      "plugin": "NYSTHI",
      "version": "1.0.9",
      "model": "MasterRecorder",
      "params": [
        {
          "id": 0,
          "value": 0.0
        },
        {
          "id": 1,
          "value": 0.0
        },
        {
          "id": 2,
          "value": 0.0
        }
      ],
      "rightModuleId": 74,
      "data": {
        "nysthi_id": "MR_7Kra6M0b",
        "wavebits": 9,
        "m_attenuation": 1.0
      },
      "pos": [
        0,
        0
      ]
    },
    {
      "id": 86,
      "plugin": "JW-Modules",
      "version": "1.0.9",
      "model": "Quantizer",
      "params": [
        {
          "id": 0,
          "value": 5.0
        },
        {
          "id": 1,
          "value": 11.0
        }
      ],
      "leftModuleId": 60,
      "rightModuleId": 87,
      "data": {},
      "pos": [
        58,
        0
      ]
    },
    {
      "id": 87,
      "plugin": "JW-Modules",
      "version": "1.0.9",
      "model": "Quantizer",
      "params": [
        {
          "id": 0,
          "value": 5.0
        },
        {
          "id": 1,
          "value": 11.0
        }
      ],
      "leftModuleId": 86,
      "rightModuleId": 55,
      "data": {},
      "pos": [
        62,
        0
      ]
    }
  ],
  "cables": [
    {
      "id": 73,
      "outputModuleId": 18,
      "outputId": 5,
      "inputModuleId": 43,
      "inputId": 1,
      "color": "#c91847"
    },
    {
      "id": 74,
      "outputModuleId": 18,
      "outputId": 7,
      "inputModuleId": 43,
      "inputId": 2,
      "color": "#0986ad"
    },
    {
      "id": 82,
      "outputModuleId": 43,
      "outputId": 0,
      "inputModuleId": 52,
      "inputId": 4,
      "color": "#c9b70e"
    },
    {
      "id": 102,
      "outputModuleId": 43,
      "outputId": 8,
      "inputModuleId": 18,
      "inputId": 1,
      "color": "#c9b70e"
    },
    {
      "id": 80,
      "outputModuleId": 18,
      "outputId": 1,
      "inputModuleId": 43,
      "inputId": 0,
      "color": "#0c8e15"
    },
    {
      "id": 106,
      "outputModuleId": 18,
      "outputId": 5,
      "inputModuleId": 60,
      "inputId": 4,
      "color": "#c9b70e"
    },
    {
      "id": 109,
      "outputModuleId": 18,
      "outputId": 3,
      "inputModuleId": 61,
      "inputId": 2,
      "color": "#0986ad"
    },
    {
      "id": 110,
      "outputModuleId": 61,
      "outputId": 8,
      "inputModuleId": 55,
      "inputId": 1,
      "color": "#c9b70e"
    },
    {
      "id": 116,
      "outputModuleId": 63,
      "outputId": 8,
      "inputModuleId": 60,
      "inputId": 0,
      "color": "#0986ad"
    },
    {
      "id": 115,
      "outputModuleId": 62,
      "outputId": 8,
      "inputModuleId": 52,
      "inputId": 0,
      "color": "#c91847"
    },
    {
      "id": 117,
      "outputModuleId": 62,
      "outputId": 8,
      "inputModuleId": 60,
      "inputId": 1,
      "color": "#c9b70e"
    },
    {
      "id": 118,
      "outputModuleId": 63,
      "outputId": 8,
      "inputModuleId": 52,
      "inputId": 1,
      "color": "#0c8e15"
    },
    {
      "id": 119,
      "outputModuleId": 63,
      "outputId": 1,
      "inputModuleId": 52,
      "inputId": 2,
      "color": "#c91847"
    },
    {
      "id": 120,
      "outputModuleId": 62,
      "outputId": 2,
      "inputModuleId": 60,
      "inputId": 2,
      "color": "#0986ad"
    },
    {
      "id": 121,
      "outputModuleId": 62,
      "outputId": 0,
      "inputModuleId": 52,
      "inputId": 3,
      "color": "#c9b70e"
    },
    {
      "id": 123,
      "outputModuleId": 63,
      "outputId": 2,
      "inputModuleId": 60,
      "inputId": 3,
      "color": "#c91847"
    },
    {
      "id": 126,
      "outputModuleId": 62,
      "outputId": 8,
      "inputModuleId": 61,
      "inputId": 3,
      "color": "#0c8e15"
    },
    {
      "id": 131,
      "outputModuleId": 62,
      "outputId": 8,
      "inputModuleId": 64,
      "inputId": 0,
      "color": "#c91847"
    },
    {
      "id": 132,
      "outputModuleId": 63,
      "outputId": 8,
      "inputModuleId": 64,
      "inputId": 4,
      "color": "#0986ad"
    },
    {
      "id": 134,
      "outputModuleId": 61,
      "outputId": 6,
      "inputModuleId": 64,
      "inputId": 5,
      "color": "#0c8e15"
    },
    {
      "id": 133,
      "outputModuleId": 61,
      "outputId": 6,
      "inputModuleId": 64,
      "inputId": 1,
      "color": "#c9b70e"
    },
    {
      "id": 129,
      "outputModuleId": 64,
      "outputId": 2,
      "inputModuleId": 65,
      "inputId": 0,
      "color": "#c9b70e"
    },
    {
      "id": 130,
      "outputModuleId": 64,
      "outputId": 3,
      "inputModuleId": 65,
      "inputId": 1,
      "color": "#0c8e15"
    },
    {
      "id": 135,
      "outputModuleId": 65,
      "outputId": 0,
      "inputModuleId": 1,
      "inputId": 0,
      "color": "#c91847"
    },
    {
      "id": 136,
      "outputModuleId": 65,
      "outputId": 1,
      "inputModuleId": 1,
      "inputId": 1,
      "color": "#0986ad"
    },
    {
      "id": 142,
      "outputModuleId": 65,
      "outputId": 0,
      "inputModuleId": 68,
      "inputId": 0,
      "color": "#0986ad"
    },
    {
      "id": 143,
      "outputModuleId": 65,
      "outputId": 1,
      "inputModuleId": 68,
      "inputId": 1,
      "color": "#c9b70e"
    },
    {
      "id": 147,
      "outputModuleId": 70,
      "outputId": 6,
      "inputModuleId": 68,
      "inputId": 2,
      "color": "#c9b70e"
    },
    {
      "id": 148,
      "outputModuleId": 18,
      "outputId": 7,
      "inputModuleId": 62,
      "inputId": 2,
      "color": "#0c8e15"
    },
    {
      "id": 149,
      "outputModuleId": 18,
      "outputId": 7,
      "inputModuleId": 63,
      "inputId": 2,
      "color": "#c91847"
    },
    {
      "id": 146,
      "outputModuleId": 43,
      "outputId": 0,
      "inputModuleId": 70,
      "inputId": 0,
      "color": "#0986ad"
    },
    {
      "id": 113,
      "outputModuleId": 43,
      "outputId": 1,
      "inputModuleId": 62,
      "inputId": 1,
      "color": "#c9b70e"
    },
    {
      "id": 124,
      "outputModuleId": 61,
      "outputId": 9,
      "inputModuleId": 80,
      "inputId": 3,
      "color": "#0986ad"
    },
    {
      "id": 125,
      "outputModuleId": 61,
      "outputId": 9,
      "inputModuleId": 80,
      "inputId": 6,
      "color": "#c9b70e"
    },
    {
      "id": 152,
      "outputModuleId": 81,
      "outputId": 2,
      "inputModuleId": 81,
      "inputId": 1,
      "color": "#c91847"
    },
    {
      "id": 154,
      "outputModuleId": 62,
      "outputId": 3,
      "inputModuleId": 80,
      "inputId": 8,
      "color": "#c9b70e"
    },
    {
      "id": 155,
      "outputModuleId": 63,
      "outputId": 0,
      "inputModuleId": 80,
      "inputId": 11,
      "color": "#0c8e15"
    },
    {
      "id": 86,
      "outputModuleId": 80,
      "outputId": 1,
      "inputModuleId": 64,
      "inputId": 10,
      "color": "#0c8e15"
    },
    {
      "id": 85,
      "outputModuleId": 80,
      "outputId": 0,
      "inputModuleId": 64,
      "inputId": 9,
      "color": "#c9b70e"
    },
    {
      "id": 92,
      "outputModuleId": 55,
      "outputId": 0,
      "inputModuleId": 80,
      "inputId": 4,
      "color": "#0986ad"
    },
    {
      "id": 104,
      "outputModuleId": 55,
      "outputId": 1,
      "inputModuleId": 80,
      "inputId": 1,
      "color": "#c91847"
    },
    {
      "id": 156,
      "outputModuleId": 81,
      "outputId": 3,
      "inputModuleId": 82,
      "inputId": 9,
      "color": "#c91847"
    },
    {
      "id": 157,
      "outputModuleId": 81,
      "outputId": 0,
      "inputModuleId": 82,
      "inputId": 10,
      "color": "#0986ad"
    },
    {
      "id": 161,
      "outputModuleId": 82,
      "outputId": 2,
      "inputModuleId": 80,
      "inputId": 7,
      "color": "#0986ad"
    },
    {
      "id": 162,
      "outputModuleId": 82,
      "outputId": 3,
      "inputModuleId": 80,
      "inputId": 10,
      "color": "#c9b70e"
    },
    {
      "id": 170,
      "outputModuleId": 43,
      "outputId": 8,
      "inputModuleId": 83,
      "inputId": 0,
      "color": "#0c8e15"
    },
    {
      "id": 172,
      "outputModuleId": 62,
      "outputId": 8,
      "inputModuleId": 83,
      "inputId": 1,
      "color": "#0986ad"
    },
    {
      "id": 173,
      "outputModuleId": 63,
      "outputId": 8,
      "inputModuleId": 83,
      "inputId": 2,
      "color": "#c9b70e"
    },
    {
      "id": 169,
      "outputModuleId": 83,
      "outputId": 0,
      "inputModuleId": 82,
      "inputId": 1,
      "color": "#c9b70e"
    },
    {
      "id": 174,
      "outputModuleId": 83,
      "outputId": 1,
      "inputModuleId": 82,
      "inputId": 5,
      "color": "#0c8e15"
    },
    {
      "id": 175,
      "outputModuleId": 83,
      "outputId": 2,
      "inputModuleId": 82,
      "inputId": 0,
      "color": "#c91847"
    },
    {
      "id": 176,
      "outputModuleId": 83,
      "outputId": 2,
      "inputModuleId": 82,
      "inputId": 4,
      "color": "#0986ad"
    },
    {
      "id": 177,
      "outputModuleId": 63,
      "outputId": 3,
      "inputModuleId": 82,
      "inputId": 11,
      "color": "#c9b70e"
    },
    {
      "id": 151,
      "outputModuleId": 43,
      "outputId": 2,
      "inputModuleId": 63,
      "inputId": 1,
      "color": "#0c8e15"
    },
    {
      "id": 81,
      "outputModuleId": 52,
      "outputId": 0,
      "inputModuleId": 80,
      "inputId": 5,
      "color": "#0986ad"
    },
    {
      "id": 107,
      "outputModuleId": 60,
      "outputId": 0,
      "inputModuleId": 80,
      "inputId": 2,
      "color": "#0c8e15"
    },
    {
      "id": 180,
      "outputModuleId": 18,
      "outputId": 5,
      "inputModuleId": 18,
      "inputId": 0,
      "color": "#0986ad"
    },
    {
      "id": 181,
      "outputModuleId": 65,
      "outputId": 0,
      "inputModuleId": 85,
      "inputId": 0,
      "color": "#0c8e15"
    },
    {
      "id": 182,
      "outputModuleId": 65,
      "outputId": 1,
      "inputModuleId": 85,
      "inputId": 1,
      "color": "#c91847"
    },
    {
      "id": 108,
      "outputModuleId": 43,
      "outputId": 8,
      "inputModuleId": 86,
      "inputId": 2,
      "color": "#c91847"
    },
    {
      "id": 183,
      "outputModuleId": 86,
      "outputId": 0,
      "inputModuleId": 55,
      "inputId": 0,
      "color": "#0c8e15"
    },
    {
      "id": 158,
      "outputModuleId": 61,
      "outputId": 7,
      "inputModuleId": 87,
      "inputId": 2,
      "color": "#c9b70e"
    },
    {
      "id": 184,
      "outputModuleId": 87,
      "outputId": 0,
      "inputModuleId": 81,
      "inputId": 0,
      "color": "#c91847"
    }
  ]
}