{
  "version": "0.6.2c",
  "modules": [
    {
      "plugin": "Core",
      "version": "0.6.2c",
      "model": "AudioInterface",
      "params": [],
      "data": {
        "audio": {
          "driver": 7,
          "deviceName": "ASIO4ALL v2",
          "offset": 0,
          "maxChannels": 8,
          "sampleRate": 44100,
          "blockSize": 512
        }
      },
      "pos": [
        114,
        0
      ]
    },
    {
      "plugin": "MSM",
      "version": "0.6.51",
      "model": "Noise",
      "params": [
        {
          "paramId": 3,
          "value": 1.0
        },
        {
          "paramId": 0,
          "value": 0.0
        },
        {
          "paramId": 1,
          "value": 0.164500013
        },
        {
          "paramId": 2,
          "value": 0.99849999
        }
      ],
      "data": {
        "Theme": 0
      },
      "pos": [
        42,
        0
      ]
    },
    {
      "plugin": "Core",
      "version": "0.6.2c",
      "model": "MIDICCToCVInterface",
      "params": [],
      "data": {
        "ccs": [
          0,
          1,
          2,
          3,
          4,
          5,
          6,
          7,
          8,
          9,
          10,
          11,
          12,
          13,
          14,
          15
        ],
        "midi": {
          "driver": 4,
          "channel": -1
        }
      },
      "pos": [
        3,
        1
      ]
    },
    {
      "plugin": "Bogaudio",
      "version": "0.6.16",
      "model": "Bogaudio-DADSRHPlus",
      "params": [
        {
          "paramId": 0,
          "value": 0.0
        },
        {
          "paramId": 1,
          "value": 0.0449999943
        },
        {
          "paramId": 2,
          "value": 0.00600000005
        },
        {
          "paramId": 3,
          "value": 0.238499984
        },
        {
          "paramId": 4,
          "value": 0.0
        },
        {
          "paramId": 5,
          "value": 0.0
        },
        {
          "paramId": 6,
          "value": 1.0
        },
        {
          "paramId": 7,
          "value": 1.0
        },
        {
          "paramId": 8,
          "value": 1.0
        },
        {
          "paramId": 9,
          "value": 0.0
        },
        {
          "paramId": 10,
          "value": 1.0
        },
        {
          "paramId": 11,
          "value": 1.0
        },
        {
          "paramId": 12,
          "value": 1.0
        },
        {
          "paramId": 13,
          "value": 1.0
        }
      ],
      "data": {
        "triggerOnLoad": true,
        "shouldTriggerOnLoad": false
      },
      "pos": [
        13,
        1
      ]
    },
    {
      "plugin": "Blamsoft-XFXF35",
      "version": "0.6.0",
      "model": "Blamsoft-XFXF35",
      "params": [
        {
          "paramId": 0,
          "value": 0.0
        },
        {
          "paramId": 1,
          "value": 0.5
        },
        {
          "paramId": 2,
          "value": 0.571000278
        },
        {
          "paramId": 3,
          "value": 0.996999979
        },
        {
          "paramId": 4,
          "value": 0.950501144
        },
        {
          "paramId": 5,
          "value": 0.527000129
        },
        {
          "paramId": 6,
          "value": 1.0
        }
      ],
      "data": {
        "mode": 7
      },
      "pos": [
        49,
        0
      ]
    },
    {
      "plugin": "CatroModulo",
      "version": "0.6.6",
      "model": "CatroModulo_CM-5",
      "params": [
        {
          "paramId": 0,
          "value": 0.0
        }
      ],
      "pos": [
        15,
        0
      ]
    },
    {
      "plugin": "CatroModulo",
      "version": "0.6.6",
      "model": "CatroModulo_CM-4",
      "params": [
        {
          "paramId": 0,
          "value": 3.50700045
        },
        {
          "paramId": 2,
          "value": 2.0
        },
        {
          "paramId": 1,
          "value": 0.0
        }
      ],
      "pos": [
        10,
        0
      ]
    },
    {
      "plugin": "FrozenWasteland",
      "version": "0.6.7",
      "model": "BPMLFO",
      "params": [
        {
          "paramId": 0,
          "value": 0.0
        },
        {
          "paramId": 4,
          "value": 0.0
        },
        {
          "paramId": 1,
          "value": 0.0
        },
        {
          "paramId": 2,
          "value": 1.0
        },
        {
          "paramId": 3,
          "value": 0.0
        }
      ],
      "pos": [
        24,
        0
      ]
    },
    {
      "plugin": "Blamsoft-XFXF35",
      "version": "0.6.0",
      "model": "Blamsoft-XFXF35",
      "params": [
        {
          "paramId": 0,
          "value": 0.0
        },
        {
          "paramId": 1,
          "value": 0.5
        },
        {
          "paramId": 2,
          "value": 0.39100036
        },
        {
          "paramId": 3,
          "value": 1.0
        },
        {
          "paramId": 4,
          "value": 0.89800036
        },
        {
          "paramId": 5,
          "value": 0.516499758
        },
        {
          "paramId": 6,
          "value": 1.0
        }
      ],
      "data": {
        "mode": 16
      },
      "pos": [
        49,
        1
      ]
    },
    {
      "plugin": "Fundamental",
      "version": "0.6.2",
      "model": "VCA-1",
      "params": [
        {
          "paramId": 0,
          "value": 0.99849999
        },
        {
          "paramId": 1,
          "value": 1.0
        }
      ],
      "pos": [
        46,
        0
      ]
    },
    {
      "plugin": "Blamsoft-XFXF35",
      "version": "0.6.0",
      "model": "Blamsoft-XFXF35",
      "params": [
        {
          "paramId": 0,
          "value": 0.0
        },
        {
          "paramId": 1,
          "value": 0.5
        },
        {
          "paramId": 2,
          "value": 0.281499982
        },
        {
          "paramId": 3,
          "value": 1.0
        },
        {
          "paramId": 4,
          "value": 0.937000275
        },
        {
          "paramId": 5,
          "value": 0.548000216
        },
        {
          "paramId": 6,
          "value": 1.0
        }
      ],
      "data": {
        "mode": 16
      },
      "pos": [
        63,
        0
      ]
    },
    {
      "plugin": "Blamsoft-XFXF35",
      "version": "0.6.0",
      "model": "Blamsoft-XFXF35",
      "params": [
        {
          "paramId": 0,
          "value": 0.0
        },
        {
          "paramId": 1,
          "value": 0.5
        },
        {
          "paramId": 2,
          "value": 0.662499487
        },
        {
          "paramId": 3,
          "value": 1.0
        },
        {
          "paramId": 4,
          "value": 0.809500396
        },
        {
          "paramId": 5,
          "value": 0.519499898
        },
        {
          "paramId": 6,
          "value": 1.0
        }
      ],
      "data": {
        "mode": 16
      },
      "pos": [
        63,
        1
      ]
    },
    {
      "plugin": "AS",
      "version": "0.6.13",
      "model": "TriggersMKII",
      "params": [
        {
          "paramId": 0,
          "value": 27.3240051
        },
        {
          "paramId": 2,
          "value": 0.0
        },
        {
          "paramId": 1,
          "value": 0.0
        },
        {
          "paramId": 3,
          "value": 0.0
        }
      ],
      "pos": [
        18,
        0
      ]
    },
    {
      "plugin": "AS",
      "version": "0.6.13",
      "model": "AtNuVrTr",
      "params": [
        {
          "paramId": 0,
          "value": -0.39199999
        },
        {
          "paramId": 1,
          "value": 0.0
        },
        {
          "paramId": 2,
          "value": -0.328000009
        },
        {
          "paramId": 3,
          "value": -0.0899999738
        }
      ],
      "pos": [
        37,
        0
      ]
    },
    {
      "plugin": "Bogaudio",
      "version": "0.6.16",
      "model": "Bogaudio-SampleHold",
      "params": [
        {
          "paramId": 0,
          "value": 0.0
        },
        {
          "paramId": 1,
          "value": 0.0
        },
        {
          "paramId": 2,
          "value": 0.0
        },
        {
          "paramId": 3,
          "value": 0.0
        }
      ],
      "pos": [
        34,
        0
      ]
    },
    {
      "plugin": "Blamsoft-XFXF35",
      "version": "0.6.0",
      "model": "Blamsoft-XFXF35",
      "params": [
        {
          "paramId": 0,
          "value": 0.200999975
        },
        {
          "paramId": 1,
          "value": 0.5
        },
        {
          "paramId": 2,
          "value": 0.324000031
        },
        {
          "paramId": 3,
          "value": 1.0
        },
        {
          "paramId": 4,
          "value": 0.68050009
        },
        {
          "paramId": 5,
          "value": 0.546499968
        },
        {
          "paramId": 6,
          "value": 0.776499867
        }
      ],
      "data": {
        "mode": 11
      },
      "pos": [
        92,
        1
      ]
    },
    {
      "plugin": "Bogaudio",
      "version": "0.6.16",
      "model": "Bogaudio-Mix4",
      "params": [
        {
          "paramId": 0,
          "value": 0.862590909
        },
        {
          "paramId": 1,
          "value": -0.146999925
        },
        {
          "paramId": 2,
          "value": 0.0
        },
        {
          "paramId": 3,
          "value": 0.874590635
        },
        {
          "paramId": 4,
          "value": -0.185999975
        },
        {
          "paramId": 5,
          "value": 0.0
        },
        {
          "paramId": 6,
          "value": 0.877591193
        },
        {
          "paramId": 7,
          "value": 0.1859999
        },
        {
          "paramId": 8,
          "value": 0.0
        },
        {
          "paramId": 9,
          "value": 0.862591088
        },
        {
          "paramId": 10,
          "value": 0.117000274
        },
        {
          "paramId": 11,
          "value": 0.0
        },
        {
          "paramId": 12,
          "value": 0.909090936
        },
        {
          "paramId": 13,
          "value": 0.0
        }
      ],
      "pos": [
        77,
        1
      ]
    },
    {
      "plugin": "Bogaudio",
      "version": "0.6.16",
      "model": "Bogaudio-Mix4",
      "params": [
        {
          "paramId": 0,
          "value": 0.909090936
        },
        {
          "paramId": 1,
          "value": -0.990999937
        },
        {
          "paramId": 2,
          "value": 0.0
        },
        {
          "paramId": 3,
          "value": 0.909090936
        },
        {
          "paramId": 4,
          "value": 1.0
        },
        {
          "paramId": 5,
          "value": 0.0
        },
        {
          "paramId": 6,
          "value": 0.535591125
        },
        {
          "paramId": 7,
          "value": -1.0
        },
        {
          "paramId": 8,
          "value": 0.0
        },
        {
          "paramId": 9,
          "value": 0.528090954
        },
        {
          "paramId": 10,
          "value": 0.993999958
        },
        {
          "paramId": 11,
          "value": 0.0
        },
        {
          "paramId": 12,
          "value": 0.909090936
        },
        {
          "paramId": 13,
          "value": 0.0
        }
      ],
      "pos": [
        83,
        0
      ]
    },
    {
      "plugin": "CatroModulo",
      "version": "0.6.6",
      "model": "CatroModulo_CM-9",
      "params": [
        {
          "paramId": 0,
          "value": 2.2995019
        }
      ],
      "pos": [
        33,
        1
      ]
    },
    {
      "plugin": "Bogaudio",
      "version": "0.6.16",
      "model": "Bogaudio-Stack",
      "params": [
        {
          "paramId": 0,
          "value": 0.0
        },
        {
          "paramId": 1,
          "value": 1.0
        },
        {
          "paramId": 2,
          "value": 0.0
        },
        {
          "paramId": 3,
          "value": 1.0
        }
      ],
      "pos": [
        38,
        1
      ]
    },
    {
      "plugin": "Core",
      "version": "0.6.2c",
      "model": "QuadMIDIToCVInterface",
      "params": [],
      "data": {
        "midi": {
          "driver": 4,
          "deviceName": "MIDIIN2 (microKONTROL) 2",
          "channel": -1
        },
        "polyMode": 2
      },
      "pos": [
        0,
        0
      ]
    },
    {
      "plugin": "AS",
      "version": "0.6.13",
      "model": "ReverbStereoFx",
      "params": [
        {
          "paramId": 0,
          "value": 0.83125025
        },
        {
          "paramId": 1,
          "value": 0.807999969
        },
        {
          "paramId": 2,
          "value": 0.228
        },
        {
          "paramId": 3,
          "value": 0.0
        }
      ],
      "data": {
        "as_FxBypass": [
          false
        ]
      },
      "pos": [
        77,
        0
      ]
    },
    {
      "plugin": "Blamsoft-XFXWave",
      "version": "0.6.1",
      "model": "Blamsoft-XFXWave",
      "params": [
        {
          "paramId": 0,
          "value": 0.0600001588
        },
        {
          "paramId": 19,
          "value": 0.509000063
        },
        {
          "paramId": 1,
          "value": 0.0
        },
        {
          "paramId": 3,
          "value": 0.500000119
        },
        {
          "paramId": 2,
          "value": 8.0
        },
        {
          "paramId": 4,
          "value": 0.5
        },
        {
          "paramId": 5,
          "value": -0.0
        },
        {
          "paramId": 6,
          "value": 0.0
        },
        {
          "paramId": 7,
          "value": 0.5
        },
        {
          "paramId": 8,
          "value": 0.603999794
        },
        {
          "paramId": 12,
          "value": 0.0
        },
        {
          "paramId": 20,
          "value": 0.5
        },
        {
          "paramId": 15,
          "value": 0.0
        },
        {
          "paramId": 13,
          "value": 0.0
        },
        {
          "paramId": 21,
          "value": 0.5
        },
        {
          "paramId": 16,
          "value": 0.0
        },
        {
          "paramId": 14,
          "value": 0.0
        },
        {
          "paramId": 22,
          "value": 0.5
        },
        {
          "paramId": 17,
          "value": 0.0
        },
        {
          "paramId": 18,
          "value": 0.0
        }
      ],
      "data": {
        "wavetable": 0,
        "mod1_mode": 0,
        "mod2_mode": 0,
        "mod3_mode": 0,
        "magnitude_0": 1.0,
        "phase_0": 0.0,
        "magnitude_1": 0.0,
        "phase_1": 0.0,
        "magnitude_2": 0.0,
        "phase_2": 0.0,
        "magnitude_3": 0.0,
        "phase_3": 0.0,
        "magnitude_4": 0.0,
        "phase_4": 0.0,
        "magnitude_5": 0.0,
        "phase_5": 0.0,
        "magnitude_6": 0.0,
        "phase_6": 0.0,
        "magnitude_7": 0.0,
        "phase_7": 0.0,
        "magnitude_8": 0.0,
        "phase_8": 0.0,
        "magnitude_9": 0.0,
        "phase_9": 0.0,
        "magnitude_10": 0.0,
        "phase_10": 0.0,
        "magnitude_11": 0.0,
        "phase_11": 0.0,
        "magnitude_12": 0.0,
        "phase_12": 0.0,
        "magnitude_13": 0.0,
        "phase_13": 0.0,
        "magnitude_14": 0.0,
        "phase_14": 0.0,
        "magnitude_15": 0.0,
        "phase_15": 0.0,
        "magnitude_16": 0.0,
        "phase_16": 0.0,
        "magnitude_17": 0.0,
        "phase_17": 0.0,
        "magnitude_18": 0.0,
        "phase_18": 0.0,
        "magnitude_19": 0.0,
        "phase_19": 0.0,
        "magnitude_20": 0.0,
        "phase_20": 0.0,
        "magnitude_21": 0.0,
        "phase_21": 0.0,
        "magnitude_22": 0.0,
        "phase_22": 0.0,
        "magnitude_23": 0.0,
        "phase_23": 0.0,
        "magnitude_24": 0.0,
        "phase_24": 0.0,
        "magnitude_25": 0.0,
        "phase_25": 0.0
      },
      "pos": [
        12,
        2
      ]
    },
    {
      "plugin": "Blamsoft-XFXWave",
      "version": "0.6.1",
      "model": "Blamsoft-XFXWave",
      "params": [
        {
          "paramId": 0,
          "value": 0.431999922
        },
        {
          "paramId": 19,
          "value": 0.522500038
        },
        {
          "paramId": 1,
          "value": 0.0
        },
        {
          "paramId": 3,
          "value": 0.500000119
        },
        {
          "paramId": 2,
          "value": 8.0
        },
        {
          "paramId": 4,
          "value": 0.5
        },
        {
          "paramId": 5,
          "value": -1.0
        },
        {
          "paramId": 6,
          "value": 0.0
        },
        {
          "paramId": 7,
          "value": 0.5
        },
        {
          "paramId": 8,
          "value": 0.576999843
        },
        {
          "paramId": 12,
          "value": 0.0
        },
        {
          "paramId": 20,
          "value": 0.5
        },
        {
          "paramId": 15,
          "value": 0.0
        },
        {
          "paramId": 13,
          "value": 0.0224999972
        },
        {
          "paramId": 21,
          "value": 0.504500031
        },
        {
          "paramId": 16,
          "value": 0.0
        },
        {
          "paramId": 14,
          "value": 0.0
        },
        {
          "paramId": 22,
          "value": 0.5
        },
        {
          "paramId": 17,
          "value": 0.0
        },
        {
          "paramId": 18,
          "value": 0.0
        }
      ],
      "data": {
        "wavetable": 0,
        "mod1_mode": 0,
        "mod2_mode": 1,
        "mod3_mode": 0,
        "magnitude_0": 1.0,
        "phase_0": 0.0,
        "magnitude_1": 0.0,
        "phase_1": 0.0,
        "magnitude_2": 0.0,
        "phase_2": 0.0,
        "magnitude_3": 0.0,
        "phase_3": 0.0,
        "magnitude_4": 0.0,
        "phase_4": 0.0,
        "magnitude_5": 0.0,
        "phase_5": 0.0,
        "magnitude_6": 0.0,
        "phase_6": 0.0,
        "magnitude_7": 0.0,
        "phase_7": 0.0,
        "magnitude_8": 0.0,
        "phase_8": 0.0,
        "magnitude_9": 0.0,
        "phase_9": 0.0,
        "magnitude_10": 0.0,
        "phase_10": 0.0,
        "magnitude_11": 0.0,
        "phase_11": 0.0,
        "magnitude_12": 0.0,
        "phase_12": 0.0,
        "magnitude_13": 0.0,
        "phase_13": 0.0,
        "magnitude_14": 0.0,
        "phase_14": 0.0,
        "magnitude_15": 0.0,
        "phase_15": 0.0,
        "magnitude_16": 0.0,
        "phase_16": 0.0,
        "magnitude_17": 0.0,
        "phase_17": 0.0,
        "magnitude_18": 0.0,
        "phase_18": 0.0,
        "magnitude_19": 0.0,
        "phase_19": 0.0,
        "magnitude_20": 0.0,
        "phase_20": 0.0,
        "magnitude_21": 0.0,
        "phase_21": 0.0,
        "magnitude_22": 0.0,
        "phase_22": 0.0,
        "magnitude_23": 0.0,
        "phase_23": 0.0,
        "magnitude_24": 0.0,
        "phase_24": 0.0,
        "magnitude_25": 0.0,
        "phase_25": 0.0
      },
      "pos": [
        38,
        2
      ]
    },
    {
      "plugin": "Bogaudio",
      "version": "0.6.16",
      "model": "Bogaudio-UMix",
      "params": [
        {
          "paramId": 0,
          "value": 1.0
        }
      ],
      "data": {
        "sum": true,
        "cv_mode": false
      },
      "pos": [
        64,
        2
      ]
    },
    {
      "plugin": "Bogaudio",
      "version": "0.6.16",
      "model": "Bogaudio-UMix",
      "params": [
        {
          "paramId": 0,
          "value": 1.0
        }
      ],
      "data": {
        "sum": true,
        "cv_mode": false
      },
      "pos": [
        67,
        2
      ]
    },
    {
      "plugin": "Bogaudio",
      "version": "0.6.16",
      "model": "Bogaudio-Mix4",
      "params": [
        {
          "paramId": 0,
          "value": 0.909090936
        },
        {
          "paramId": 1,
          "value": -0.990999937
        },
        {
          "paramId": 2,
          "value": 0.0
        },
        {
          "paramId": 3,
          "value": 0.909090936
        },
        {
          "paramId": 4,
          "value": 1.0
        },
        {
          "paramId": 5,
          "value": 0.0
        },
        {
          "paramId": 6,
          "value": 0.465091139
        },
        {
          "paramId": 7,
          "value": -1.0
        },
        {
          "paramId": 8,
          "value": 0.0
        },
        {
          "paramId": 9,
          "value": 0.447090954
        },
        {
          "paramId": 10,
          "value": 0.996999979
        },
        {
          "paramId": 11,
          "value": 0.0
        },
        {
          "paramId": 12,
          "value": 0.300090045
        },
        {
          "paramId": 13,
          "value": 0.0
        }
      ],
      "pos": [
        98,
        0
      ]
    },
    {
      "plugin": "AS",
      "version": "0.6.13",
      "model": "ReverbStereoFx",
      "params": [
        {
          "paramId": 0,
          "value": 0.613225102
        },
        {
          "paramId": 1,
          "value": 0.281000018
        },
        {
          "paramId": 2,
          "value": 0.358500242
        },
        {
          "paramId": 3,
          "value": 0.0
        }
      ],
      "data": {
        "as_FxBypass": [
          false
        ]
      },
      "pos": [
        85,
        2
      ]
    },
    {
      "plugin": "Bogaudio",
      "version": "0.6.16",
      "model": "Bogaudio-Analyzer",
      "params": [
        {
          "paramId": 5,
          "value": 0.0
        },
        {
          "paramId": 1,
          "value": 0.5
        },
        {
          "paramId": 2,
          "value": 1.0
        },
        {
          "paramId": 4,
          "value": 1.0
        }
      ],
      "data": {
        "range_db": 80.0
      },
      "pos": [
        106,
        1
      ]
    },
    {
      "plugin": "CatroModulo",
      "version": "0.6.6",
      "model": "CatroModulo_CM-8",
      "params": [
        {
          "paramId": 0,
          "value": 9.93999958
        },
        {
          "paramId": 1,
          "value": 1.01999962
        },
        {
          "paramId": 2,
          "value": 2.0
        }
      ],
      "pos": [
        41,
        1
      ]
    },
    {
      "plugin": "Bogaudio",
      "version": "0.6.16",
      "model": "Bogaudio-Stack",
      "params": [
        {
          "paramId": 0,
          "value": 0.0
        },
        {
          "paramId": 1,
          "value": 0.0
        },
        {
          "paramId": 2,
          "value": 0.0
        },
        {
          "paramId": 3,
          "value": 1.0
        }
      ],
      "pos": [
        46,
        1
      ]
    },
    {
      "plugin": "Befaco",
      "version": "0.6.0",
      "model": "SlewLimiter",
      "params": [
        {
          "paramId": 0,
          "value": 0.996999979
        },
        {
          "paramId": 1,
          "value": 0.779999912
        },
        {
          "paramId": 2,
          "value": 0.912000418
        }
      ],
      "pos": [
        70,
        2
      ]
    },
    {
      "plugin": "Bogaudio",
      "version": "0.6.16",
      "model": "Bogaudio-SampleHold",
      "params": [
        {
          "paramId": 0,
          "value": 0.0
        },
        {
          "paramId": 1,
          "value": 0.0
        },
        {
          "paramId": 2,
          "value": 0.0
        },
        {
          "paramId": 3,
          "value": 0.0
        }
      ],
      "pos": [
        28,
        1
      ]
    },
    {
      "plugin": "Bidoo",
      "version": "0.6.29",
      "model": "REI",
      "params": [
        {
          "paramId": 0,
          "value": 0.642499983
        },
        {
          "paramId": 1,
          "value": 0.557000041
        },
        {
          "paramId": 3,
          "value": 0.634999931
        },
        {
          "paramId": 4,
          "value": 0.31249994
        },
        {
          "paramId": 5,
          "value": 0.376499951
        },
        {
          "paramId": 6,
          "value": 0.463500142
        },
        {
          "paramId": 7,
          "value": 1.99475002
        },
        {
          "paramId": 2,
          "value": 0.0
        },
        {
          "paramId": 8,
          "value": 1.0
        }
      ],
      "pos": [
        76,
        2
      ]
    },
    {
      "plugin": "NYSTHI",
      "version": "0.6.42",
      "model": "MasterRecorder",
      "params": [
        {
          "paramId": 0,
          "value": 0.0
        },
        {
          "paramId": 1,
          "value": 0.0
        },
        {
          "paramId": 2,
          "value": 0.0
        }
      ],
      "data": {
        "nysthi_id": "MR_ZbmMUcwW",
        "wavebits": 9
      },
      "pos": [
        91,
        2
      ]
    }
  ],
  "wires": [
    {
      "color": "#0c8e15",
      "outputModuleId": 3,
      "outputId": 5,
      "inputModuleId": 9,
      "inputId": 0
    },
    {
      "color": "#0c8e15",
      "outputModuleId": 4,
      "outputId": 0,
      "inputModuleId": 16,
      "inputId": 2
    },
    {
      "color": "#c91847",
      "outputModuleId": 5,
      "outputId": 2,
      "inputModuleId": 12,
      "inputId": 0
    },
    {
      "color": "#c9b70e",
      "outputModuleId": 6,
      "outputId": 5,
      "inputModuleId": 7,
      "inputId": 0
    },
    {
      "color": "#c91847",
      "outputModuleId": 8,
      "outputId": 0,
      "inputModuleId": 16,
      "inputId": 5
    },
    {
      "color": "#0986ad",
      "outputModuleId": 1,
      "outputId": 1,
      "inputModuleId": 9,
      "inputId": 1
    },
    {
      "color": "#c9b70e",
      "outputModuleId": 9,
      "outputId": 0,
      "inputModuleId": 4,
      "inputId": 5
    },
    {
      "color": "#c91847",
      "outputModuleId": 9,
      "outputId": 0,
      "inputModuleId": 8,
      "inputId": 5
    },
    {
      "color": "#c91847",
      "outputModuleId": 9,
      "outputId": 0,
      "inputModuleId": 10,
      "inputId": 5
    },
    {
      "color": "#0c8e15",
      "outputModuleId": 9,
      "outputId": 0,
      "inputModuleId": 11,
      "inputId": 5
    },
    {
      "color": "#c9b70e",
      "outputModuleId": 10,
      "outputId": 0,
      "inputModuleId": 16,
      "inputId": 8
    },
    {
      "color": "#c91847",
      "outputModuleId": 11,
      "outputId": 0,
      "inputModuleId": 16,
      "inputId": 11
    },
    {
      "color": "#0c8e15",
      "outputModuleId": 12,
      "outputId": 0,
      "inputModuleId": 3,
      "inputId": 6
    },
    {
      "color": "#c9b70e",
      "outputModuleId": 7,
      "outputId": 1,
      "inputModuleId": 14,
      "inputId": 1
    },
    {
      "color": "#c9b70e",
      "outputModuleId": 30,
      "outputId": 1,
      "inputModuleId": 4,
      "inputId": 1
    },
    {
      "color": "#c91847",
      "outputModuleId": 30,
      "outputId": 1,
      "inputModuleId": 10,
      "inputId": 1
    },
    {
      "color": "#0c8e15",
      "outputModuleId": 30,
      "outputId": 1,
      "inputModuleId": 8,
      "inputId": 1
    },
    {
      "color": "#0986ad",
      "outputModuleId": 30,
      "outputId": 1,
      "inputModuleId": 11,
      "inputId": 1
    },
    {
      "color": "#0986ad",
      "outputModuleId": 14,
      "outputId": 0,
      "inputModuleId": 13,
      "inputId": 4
    },
    {
      "color": "#c9b70e",
      "outputModuleId": 5,
      "outputId": 2,
      "inputModuleId": 14,
      "inputId": 0
    },
    {
      "color": "#c9b70e",
      "outputModuleId": 6,
      "outputId": 0,
      "inputModuleId": 5,
      "inputId": 0
    },
    {
      "color": "#c9b70e",
      "outputModuleId": 30,
      "outputId": 1,
      "inputModuleId": 15,
      "inputId": 1
    },
    {
      "color": "#0c8e15",
      "outputModuleId": 16,
      "outputId": 0,
      "inputModuleId": 15,
      "inputId": 5
    },
    {
      "color": "#0986ad",
      "outputModuleId": 16,
      "outputId": 1,
      "inputModuleId": 15,
      "inputId": 6
    },
    {
      "color": "#0c8e15",
      "outputModuleId": 17,
      "outputId": 0,
      "inputModuleId": 26,
      "inputId": 2
    },
    {
      "color": "#0986ad",
      "outputModuleId": 17,
      "outputId": 1,
      "inputModuleId": 26,
      "inputId": 5
    },
    {
      "color": "#c91847",
      "outputModuleId": 7,
      "outputId": 1,
      "inputModuleId": 13,
      "inputId": 5
    },
    {
      "color": "#c9b70e",
      "outputModuleId": 13,
      "outputId": 1,
      "inputModuleId": 19,
      "inputId": 1
    },
    {
      "color": "#c91847",
      "outputModuleId": 18,
      "outputId": 8,
      "inputModuleId": 30,
      "inputId": 1
    },
    {
      "color": "#0c8e15",
      "outputModuleId": 20,
      "outputId": 0,
      "inputModuleId": 14,
      "inputId": 3
    },
    {
      "color": "#0986ad",
      "outputModuleId": 20,
      "outputId": 1,
      "inputModuleId": 32,
      "inputId": 1
    },
    {
      "color": "#c9b70e",
      "outputModuleId": 20,
      "outputId": 2,
      "inputModuleId": 32,
      "inputId": 3
    },
    {
      "color": "#0c8e15",
      "outputModuleId": 5,
      "outputId": 2,
      "inputModuleId": 18,
      "inputId": 1
    },
    {
      "color": "#c9b70e",
      "outputModuleId": 15,
      "outputId": 0,
      "inputModuleId": 21,
      "inputId": 0
    },
    {
      "color": "#c91847",
      "outputModuleId": 15,
      "outputId": 1,
      "inputModuleId": 21,
      "inputId": 1
    },
    {
      "color": "#0c8e15",
      "outputModuleId": 21,
      "outputId": 0,
      "inputModuleId": 17,
      "inputId": 2
    },
    {
      "color": "#0986ad",
      "outputModuleId": 21,
      "outputId": 1,
      "inputModuleId": 17,
      "inputId": 5
    },
    {
      "color": "#c91847",
      "outputModuleId": 22,
      "outputId": 0,
      "inputModuleId": 24,
      "inputId": 0
    },
    {
      "color": "#0c8e15",
      "outputModuleId": 22,
      "outputId": 1,
      "inputModuleId": 25,
      "inputId": 0
    },
    {
      "color": "#0c8e15",
      "outputModuleId": 23,
      "outputId": 0,
      "inputModuleId": 24,
      "inputId": 1
    },
    {
      "color": "#0986ad",
      "outputModuleId": 23,
      "outputId": 1,
      "inputModuleId": 25,
      "inputId": 1
    },
    {
      "color": "#0c8e15",
      "outputModuleId": 26,
      "outputId": 0,
      "inputModuleId": 0,
      "inputId": 0
    },
    {
      "color": "#0986ad",
      "outputModuleId": 26,
      "outputId": 1,
      "inputModuleId": 0,
      "inputId": 1
    },
    {
      "color": "#c9b70e",
      "outputModuleId": 24,
      "outputId": 0,
      "inputModuleId": 33,
      "inputId": 0
    },
    {
      "color": "#c91847",
      "outputModuleId": 25,
      "outputId": 0,
      "inputModuleId": 33,
      "inputId": 1
    },
    {
      "color": "#0c8e15",
      "outputModuleId": 27,
      "outputId": 0,
      "inputModuleId": 17,
      "inputId": 8
    },
    {
      "color": "#0986ad",
      "outputModuleId": 27,
      "outputId": 1,
      "inputModuleId": 17,
      "inputId": 11
    },
    {
      "color": "#0c8e15",
      "outputModuleId": 26,
      "outputId": 0,
      "inputModuleId": 28,
      "inputId": 0
    },
    {
      "color": "#0c8e15",
      "outputModuleId": 29,
      "outputId": 8,
      "inputModuleId": 22,
      "inputId": 5
    },
    {
      "color": "#c9b70e",
      "outputModuleId": 19,
      "outputId": 1,
      "inputModuleId": 29,
      "inputId": 2
    },
    {
      "color": "#0c8e15",
      "outputModuleId": 31,
      "outputId": 0,
      "inputModuleId": 17,
      "inputId": 6
    },
    {
      "color": "#c9b70e",
      "outputModuleId": 31,
      "outputId": 0,
      "inputModuleId": 17,
      "inputId": 9
    },
    {
      "color": "#0986ad",
      "outputModuleId": 31,
      "outputId": 0,
      "inputModuleId": 22,
      "inputId": 0
    },
    {
      "color": "#c9b70e",
      "outputModuleId": 31,
      "outputId": 0,
      "inputModuleId": 23,
      "inputId": 0
    },
    {
      "color": "#c91847",
      "outputModuleId": 31,
      "outputId": 0,
      "inputModuleId": 23,
      "inputId": 3
    },
    {
      "color": "#0986ad",
      "outputModuleId": 5,
      "outputId": 2,
      "inputModuleId": 14,
      "inputId": 2
    },
    {
      "color": "#c9b70e",
      "outputModuleId": 5,
      "outputId": 2,
      "inputModuleId": 32,
      "inputId": 0
    },
    {
      "color": "#c91847",
      "outputModuleId": 5,
      "outputId": 2,
      "inputModuleId": 32,
      "inputId": 2
    },
    {
      "color": "#0c8e15",
      "outputModuleId": 14,
      "outputId": 1,
      "inputModuleId": 18,
      "inputId": 4
    },
    {
      "color": "#0986ad",
      "outputModuleId": 32,
      "outputId": 0,
      "inputModuleId": 18,
      "inputId": 5
    },
    {
      "color": "#c9b70e",
      "outputModuleId": 32,
      "outputId": 1,
      "inputModuleId": 18,
      "inputId": 6
    },
    {
      "color": "#0c8e15",
      "outputModuleId": 14,
      "outputId": 1,
      "inputModuleId": 29,
      "inputId": 0
    },
    {
      "color": "#0986ad",
      "outputModuleId": 29,
      "outputId": 8,
      "inputModuleId": 23,
      "inputId": 5
    },
    {
      "color": "#c9b70e",
      "outputModuleId": 33,
      "outputId": 0,
      "inputModuleId": 27,
      "inputId": 0
    },
    {
      "color": "#c91847",
      "outputModuleId": 33,
      "outputId": 1,
      "inputModuleId": 27,
      "inputId": 1
    },
    {
      "color": "#0c8e15",
      "outputModuleId": 20,
      "outputId": 6,
      "inputModuleId": 7,
      "inputId": 2
    },
    {
      "color": "#c9b70e",
      "outputModuleId": 5,
      "outputId": 2,
      "inputModuleId": 29,
      "inputId": 4
    },
    {
      "color": "#c91847",
      "outputModuleId": 20,
      "outputId": 4,
      "inputModuleId": 31,
      "inputId": 2
    },
    {
      "color": "#0c8e15",
      "outputModuleId": 26,
      "outputId": 0,
      "inputModuleId": 34,
      "inputId": 0
    },
    {
      "color": "#0986ad",
      "outputModuleId": 26,
      "outputId": 1,
      "inputModuleId": 34,
      "inputId": 1
    }
  ]
}