{
  "version": "1.1.6",
  "modules": [
    {
      "id": 1,
      "plugin": "Core",
      "version": "1.1.6",
      "model": "AudioInterface",
      "params": [],
      "leftModuleId": 218,
      "data": {
        "audio": {
          "driver": -12512,
          "deviceName": "1",
          "offset": 0,
          "maxChannels": 8,
          "sampleRate": 44100,
          "blockSize": 512
        }
      },
      "pos": [
        94,
        0
      ]
    },
    {
      "id": 212,
      "plugin": "Core",
      "version": "1.1.6",
      "model": "MIDIToCVInterface",
      "params": [],
      "leftModuleId": 220,
      "rightModuleId": 247,
      "data": {
        "channels": 1,
        "polyMode": 0,
        "clockDivision": 24,
        "lastPitch": 8192,
        "lastMod": 0,
        "midi": {
          "driver": -12512,
          "deviceName": "Port 1",
          "channel": -1
        }
      },
      "pos": [
        10,
        0
      ]
    },
    {
      "id": 218,
      "plugin": "AS",
      "version": "1.0.4",
      "model": "Mixer2ch",
      "params": [
        {
          "id": 0,
          "value": 0.0
        },
        {
          "id": 1,
          "value": 1.0
        },
        {
          "id": 2,
          "value": 1.0
        },
        {
          "id": 3,
          "value": 0.0
        },
        {
          "id": 4,
          "value": 0.0
        },
        {
          "id": 5,
          "value": 0.0
        },
        {
          "id": 6,
          "value": 0.0
        },
        {
          "id": 7,
          "value": 0.0
        }
      ],
      "leftModuleId": 243,
      "rightModuleId": 1,
      "data": {
        "as_Mixer2Mutes": [
          0,
          0,
          0
        ]
      },
      "pos": [
        83,
        0
      ]
    },
    {
      "id": 220,
      "plugin": "Core",
      "version": "1.1.6",
      "model": "MIDICCToCVInterface",
      "params": [],
      "rightModuleId": 212,
      "data": {
        "ccs": [
          0,
          1,
          2,
          3,
          4,
          5,
          6,
          7,
          8,
          9,
          10,
          11,
          12,
          13,
          14,
          15
        ],
        "values": [
          0,
          0,
          0,
          0,
          0,
          0,
          0,
          0,
          61,
          60,
          39,
          39,
          98,
          96,
          0,
          106,
          0,
          0,
          0,
          0,
          0,
          0,
          0,
          0,
          0,
          0,
          0,
          0,
          0,
          0,
          0,
          0,
          0,
          0,
          0,
          0,
          0,
          0,
          0,
          0,
          0,
          0,
          0,
          0,
          0,
          0,
          0,
          0,
          0,
          0,
          0,
          0,
          0,
          0,
          0,
          0,
          0,
          0,
          0,
          0,
          0,
          0,
          0,
          0,
          0,
          0,
          0,
          0,
          0,
          0,
          0,
          0,
          0,
          0,
          0,
          0,
          0,
          0,
          0,
          0,
          0,
          0,
          0,
          0,
          0,
          0,
          0,
          0,
          0,
          0,
          0,
          0,
          0,
          0,
          0,
          0,
          0,
          0,
          0,
          0,
          0,
          0,
          0,
          0,
          0,
          0,
          0,
          0,
          0,
          0,
          0,
          0,
          0,
          0,
          0,
          0,
          0,
          0,
          0,
          0,
          0,
          0,
          0,
          0,
          0,
          0,
          0,
          0
        ],
        "midi": {
          "driver": -12512,
          "deviceName": "Port 1",
          "channel": -1
        }
      },
      "pos": [
        0,
        0
      ]
    },
    {
      "id": 243,
      "plugin": "Valley",
      "version": "1.0.1",
      "model": "Plateau",
      "params": [
        {
          "id": 0,
          "value": 0.701500118
        },
        {
          "id": 1,
          "value": 0.540500104
        },
        {
          "id": 2,
          "value": 0.01425
        },
        {
          "id": 3,
          "value": 7.49499941
        },
        {
          "id": 4,
          "value": 9.27999878
        },
        {
          "id": 5,
          "value": 0.536000192
        },
        {
          "id": 6,
          "value": 9.57999992
        },
        {
          "id": 7,
          "value": 0.46220994
        },
        {
          "id": 8,
          "value": 10.0
        },
        {
          "id": 9,
          "value": 6.85000038
        },
        {
          "id": 10,
          "value": 0.0
        },
        {
          "id": 11,
          "value": 0.5
        },
        {
          "id": 12,
          "value": 0.5
        },
        {
          "id": 13,
          "value": 0.0
        },
        {
          "id": 14,
          "value": 0.0
        },
        {
          "id": 15,
          "value": 0.0
        },
        {
          "id": 16,
          "value": 0.0
        },
        {
          "id": 17,
          "value": 0.0
        },
        {
          "id": 18,
          "value": 0.0
        },
        {
          "id": 19,
          "value": 0.0
        },
        {
          "id": 20,
          "value": 0.0
        },
        {
          "id": 21,
          "value": 0.0
        },
        {
          "id": 22,
          "value": 0.0
        },
        {
          "id": 23,
          "value": 0.0
        },
        {
          "id": 24,
          "value": 0.0
        },
        {
          "id": 25,
          "value": 0.0
        },
        {
          "id": 26,
          "value": 0.0
        },
        {
          "id": 27,
          "value": 0.0
        },
        {
          "id": 28,
          "value": 0.0
        },
        {
          "id": 29,
          "value": 0.0
        },
        {
          "id": 30,
          "value": 1.0
        }
      ],
      "rightModuleId": 218,
      "data": {
        "frozen": false,
        "freezeToggle": false,
        "panelStyle": 0,
        "tuned": 0,
        "diffuseInput": 1,
        "preDelayCVSens": 0,
        "inputSensitivity": 0,
        "outputSaturation": 0
      },
      "pos": [
        71,
        0
      ]
    },
    {
      "id": 244,
      "plugin": "AudibleInstruments",
      "version": "1.2.0",
      "model": "Rings",
      "params": [
        {
          "id": 0,
          "value": 0.0
        },
        {
          "id": 1,
          "value": 0.0
        },
        {
          "id": 2,
          "value": 0.0
        },
        {
          "id": 3,
          "value": 0.0
        },
        {
          "id": 4,
          "value": 0.282000005
        },
        {
          "id": 5,
          "value": 0.163499802
        },
        {
          "id": 6,
          "value": 0.192000002
        },
        {
          "id": 7,
          "value": 0.268999875
        },
        {
          "id": 8,
          "value": 0.74300009
        },
        {
          "id": 9,
          "value": 0.490000039
        },
        {
          "id": 10,
          "value": 0.193999961
        },
        {
          "id": 11,
          "value": 0.17899996
        }
      ],
      "leftModuleId": 249,
      "data": {
        "polyphony": 0,
        "model": 0,
        "easterEgg": false
      },
      "pos": [
        54,
        0
      ]
    },
    {
      "id": 245,
      "plugin": "squinkylabs-plug1",
      "version": "1.0.8",
      "model": "squinkylabs-coloredNoise",
      "params": [
        {
          "id": 0,
          "value": -5.0
        },
        {
          "id": 1,
          "value": 1.0
        }
      ],
      "leftModuleId": 246,
      "pos": [
        31,
        0
      ]
    },
    {
      "id": 246,
      "plugin": "CatroModulo",
      "version": "1.0.3",
      "model": "CatroModulo_CM-8",
      "params": [
        {
          "id": 0,
          "value": 7.47999763
        },
        {
          "id": 1,
          "value": -3.85000014
        },
        {
          "id": 2,
          "value": 2.0
        },
        {
          "id": 3,
          "value": 0.0
        },
        {
          "id": 4,
          "value": 0.0
        }
      ],
      "leftModuleId": 248,
      "rightModuleId": 245,
      "pos": [
        26,
        0
      ]
    },
    {
      "id": 247,
      "plugin": "CatroModulo",
      "version": "1.0.3",
      "model": "CatroModulo_CM-4",
      "params": [
        {
          "id": 0,
          "value": 0.0
        },
        {
          "id": 1,
          "value": 0.0
        },
        {
          "id": 2,
          "value": 1.0
        }
      ],
      "leftModuleId": 212,
      "rightModuleId": 248,
      "pos": [
        18,
        0
      ]
    },
    {
      "id": 248,
      "plugin": "CatroModulo",
      "version": "1.0.3",
      "model": "CatroModulo_CM-5",
      "params": [
        {
          "id": 0,
          "value": 0.0
        }
      ],
      "leftModuleId": 247,
      "rightModuleId": 246,
      "pos": [
        23,
        0
      ]
    },
    {
      "id": 249,
      "plugin": "CatroModulo",
      "version": "1.0.3",
      "model": "CatroModulo_CM-2",
      "params": [
        {
          "id": 0,
          "value": 0.642999768
        },
        {
          "id": 1,
          "value": 0.732999802
        },
        {
          "id": 2,
          "value": 0.0
        },
        {
          "id": 3,
          "value": 0.0
        },
        {
          "id": 4,
          "value": 0.0
        },
        {
          "id": 5,
          "value": 0.0
        },
        {
          "id": 6,
          "value": 0.0
        },
        {
          "id": 7,
          "value": 0.0
        },
        {
          "id": 8,
          "value": 0.735000014
        },
        {
          "id": 9,
          "value": 0.450000048
        },
        {
          "id": 10,
          "value": 0.0
        },
        {
          "id": 11,
          "value": 0.0
        },
        {
          "id": 12,
          "value": 0.0
        },
        {
          "id": 13,
          "value": 0.0
        },
        {
          "id": 14,
          "value": 0.0
        },
        {
          "id": 15,
          "value": 0.0
        },
        {
          "id": 16,
          "value": 1.0
        }
      ],
      "rightModuleId": 244,
      "pos": [
        43,
        0
      ]
    },
    {
      "id": 250,
      "plugin": "Fundamental",
      "version": "1.4.0",
      "model": "Scope",
      "params": [
        {
          "id": 0,
          "value": 0.0
        },
        {
          "id": 1,
          "value": 0.0
        },
        {
          "id": 2,
          "value": 0.0
        },
        {
          "id": 3,
          "value": 0.0
        },
        {
          "id": 4,
          "value": 7.67000103
        },
        {
          "id": 5,
          "value": 0.0
        },
        {
          "id": 6,
          "value": 0.0
        },
        {
          "id": 7,
          "value": 0.0
        }
      ],
      "data": {
        "lissajous": 0,
        "external": 0
      },
      "pos": [
        34,
        1
      ]
    }
  ],
  "cables": [
    {
      "id": 770,
      "outputModuleId": 218,
      "outputId": 1,
      "inputModuleId": 1,
      "inputId": 1,
      "color": "#0c8e15"
    },
    {
      "id": 769,
      "outputModuleId": 218,
      "outputId": 0,
      "inputModuleId": 1,
      "inputId": 0,
      "color": "#c9b70e"
    },
    {
      "id": 880,
      "outputModuleId": 243,
      "outputId": 0,
      "inputModuleId": 218,
      "inputId": 7,
      "color": "#c91847"
    },
    {
      "id": 881,
      "outputModuleId": 243,
      "outputId": 1,
      "inputModuleId": 218,
      "inputId": 8,
      "color": "#0986ad"
    },
    {
      "id": 882,
      "outputModuleId": 220,
      "outputId": 0,
      "inputModuleId": 245,
      "inputId": 0,
      "color": "#c9b70e"
    },
    {
      "id": 883,
      "outputModuleId": 245,
      "outputId": 0,
      "inputModuleId": 244,
      "inputId": 7,
      "color": "#0c8e15"
    },
    {
      "id": 884,
      "outputModuleId": 244,
      "outputId": 0,
      "inputModuleId": 243,
      "inputId": 0,
      "color": "#c91847"
    },
    {
      "id": 885,
      "outputModuleId": 244,
      "outputId": 0,
      "inputModuleId": 243,
      "inputId": 1,
      "color": "#0986ad"
    },
    {
      "id": 886,
      "outputModuleId": 220,
      "outputId": 1,
      "inputModuleId": 244,
      "inputId": 0,
      "color": "#c9b70e"
    },
    {
      "id": 888,
      "outputModuleId": 220,
      "outputId": 3,
      "inputModuleId": 244,
      "inputId": 2,
      "color": "#c91847"
    },
    {
      "id": 890,
      "outputModuleId": 220,
      "outputId": 5,
      "inputModuleId": 244,
      "inputId": 4,
      "color": "#c9b70e"
    },
    {
      "id": 891,
      "outputModuleId": 247,
      "outputId": 0,
      "inputModuleId": 248,
      "inputId": 0,
      "color": "#0c8e15"
    },
    {
      "id": 892,
      "outputModuleId": 247,
      "outputId": 7,
      "inputModuleId": 248,
      "inputId": 2,
      "color": "#c91847"
    },
    {
      "id": 893,
      "outputModuleId": 212,
      "outputId": 11,
      "inputModuleId": 247,
      "inputId": 2,
      "color": "#0986ad"
    },
    {
      "id": 894,
      "outputModuleId": 212,
      "outputId": 8,
      "inputModuleId": 247,
      "inputId": 0,
      "color": "#c9b70e"
    },
    {
      "id": 887,
      "outputModuleId": 220,
      "outputId": 2,
      "inputModuleId": 249,
      "inputId": 0,
      "color": "#0c8e15"
    },
    {
      "id": 896,
      "outputModuleId": 249,
      "outputId": 0,
      "inputModuleId": 244,
      "inputId": 1,
      "color": "#0986ad"
    },
    {
      "id": 897,
      "outputModuleId": 249,
      "outputId": 1,
      "inputModuleId": 244,
      "inputId": 3,
      "color": "#c9b70e"
    },
    {
      "id": 898,
      "outputModuleId": 220,
      "outputId": 4,
      "inputModuleId": 249,
      "inputId": 1,
      "color": "#0c8e15"
    },
    {
      "id": 905,
      "outputModuleId": 246,
      "outputId": 8,
      "inputModuleId": 249,
      "inputId": 16,
      "color": "#c91847"
    },
    {
      "id": 906,
      "outputModuleId": 246,
      "outputId": 9,
      "inputModuleId": 249,
      "inputId": 17,
      "color": "#0986ad"
    },
    {
      "id": 907,
      "outputModuleId": 220,
      "outputId": 6,
      "inputModuleId": 246,
      "inputId": 0,
      "color": "#c9b70e"
    },
    {
      "id": 908,
      "outputModuleId": 220,
      "outputId": 7,
      "inputModuleId": 246,
      "inputId": 1,
      "color": "#0c8e15"
    },
    {
      "id": 895,
      "outputModuleId": 248,
      "outputId": 3,
      "inputModuleId": 246,
      "inputId": 4,
      "color": "#0c8e15"
    },
    {
      "id": 911,
      "outputModuleId": 249,
      "outputId": 0,
      "inputModuleId": 250,
      "inputId": 0,
      "color": "#0c8e15"
    }
  ]
}