{
  "version": "0.6.2b",
  "modules": [
    {
      "plugin": "Core",
      "version": "0.6.2b",
      "model": "AudioInterface",
      "params": [],
      "data": {
        "audio": {
          "driver": -12512,
          "deviceName": "1",
          "offset": 0,
          "maxChannels": 8,
          "sampleRate": 44100,
          "blockSize": 256
        }
      },
      "pos": [
        99,
        2
      ]
    },
    {
      "plugin": "Core",
      "version": "0.6.2b",
      "model": "MIDICCToCVInterface",
      "params": [],
      "data": {
        "ccs": [
          0,
          1,
          2,
          3,
          4,
          5,
          6,
          7,
          8,
          9,
          10,
          11,
          12,
          13,
          14,
          15
        ],
        "midi": {
          "driver": -12512,
          "deviceName": "Port 1",
          "channel": -1
        }
      },
      "pos": [
        0,
        1
      ]
    },
    {
      "plugin": "Core",
      "version": "0.6.2b",
      "model": "MIDITriggerToCVInterface",
      "params": [],
      "data": {
        "notes": [
          36,
          37,
          38,
          39,
          40,
          41,
          42,
          43,
          44,
          45,
          46,
          47,
          48,
          49,
          50,
          51
        ],
        "midi": {
          "driver": -12512,
          "deviceName": "Port 1",
          "channel": -1
        },
        "velocity": false
      },
      "pos": [
        27,
        1
      ]
    },
    {
      "plugin": "AS",
      "version": "0.6.12",
      "model": "Mixer8ch",
      "params": [
        {
          "paramId": 9,
          "value": -1.0
        },
        {
          "paramId": 10,
          "value": 0.996999979
        },
        {
          "paramId": 11,
          "value": -1.0
        },
        {
          "paramId": 12,
          "value": 1.0
        },
        {
          "paramId": 13,
          "value": 0.0
        },
        {
          "paramId": 14,
          "value": 0.0
        },
        {
          "paramId": 15,
          "value": 0.0
        },
        {
          "paramId": 16,
          "value": 0.0
        },
        {
          "paramId": 1,
          "value": 1.0
        },
        {
          "paramId": 2,
          "value": 0.996999979
        },
        {
          "paramId": 3,
          "value": 0.800000012
        },
        {
          "paramId": 4,
          "value": 0.800000012
        },
        {
          "paramId": 5,
          "value": 0.800000012
        },
        {
          "paramId": 6,
          "value": 0.800000012
        },
        {
          "paramId": 7,
          "value": 0.800000012
        },
        {
          "paramId": 8,
          "value": 0.800000012
        },
        {
          "paramId": 17,
          "value": 0.0
        },
        {
          "paramId": 18,
          "value": 0.0
        },
        {
          "paramId": 19,
          "value": 0.0
        },
        {
          "paramId": 20,
          "value": 0.0
        },
        {
          "paramId": 21,
          "value": 0.0
        },
        {
          "paramId": 22,
          "value": 0.0
        },
        {
          "paramId": 23,
          "value": 0.0
        },
        {
          "paramId": 24,
          "value": 0.0
        },
        {
          "paramId": 0,
          "value": 0.800000012
        },
        {
          "paramId": 25,
          "value": 0.0
        }
      ],
      "data": {
        "as_MixerMutes": [
          0,
          0,
          1,
          1,
          0,
          0,
          0,
          0,
          0
        ]
      },
      "pos": [
        73,
        2
      ]
    },
    {
      "plugin": "AudibleInstruments",
      "version": "0.6.3",
      "model": "Veils",
      "params": [
        {
          "paramId": 0,
          "value": 1.0
        },
        {
          "paramId": 1,
          "value": 1.0
        },
        {
          "paramId": 2,
          "value": 1.0
        },
        {
          "paramId": 3,
          "value": 1.0
        },
        {
          "paramId": 4,
          "value": 1.0
        },
        {
          "paramId": 5,
          "value": 1.0
        },
        {
          "paramId": 6,
          "value": 0.99849999
        },
        {
          "paramId": 7,
          "value": 1.0
        }
      ],
      "pos": [
        39,
        0
      ]
    },
    {
      "plugin": "FrozenWasteland",
      "version": "0.6.7",
      "model": "LissajousLFO",
      "params": [
        {
          "paramId": 0,
          "value": 0.0
        },
        {
          "paramId": 2,
          "value": -5.4095006
        },
        {
          "paramId": 3,
          "value": -5.29400063
        },
        {
          "paramId": 1,
          "value": 0.0
        },
        {
          "paramId": 4,
          "value": -3.13250113
        },
        {
          "paramId": 5,
          "value": -8.0
        }
      ],
      "pos": [
        26,
        0
      ]
    },
    {
      "plugin": "Fundamental",
      "version": "0.6.2",
      "model": "VCO",
      "params": [
        {
          "paramId": 0,
          "value": 1.0
        },
        {
          "paramId": 1,
          "value": 1.0
        },
        {
          "paramId": 2,
          "value": -32.9400063
        },
        {
          "paramId": 3,
          "value": 0.0
        },
        {
          "paramId": 5,
          "value": 0.512000144
        },
        {
          "paramId": 4,
          "value": 0.583499849
        },
        {
          "paramId": 6,
          "value": 0.630999982
        }
      ],
      "pos": [
        69,
        0
      ]
    },
    {
      "plugin": "AS",
      "version": "0.6.12",
      "model": "VCA",
      "params": [
        {
          "paramId": 0,
          "value": 0.284999996
        },
        {
          "paramId": 1,
          "value": 0.240000039
        },
        {
          "paramId": 2,
          "value": 1.0
        },
        {
          "paramId": 3,
          "value": 1.0
        }
      ],
      "pos": [
        20,
        0
      ]
    },
    {
      "plugin": "Fundamental",
      "version": "0.6.2",
      "model": "Unity",
      "params": [
        {
          "paramId": 0,
          "value": 1.0
        },
        {
          "paramId": 1,
          "value": 1.0
        }
      ],
      "data": {
        "merge": false
      },
      "pos": [
        54,
        0
      ]
    },
    {
      "plugin": "Fundamental",
      "version": "0.6.2",
      "model": "LFO",
      "params": [
        {
          "paramId": 0,
          "value": 0.0
        },
        {
          "paramId": 1,
          "value": 1.0
        },
        {
          "paramId": 2,
          "value": -8.0
        },
        {
          "paramId": 3,
          "value": 1.0
        },
        {
          "paramId": 5,
          "value": 0.5
        },
        {
          "paramId": 4,
          "value": 0.517500162
        },
        {
          "paramId": 6,
          "value": 1.0
        }
      ],
      "pos": [
        0,
        0
      ]
    },
    {
      "plugin": "Fundamental",
      "version": "0.6.2",
      "model": "LFO",
      "params": [
        {
          "paramId": 0,
          "value": 0.0
        },
        {
          "paramId": 1,
          "value": 1.0
        },
        {
          "paramId": 2,
          "value": -1.0
        },
        {
          "paramId": 3,
          "value": 0.509999871
        },
        {
          "paramId": 5,
          "value": 0.5
        },
        {
          "paramId": 4,
          "value": 0.45449996
        },
        {
          "paramId": 6,
          "value": 0.683999956
        }
      ],
      "pos": [
        10,
        0
      ]
    },
    {
      "plugin": "Gratrix",
      "version": "0.6.0",
      "model": "ADSR-F1",
      "params": [
        {
          "paramId": 0,
          "value": 0.82649982
        },
        {
          "paramId": 1,
          "value": 0.0
        },
        {
          "paramId": 2,
          "value": 1.0
        },
        {
          "paramId": 3,
          "value": 0.65899992
        }
      ],
      "pos": [
        15,
        1
      ]
    },
    {
      "plugin": "Gratrix",
      "version": "0.6.0",
      "model": "ADSR-F1",
      "params": [
        {
          "paramId": 0,
          "value": 0.100500159
        },
        {
          "paramId": 1,
          "value": 0.253000021
        },
        {
          "paramId": 2,
          "value": 1.0
        },
        {
          "paramId": 3,
          "value": 0.726499677
        }
      ],
      "pos": [
        37,
        1
      ]
    },
    {
      "plugin": "FrozenWasteland",
      "version": "0.6.7",
      "model": "TheOneRingModulator",
      "params": [
        {
          "paramId": 0,
          "value": 2.07000017
        },
        {
          "paramId": 3,
          "value": 0.165000111
        },
        {
          "paramId": 1,
          "value": 3.02999997
        },
        {
          "paramId": 4,
          "value": 0.680999994
        },
        {
          "paramId": 2,
          "value": 1.0
        },
        {
          "paramId": 5,
          "value": 0.0
        },
        {
          "paramId": 6,
          "value": 0.571000457
        }
      ],
      "pos": [
        63,
        1
      ]
    },
    {
      "plugin": "Fundamental",
      "version": "0.6.2",
      "model": "Delay",
      "params": [
        {
          "paramId": 0,
          "value": 0.0764999986
        },
        {
          "paramId": 1,
          "value": 0.233999833
        },
        {
          "paramId": 2,
          "value": 0.675500214
        },
        {
          "paramId": 3,
          "value": 0.99849999
        }
      ],
      "pos": [
        79,
        1
      ]
    },
    {
      "plugin": "Fundamental",
      "version": "0.6.2",
      "model": "VCMixer",
      "params": [
        {
          "paramId": 0,
          "value": 1.07299995
        },
        {
          "paramId": 1,
          "value": 1.0
        },
        {
          "paramId": 2,
          "value": 0.996999919
        },
        {
          "paramId": 3,
          "value": 0.966999888
        },
        {
          "paramId": 4,
          "value": 1.0
        }
      ],
      "pos": [
        79,
        0
      ]
    },
    {
      "plugin": "AS",
      "version": "0.6.12",
      "model": "VCA",
      "params": [
        {
          "paramId": 0,
          "value": 0.584000111
        },
        {
          "paramId": 1,
          "value": 0.459000051
        },
        {
          "paramId": 2,
          "value": 1.0
        },
        {
          "paramId": 3,
          "value": 1.0
        }
      ],
      "pos": [
        54,
        1
      ]
    },
    {
      "plugin": "AS",
      "version": "0.6.12",
      "model": "ReverbStereoFx",
      "params": [
        {
          "paramId": 0,
          "value": 0.251274884
        },
        {
          "paramId": 1,
          "value": 0.089499712
        },
        {
          "paramId": 2,
          "value": 0.00150000001
        },
        {
          "paramId": 3,
          "value": 0.0
        }
      ],
      "data": {
        "as_FxBypass": [
          false
        ]
      },
      "pos": [
        107,
        0
      ]
    },
    {
      "plugin": "Fundamental",
      "version": "0.6.2",
      "model": "VCF",
      "params": [
        {
          "paramId": 0,
          "value": 0.7439996
        },
        {
          "paramId": 1,
          "value": 0.5
        },
        {
          "paramId": 2,
          "value": 0.0
        },
        {
          "paramId": 3,
          "value": 0.378999978
        },
        {
          "paramId": 4,
          "value": 0.0
        }
      ],
      "pos": [
        57,
        2
      ]
    },
    {
      "plugin": "Fundamental",
      "version": "0.6.2",
      "model": "VCF",
      "params": [
        {
          "paramId": 0,
          "value": 0.7439996
        },
        {
          "paramId": 1,
          "value": 0.5
        },
        {
          "paramId": 2,
          "value": 0.0
        },
        {
          "paramId": 3,
          "value": 0.378999978
        },
        {
          "paramId": 4,
          "value": 0.0
        }
      ],
      "pos": [
        49,
        2
      ]
    },
    {
      "plugin": "Fundamental",
      "version": "0.6.2",
      "model": "Unity",
      "params": [
        {
          "paramId": 0,
          "value": 1.0
        },
        {
          "paramId": 1,
          "value": 1.0
        }
      ],
      "data": {
        "merge": false
      },
      "pos": [
        89,
        0
      ]
    },
    {
      "plugin": "CharredDesert",
      "version": "0.6.4",
      "model": "Pan",
      "params": [
        {
          "paramId": 0,
          "value": 0.0
        }
      ],
      "pos": [
        87,
        1
      ]
    },
    {
      "plugin": "CharredDesert",
      "version": "0.6.4",
      "model": "Pan",
      "params": [
        {
          "paramId": 0,
          "value": 0.0
        }
      ],
      "pos": [
        90,
        1
      ]
    },
    {
      "plugin": "AS",
      "version": "0.6.12",
      "model": "VCA",
      "params": [
        {
          "paramId": 0,
          "value": 0.167999968
        },
        {
          "paramId": 1,
          "value": 0.326999962
        },
        {
          "paramId": 2,
          "value": 1.0
        },
        {
          "paramId": 3,
          "value": 1.0
        }
      ],
      "pos": [
        37,
        2
      ]
    },
    {
      "plugin": "Fundamental",
      "version": "0.6.2",
      "model": "LFO",
      "params": [
        {
          "paramId": 0,
          "value": 0.0
        },
        {
          "paramId": 1,
          "value": 1.0
        },
        {
          "paramId": 2,
          "value": 0.232000232
        },
        {
          "paramId": 3,
          "value": 0.0840000138
        },
        {
          "paramId": 5,
          "value": 0.5
        },
        {
          "paramId": 4,
          "value": 0.111000016
        },
        {
          "paramId": 6,
          "value": 0.0
        }
      ],
      "pos": [
        99,
        1
      ]
    },
    {
      "plugin": "Fundamental",
      "version": "0.6.2",
      "model": "Unity",
      "params": [
        {
          "paramId": 0,
          "value": 1.0
        },
        {
          "paramId": 1,
          "value": 0.0
        }
      ],
      "data": {
        "merge": false
      },
      "pos": [
        93,
        1
      ]
    },
    {
      "plugin": "Fundamental",
      "version": "0.6.2",
      "model": "Delay",
      "params": [
        {
          "paramId": 0,
          "value": 0.135000005
        },
        {
          "paramId": 1,
          "value": 0.404000252
        },
        {
          "paramId": 2,
          "value": 0.358999997
        },
        {
          "paramId": 3,
          "value": 0.995499969
        }
      ],
      "pos": [
        109,
        1
      ]
    },
    {
      "plugin": "Fundamental",
      "version": "0.6.2",
      "model": "Delay",
      "params": [
        {
          "paramId": 0,
          "value": 0.0975001678
        },
        {
          "paramId": 1,
          "value": 0.41749984
        },
        {
          "paramId": 2,
          "value": 0.377000093
        },
        {
          "paramId": 3,
          "value": 1.0
        }
      ],
      "pos": [
        117,
        1
      ]
    },
    {
      "plugin": "AS",
      "version": "0.6.12",
      "model": "VCA",
      "params": [
        {
          "paramId": 0,
          "value": 0.478000045
        },
        {
          "paramId": 1,
          "value": 0.459000051
        },
        {
          "paramId": 2,
          "value": 1.0
        },
        {
          "paramId": 3,
          "value": 1.0
        }
      ],
      "pos": [
        73,
        1
      ]
    },
    {
      "plugin": "AS",
      "version": "0.6.12",
      "model": "VCA",
      "params": [
        {
          "paramId": 0,
          "value": 0.359999985
        },
        {
          "paramId": 1,
          "value": 0.369000137
        },
        {
          "paramId": 2,
          "value": 1.0
        },
        {
          "paramId": 3,
          "value": 1.0
        }
      ],
      "pos": [
        43,
        2
      ]
    },
    {
      "plugin": "cf",
      "version": "0.6.7",
      "model": "PEAK",
      "params": [
        {
          "paramId": 2,
          "value": 5.0499959
        },
        {
          "paramId": 0,
          "value": 0.839999795
        }
      ],
      "pos": [
        95,
        0
      ]
    },
    {
      "plugin": "cf",
      "version": "0.6.7",
      "model": "PEAK",
      "params": [
        {
          "paramId": 2,
          "value": 4.96000195
        },
        {
          "paramId": 0,
          "value": 0.809999704
        }
      ],
      "pos": [
        101,
        0
      ]
    },
    {
      "plugin": "Fundamental",
      "version": "0.6.2",
      "model": "ADSR",
      "params": [
        {
          "paramId": 0,
          "value": 0.514499664
        },
        {
          "paramId": 1,
          "value": 0.0
        },
        {
          "paramId": 2,
          "value": 1.0
        },
        {
          "paramId": 3,
          "value": 0.170999959
        }
      ],
      "pos": [
        15,
        2
      ]
    },
    {
      "plugin": "Fundamental",
      "version": "0.6.2",
      "model": "Unity",
      "params": [
        {
          "paramId": 0,
          "value": 1.0
        },
        {
          "paramId": 1,
          "value": 1.0
        }
      ],
      "data": {
        "merge": false
      },
      "pos": [
        63,
        0
      ]
    },
    {
      "plugin": "Fundamental",
      "version": "0.6.2",
      "model": "Unity",
      "params": [
        {
          "paramId": 0,
          "value": 0.0
        },
        {
          "paramId": 1,
          "value": 0.0
        }
      ],
      "data": {
        "merge": false
      },
      "pos": [
        23,
        2
      ]
    },
    {
      "plugin": "Bogaudio",
      "version": "0.6.10",
      "model": "Bogaudio-Offset",
      "params": [
        {
          "paramId": 0,
          "value": 1.0
        },
        {
          "paramId": 1,
          "value": 0.286000162
        }
      ],
      "data": {
        "disableOutputLimit": false
      },
      "pos": [
        34,
        2
      ]
    }
  ],
  "wires": [
    {
      "color": "#c91847",
      "outputModuleId": 3,
      "outputId": 0,
      "inputModuleId": 0,
      "inputId": 0
    },
    {
      "color": "#0c8e15",
      "outputModuleId": 3,
      "outputId": 1,
      "inputModuleId": 0,
      "inputId": 1
    },
    {
      "color": "#c91847",
      "outputModuleId": 1,
      "outputId": 0,
      "inputModuleId": 4,
      "inputId": 4
    },
    {
      "color": "#0c8e15",
      "outputModuleId": 1,
      "outputId": 1,
      "inputModuleId": 4,
      "inputId": 5
    },
    {
      "color": "#0986ad",
      "outputModuleId": 1,
      "outputId": 2,
      "inputModuleId": 4,
      "inputId": 6
    },
    {
      "color": "#c9b70e",
      "outputModuleId": 1,
      "outputId": 3,
      "inputModuleId": 4,
      "inputId": 7
    },
    {
      "color": "#0c8e15",
      "outputModuleId": 5,
      "outputId": 0,
      "inputModuleId": 4,
      "inputId": 0
    },
    {
      "color": "#0986ad",
      "outputModuleId": 5,
      "outputId": 1,
      "inputModuleId": 4,
      "inputId": 1
    },
    {
      "color": "#c9b70e",
      "outputModuleId": 4,
      "outputId": 0,
      "inputModuleId": 8,
      "inputId": 0
    },
    {
      "color": "#0c8e15",
      "outputModuleId": 4,
      "outputId": 1,
      "inputModuleId": 8,
      "inputId": 2
    },
    {
      "color": "#c91847",
      "outputModuleId": 1,
      "outputId": 8,
      "inputModuleId": 5,
      "inputId": 2
    },
    {
      "color": "#0c8e15",
      "outputModuleId": 1,
      "outputId": 9,
      "inputModuleId": 5,
      "inputId": 3
    },
    {
      "color": "#0986ad",
      "outputModuleId": 1,
      "outputId": 10,
      "inputModuleId": 5,
      "inputId": 4
    },
    {
      "color": "#c9b70e",
      "outputModuleId": 1,
      "outputId": 11,
      "inputModuleId": 5,
      "inputId": 5
    },
    {
      "color": "#c91847",
      "outputModuleId": 1,
      "outputId": 8,
      "inputModuleId": 7,
      "inputId": 1
    },
    {
      "color": "#0986ad",
      "outputModuleId": 7,
      "outputId": 0,
      "inputModuleId": 5,
      "inputId": 0
    },
    {
      "color": "#c9b70e",
      "outputModuleId": 7,
      "outputId": 1,
      "inputModuleId": 5,
      "inputId": 1
    },
    {
      "color": "#0c8e15",
      "outputModuleId": 8,
      "outputId": 0,
      "inputModuleId": 33,
      "inputId": 0
    },
    {
      "color": "#0986ad",
      "outputModuleId": 4,
      "outputId": 2,
      "inputModuleId": 8,
      "inputId": 6
    },
    {
      "color": "#c9b70e",
      "outputModuleId": 4,
      "outputId": 3,
      "inputModuleId": 8,
      "inputId": 8
    },
    {
      "color": "#c91847",
      "outputModuleId": 8,
      "outputId": 2,
      "inputModuleId": 6,
      "inputId": 1
    },
    {
      "color": "#0c8e15",
      "outputModuleId": 9,
      "outputId": 0,
      "inputModuleId": 4,
      "inputId": 2
    },
    {
      "color": "#0986ad",
      "outputModuleId": 10,
      "outputId": 0,
      "inputModuleId": 4,
      "inputId": 3
    },
    {
      "color": "#0986ad",
      "outputModuleId": 1,
      "outputId": 10,
      "inputModuleId": 9,
      "inputId": 0
    },
    {
      "color": "#c9b70e",
      "outputModuleId": 1,
      "outputId": 11,
      "inputModuleId": 10,
      "inputId": 0
    },
    {
      "color": "#c91847",
      "outputModuleId": 2,
      "outputId": 0,
      "inputModuleId": 11,
      "inputId": 4
    },
    {
      "color": "#0c8e15",
      "outputModuleId": 2,
      "outputId": 1,
      "inputModuleId": 11,
      "inputId": 6
    },
    {
      "color": "#0986ad",
      "outputModuleId": 2,
      "outputId": 2,
      "inputModuleId": 11,
      "inputId": 8
    },
    {
      "color": "#c9b70e",
      "outputModuleId": 2,
      "outputId": 3,
      "inputModuleId": 11,
      "inputId": 10
    },
    {
      "color": "#c91847",
      "outputModuleId": 11,
      "outputId": 1,
      "inputModuleId": 9,
      "inputId": 1
    },
    {
      "color": "#0c8e15",
      "outputModuleId": 11,
      "outputId": 2,
      "inputModuleId": 10,
      "inputId": 1
    },
    {
      "color": "#c91847",
      "outputModuleId": 6,
      "outputId": 1,
      "inputModuleId": 15,
      "inputId": 1
    },
    {
      "color": "#0c8e15",
      "outputModuleId": 1,
      "outputId": 9,
      "inputModuleId": 7,
      "inputId": 3
    },
    {
      "color": "#c91847",
      "outputModuleId": 2,
      "outputId": 4,
      "inputModuleId": 11,
      "inputId": 12
    },
    {
      "color": "#0c8e15",
      "outputModuleId": 2,
      "outputId": 5,
      "inputModuleId": 11,
      "inputId": 14
    },
    {
      "color": "#c9b70e",
      "outputModuleId": 11,
      "outputId": 10,
      "inputModuleId": 17,
      "inputId": 4
    },
    {
      "color": "#c91847",
      "outputModuleId": 2,
      "outputId": 6,
      "inputModuleId": 12,
      "inputId": 4
    },
    {
      "color": "#0c8e15",
      "outputModuleId": 2,
      "outputId": 7,
      "inputModuleId": 12,
      "inputId": 6
    },
    {
      "color": "#0986ad",
      "outputModuleId": 2,
      "outputId": 8,
      "inputModuleId": 12,
      "inputId": 8
    },
    {
      "color": "#c9b70e",
      "outputModuleId": 2,
      "outputId": 9,
      "inputModuleId": 12,
      "inputId": 10
    },
    {
      "color": "#c91847",
      "outputModuleId": 2,
      "outputId": 10,
      "inputModuleId": 12,
      "inputId": 12
    },
    {
      "color": "#0c8e15",
      "outputModuleId": 2,
      "outputId": 11,
      "inputModuleId": 12,
      "inputId": 14
    },
    {
      "color": "#0c8e15",
      "outputModuleId": 12,
      "outputId": 0,
      "inputModuleId": 13,
      "inputId": 3
    },
    {
      "color": "#0986ad",
      "outputModuleId": 12,
      "outputId": 0,
      "inputModuleId": 13,
      "inputId": 2
    },
    {
      "color": "#c9b70e",
      "outputModuleId": 13,
      "outputId": 1,
      "inputModuleId": 28,
      "inputId": 1
    },
    {
      "color": "#0c8e15",
      "outputModuleId": 12,
      "outputId": 3,
      "inputModuleId": 23,
      "inputId": 3
    },
    {
      "color": "#0986ad",
      "outputModuleId": 12,
      "outputId": 2,
      "inputModuleId": 16,
      "inputId": 1
    },
    {
      "color": "#0986ad",
      "outputModuleId": 16,
      "outputId": 0,
      "inputModuleId": 14,
      "inputId": 1
    },
    {
      "color": "#c9b70e",
      "outputModuleId": 12,
      "outputId": 4,
      "inputModuleId": 9,
      "inputId": 3
    },
    {
      "color": "#c91847",
      "outputModuleId": 12,
      "outputId": 6,
      "inputModuleId": 16,
      "inputId": 3
    },
    {
      "color": "#0c8e15",
      "outputModuleId": 12,
      "outputId": 4,
      "inputModuleId": 17,
      "inputId": 2
    },
    {
      "color": "#c9b70e",
      "outputModuleId": 16,
      "outputId": 1,
      "inputModuleId": 8,
      "inputId": 4
    },
    {
      "color": "#c91847",
      "outputModuleId": 12,
      "outputId": 7,
      "inputModuleId": 16,
      "inputId": 2
    },
    {
      "color": "#c91847",
      "outputModuleId": 1,
      "outputId": 4,
      "inputModuleId": 18,
      "inputId": 0
    },
    {
      "color": "#0c8e15",
      "outputModuleId": 12,
      "outputId": 8,
      "inputModuleId": 23,
      "inputId": 1
    },
    {
      "color": "#c91847",
      "outputModuleId": 1,
      "outputId": 4,
      "inputModuleId": 19,
      "inputId": 0
    },
    {
      "color": "#c91847",
      "outputModuleId": 17,
      "outputId": 0,
      "inputModuleId": 19,
      "inputId": 3
    },
    {
      "color": "#0c8e15",
      "outputModuleId": 17,
      "outputId": 1,
      "inputModuleId": 18,
      "inputId": 3
    },
    {
      "color": "#c91847",
      "outputModuleId": 19,
      "outputId": 0,
      "inputModuleId": 3,
      "inputId": 1
    },
    {
      "color": "#0c8e15",
      "outputModuleId": 18,
      "outputId": 0,
      "inputModuleId": 3,
      "inputId": 4
    },
    {
      "color": "#c9b70e",
      "outputModuleId": 19,
      "outputId": 1,
      "inputModuleId": 13,
      "inputId": 0
    },
    {
      "color": "#c91847",
      "outputModuleId": 18,
      "outputId": 1,
      "inputModuleId": 13,
      "inputId": 1
    },
    {
      "color": "#0c8e15",
      "outputModuleId": 1,
      "outputId": 5,
      "inputModuleId": 15,
      "inputId": 6
    },
    {
      "color": "#0c8e15",
      "outputModuleId": 1,
      "outputId": 5,
      "inputModuleId": 15,
      "inputId": 7
    },
    {
      "color": "#c9b70e",
      "outputModuleId": 15,
      "outputId": 1,
      "inputModuleId": 20,
      "inputId": 0
    },
    {
      "color": "#c91847",
      "outputModuleId": 15,
      "outputId": 1,
      "inputModuleId": 20,
      "inputId": 6
    },
    {
      "color": "#0c8e15",
      "outputModuleId": 15,
      "outputId": 2,
      "inputModuleId": 20,
      "inputId": 2
    },
    {
      "color": "#0986ad",
      "outputModuleId": 15,
      "outputId": 3,
      "inputModuleId": 20,
      "inputId": 8
    },
    {
      "color": "#c9b70e",
      "outputModuleId": 20,
      "outputId": 0,
      "inputModuleId": 30,
      "inputId": 1
    },
    {
      "color": "#c91847",
      "outputModuleId": 20,
      "outputId": 2,
      "inputModuleId": 31,
      "inputId": 1
    },
    {
      "color": "#0c8e15",
      "outputModuleId": 14,
      "outputId": 0,
      "inputModuleId": 21,
      "inputId": 0
    },
    {
      "color": "#0986ad",
      "outputModuleId": 14,
      "outputId": 0,
      "inputModuleId": 22,
      "inputId": 0
    },
    {
      "color": "#c9b70e",
      "outputModuleId": 21,
      "outputId": 0,
      "inputModuleId": 15,
      "inputId": 2
    },
    {
      "color": "#c91847",
      "outputModuleId": 23,
      "outputId": 0,
      "inputModuleId": 19,
      "inputId": 2
    },
    {
      "color": "#c91847",
      "outputModuleId": 23,
      "outputId": 0,
      "inputModuleId": 18,
      "inputId": 2
    },
    {
      "color": "#0c8e15",
      "outputModuleId": 1,
      "outputId": 6,
      "inputModuleId": 14,
      "inputId": 0
    },
    {
      "color": "#0986ad",
      "outputModuleId": 24,
      "outputId": 0,
      "inputModuleId": 25,
      "inputId": 0
    },
    {
      "color": "#c9b70e",
      "outputModuleId": 25,
      "outputId": 0,
      "inputModuleId": 21,
      "inputId": 1
    },
    {
      "color": "#c91847",
      "outputModuleId": 25,
      "outputId": 1,
      "inputModuleId": 22,
      "inputId": 1
    },
    {
      "color": "#0c8e15",
      "outputModuleId": 4,
      "outputId": 3,
      "inputModuleId": 24,
      "inputId": 0
    },
    {
      "color": "#0986ad",
      "outputModuleId": 4,
      "outputId": 0,
      "inputModuleId": 24,
      "inputId": 1
    },
    {
      "color": "#0986ad",
      "outputModuleId": 22,
      "outputId": 0,
      "inputModuleId": 15,
      "inputId": 3
    },
    {
      "color": "#c91847",
      "outputModuleId": 21,
      "outputId": 1,
      "inputModuleId": 26,
      "inputId": 4
    },
    {
      "color": "#0c8e15",
      "outputModuleId": 22,
      "outputId": 1,
      "inputModuleId": 27,
      "inputId": 4
    },
    {
      "color": "#c91847",
      "outputModuleId": 26,
      "outputId": 0,
      "inputModuleId": 20,
      "inputId": 7
    },
    {
      "color": "#0c8e15",
      "outputModuleId": 27,
      "outputId": 0,
      "inputModuleId": 20,
      "inputId": 5
    },
    {
      "color": "#0986ad",
      "outputModuleId": 28,
      "outputId": 0,
      "inputModuleId": 14,
      "inputId": 4
    },
    {
      "color": "#c9b70e",
      "outputModuleId": 1,
      "outputId": 7,
      "inputModuleId": 33,
      "inputId": 2
    },
    {
      "color": "#0c8e15",
      "outputModuleId": 1,
      "outputId": 5,
      "inputModuleId": 29,
      "inputId": 1
    },
    {
      "color": "#0c8e15",
      "outputModuleId": 29,
      "outputId": 0,
      "inputModuleId": 19,
      "inputId": 1
    },
    {
      "color": "#0c8e15",
      "outputModuleId": 29,
      "outputId": 0,
      "inputModuleId": 18,
      "inputId": 1
    },
    {
      "color": "#c9b70e",
      "outputModuleId": 30,
      "outputId": 0,
      "inputModuleId": 17,
      "inputId": 0
    },
    {
      "color": "#c91847",
      "outputModuleId": 31,
      "outputId": 0,
      "inputModuleId": 17,
      "inputId": 1
    },
    {
      "color": "#c9b70e",
      "outputModuleId": 2,
      "outputId": 12,
      "inputModuleId": 32,
      "inputId": 4
    },
    {
      "color": "#c9b70e",
      "outputModuleId": 33,
      "outputId": 0,
      "inputModuleId": 6,
      "inputId": 0
    },
    {
      "color": "#0c8e15",
      "outputModuleId": 6,
      "outputId": 0,
      "inputModuleId": 15,
      "inputId": 4
    },
    {
      "color": "#0986ad",
      "outputModuleId": 15,
      "outputId": 4,
      "inputModuleId": 20,
      "inputId": 3
    },
    {
      "color": "#c9b70e",
      "outputModuleId": 12,
      "outputId": 10,
      "inputModuleId": 15,
      "inputId": 8
    },
    {
      "color": "#0c8e15",
      "outputModuleId": 2,
      "outputId": 12,
      "inputModuleId": 32,
      "inputId": 5
    },
    {
      "color": "#c9b70e",
      "outputModuleId": 32,
      "outputId": 0,
      "inputModuleId": 34,
      "inputId": 6
    },
    {
      "color": "#c9b70e",
      "outputModuleId": 34,
      "outputId": 3,
      "inputModuleId": 35,
      "inputId": 2
    },
    {
      "color": "#c91847",
      "outputModuleId": 35,
      "outputId": 0,
      "inputModuleId": 15,
      "inputId": 5
    },
    {
      "color": "#c9b70e",
      "outputModuleId": 11,
      "outputId": 8,
      "inputModuleId": 17,
      "inputId": 3
    }
  ]
}