{
  "version": "0.6.2b",
  "modules": [
    {
      "plugin": "Core",
      "version": "0.6.2b",
      "model": "MIDICCToCVInterface",
      "params": [],
      "data": {
        "ccs": [
          11,
          13,
          15,
          17,
          12,
          14,
          16,
          18,
          8,
          9,
          10,
          11,
          12,
          13,
          14,
          15
        ],
        "midi": {
          "driver": 4,
          "deviceName": "VMidi 1 6",
          "channel": -1
        }
      },
      "pos": [
        0,
        0
      ]
    },
    {
      "plugin": "Core",
      "version": "0.6.2b",
      "model": "AudioInterface",
      "params": [],
      "data": {
        "audio": {
          "driver": 7,
          "deviceName": "MOTU Audio ASIO",
          "offset": 0,
          "maxChannels": 8,
          "sampleRate": 44100,
          "blockSize": 512
        }
      },
      "pos": [
        96,
        1
      ]
    },
    {
      "plugin": "AS",
      "version": "0.6.12",
      "model": "VCA",
      "params": [
        {
          "paramId": 0,
          "value": 0.990999997
        },
        {
          "paramId": 1,
          "value": 0.996999979
        },
        {
          "paramId": 2,
          "value": 1.0
        },
        {
          "paramId": 3,
          "value": 1.0
        }
      ],
      "pos": [
        74,
        1
      ]
    },
    {
      "plugin": "Befaco",
      "version": "0.6.0",
      "model": "SlewLimiter",
      "params": [
        {
          "paramId": 0,
          "value": 0.996999979
        },
        {
          "paramId": 1,
          "value": 0.0
        },
        {
          "paramId": 2,
          "value": 0.55799973
        }
      ],
      "pos": [
        68,
        1
      ]
    },
    {
      "plugin": "Befaco",
      "version": "0.6.0",
      "model": "SlewLimiter",
      "params": [
        {
          "paramId": 0,
          "value": 0.996999979
        },
        {
          "paramId": 1,
          "value": 0.0
        },
        {
          "paramId": 2,
          "value": 0.55799973
        }
      ],
      "pos": [
        62,
        1
      ]
    },
    {
      "plugin": "ESeries",
      "version": "0.6.0",
      "model": "E340",
      "params": [
        {
          "paramId": 0,
          "value": -10.6559772
        },
        {
          "paramId": 1,
          "value": 0.0
        },
        {
          "paramId": 2,
          "value": 0.109499998
        },
        {
          "paramId": 3,
          "value": 0.0795000046
        },
        {
          "paramId": 4,
          "value": 0.555000007
        },
        {
          "paramId": 5,
          "value": 0.230000302
        },
        {
          "paramId": 6,
          "value": 1.0
        }
      ],
      "pos": [
        34,
        1
      ]
    },
    {
      "plugin": "ESeries",
      "version": "0.6.0",
      "model": "E340",
      "params": [
        {
          "paramId": 0,
          "value": -10.6559772
        },
        {
          "paramId": 1,
          "value": 0.0
        },
        {
          "paramId": 2,
          "value": 0.109499998
        },
        {
          "paramId": 3,
          "value": 0.0795000046
        },
        {
          "paramId": 4,
          "value": 0.555000007
        },
        {
          "paramId": 5,
          "value": 0.230000302
        },
        {
          "paramId": 6,
          "value": 1.0
        }
      ],
      "pos": [
        48,
        1
      ]
    },
    {
      "plugin": "AS",
      "version": "0.6.12",
      "model": "VCA",
      "params": [
        {
          "paramId": 0,
          "value": 0.996999979
        },
        {
          "paramId": 1,
          "value": 0.987999976
        },
        {
          "paramId": 2,
          "value": 1.0
        },
        {
          "paramId": 3,
          "value": 1.0
        }
      ],
      "pos": [
        80,
        1
      ]
    },
    {
      "plugin": "Befaco",
      "version": "0.6.0",
      "model": "SlewLimiter",
      "params": [
        {
          "paramId": 0,
          "value": 0.0
        },
        {
          "paramId": 1,
          "value": 0.143999919
        },
        {
          "paramId": 2,
          "value": 0.110999897
        }
      ],
      "pos": [
        22,
        1
      ]
    },
    {
      "plugin": "Befaco",
      "version": "0.6.0",
      "model": "SlewLimiter",
      "params": [
        {
          "paramId": 0,
          "value": 0.0
        },
        {
          "paramId": 1,
          "value": 0.143999919
        },
        {
          "paramId": 2,
          "value": 0.110999897
        }
      ],
      "pos": [
        28,
        1
      ]
    },
    {
      "plugin": "Bogaudio",
      "version": "0.6.10",
      "model": "Bogaudio-Offset",
      "params": [
        {
          "paramId": 0,
          "value": -0.180000037
        },
        {
          "paramId": 1,
          "value": 0.189999968
        }
      ],
      "data": {
        "disableOutputLimit": false
      },
      "pos": [
        8,
        1
      ]
    },
    {
      "plugin": "Bogaudio",
      "version": "0.6.10",
      "model": "Bogaudio-Offset",
      "params": [
        {
          "paramId": 0,
          "value": -0.180000037
        },
        {
          "paramId": 1,
          "value": 0.189999968
        }
      ],
      "data": {
        "disableOutputLimit": false
      },
      "pos": [
        11,
        1
      ]
    },
    {
      "plugin": "Bogaudio",
      "version": "0.6.10",
      "model": "Bogaudio-Offset",
      "params": [
        {
          "paramId": 0,
          "value": -0.299999774
        },
        {
          "paramId": 1,
          "value": 0.298000067
        }
      ],
      "data": {
        "disableOutputLimit": false
      },
      "pos": [
        10,
        0
      ]
    },
    {
      "plugin": "Bogaudio",
      "version": "0.6.10",
      "model": "Bogaudio-Offset",
      "params": [
        {
          "paramId": 0,
          "value": -0.299999774
        },
        {
          "paramId": 1,
          "value": 0.298000067
        }
      ],
      "data": {
        "disableOutputLimit": false
      },
      "pos": [
        13,
        0
      ]
    },
    {
      "plugin": "MSM",
      "version": "0.6.3",
      "model": "Dual Delay",
      "params": [
        {
          "paramId": 0,
          "value": 0.0
        },
        {
          "paramId": 12,
          "value": 0.5
        },
        {
          "paramId": 14,
          "value": 0.261000007
        },
        {
          "paramId": 2,
          "value": 0.0
        },
        {
          "paramId": 4,
          "value": 0.474999547
        },
        {
          "paramId": 6,
          "value": 1.0
        },
        {
          "paramId": 7,
          "value": 0.0
        },
        {
          "paramId": 10,
          "value": 0.351499796
        },
        {
          "paramId": 1,
          "value": 0.0
        },
        {
          "paramId": 13,
          "value": 0.5
        },
        {
          "paramId": 15,
          "value": 0.285000056
        },
        {
          "paramId": 3,
          "value": 0.0
        },
        {
          "paramId": 5,
          "value": 0.429999441
        },
        {
          "paramId": 8,
          "value": 1.0
        },
        {
          "paramId": 9,
          "value": 0.0
        },
        {
          "paramId": 11,
          "value": 0.352999896
        }
      ],
      "data": {
        "Theme": 0,
        "DISPLAYA": 0,
        "DISPLAYB": 0
      },
      "pos": [
        74,
        0
      ]
    },
    {
      "plugin": "Fundamental",
      "version": "0.6.2",
      "model": "LFO",
      "params": [
        {
          "paramId": 0,
          "value": 1.0
        },
        {
          "paramId": 1,
          "value": 1.0
        },
        {
          "paramId": 2,
          "value": 4.37500525
        },
        {
          "paramId": 3,
          "value": 0.0
        },
        {
          "paramId": 5,
          "value": 0.5
        },
        {
          "paramId": 4,
          "value": 0.0
        },
        {
          "paramId": 6,
          "value": 0.0
        }
      ],
      "pos": [
        52,
        0
      ]
    },
    {
      "plugin": "Fundamental",
      "version": "0.6.2",
      "model": "LFO",
      "params": [
        {
          "paramId": 0,
          "value": 1.0
        },
        {
          "paramId": 1,
          "value": 1.0
        },
        {
          "paramId": 2,
          "value": 4.37500525
        },
        {
          "paramId": 3,
          "value": 0.0
        },
        {
          "paramId": 5,
          "value": 0.5
        },
        {
          "paramId": 4,
          "value": 0.0
        },
        {
          "paramId": 6,
          "value": 0.0
        }
      ],
      "pos": [
        62,
        0
      ]
    },
    {
      "plugin": "Bogaudio",
      "version": "0.6.10",
      "model": "Bogaudio-Offset",
      "params": [
        {
          "paramId": 0,
          "value": -0.503999889
        },
        {
          "paramId": 1,
          "value": -0.724999666
        }
      ],
      "data": {
        "disableOutputLimit": false
      },
      "pos": [
        17,
        0
      ]
    },
    {
      "plugin": "Bogaudio",
      "version": "0.6.10",
      "model": "Bogaudio-Offset",
      "params": [
        {
          "paramId": 0,
          "value": -0.503999889
        },
        {
          "paramId": 1,
          "value": -0.724999666
        }
      ],
      "data": {
        "disableOutputLimit": false
      },
      "pos": [
        20,
        0
      ]
    },
    {
      "plugin": "Fundamental",
      "version": "0.6.2",
      "model": "VCF",
      "params": [
        {
          "paramId": 0,
          "value": 0.658999801
        },
        {
          "paramId": 1,
          "value": 0.5
        },
        {
          "paramId": 2,
          "value": 0.549000323
        },
        {
          "paramId": 3,
          "value": 0.993999958
        },
        {
          "paramId": 4,
          "value": 0.358500063
        }
      ],
      "pos": [
        100,
        0
      ]
    },
    {
      "plugin": "Fundamental",
      "version": "0.6.2",
      "model": "VCF",
      "params": [
        {
          "paramId": 0,
          "value": 0.658999801
        },
        {
          "paramId": 1,
          "value": 0.5
        },
        {
          "paramId": 2,
          "value": 0.549000323
        },
        {
          "paramId": 3,
          "value": 0.993999958
        },
        {
          "paramId": 4,
          "value": 0.358500063
        }
      ],
      "pos": [
        108,
        0
      ]
    },
    {
      "plugin": "AS",
      "version": "0.6.12",
      "model": "ADSR",
      "params": [
        {
          "paramId": 0,
          "value": 0.0599999949
        },
        {
          "paramId": 1,
          "value": 0.0
        },
        {
          "paramId": 2,
          "value": 0.993999958
        },
        {
          "paramId": 3,
          "value": 0.124999903
        }
      ],
      "pos": [
        37,
        0
      ]
    },
    {
      "plugin": "AS",
      "version": "0.6.12",
      "model": "VCA",
      "params": [
        {
          "paramId": 0,
          "value": 0.996999979
        },
        {
          "paramId": 1,
          "value": 0.987999976
        },
        {
          "paramId": 2,
          "value": 1.0
        },
        {
          "paramId": 3,
          "value": 1.0
        }
      ],
      "pos": [
        86,
        1
      ]
    },
    {
      "plugin": "Befaco",
      "version": "0.6.0",
      "model": "SlewLimiter",
      "params": [
        {
          "paramId": 0,
          "value": 0.0
        },
        {
          "paramId": 1,
          "value": 0.053999994
        },
        {
          "paramId": 2,
          "value": 0.119999975
        }
      ],
      "pos": [
        45,
        0
      ]
    },
    {
      "plugin": "Bogaudio",
      "version": "0.6.10",
      "model": "Bogaudio-Stack",
      "params": [
        {
          "paramId": 0,
          "value": 0.0
        },
        {
          "paramId": 1,
          "value": 0.0
        },
        {
          "paramId": 2,
          "value": 0.0
        },
        {
          "paramId": 3,
          "value": 1.0
        }
      ],
      "pos": [
        19,
        1
      ]
    },
    {
      "plugin": "Bogaudio",
      "version": "0.6.10",
      "model": "Bogaudio-Stack",
      "params": [
        {
          "paramId": 0,
          "value": 0.0
        },
        {
          "paramId": 1,
          "value": 0.0
        },
        {
          "paramId": 2,
          "value": 0.0
        },
        {
          "paramId": 3,
          "value": 1.0
        }
      ],
      "pos": [
        16,
        1
      ]
    },
    {
      "plugin": "Fundamental",
      "version": "0.6.2",
      "model": "LFO",
      "params": [
        {
          "paramId": 0,
          "value": 1.0
        },
        {
          "paramId": 1,
          "value": 1.0
        },
        {
          "paramId": 2,
          "value": 2.18799853
        },
        {
          "paramId": 3,
          "value": 0.263999999
        },
        {
          "paramId": 5,
          "value": 0.286000013
        },
        {
          "paramId": 4,
          "value": 0.253500015
        },
        {
          "paramId": 6,
          "value": 0.0104999999
        }
      ],
      "pos": [
        23,
        0
      ]
    },
    {
      "plugin": "NYSTHI",
      "version": "0.6.30",
      "model": "MasterRecorder",
      "params": [
        {
          "paramId": 0,
          "value": 0.0
        },
        {
          "paramId": 1,
          "value": 0.0
        },
        {
          "paramId": 2,
          "value": 1.0
        }
      ],
      "data": {
        "nysthi_id": "MR_lRIGMCZ8",
        "wavebits": 9
      },
      "pos": [
        106,
        1
      ]
    }
  ],
  "wires": [
    {
      "color": "#c9b70e",
      "outputModuleId": 0,
      "outputId": 0,
      "inputModuleId": 4,
      "inputId": 2
    },
    {
      "color": "#0c8e15",
      "outputModuleId": 0,
      "outputId": 4,
      "inputModuleId": 3,
      "inputId": 2
    },
    {
      "color": "#0986ad",
      "outputModuleId": 4,
      "outputId": 0,
      "inputModuleId": 2,
      "inputId": 0
    },
    {
      "color": "#c9b70e",
      "outputModuleId": 3,
      "outputId": 0,
      "inputModuleId": 2,
      "inputId": 2
    },
    {
      "color": "#c91847",
      "outputModuleId": 2,
      "outputId": 0,
      "inputModuleId": 7,
      "inputId": 1
    },
    {
      "color": "#0c8e15",
      "outputModuleId": 2,
      "outputId": 1,
      "inputModuleId": 7,
      "inputId": 3
    },
    {
      "color": "#c9b70e",
      "outputModuleId": 0,
      "outputId": 2,
      "inputModuleId": 10,
      "inputId": 2
    },
    {
      "color": "#c91847",
      "outputModuleId": 13,
      "outputId": 0,
      "inputModuleId": 5,
      "inputId": 4
    },
    {
      "color": "#0c8e15",
      "outputModuleId": 5,
      "outputId": 0,
      "inputModuleId": 2,
      "inputId": 1
    },
    {
      "color": "#0986ad",
      "outputModuleId": 0,
      "outputId": 6,
      "inputModuleId": 11,
      "inputId": 2
    },
    {
      "color": "#c9b70e",
      "outputModuleId": 12,
      "outputId": 0,
      "inputModuleId": 6,
      "inputId": 4
    },
    {
      "color": "#0c8e15",
      "outputModuleId": 6,
      "outputId": 0,
      "inputModuleId": 2,
      "inputId": 3
    },
    {
      "color": "#0986ad",
      "outputModuleId": 17,
      "outputId": 0,
      "inputModuleId": 7,
      "inputId": 0
    },
    {
      "color": "#c9b70e",
      "outputModuleId": 18,
      "outputId": 0,
      "inputModuleId": 7,
      "inputId": 2
    },
    {
      "color": "#c91847",
      "outputModuleId": 22,
      "outputId": 0,
      "inputModuleId": 14,
      "inputId": 11
    },
    {
      "color": "#0c8e15",
      "outputModuleId": 22,
      "outputId": 1,
      "inputModuleId": 14,
      "inputId": 12
    },
    {
      "color": "#c91847",
      "outputModuleId": 10,
      "outputId": 0,
      "inputModuleId": 25,
      "inputId": 1
    },
    {
      "color": "#0c8e15",
      "outputModuleId": 11,
      "outputId": 0,
      "inputModuleId": 24,
      "inputId": 1
    },
    {
      "color": "#0986ad",
      "outputModuleId": 13,
      "outputId": 0,
      "inputModuleId": 5,
      "inputId": 3
    },
    {
      "color": "#c9b70e",
      "outputModuleId": 12,
      "outputId": 0,
      "inputModuleId": 6,
      "inputId": 3
    },
    {
      "color": "#c91847",
      "outputModuleId": 0,
      "outputId": 1,
      "inputModuleId": 13,
      "inputId": 2
    },
    {
      "color": "#0c8e15",
      "outputModuleId": 0,
      "outputId": 5,
      "inputModuleId": 12,
      "inputId": 2
    },
    {
      "color": "#0c8e15",
      "outputModuleId": 14,
      "outputId": 0,
      "inputModuleId": 19,
      "inputId": 3
    },
    {
      "color": "#0986ad",
      "outputModuleId": 14,
      "outputId": 1,
      "inputModuleId": 20,
      "inputId": 3
    },
    {
      "color": "#c9b70e",
      "outputModuleId": 12,
      "outputId": 0,
      "inputModuleId": 14,
      "inputId": 1
    },
    {
      "color": "#c91847",
      "outputModuleId": 13,
      "outputId": 0,
      "inputModuleId": 14,
      "inputId": 2
    },
    {
      "color": "#0c8e15",
      "outputModuleId": 15,
      "outputId": 0,
      "inputModuleId": 5,
      "inputId": 1
    },
    {
      "color": "#0986ad",
      "outputModuleId": 16,
      "outputId": 0,
      "inputModuleId": 6,
      "inputId": 1
    },
    {
      "color": "#0c8e15",
      "outputModuleId": 0,
      "outputId": 7,
      "inputModuleId": 18,
      "inputId": 2
    },
    {
      "color": "#0986ad",
      "outputModuleId": 0,
      "outputId": 3,
      "inputModuleId": 17,
      "inputId": 2
    },
    {
      "color": "#c9b70e",
      "outputModuleId": 19,
      "outputId": 0,
      "inputModuleId": 1,
      "inputId": 0
    },
    {
      "color": "#c91847",
      "outputModuleId": 20,
      "outputId": 0,
      "inputModuleId": 1,
      "inputId": 1
    },
    {
      "color": "#0986ad",
      "outputModuleId": 8,
      "outputId": 0,
      "inputModuleId": 19,
      "inputId": 0
    },
    {
      "color": "#c9b70e",
      "outputModuleId": 9,
      "outputId": 0,
      "inputModuleId": 20,
      "inputId": 0
    },
    {
      "color": "#0986ad",
      "outputModuleId": 7,
      "outputId": 0,
      "inputModuleId": 22,
      "inputId": 1
    },
    {
      "color": "#c9b70e",
      "outputModuleId": 7,
      "outputId": 1,
      "inputModuleId": 22,
      "inputId": 3
    },
    {
      "color": "#c91847",
      "outputModuleId": 23,
      "outputId": 0,
      "inputModuleId": 22,
      "inputId": 0
    },
    {
      "color": "#0c8e15",
      "outputModuleId": 23,
      "outputId": 0,
      "inputModuleId": 22,
      "inputId": 2
    },
    {
      "color": "#0986ad",
      "outputModuleId": 21,
      "outputId": 0,
      "inputModuleId": 23,
      "inputId": 2
    },
    {
      "color": "#c9b70e",
      "outputModuleId": 25,
      "outputId": 1,
      "inputModuleId": 8,
      "inputId": 2
    },
    {
      "color": "#c91847",
      "outputModuleId": 24,
      "outputId": 1,
      "inputModuleId": 9,
      "inputId": 2
    },
    {
      "color": "#0c8e15",
      "outputModuleId": 8,
      "outputId": 0,
      "inputModuleId": 5,
      "inputId": 0
    },
    {
      "color": "#0986ad",
      "outputModuleId": 9,
      "outputId": 0,
      "inputModuleId": 6,
      "inputId": 0
    },
    {
      "color": "#c9b70e",
      "outputModuleId": 26,
      "outputId": 3,
      "inputModuleId": 21,
      "inputId": 4
    },
    {
      "color": "#c91847",
      "outputModuleId": 8,
      "outputId": 0,
      "inputModuleId": 26,
      "inputId": 0
    },
    {
      "color": "#0c8e15",
      "outputModuleId": 9,
      "outputId": 0,
      "inputModuleId": 26,
      "inputId": 1
    },
    {
      "color": "#0986ad",
      "outputModuleId": 19,
      "outputId": 0,
      "inputModuleId": 27,
      "inputId": 0
    },
    {
      "color": "#c9b70e",
      "outputModuleId": 20,
      "outputId": 0,
      "inputModuleId": 27,
      "inputId": 1
    }
  ]
}