{
  "version": "0.6.2b",
  "modules": [
    {
      "plugin": "Core",
      "version": "0.6.2b",
      "model": "AudioInterface",
      "params": [],
      "data": {
        "audio": {
          "driver": -12512,
          "deviceName": "1",
          "offset": 0,
          "maxChannels": 8,
          "sampleRate": 44100,
          "blockSize": 256
        }
      },
      "pos": [
        87,
        1
      ]
    },
    {
      "plugin": "Core",
      "version": "0.6.2b",
      "model": "MIDIToCVInterface",
      "params": [],
      "data": {
        "divisions": [
          24,
          6
        ],
        "midi": {
          "driver": -12512,
          "deviceName": "Port 1",
          "channel": -1
        }
      },
      "pos": [
        0,
        0
      ]
    },
    {
      "plugin": "AS",
      "version": "0.6.9",
      "model": "QuadVCA",
      "params": [
        {
          "paramId": 0,
          "value": 0.692000031
        },
        {
          "paramId": 1,
          "value": 0.696000099
        },
        {
          "paramId": 2,
          "value": 0.615000129
        },
        {
          "paramId": 3,
          "value": 0.81400001
        },
        {
          "paramId": 4,
          "value": 0.0
        },
        {
          "paramId": 5,
          "value": 0.0
        },
        {
          "paramId": 6,
          "value": 0.0
        },
        {
          "paramId": 7,
          "value": 1.0
        }
      ],
      "pos": [
        64,
        1
      ]
    },
    {
      "plugin": "Bogaudio",
      "version": "0.6.7",
      "model": "Bogaudio-VCO",
      "params": [
        {
          "paramId": 0,
          "value": -0.245999798
        },
        {
          "paramId": 1,
          "value": -0.00900003687
        },
        {
          "paramId": 2,
          "value": 0.0
        },
        {
          "paramId": 3,
          "value": 0.589000046
        },
        {
          "paramId": 4,
          "value": 0.110999405
        },
        {
          "paramId": 5,
          "value": 1.0
        }
      ],
      "pos": [
        44,
        1
      ]
    },
    {
      "plugin": "Bogaudio",
      "version": "0.6.7",
      "model": "Bogaudio-VCO",
      "params": [
        {
          "paramId": 0,
          "value": -1.54199994
        },
        {
          "paramId": 1,
          "value": 0.0899999961
        },
        {
          "paramId": 2,
          "value": 0.0
        },
        {
          "paramId": 3,
          "value": 0.522999942
        },
        {
          "paramId": 4,
          "value": 0.178500667
        },
        {
          "paramId": 5,
          "value": 1.0
        }
      ],
      "pos": [
        54,
        1
      ]
    },
    {
      "plugin": "AS",
      "version": "0.6.9",
      "model": "VCA",
      "params": [
        {
          "paramId": 0,
          "value": 0.301999927
        },
        {
          "paramId": 1,
          "value": 0.425000012
        },
        {
          "paramId": 2,
          "value": 1.0
        },
        {
          "paramId": 3,
          "value": 1.0
        }
      ],
      "pos": [
        50,
        0
      ]
    },
    {
      "plugin": "Bogaudio",
      "version": "0.6.7",
      "model": "Bogaudio-LFO",
      "params": [
        {
          "paramId": 0,
          "value": -1.54049969
        },
        {
          "paramId": 1,
          "value": 0.0
        },
        {
          "paramId": 2,
          "value": 0.0
        },
        {
          "paramId": 3,
          "value": 0.521999955
        },
        {
          "paramId": 4,
          "value": 0.0
        },
        {
          "paramId": 5,
          "value": 1.0
        }
      ],
      "pos": [
        19,
        0
      ]
    },
    {
      "plugin": "Bogaudio",
      "version": "0.6.7",
      "model": "Bogaudio-LFO",
      "params": [
        {
          "paramId": 0,
          "value": -1.38450086
        },
        {
          "paramId": 1,
          "value": 0.0
        },
        {
          "paramId": 2,
          "value": 0.0
        },
        {
          "paramId": 3,
          "value": 0.281999916
        },
        {
          "paramId": 4,
          "value": 0.0
        },
        {
          "paramId": 5,
          "value": 1.0
        }
      ],
      "pos": [
        29,
        0
      ]
    },
    {
      "plugin": "MSM",
      "version": "0.6.3",
      "model": "ADSR",
      "params": [
        {
          "paramId": 0,
          "value": 0.0
        },
        {
          "paramId": 1,
          "value": 0.0
        },
        {
          "paramId": 2,
          "value": 1.0
        },
        {
          "paramId": 3,
          "value": 0.458999634
        }
      ],
      "data": {
        "Theme": 0,
        "Linear": 0
      },
      "pos": [
        0,
        1
      ]
    },
    {
      "plugin": "Befaco",
      "version": "0.6.0",
      "model": "SlewLimiter",
      "params": [
        {
          "paramId": 0,
          "value": 0.0300002471
        },
        {
          "paramId": 1,
          "value": 0.0569999926
        },
        {
          "paramId": 2,
          "value": 0.725999892
        }
      ],
      "pos": [
        9,
        1
      ]
    },
    {
      "plugin": "Befaco",
      "version": "0.6.0",
      "model": "SlewLimiter",
      "params": [
        {
          "paramId": 0,
          "value": 0.0
        },
        {
          "paramId": 1,
          "value": 0.87599957
        },
        {
          "paramId": 2,
          "value": 0.774999559
        }
      ],
      "pos": [
        23,
        1
      ]
    },
    {
      "plugin": "AS",
      "version": "0.6.9",
      "model": "AtNuVrTr",
      "params": [
        {
          "paramId": 0,
          "value": 0.0
        },
        {
          "paramId": 1,
          "value": 0.0
        },
        {
          "paramId": 2,
          "value": -1.0
        },
        {
          "paramId": 3,
          "value": 0.0
        }
      ],
      "pos": [
        29,
        1
      ]
    },
    {
      "plugin": "Bogaudio",
      "version": "0.6.7",
      "model": "Bogaudio-VCO",
      "params": [
        {
          "paramId": 0,
          "value": 1.26600003
        },
        {
          "paramId": 1,
          "value": 0.0810000151
        },
        {
          "paramId": 2,
          "value": 0.0
        },
        {
          "paramId": 3,
          "value": -0.723999798
        },
        {
          "paramId": 4,
          "value": 0.239999518
        },
        {
          "paramId": 5,
          "value": 1.0
        }
      ],
      "pos": [
        34,
        1
      ]
    },
    {
      "plugin": "AS",
      "version": "0.6.9",
      "model": "VCA",
      "params": [
        {
          "paramId": 0,
          "value": 0.868000209
        },
        {
          "paramId": 1,
          "value": 0.859000266
        },
        {
          "paramId": 2,
          "value": 0.0
        },
        {
          "paramId": 3,
          "value": 0.0
        }
      ],
      "pos": [
        39,
        0
      ]
    },
    {
      "plugin": "Befaco",
      "version": "0.6.0",
      "model": "SlewLimiter",
      "params": [
        {
          "paramId": 0,
          "value": 0.259499907
        },
        {
          "paramId": 1,
          "value": 0.161999971
        },
        {
          "paramId": 2,
          "value": 0.135000542
        }
      ],
      "pos": [
        13,
        0
      ]
    },
    {
      "plugin": "LindenbergResearch",
      "version": "0.6.2b",
      "model": "MS20 VCF",
      "params": [
        {
          "paramId": 0,
          "value": 0.449500382
        },
        {
          "paramId": 1,
          "value": 0.170999855
        },
        {
          "paramId": 2,
          "value": 0.076500006
        },
        {
          "paramId": 4,
          "value": 0.37530002
        },
        {
          "paramId": 3,
          "value": 0.526499867
        },
        {
          "paramId": 5,
          "value": 0.0
        },
        {
          "paramId": 6,
          "value": 0.0
        }
      ],
      "pos": [
        56,
        0
      ]
    },
    {
      "plugin": "Bidoo",
      "version": "0.6.17",
      "model": "dFUZE",
      "params": [
        {
          "paramId": 0,
          "value": 0.750999272
        },
        {
          "paramId": 1,
          "value": 0.385000259
        },
        {
          "paramId": 3,
          "value": 0.801999807
        },
        {
          "paramId": 4,
          "value": 0.712500334
        },
        {
          "paramId": 5,
          "value": 0.0940000266
        },
        {
          "paramId": 6,
          "value": 0.0388399921
        },
        {
          "paramId": 2,
          "value": 0.0
        }
      ],
      "pos": [
        68,
        0
      ]
    },
    {
      "plugin": "Bogaudio",
      "version": "0.6.7",
      "model": "Bogaudio-Offset",
      "params": [
        {
          "paramId": 0,
          "value": 0.0
        },
        {
          "paramId": 1,
          "value": 0.268999904
        }
      ],
      "data": {
        "disableOutputLimit": false
      },
      "pos": [
        75,
        0
      ]
    },
    {
      "plugin": "Bogaudio",
      "version": "0.6.7",
      "model": "Bogaudio-Offset",
      "params": [
        {
          "paramId": 0,
          "value": -0.188999981
        },
        {
          "paramId": 1,
          "value": 0.220000058
        }
      ],
      "data": {
        "disableOutputLimit": false
      },
      "pos": [
        15,
        1
      ]
    },
    {
      "plugin": "Bogaudio",
      "version": "0.6.7",
      "model": "Bogaudio-Offset",
      "params": [
        {
          "paramId": 0,
          "value": 0.0
        },
        {
          "paramId": 1,
          "value": 0.184999913
        }
      ],
      "data": {
        "disableOutputLimit": false
      },
      "pos": [
        78,
        0
      ]
    },
    {
      "plugin": "Fundamental",
      "version": "0.6.2",
      "model": "Delay",
      "params": [
        {
          "paramId": 0,
          "value": 0.138000056
        },
        {
          "paramId": 1,
          "value": 0.0839999095
        },
        {
          "paramId": 2,
          "value": 0.736999989
        },
        {
          "paramId": 3,
          "value": 0.652999818
        }
      ],
      "pos": [
        81,
        0
      ]
    },
    {
      "plugin": "Fundamental",
      "version": "0.6.2",
      "model": "Delay",
      "params": [
        {
          "paramId": 0,
          "value": 0.138000056
        },
        {
          "paramId": 1,
          "value": 0.085499905
        },
        {
          "paramId": 2,
          "value": 0.736999989
        },
        {
          "paramId": 3,
          "value": 0.652999818
        }
      ],
      "pos": [
        89,
        0
      ]
    },
    {
      "plugin": "AS",
      "version": "0.6.9",
      "model": "VCA",
      "params": [
        {
          "paramId": 0,
          "value": 0.385999978
        },
        {
          "paramId": 1,
          "value": 0.383000106
        },
        {
          "paramId": 2,
          "value": 1.0
        },
        {
          "paramId": 3,
          "value": 1.0
        }
      ],
      "pos": [
        81,
        1
      ]
    },
    {
      "plugin": "Fundamental",
      "version": "0.6.2",
      "model": "Unity",
      "params": [
        {
          "paramId": 0,
          "value": 0.0
        },
        {
          "paramId": 1,
          "value": 0.0
        }
      ],
      "data": {
        "merge": false
      },
      "pos": [
        38,
        2
      ]
    },
    {
      "plugin": "Fundamental",
      "version": "0.6.2",
      "model": "Unity",
      "params": [
        {
          "paramId": 0,
          "value": 0.0
        },
        {
          "paramId": 1,
          "value": 0.0
        }
      ],
      "data": {
        "merge": false
      },
      "pos": [
        32,
        2
      ]
    },
    {
      "plugin": "Core",
      "version": "0.6.2b",
      "model": "MIDICCToCVInterface",
      "params": [],
      "data": {
        "ccs": [
          0,
          1,
          2,
          3,
          4,
          5,
          6,
          7,
          8,
          9,
          10,
          11,
          12,
          13,
          14,
          15
        ],
        "midi": {
          "driver": -12512,
          "deviceName": "Port 1",
          "channel": -1
        }
      },
      "pos": [
        22,
        2
      ]
    }
  ],
  "wires": [
    {
      "color": "#c91847",
      "outputModuleId": 1,
      "outputId": 1,
      "inputModuleId": 8,
      "inputId": 4
    },
    {
      "color": "#0c8e15",
      "outputModuleId": 8,
      "outputId": 0,
      "inputModuleId": 9,
      "inputId": 2
    },
    {
      "color": "#0986ad",
      "outputModuleId": 9,
      "outputId": 0,
      "inputModuleId": 2,
      "inputId": 0
    },
    {
      "color": "#c9b70e",
      "outputModuleId": 9,
      "outputId": 0,
      "inputModuleId": 2,
      "inputId": 2
    },
    {
      "color": "#0986ad",
      "outputModuleId": 2,
      "outputId": 3,
      "inputModuleId": 5,
      "inputId": 1
    },
    {
      "color": "#c91847",
      "outputModuleId": 10,
      "outputId": 0,
      "inputModuleId": 3,
      "inputId": 3
    },
    {
      "color": "#0c8e15",
      "outputModuleId": 14,
      "outputId": 0,
      "inputModuleId": 23,
      "inputId": 6
    },
    {
      "color": "#0986ad",
      "outputModuleId": 14,
      "outputId": 0,
      "inputModuleId": 24,
      "inputId": 0
    },
    {
      "color": "#c9b70e",
      "outputModuleId": 10,
      "outputId": 0,
      "inputModuleId": 11,
      "inputId": 5
    },
    {
      "color": "#c91847",
      "outputModuleId": 1,
      "outputId": 1,
      "inputModuleId": 10,
      "inputId": 2
    },
    {
      "color": "#0c8e15",
      "outputModuleId": 11,
      "outputId": 1,
      "inputModuleId": 4,
      "inputId": 3
    },
    {
      "color": "#0c8e15",
      "outputModuleId": 8,
      "outputId": 0,
      "inputModuleId": 10,
      "inputId": 1
    },
    {
      "color": "#0986ad",
      "outputModuleId": 14,
      "outputId": 0,
      "inputModuleId": 23,
      "inputId": 0
    },
    {
      "color": "#c91847",
      "outputModuleId": 10,
      "outputId": 0,
      "inputModuleId": 12,
      "inputId": 3
    },
    {
      "color": "#0c8e15",
      "outputModuleId": 9,
      "outputId": 0,
      "inputModuleId": 2,
      "inputId": 4
    },
    {
      "color": "#0986ad",
      "outputModuleId": 3,
      "outputId": 0,
      "inputModuleId": 2,
      "inputId": 3
    },
    {
      "color": "#c91847",
      "outputModuleId": 12,
      "outputId": 3,
      "inputModuleId": 2,
      "inputId": 1
    },
    {
      "color": "#0c8e15",
      "outputModuleId": 4,
      "outputId": 0,
      "inputModuleId": 2,
      "inputId": 5
    },
    {
      "color": "#c9b70e",
      "outputModuleId": 6,
      "outputId": 2,
      "inputModuleId": 13,
      "inputId": 1
    },
    {
      "color": "#c91847",
      "outputModuleId": 7,
      "outputId": 2,
      "inputModuleId": 13,
      "inputId": 3
    },
    {
      "color": "#0c8e15",
      "outputModuleId": 13,
      "outputId": 0,
      "inputModuleId": 4,
      "inputId": 2
    },
    {
      "color": "#0986ad",
      "outputModuleId": 13,
      "outputId": 1,
      "inputModuleId": 3,
      "inputId": 2
    },
    {
      "color": "#c91847",
      "outputModuleId": 10,
      "outputId": 0,
      "inputModuleId": 13,
      "inputId": 2
    },
    {
      "color": "#0986ad",
      "outputModuleId": 1,
      "outputId": 0,
      "inputModuleId": 14,
      "inputId": 2
    },
    {
      "color": "#c9b70e",
      "outputModuleId": 10,
      "outputId": 0,
      "inputModuleId": 13,
      "inputId": 0
    },
    {
      "color": "#c91847",
      "outputModuleId": 14,
      "outputId": 0,
      "inputModuleId": 6,
      "inputId": 4
    },
    {
      "color": "#c91847",
      "outputModuleId": 5,
      "outputId": 0,
      "inputModuleId": 15,
      "inputId": 0
    },
    {
      "color": "#c9b70e",
      "outputModuleId": 10,
      "outputId": 0,
      "inputModuleId": 15,
      "inputId": 1
    },
    {
      "color": "#c91847",
      "outputModuleId": 9,
      "outputId": 0,
      "inputModuleId": 15,
      "inputId": 2
    },
    {
      "color": "#c9b70e",
      "outputModuleId": 15,
      "outputId": 0,
      "inputModuleId": 16,
      "inputId": 0
    },
    {
      "color": "#c91847",
      "outputModuleId": 15,
      "outputId": 0,
      "inputModuleId": 16,
      "inputId": 1
    },
    {
      "color": "#c9b70e",
      "outputModuleId": 10,
      "outputId": 0,
      "inputModuleId": 17,
      "inputId": 2
    },
    {
      "color": "#0c8e15",
      "outputModuleId": 17,
      "outputId": 0,
      "inputModuleId": 16,
      "inputId": 2
    },
    {
      "color": "#0986ad",
      "outputModuleId": 17,
      "outputId": 0,
      "inputModuleId": 16,
      "inputId": 5
    },
    {
      "color": "#c91847",
      "outputModuleId": 8,
      "outputId": 0,
      "inputModuleId": 18,
      "inputId": 2
    },
    {
      "color": "#0986ad",
      "outputModuleId": 18,
      "outputId": 0,
      "inputModuleId": 9,
      "inputId": 0
    },
    {
      "color": "#0c8e15",
      "outputModuleId": 20,
      "outputId": 0,
      "inputModuleId": 22,
      "inputId": 1
    },
    {
      "color": "#c9b70e",
      "outputModuleId": 20,
      "outputId": 0,
      "inputModuleId": 2,
      "inputId": 6
    },
    {
      "color": "#0c8e15",
      "outputModuleId": 10,
      "outputId": 0,
      "inputModuleId": 20,
      "inputId": 2
    },
    {
      "color": "#c9b70e",
      "outputModuleId": 16,
      "outputId": 0,
      "inputModuleId": 20,
      "inputId": 4
    },
    {
      "color": "#0c8e15",
      "outputModuleId": 19,
      "outputId": 0,
      "inputModuleId": 20,
      "inputId": 0
    },
    {
      "color": "#0986ad",
      "outputModuleId": 9,
      "outputId": 0,
      "inputModuleId": 19,
      "inputId": 2
    },
    {
      "color": "#c9b70e",
      "outputModuleId": 19,
      "outputId": 0,
      "inputModuleId": 21,
      "inputId": 0
    },
    {
      "color": "#c91847",
      "outputModuleId": 10,
      "outputId": 0,
      "inputModuleId": 21,
      "inputId": 2
    },
    {
      "color": "#0c8e15",
      "outputModuleId": 21,
      "outputId": 0,
      "inputModuleId": 22,
      "inputId": 3
    },
    {
      "color": "#c9b70e",
      "outputModuleId": 16,
      "outputId": 1,
      "inputModuleId": 21,
      "inputId": 4
    },
    {
      "color": "#0c8e15",
      "outputModuleId": 22,
      "outputId": 0,
      "inputModuleId": 0,
      "inputId": 0
    },
    {
      "color": "#0986ad",
      "outputModuleId": 22,
      "outputId": 1,
      "inputModuleId": 0,
      "inputId": 1
    },
    {
      "color": "#c9b70e",
      "outputModuleId": 25,
      "outputId": 0,
      "inputModuleId": 24,
      "inputId": 2
    },
    {
      "color": "#c91847",
      "outputModuleId": 25,
      "outputId": 1,
      "inputModuleId": 23,
      "inputId": 2
    },
    {
      "color": "#0c8e15",
      "outputModuleId": 25,
      "outputId": 2,
      "inputModuleId": 23,
      "inputId": 8
    },
    {
      "color": "#0986ad",
      "outputModuleId": 24,
      "outputId": 0,
      "inputModuleId": 12,
      "inputId": 0
    },
    {
      "color": "#c9b70e",
      "outputModuleId": 23,
      "outputId": 0,
      "inputModuleId": 3,
      "inputId": 0
    },
    {
      "color": "#c91847",
      "outputModuleId": 23,
      "outputId": 2,
      "inputModuleId": 4,
      "inputId": 0
    }
  ]
}