{
  "version": "0.6.2c",
  "modules": [
    {
      "plugin": "CatroModulo",
      "version": "0.6.4",
      "model": "CatroModulo_CM-5",
      "params": [
        {
          "paramId": 0,
          "value": 0.0
        }
      ],
      "pos": [
        7,
        1
      ]
    },
    {
      "plugin": "CatroModulo",
      "version": "0.6.4",
      "model": "CatroModulo_CM-4",
      "params": [
        {
          "paramId": 0,
          "value": 3.52798223
        },
        {
          "paramId": 2,
          "value": 2.0
        },
        {
          "paramId": 1,
          "value": 0.0
        }
      ],
      "pos": [
        5,
        0
      ]
    },
    {
      "plugin": "StellareModular",
      "version": "0.6.0",
      "model": "TuringMachine",
      "params": [
        {
          "paramId": 0,
          "value": 0.5
        },
        {
          "paramId": 1,
          "value": 0.5
        },
        {
          "paramId": 2,
          "value": 0.5
        },
        {
          "paramId": 3,
          "value": 0.5
        },
        {
          "paramId": 4,
          "value": 0.5
        },
        {
          "paramId": 5,
          "value": 0.332999945
        },
        {
          "paramId": 12,
          "value": 0.0
        },
        {
          "paramId": 11,
          "value": 0.0
        },
        {
          "paramId": 6,
          "value": 7.0
        },
        {
          "paramId": 7,
          "value": 0.636500001
        },
        {
          "paramId": 9,
          "value": 0.0
        },
        {
          "paramId": 10,
          "value": 0.0
        }
      ],
      "data": {
        "pulses_mode": 0
      },
      "pos": [
        18,
        0
      ]
    },
    {
      "plugin": "AS",
      "version": "0.6.13",
      "model": "Mixer8ch",
      "params": [
        {
          "paramId": 9,
          "value": -0.222000033
        },
        {
          "paramId": 10,
          "value": 0.155999988
        },
        {
          "paramId": 11,
          "value": 0.0
        },
        {
          "paramId": 12,
          "value": -0.164999947
        },
        {
          "paramId": 13,
          "value": 0.063999936
        },
        {
          "paramId": 14,
          "value": 0.0
        },
        {
          "paramId": 15,
          "value": 0.0
        },
        {
          "paramId": 16,
          "value": 0.0
        },
        {
          "paramId": 1,
          "value": 0.703999996
        },
        {
          "paramId": 2,
          "value": 0.839000046
        },
        {
          "paramId": 3,
          "value": 0.800000012
        },
        {
          "paramId": 4,
          "value": 0.800000012
        },
        {
          "paramId": 5,
          "value": 0.63500005
        },
        {
          "paramId": 6,
          "value": 0.461000055
        },
        {
          "paramId": 7,
          "value": 0.280999929
        },
        {
          "paramId": 8,
          "value": 0.272000074
        },
        {
          "paramId": 17,
          "value": 0.0
        },
        {
          "paramId": 18,
          "value": 0.0
        },
        {
          "paramId": 19,
          "value": 0.0
        },
        {
          "paramId": 20,
          "value": 0.0
        },
        {
          "paramId": 21,
          "value": 0.0
        },
        {
          "paramId": 22,
          "value": 0.0
        },
        {
          "paramId": 23,
          "value": 0.0
        },
        {
          "paramId": 24,
          "value": 0.0
        },
        {
          "paramId": 0,
          "value": 0.800000012
        },
        {
          "paramId": 25,
          "value": 0.0
        }
      ],
      "data": {
        "as_MixerMutes": [
          0,
          0,
          0,
          0,
          0,
          0,
          0,
          0,
          0
        ]
      },
      "pos": [
        94,
        2
      ]
    },
    {
      "plugin": "Core",
      "version": "0.6.2c",
      "model": "AudioInterface",
      "params": [],
      "data": {
        "audio": {
          "driver": 6,
          "deviceName": "Speakers (High Definition Audio Device)",
          "offset": 0,
          "maxChannels": 8,
          "sampleRate": 48000,
          "blockSize": 1024
        }
      },
      "pos": [
        120,
        2
      ]
    },
    {
      "plugin": "StellareModular",
      "version": "0.6.0",
      "model": "TuringMachine",
      "params": [
        {
          "paramId": 0,
          "value": 0.565499902
        },
        {
          "paramId": 1,
          "value": 0.488999993
        },
        {
          "paramId": 2,
          "value": 0.490500093
        },
        {
          "paramId": 3,
          "value": 0.486000031
        },
        {
          "paramId": 4,
          "value": 0.649499893
        },
        {
          "paramId": 5,
          "value": 0.290999919
        },
        {
          "paramId": 12,
          "value": 0.0
        },
        {
          "paramId": 11,
          "value": 0.0
        },
        {
          "paramId": 6,
          "value": 7.0
        },
        {
          "paramId": 7,
          "value": 0.881000042
        },
        {
          "paramId": 9,
          "value": 0.0
        },
        {
          "paramId": 10,
          "value": 0.0
        }
      ],
      "data": {
        "pulses_mode": 0
      },
      "pos": [
        18,
        1
      ]
    },
    {
      "plugin": "StellareModular",
      "version": "0.6.0",
      "model": "TuringMachine",
      "params": [
        {
          "paramId": 0,
          "value": 0.217499956
        },
        {
          "paramId": 1,
          "value": 0.145499989
        },
        {
          "paramId": 2,
          "value": 0.312000096
        },
        {
          "paramId": 3,
          "value": 0.237000033
        },
        {
          "paramId": 4,
          "value": 0.26699993
        },
        {
          "paramId": 5,
          "value": 0.312000006
        },
        {
          "paramId": 12,
          "value": 0.0
        },
        {
          "paramId": 11,
          "value": 0.0
        },
        {
          "paramId": 6,
          "value": 7.0
        },
        {
          "paramId": 7,
          "value": 0.522500157
        },
        {
          "paramId": 9,
          "value": 0.0
        },
        {
          "paramId": 10,
          "value": 0.0
        }
      ],
      "data": {
        "pulses_mode": 0
      },
      "pos": [
        18,
        2
      ]
    },
    {
      "plugin": "JW-Modules",
      "version": "0.6.3",
      "model": "Quantizer",
      "params": [
        {
          "paramId": 0,
          "value": 4.0
        },
        {
          "paramId": 1,
          "value": 11.0
        }
      ],
      "data": {},
      "pos": [
        36,
        0
      ]
    },
    {
      "plugin": "JW-Modules",
      "version": "0.6.3",
      "model": "Quantizer",
      "params": [
        {
          "paramId": 0,
          "value": 4.0
        },
        {
          "paramId": 1,
          "value": 11.0
        }
      ],
      "data": {},
      "pos": [
        36,
        1
      ]
    },
    {
      "plugin": "JW-Modules",
      "version": "0.6.3",
      "model": "Quantizer",
      "params": [
        {
          "paramId": 0,
          "value": 4.0
        },
        {
          "paramId": 1,
          "value": 11.0
        }
      ],
      "data": {},
      "pos": [
        36,
        2
      ]
    },
    {
      "plugin": "VultModulesFree",
      "version": "0.6.26",
      "model": "UtilKnobs",
      "params": [
        {
          "paramId": 0,
          "value": 0.515500188
        },
        {
          "paramId": 1,
          "value": 0.129000053
        },
        {
          "paramId": 2,
          "value": 0.0
        },
        {
          "paramId": 3,
          "value": 0.0
        },
        {
          "paramId": 4,
          "value": 0.0
        },
        {
          "paramId": 5,
          "value": 0.0
        },
        {
          "paramId": 6,
          "value": 0.370499969
        },
        {
          "paramId": 7,
          "value": 0.345000029
        },
        {
          "paramId": 8,
          "value": -1.0
        },
        {
          "paramId": 9,
          "value": 0.0
        },
        {
          "paramId": 10,
          "value": 0.0
        },
        {
          "paramId": 11,
          "value": 0.0
        }
      ],
      "pos": [
        10,
        0
      ]
    },
    {
      "plugin": "SonusModular",
      "version": "0.6.2",
      "model": "Paramath",
      "params": [],
      "pos": [
        40,
        0
      ]
    },
    {
      "plugin": "SonusModular",
      "version": "0.6.2",
      "model": "Paramath",
      "params": [],
      "pos": [
        40,
        1
      ]
    },
    {
      "plugin": "SonusModular",
      "version": "0.6.2",
      "model": "Paramath",
      "params": [],
      "pos": [
        40,
        2
      ]
    },
    {
      "plugin": "SonusModular",
      "version": "0.6.2",
      "model": "Paramath",
      "params": [],
      "pos": [
        46,
        1
      ]
    },
    {
      "plugin": "SonusModular",
      "version": "0.6.2",
      "model": "Paramath",
      "params": [],
      "pos": [
        46,
        2
      ]
    },
    {
      "plugin": "SonusModular",
      "version": "0.6.2",
      "model": "Paramath",
      "params": [],
      "pos": [
        46,
        0
      ]
    },
    {
      "plugin": "SonusModular",
      "version": "0.6.2",
      "model": "Paramath",
      "params": [],
      "pos": [
        52,
        0
      ]
    },
    {
      "plugin": "SonusModular",
      "version": "0.6.2",
      "model": "Paramath",
      "params": [],
      "pos": [
        52,
        1
      ]
    },
    {
      "plugin": "SonusModular",
      "version": "0.6.2",
      "model": "Paramath",
      "params": [],
      "pos": [
        52,
        2
      ]
    },
    {
      "plugin": "AudibleInstruments",
      "version": "0.6.3",
      "model": "Plaits",
      "params": [
        {
          "paramId": 0,
          "value": 0.0
        },
        {
          "paramId": 1,
          "value": 0.0
        },
        {
          "paramId": 2,
          "value": -4.0
        },
        {
          "paramId": 3,
          "value": 0.0750000104
        },
        {
          "paramId": 4,
          "value": 0.742999732
        },
        {
          "paramId": 5,
          "value": 0.58100003
        },
        {
          "paramId": 6,
          "value": 0.284999996
        },
        {
          "paramId": 7,
          "value": 0.0
        },
        {
          "paramId": 8,
          "value": 0.224999949
        }
      ],
      "data": {
        "lowCpu": false,
        "model": 3,
        "lpgColor": 0.5,
        "decay": 0.5
      },
      "pos": [
        62,
        0
      ]
    },
    {
      "plugin": "AudibleInstruments",
      "version": "0.6.3",
      "model": "Plaits",
      "params": [
        {
          "paramId": 0,
          "value": 0.0
        },
        {
          "paramId": 1,
          "value": 0.0
        },
        {
          "paramId": 2,
          "value": -4.0
        },
        {
          "paramId": 3,
          "value": 0.0
        },
        {
          "paramId": 4,
          "value": 0.630500138
        },
        {
          "paramId": 5,
          "value": 0.448999971
        },
        {
          "paramId": 6,
          "value": 0.287999958
        },
        {
          "paramId": 7,
          "value": 0.0
        },
        {
          "paramId": 8,
          "value": 0.252000034
        }
      ],
      "data": {
        "lowCpu": false,
        "model": 2,
        "lpgColor": 0.5,
        "decay": 0.5
      },
      "pos": [
        62,
        1
      ]
    },
    {
      "plugin": "AudibleInstruments",
      "version": "0.6.3",
      "model": "Plaits",
      "params": [
        {
          "paramId": 0,
          "value": 0.0
        },
        {
          "paramId": 1,
          "value": 0.0
        },
        {
          "paramId": 2,
          "value": -4.0
        },
        {
          "paramId": 3,
          "value": 0.0
        },
        {
          "paramId": 4,
          "value": 0.135000005
        },
        {
          "paramId": 5,
          "value": 0.5
        },
        {
          "paramId": 6,
          "value": 0.717999876
        },
        {
          "paramId": 7,
          "value": 0.0659999996
        },
        {
          "paramId": 8,
          "value": 0.0
        }
      ],
      "data": {
        "lowCpu": false,
        "model": 2,
        "lpgColor": 0.5,
        "decay": 0.5
      },
      "pos": [
        62,
        2
      ]
    },
    {
      "plugin": "AudibleInstruments",
      "version": "0.6.3",
      "model": "Kinks",
      "params": [],
      "pos": [
        58,
        0
      ]
    },
    {
      "plugin": "AudibleInstruments",
      "version": "0.6.3",
      "model": "Kinks",
      "params": [],
      "pos": [
        58,
        1
      ]
    },
    {
      "plugin": "AudibleInstruments",
      "version": "0.6.3",
      "model": "Kinks",
      "params": [],
      "pos": [
        58,
        2
      ]
    },
    {
      "plugin": "VultModulesFree",
      "version": "0.6.26",
      "model": "Tohe",
      "params": [
        {
          "paramId": 0,
          "value": -0.357000023
        },
        {
          "paramId": 1,
          "value": 0.0
        },
        {
          "paramId": 2,
          "value": 0.0
        }
      ],
      "pos": [
        78,
        0
      ]
    },
    {
      "plugin": "VultModulesFree",
      "version": "0.6.26",
      "model": "Tohe",
      "params": [
        {
          "paramId": 0,
          "value": 0.432000041
        },
        {
          "paramId": 1,
          "value": 0.0
        },
        {
          "paramId": 2,
          "value": 2.0
        }
      ],
      "pos": [
        74,
        1
      ]
    },
    {
      "plugin": "VultModulesFree",
      "version": "0.6.26",
      "model": "Tohe",
      "params": [
        {
          "paramId": 0,
          "value": -1.0
        },
        {
          "paramId": 1,
          "value": 0.0
        },
        {
          "paramId": 2,
          "value": 0.0
        }
      ],
      "pos": [
        78,
        2
      ]
    },
    {
      "plugin": "AS",
      "version": "0.6.13",
      "model": "ReverbFx",
      "params": [
        {
          "paramId": 0,
          "value": 0.5
        },
        {
          "paramId": 1,
          "value": 0.385499924
        },
        {
          "paramId": 2,
          "value": 0.519500017
        },
        {
          "paramId": 3,
          "value": 0.0
        }
      ],
      "data": {
        "as_FxBypass": [
          false
        ]
      },
      "pos": [
        78,
        1
      ]
    },
    {
      "plugin": "AS",
      "version": "0.6.13",
      "model": "ReverbFx",
      "params": [
        {
          "paramId": 0,
          "value": 0.366349816
        },
        {
          "paramId": 1,
          "value": 0.419999987
        },
        {
          "paramId": 2,
          "value": 0.229999959
        },
        {
          "paramId": 3,
          "value": 0.0
        }
      ],
      "data": {
        "as_FxBypass": [
          false
        ]
      },
      "pos": [
        82,
        0
      ]
    },
    {
      "plugin": "VultModulesFree",
      "version": "0.6.26",
      "model": "UtilKnobs",
      "params": [
        {
          "paramId": 0,
          "value": 0.772000074
        },
        {
          "paramId": 1,
          "value": 0.276000023
        },
        {
          "paramId": 2,
          "value": 0.0
        },
        {
          "paramId": 3,
          "value": 0.0
        },
        {
          "paramId": 4,
          "value": 0.0
        },
        {
          "paramId": 5,
          "value": 0.0
        },
        {
          "paramId": 6,
          "value": 0.615499735
        },
        {
          "paramId": 7,
          "value": 0.333000034
        },
        {
          "paramId": 8,
          "value": 0.0
        },
        {
          "paramId": 9,
          "value": 0.0
        },
        {
          "paramId": 10,
          "value": 0.0
        },
        {
          "paramId": 11,
          "value": 0.0
        }
      ],
      "pos": [
        10,
        1
      ]
    },
    {
      "plugin": "VultModulesFree",
      "version": "0.6.26",
      "model": "UtilKnobs",
      "params": [
        {
          "paramId": 0,
          "value": 0.200999796
        },
        {
          "paramId": 1,
          "value": 0.0
        },
        {
          "paramId": 2,
          "value": 0.0
        },
        {
          "paramId": 3,
          "value": 0.0
        },
        {
          "paramId": 4,
          "value": 0.0
        },
        {
          "paramId": 5,
          "value": 0.0
        },
        {
          "paramId": 6,
          "value": 0.0690000057
        },
        {
          "paramId": 7,
          "value": 0.0
        },
        {
          "paramId": 8,
          "value": 0.0
        },
        {
          "paramId": 9,
          "value": 0.0
        },
        {
          "paramId": 10,
          "value": 0.0
        },
        {
          "paramId": 11,
          "value": 0.0
        }
      ],
      "pos": [
        10,
        2
      ]
    },
    {
      "plugin": "SonusModular",
      "version": "0.6.2",
      "model": "Paramath",
      "params": [],
      "pos": [
        84,
        1
      ]
    },
    {
      "plugin": "SonusModular",
      "version": "0.6.2",
      "model": "Paramath",
      "params": [],
      "pos": [
        90,
        1
      ]
    },
    {
      "plugin": "Autodafe-Drum Kit",
      "version": "0.6.0",
      "model": "Drums - Cymbals",
      "params": [
        {
          "paramId": 0,
          "value": 0.0
        }
      ],
      "data": {
        "sampletype": 2
      },
      "pos": [
        102,
        1
      ]
    },
    {
      "plugin": "SonusModular",
      "version": "0.6.2",
      "model": "Paramath",
      "params": [],
      "pos": [
        106,
        1
      ]
    },
    {
      "plugin": "SonusModular",
      "version": "0.6.2",
      "model": "Paramath",
      "params": [],
      "pos": [
        112,
        1
      ]
    },
    {
      "plugin": "Autodafe-Drum Kit",
      "version": "0.6.0",
      "model": "Drums - Snare",
      "params": [
        {
          "paramId": 0,
          "value": 0.0
        }
      ],
      "data": {
        "sampletype": 3
      },
      "pos": [
        118,
        1
      ]
    },
    {
      "plugin": "Autodafe-Drum Kit",
      "version": "0.6.0",
      "model": "Drums - Open Hats",
      "params": [
        {
          "paramId": 0,
          "value": 0.0
        }
      ],
      "data": {
        "sampletype": 2
      },
      "pos": [
        122,
        1
      ]
    },
    {
      "plugin": "AS",
      "version": "0.6.13",
      "model": "ReverbStereoFx",
      "params": [
        {
          "paramId": 0,
          "value": 0.626050115
        },
        {
          "paramId": 1,
          "value": 0.442500025
        },
        {
          "paramId": 2,
          "value": 0.5
        },
        {
          "paramId": 3,
          "value": 0.0
        }
      ],
      "data": {
        "as_FxBypass": [
          false
        ]
      },
      "pos": [
        88,
        2
      ]
    },
    {
      "plugin": "Autodafe-Drum Kit",
      "version": "0.6.0",
      "model": "Drums - Ride",
      "params": [
        {
          "paramId": 0,
          "value": 0.0
        }
      ],
      "data": {
        "sampletype": 2
      },
      "pos": [
        116,
        0
      ]
    },
    {
      "plugin": "AudibleInstruments",
      "version": "0.6.3",
      "model": "Branches",
      "params": [
        {
          "paramId": 0,
          "value": 0.5
        },
        {
          "paramId": 2,
          "value": 0.0
        },
        {
          "paramId": 1,
          "value": 0.826999962
        },
        {
          "paramId": 3,
          "value": 0.0
        }
      ],
      "data": {
        "modes": [
          false,
          false
        ]
      },
      "pos": [
        107,
        0
      ]
    },
    {
      "plugin": "Autodafe-Drum Kit",
      "version": "0.6.0",
      "model": "Drums - Ride",
      "params": [
        {
          "paramId": 0,
          "value": 0.0
        }
      ],
      "data": {
        "sampletype": 1
      },
      "pos": [
        120,
        0
      ]
    },
    {
      "plugin": "Befaco",
      "version": "0.6.0",
      "model": "SlewLimiter",
      "params": [
        {
          "paramId": 0,
          "value": 0.0
        },
        {
          "paramId": 1,
          "value": 0.69299984
        },
        {
          "paramId": 2,
          "value": 0.67800051
        }
      ],
      "pos": [
        96,
        1
      ]
    },
    {
      "plugin": "Bogaudio",
      "version": "0.6.14",
      "model": "Bogaudio-FlipFlop",
      "params": [],
      "pos": [
        113,
        0
      ]
    },
    {
      "plugin": "CatroModulo",
      "version": "0.6.4",
      "model": "CatroModulo_CM-1",
      "params": [
        {
          "paramId": 0,
          "value": 2.99099994
        },
        {
          "paramId": 1,
          "value": 2.99099994
        },
        {
          "paramId": 2,
          "value": 2.99550009
        },
        {
          "paramId": 3,
          "value": 3.0
        },
        {
          "paramId": 4,
          "value": 0.0
        },
        {
          "paramId": 5,
          "value": 0.0
        },
        {
          "paramId": 6,
          "value": 0.0
        },
        {
          "paramId": 7,
          "value": 0.0
        },
        {
          "paramId": 8,
          "value": -3.04999995
        },
        {
          "paramId": 9,
          "value": -3.75199962
        },
        {
          "paramId": 10,
          "value": -4.08500099
        },
        {
          "paramId": 11,
          "value": -4.66999912
        },
        {
          "paramId": 12,
          "value": -4.34599781
        },
        {
          "paramId": 13,
          "value": -2.26699972
        },
        {
          "paramId": 14,
          "value": -1.40299892
        },
        {
          "paramId": 15,
          "value": -2.13199925
        },
        {
          "paramId": 16,
          "value": 0.5
        },
        {
          "paramId": 17,
          "value": 0.5
        },
        {
          "paramId": 18,
          "value": 0.5
        },
        {
          "paramId": 19,
          "value": 0.5
        },
        {
          "paramId": 20,
          "value": 0.5
        },
        {
          "paramId": 21,
          "value": 0.5
        },
        {
          "paramId": 22,
          "value": 0.5
        },
        {
          "paramId": 23,
          "value": 0.5
        },
        {
          "paramId": 24,
          "value": 0.5
        },
        {
          "paramId": 25,
          "value": 0.5
        },
        {
          "paramId": 26,
          "value": 0.5
        },
        {
          "paramId": 27,
          "value": 0.5
        },
        {
          "paramId": 28,
          "value": 0.5
        },
        {
          "paramId": 29,
          "value": 0.5
        },
        {
          "paramId": 30,
          "value": 0.5
        },
        {
          "paramId": 31,
          "value": 0.5
        },
        {
          "paramId": 32,
          "value": 0.0
        },
        {
          "paramId": 33,
          "value": 0.0
        }
      ],
      "pos": [
        88,
        0
      ]
    },
    {
      "plugin": "Bogaudio",
      "version": "0.6.14",
      "model": "Bogaudio-UMix",
      "params": [
        {
          "paramId": 0,
          "value": 0.62500006
        }
      ],
      "data": {
        "sum": true
      },
      "pos": [
        127,
        0
      ]
    },
    {
      "plugin": "Bogaudio",
      "version": "0.6.14",
      "model": "Bogaudio-UMix",
      "params": [
        {
          "paramId": 0,
          "value": 0.590499997
        }
      ],
      "data": {
        "sum": true
      },
      "pos": [
        124,
        0
      ]
    },
    {
      "plugin": "AS",
      "version": "0.6.13",
      "model": "SineOSC",
      "params": [
        {
          "paramId": 0,
          "value": -3.0
        },
        {
          "paramId": 1,
          "value": 0.0
        }
      ],
      "pos": [
        74,
        0
      ]
    },
    {
      "plugin": "squinkylabs-plug1",
      "version": "0.6.14",
      "model": "squinkylabs-booster",
      "params": [
        {
          "paramId": 0,
          "value": 2.0
        }
      ],
      "pos": [
        4,
        2
      ]
    },
    {
      "plugin": "AS",
      "version": "0.6.13",
      "model": "SineOSC",
      "params": [
        {
          "paramId": 0,
          "value": -3.0
        },
        {
          "paramId": 1,
          "value": 0.0
        }
      ],
      "pos": [
        74,
        2
      ]
    },
    {
      "plugin": "AS",
      "version": "0.6.13",
      "model": "ReverbStereoFx",
      "params": [
        {
          "paramId": 0,
          "value": 0.626050115
        },
        {
          "paramId": 1,
          "value": 0.442500025
        },
        {
          "paramId": 2,
          "value": 0.5
        },
        {
          "paramId": 3,
          "value": 0.0
        }
      ],
      "data": {
        "as_FxBypass": [
          false
        ]
      },
      "pos": [
        82,
        2
      ]
    },
    {
      "plugin": "ModularFungi",
      "version": "0.6.2",
      "model": "Blank 4HP",
      "params": [],
      "style": 0.0,
      "pos": [
        126,
        1
      ]
    },
    {
      "plugin": "ModularFungi",
      "version": "0.6.2",
      "model": "Blank 3HP",
      "params": [],
      "style": 0.0,
      "pos": [
        4,
        1
      ]
    },
    {
      "plugin": "CatroModulo",
      "version": "0.6.4",
      "model": "CatroModulo_CM-6",
      "params": [],
      "pos": [
        4,
        0
      ]
    }
  ],
  "wires": [
    {
      "color": "#c9b70e",
      "outputModuleId": 3,
      "outputId": 0,
      "inputModuleId": 4,
      "inputId": 0
    },
    {
      "color": "#c91847",
      "outputModuleId": 3,
      "outputId": 1,
      "inputModuleId": 4,
      "inputId": 1
    },
    {
      "color": "#c91847",
      "outputModuleId": 1,
      "outputId": 0,
      "inputModuleId": 0,
      "inputId": 0
    },
    {
      "color": "#0c8e15",
      "outputModuleId": 0,
      "outputId": 1,
      "inputModuleId": 2,
      "inputId": 0
    },
    {
      "color": "#0986ad",
      "outputModuleId": 1,
      "outputId": 7,
      "inputModuleId": 0,
      "inputId": 1
    },
    {
      "color": "#c9b70e",
      "outputModuleId": 1,
      "outputId": 7,
      "inputModuleId": 5,
      "inputId": 1
    },
    {
      "color": "#c91847",
      "outputModuleId": 1,
      "outputId": 7,
      "inputModuleId": 2,
      "inputId": 1
    },
    {
      "color": "#c91847",
      "outputModuleId": 0,
      "outputId": 3,
      "inputModuleId": 5,
      "inputId": 0
    },
    {
      "color": "#0c8e15",
      "outputModuleId": 1,
      "outputId": 4,
      "inputModuleId": 6,
      "inputId": 0
    },
    {
      "color": "#0986ad",
      "outputModuleId": 2,
      "outputId": 14,
      "inputModuleId": 7,
      "inputId": 2
    },
    {
      "color": "#0c8e15",
      "outputModuleId": 7,
      "outputId": 0,
      "inputModuleId": 11,
      "inputId": 1
    },
    {
      "color": "#0986ad",
      "outputModuleId": 8,
      "outputId": 0,
      "inputModuleId": 12,
      "inputId": 1
    },
    {
      "color": "#c9b70e",
      "outputModuleId": 9,
      "outputId": 0,
      "inputModuleId": 13,
      "inputId": 1
    },
    {
      "color": "#c91847",
      "outputModuleId": 10,
      "outputId": 0,
      "inputModuleId": 11,
      "inputId": 0
    },
    {
      "color": "#c9b70e",
      "outputModuleId": 11,
      "outputId": 0,
      "inputModuleId": 17,
      "inputId": 0
    },
    {
      "color": "#0986ad",
      "outputModuleId": 10,
      "outputId": 1,
      "inputModuleId": 16,
      "inputId": 1
    },
    {
      "color": "#0986ad",
      "outputModuleId": 16,
      "outputId": 0,
      "inputModuleId": 17,
      "inputId": 1
    },
    {
      "color": "#c91847",
      "outputModuleId": 7,
      "outputId": 0,
      "inputModuleId": 16,
      "inputId": 0
    },
    {
      "color": "#0c8e15",
      "outputModuleId": 5,
      "outputId": 14,
      "inputModuleId": 8,
      "inputId": 2
    },
    {
      "color": "#0986ad",
      "outputModuleId": 6,
      "outputId": 14,
      "inputModuleId": 9,
      "inputId": 2
    },
    {
      "color": "#c9b70e",
      "outputModuleId": 8,
      "outputId": 0,
      "inputModuleId": 14,
      "inputId": 0
    },
    {
      "color": "#c91847",
      "outputModuleId": 9,
      "outputId": 0,
      "inputModuleId": 15,
      "inputId": 0
    },
    {
      "color": "#c9b70e",
      "outputModuleId": 12,
      "outputId": 0,
      "inputModuleId": 18,
      "inputId": 0
    },
    {
      "color": "#c91847",
      "outputModuleId": 14,
      "outputId": 0,
      "inputModuleId": 18,
      "inputId": 1
    },
    {
      "color": "#0c8e15",
      "outputModuleId": 13,
      "outputId": 0,
      "inputModuleId": 19,
      "inputId": 0
    },
    {
      "color": "#0986ad",
      "outputModuleId": 15,
      "outputId": 0,
      "inputModuleId": 19,
      "inputId": 1
    },
    {
      "color": "#c9b70e",
      "outputModuleId": 17,
      "outputId": 4,
      "inputModuleId": 20,
      "inputId": 5
    },
    {
      "color": "#c91847",
      "outputModuleId": 20,
      "outputId": 0,
      "inputModuleId": 26,
      "inputId": 0
    },
    {
      "color": "#0c8e15",
      "outputModuleId": 7,
      "outputId": 0,
      "inputModuleId": 23,
      "inputId": 3
    },
    {
      "color": "#0986ad",
      "outputModuleId": 18,
      "outputId": 4,
      "inputModuleId": 21,
      "inputId": 5
    },
    {
      "color": "#c9b70e",
      "outputModuleId": 19,
      "outputId": 4,
      "inputModuleId": 22,
      "inputId": 5
    },
    {
      "color": "#c91847",
      "outputModuleId": 8,
      "outputId": 0,
      "inputModuleId": 24,
      "inputId": 3
    },
    {
      "color": "#0c8e15",
      "outputModuleId": 9,
      "outputId": 0,
      "inputModuleId": 25,
      "inputId": 3
    },
    {
      "color": "#0986ad",
      "outputModuleId": 17,
      "outputId": 4,
      "inputModuleId": 23,
      "inputId": 4
    },
    {
      "color": "#c9b70e",
      "outputModuleId": 23,
      "outputId": 6,
      "inputModuleId": 20,
      "inputId": 7
    },
    {
      "color": "#c91847",
      "outputModuleId": 18,
      "outputId": 4,
      "inputModuleId": 24,
      "inputId": 4
    },
    {
      "color": "#0c8e15",
      "outputModuleId": 24,
      "outputId": 6,
      "inputModuleId": 21,
      "inputId": 7
    },
    {
      "color": "#c9b70e",
      "outputModuleId": 25,
      "outputId": 6,
      "inputModuleId": 22,
      "inputId": 7
    },
    {
      "color": "#c91847",
      "outputModuleId": 19,
      "outputId": 4,
      "inputModuleId": 25,
      "inputId": 4
    },
    {
      "color": "#0c8e15",
      "outputModuleId": 21,
      "outputId": 0,
      "inputModuleId": 27,
      "inputId": 0
    },
    {
      "color": "#0986ad",
      "outputModuleId": 52,
      "outputId": 0,
      "inputModuleId": 3,
      "inputId": 7
    },
    {
      "color": "#c91847",
      "outputModuleId": 6,
      "outputId": 13,
      "inputModuleId": 22,
      "inputId": 1
    },
    {
      "color": "#0986ad",
      "outputModuleId": 22,
      "outputId": 0,
      "inputModuleId": 28,
      "inputId": 0
    },
    {
      "color": "#0c8e15",
      "outputModuleId": 25,
      "outputId": 5,
      "inputModuleId": 22,
      "inputId": 2
    },
    {
      "color": "#0986ad",
      "outputModuleId": 30,
      "outputId": 0,
      "inputModuleId": 3,
      "inputId": 1
    },
    {
      "color": "#c9b70e",
      "outputModuleId": 29,
      "outputId": 0,
      "inputModuleId": 3,
      "inputId": 4
    },
    {
      "color": "#c91847",
      "outputModuleId": 26,
      "outputId": 0,
      "inputModuleId": 30,
      "inputId": 0
    },
    {
      "color": "#0c8e15",
      "outputModuleId": 27,
      "outputId": 0,
      "inputModuleId": 29,
      "inputId": 0
    },
    {
      "color": "#0986ad",
      "outputModuleId": 28,
      "outputId": 0,
      "inputModuleId": 52,
      "inputId": 0
    },
    {
      "color": "#c9b70e",
      "outputModuleId": 31,
      "outputId": 0,
      "inputModuleId": 12,
      "inputId": 0
    },
    {
      "color": "#c91847",
      "outputModuleId": 31,
      "outputId": 1,
      "inputModuleId": 14,
      "inputId": 1
    },
    {
      "color": "#0c8e15",
      "outputModuleId": 32,
      "outputId": 0,
      "inputModuleId": 13,
      "inputId": 0
    },
    {
      "color": "#0986ad",
      "outputModuleId": 32,
      "outputId": 1,
      "inputModuleId": 15,
      "inputId": 1
    },
    {
      "color": "#c91847",
      "outputModuleId": 17,
      "outputId": 4,
      "inputModuleId": 33,
      "inputId": 0
    },
    {
      "color": "#0c8e15",
      "outputModuleId": 18,
      "outputId": 4,
      "inputModuleId": 33,
      "inputId": 1
    },
    {
      "color": "#0986ad",
      "outputModuleId": 33,
      "outputId": 4,
      "inputModuleId": 34,
      "inputId": 0
    },
    {
      "color": "#c9b70e",
      "outputModuleId": 19,
      "outputId": 4,
      "inputModuleId": 34,
      "inputId": 1
    },
    {
      "color": "#c91847",
      "outputModuleId": 34,
      "outputId": 4,
      "inputModuleId": 35,
      "inputId": 0
    },
    {
      "color": "#0986ad",
      "outputModuleId": 35,
      "outputId": 0,
      "inputModuleId": 47,
      "inputId": 2
    },
    {
      "color": "#c9b70e",
      "outputModuleId": 17,
      "outputId": 4,
      "inputModuleId": 36,
      "inputId": 0
    },
    {
      "color": "#c91847",
      "outputModuleId": 18,
      "outputId": 4,
      "inputModuleId": 36,
      "inputId": 1
    },
    {
      "color": "#0c8e15",
      "outputModuleId": 18,
      "outputId": 4,
      "inputModuleId": 37,
      "inputId": 0
    },
    {
      "color": "#0986ad",
      "outputModuleId": 19,
      "outputId": 4,
      "inputModuleId": 37,
      "inputId": 1
    },
    {
      "color": "#c9b70e",
      "outputModuleId": 37,
      "outputId": 4,
      "inputModuleId": 42,
      "inputId": 1
    },
    {
      "color": "#c91847",
      "outputModuleId": 36,
      "outputId": 4,
      "inputModuleId": 39,
      "inputId": 0
    },
    {
      "color": "#0c8e15",
      "outputModuleId": 38,
      "outputId": 0,
      "inputModuleId": 47,
      "inputId": 0
    },
    {
      "color": "#0986ad",
      "outputModuleId": 39,
      "outputId": 0,
      "inputModuleId": 47,
      "inputId": 1
    },
    {
      "color": "#c9b70e",
      "outputModuleId": 40,
      "outputId": 0,
      "inputModuleId": 3,
      "inputId": 10
    },
    {
      "color": "#c91847",
      "outputModuleId": 40,
      "outputId": 1,
      "inputModuleId": 3,
      "inputId": 13
    },
    {
      "color": "#0c8e15",
      "outputModuleId": 0,
      "outputId": 1,
      "inputModuleId": 45,
      "inputId": 0
    },
    {
      "color": "#0986ad",
      "outputModuleId": 45,
      "outputId": 0,
      "inputModuleId": 41,
      "inputId": 0
    },
    {
      "color": "#c9b70e",
      "outputModuleId": 45,
      "outputId": 1,
      "inputModuleId": 43,
      "inputId": 0
    },
    {
      "color": "#0c8e15",
      "outputModuleId": 19,
      "outputId": 4,
      "inputModuleId": 44,
      "inputId": 2
    },
    {
      "color": "#c9b70e",
      "outputModuleId": 44,
      "outputId": 0,
      "inputModuleId": 3,
      "inputId": 14
    },
    {
      "color": "#0986ad",
      "outputModuleId": 42,
      "outputId": 1,
      "inputModuleId": 38,
      "inputId": 0
    },
    {
      "color": "#0c8e15",
      "outputModuleId": 46,
      "outputId": 0,
      "inputModuleId": 20,
      "inputId": 1
    },
    {
      "color": "#0986ad",
      "outputModuleId": 46,
      "outputId": 1,
      "inputModuleId": 20,
      "inputId": 3
    },
    {
      "color": "#c9b70e",
      "outputModuleId": 46,
      "outputId": 2,
      "inputModuleId": 21,
      "inputId": 1
    },
    {
      "color": "#c91847",
      "outputModuleId": 46,
      "outputId": 3,
      "inputModuleId": 21,
      "inputId": 3
    },
    {
      "color": "#c91847",
      "outputModuleId": 47,
      "outputId": 0,
      "inputModuleId": 40,
      "inputId": 0
    },
    {
      "color": "#0986ad",
      "outputModuleId": 41,
      "outputId": 0,
      "inputModuleId": 48,
      "inputId": 0
    },
    {
      "color": "#c9b70e",
      "outputModuleId": 43,
      "outputId": 0,
      "inputModuleId": 48,
      "inputId": 1
    },
    {
      "color": "#c91847",
      "outputModuleId": 48,
      "outputId": 0,
      "inputModuleId": 40,
      "inputId": 1
    },
    {
      "color": "#c91847",
      "outputModuleId": 5,
      "outputId": 12,
      "inputModuleId": 21,
      "inputId": 4
    },
    {
      "color": "#c9b70e",
      "outputModuleId": 23,
      "outputId": 6,
      "inputModuleId": 49,
      "inputId": 0
    },
    {
      "color": "#c91847",
      "outputModuleId": 49,
      "outputId": 0,
      "inputModuleId": 20,
      "inputId": 4
    },
    {
      "color": "#0c8e15",
      "outputModuleId": 46,
      "outputId": 4,
      "inputModuleId": 31,
      "inputId": 0
    },
    {
      "color": "#0986ad",
      "outputModuleId": 46,
      "outputId": 5,
      "inputModuleId": 31,
      "inputId": 4
    },
    {
      "color": "#c9b70e",
      "outputModuleId": 46,
      "outputId": 8,
      "inputModuleId": 10,
      "inputId": 0
    },
    {
      "color": "#0c8e15",
      "outputModuleId": 46,
      "outputId": 8,
      "inputModuleId": 29,
      "inputId": 1
    },
    {
      "color": "#c9b70e",
      "outputModuleId": 46,
      "outputId": 8,
      "inputModuleId": 40,
      "inputId": 4
    },
    {
      "color": "#c91847",
      "outputModuleId": 46,
      "outputId": 8,
      "inputModuleId": 52,
      "inputId": 2
    },
    {
      "color": "#0c8e15",
      "outputModuleId": 46,
      "outputId": 8,
      "inputModuleId": 10,
      "inputId": 4
    },
    {
      "color": "#c9b70e",
      "outputModuleId": 44,
      "outputId": 0,
      "inputModuleId": 10,
      "inputId": 5
    },
    {
      "color": "#0986ad",
      "outputModuleId": 25,
      "outputId": 6,
      "inputModuleId": 51,
      "inputId": 0
    },
    {
      "color": "#c9b70e",
      "outputModuleId": 51,
      "outputId": 0,
      "inputModuleId": 28,
      "inputId": 2
    },
    {
      "color": "#c91847",
      "outputModuleId": 28,
      "outputId": 1,
      "inputModuleId": 52,
      "inputId": 1
    }
  ]
}