{
  "version": "0.6.2c",
  "modules": [
    {
      "plugin": "Core",
      "version": "0.6.2c",
      "model": "AudioInterface",
      "params": [],
      "data": {
        "audio": {
          "driver": 6,
          "deviceName": "Speakers (High Definition Audio Device)",
          "offset": 0,
          "maxChannels": 8,
          "sampleRate": 48000,
          "blockSize": 256
        }
      },
      "pos": [
        97,
        0
      ]
    },
    {
      "plugin": "CatroModulo",
      "version": "0.6.6",
      "model": "CatroModulo_CM-1",
      "params": [
        {
          "paramId": 0,
          "value": 0.0
        },
        {
          "paramId": 1,
          "value": 0.0
        },
        {
          "paramId": 2,
          "value": 0.0
        },
        {
          "paramId": 3,
          "value": 0.0
        },
        {
          "paramId": 4,
          "value": 0.0
        },
        {
          "paramId": 5,
          "value": 0.0
        },
        {
          "paramId": 6,
          "value": 0.0
        },
        {
          "paramId": 7,
          "value": 0.499500036
        },
        {
          "paramId": 8,
          "value": 8.93550014
        },
        {
          "paramId": 9,
          "value": 8.96849918
        },
        {
          "paramId": 10,
          "value": 8.525527
        },
        {
          "paramId": 11,
          "value": 12.295681
        },
        {
          "paramId": 12,
          "value": 13.1264763
        },
        {
          "paramId": 13,
          "value": 13.5044985
        },
        {
          "paramId": 14,
          "value": 13.9440031
        },
        {
          "paramId": 15,
          "value": 1.88999999
        },
        {
          "paramId": 16,
          "value": 0.5
        },
        {
          "paramId": 17,
          "value": 0.5
        },
        {
          "paramId": 18,
          "value": 0.5
        },
        {
          "paramId": 19,
          "value": 0.5
        },
        {
          "paramId": 20,
          "value": 0.5
        },
        {
          "paramId": 21,
          "value": 0.5
        },
        {
          "paramId": 22,
          "value": 0.5
        },
        {
          "paramId": 23,
          "value": 0.5
        },
        {
          "paramId": 24,
          "value": 0.5
        },
        {
          "paramId": 25,
          "value": 0.5
        },
        {
          "paramId": 26,
          "value": 0.5
        },
        {
          "paramId": 27,
          "value": 0.5
        },
        {
          "paramId": 28,
          "value": 0.5
        },
        {
          "paramId": 29,
          "value": 0.5
        },
        {
          "paramId": 30,
          "value": 0.5
        },
        {
          "paramId": 31,
          "value": 0.5
        },
        {
          "paramId": 32,
          "value": 0.0
        },
        {
          "paramId": 33,
          "value": 0.0
        }
      ],
      "pos": [
        22,
        0
      ]
    },
    {
      "plugin": "CatroModulo",
      "version": "0.6.6",
      "model": "CatroModulo_CM-2",
      "params": [
        {
          "paramId": 0,
          "value": 0.866999924
        },
        {
          "paramId": 1,
          "value": 0.51399982
        },
        {
          "paramId": 2,
          "value": -0.0240003765
        },
        {
          "paramId": 3,
          "value": -0.656000078
        },
        {
          "paramId": 4,
          "value": 0.651000202
        },
        {
          "paramId": 5,
          "value": 0.0480002612
        },
        {
          "paramId": 6,
          "value": 0.176999643
        },
        {
          "paramId": 7,
          "value": 0.101999998
        },
        {
          "paramId": 8,
          "value": 0.0
        },
        {
          "paramId": 9,
          "value": 0.0
        },
        {
          "paramId": 10,
          "value": 0.0
        },
        {
          "paramId": 11,
          "value": 0.0
        },
        {
          "paramId": 12,
          "value": 0.0
        },
        {
          "paramId": 13,
          "value": 0.0
        },
        {
          "paramId": 14,
          "value": 0.0
        },
        {
          "paramId": 15,
          "value": 0.0
        }
      ],
      "pos": [
        41,
        0
      ]
    },
    {
      "plugin": "Bogaudio",
      "version": "0.6.16",
      "model": "Bogaudio-UMix",
      "params": [
        {
          "paramId": 0,
          "value": 0.739000022
        }
      ],
      "data": {
        "sum": true,
        "cv_mode": false
      },
      "pos": [
        52,
        0
      ]
    },
    {
      "plugin": "Bogaudio",
      "version": "0.6.16",
      "model": "Bogaudio-UMix",
      "params": [
        {
          "paramId": 0,
          "value": 0.761500001
        }
      ],
      "data": {
        "sum": true,
        "cv_mode": false
      },
      "pos": [
        55,
        0
      ]
    },
    {
      "plugin": "Bogaudio",
      "version": "0.6.16",
      "model": "Bogaudio-UMix",
      "params": [
        {
          "paramId": 0,
          "value": 0.739000022
        }
      ],
      "data": {
        "sum": true,
        "cv_mode": false
      },
      "pos": [
        58,
        0
      ]
    },
    {
      "plugin": "VultModulesFree",
      "version": "0.6.26",
      "model": "UtilKnobs",
      "params": [
        {
          "paramId": 0,
          "value": 0.629000008
        },
        {
          "paramId": 1,
          "value": 0.777999818
        },
        {
          "paramId": 2,
          "value": 0.516000032
        },
        {
          "paramId": 3,
          "value": 0.0
        },
        {
          "paramId": 4,
          "value": 0.0
        },
        {
          "paramId": 5,
          "value": 0.0
        },
        {
          "paramId": 6,
          "value": 0.5
        },
        {
          "paramId": 7,
          "value": 0.0
        },
        {
          "paramId": 8,
          "value": 0.0
        },
        {
          "paramId": 9,
          "value": 0.0
        },
        {
          "paramId": 10,
          "value": 0.0
        },
        {
          "paramId": 11,
          "value": 0.0
        }
      ],
      "pos": [
        14,
        0
      ]
    },
    {
      "plugin": "JW-Modules",
      "version": "0.6.3",
      "model": "FullScope",
      "params": [
        {
          "paramId": 1,
          "value": 0.0
        },
        {
          "paramId": 3,
          "value": 0.0
        },
        {
          "paramId": 0,
          "value": 0.639999866
        },
        {
          "paramId": 2,
          "value": 0.129999861
        },
        {
          "paramId": 8,
          "value": 0.0
        },
        {
          "paramId": 4,
          "value": -14.4850016
        }
      ],
      "data": {
        "lissajous": 1,
        "external": 0
      },
      "width": 345.0,
      "height": 380.0,
      "pos": [
        66,
        1
      ]
    },
    {
      "plugin": "Fundamental",
      "version": "0.6.2",
      "model": "VCO",
      "params": [
        {
          "paramId": 0,
          "value": 1.0
        },
        {
          "paramId": 1,
          "value": 1.0
        },
        {
          "paramId": 2,
          "value": 0.0
        },
        {
          "paramId": 3,
          "value": 0.0
        },
        {
          "paramId": 5,
          "value": 0.5
        },
        {
          "paramId": 4,
          "value": 0.325000018
        },
        {
          "paramId": 6,
          "value": 0.0
        }
      ],
      "pos": [
        79,
        0
      ]
    },
    {
      "plugin": "AS",
      "version": "0.6.13",
      "model": "AtNuVrTr",
      "params": [
        {
          "paramId": 0,
          "value": 0.499000162
        },
        {
          "paramId": 1,
          "value": -0.270001739
        },
        {
          "paramId": 2,
          "value": 0.213000014
        },
        {
          "paramId": 3,
          "value": 0.0
        }
      ],
      "pos": [
        61,
        0
      ]
    },
    {
      "plugin": "AS",
      "version": "0.6.13",
      "model": "AtNuVrTr",
      "params": [
        {
          "paramId": 0,
          "value": 0.351999879
        },
        {
          "paramId": 1,
          "value": -1.71000004
        },
        {
          "paramId": 2,
          "value": 0.182999983
        },
        {
          "paramId": 3,
          "value": 0.0
        }
      ],
      "pos": [
        66,
        0
      ]
    },
    {
      "plugin": "Fundamental",
      "version": "0.6.2",
      "model": "VCF",
      "params": [
        {
          "paramId": 0,
          "value": 0.68599999
        },
        {
          "paramId": 1,
          "value": 0.5
        },
        {
          "paramId": 2,
          "value": 0.442500025
        },
        {
          "paramId": 3,
          "value": 0.438999891
        },
        {
          "paramId": 4,
          "value": 0.0599999987
        }
      ],
      "pos": [
        89,
        0
      ]
    },
    {
      "plugin": "JW-Modules",
      "version": "0.6.3",
      "model": "Quantizer",
      "params": [
        {
          "paramId": 0,
          "value": 6.0
        },
        {
          "paramId": 1,
          "value": 11.0
        }
      ],
      "data": {},
      "pos": [
        71,
        0
      ]
    },
    {
      "plugin": "JW-Modules",
      "version": "0.6.3",
      "model": "Quantizer",
      "params": [
        {
          "paramId": 0,
          "value": 6.0
        },
        {
          "paramId": 1,
          "value": 11.0
        }
      ],
      "data": {},
      "pos": [
        75,
        0
      ]
    },
    {
      "plugin": "AS",
      "version": "0.6.13",
      "model": "DelayPlusStereoFx",
      "params": [
        {
          "paramId": 0,
          "value": 1.2899996
        },
        {
          "paramId": 1,
          "value": 0.381500036
        },
        {
          "paramId": 2,
          "value": 0.692499995
        },
        {
          "paramId": 3,
          "value": 1.1700002
        },
        {
          "paramId": 4,
          "value": 0.358999878
        },
        {
          "paramId": 5,
          "value": 0.672500074
        },
        {
          "paramId": 6,
          "value": 0.0
        },
        {
          "paramId": 7,
          "value": 0.0
        },
        {
          "paramId": 8,
          "value": 0.5
        },
        {
          "paramId": 9,
          "value": 0.0
        }
      ],
      "data": {
        "as_FxBypass": [
          false
        ]
      },
      "pos": [
        89,
        1
      ]
    },
    {
      "plugin": "AS",
      "version": "0.6.13",
      "model": "ReverbStereoFx",
      "params": [
        {
          "paramId": 0,
          "value": 0.654549956
        },
        {
          "paramId": 1,
          "value": 0.0
        },
        {
          "paramId": 2,
          "value": 0.384499937
        },
        {
          "paramId": 3,
          "value": 0.0
        }
      ],
      "data": {
        "as_FxBypass": [
          false
        ]
      },
      "pos": [
        101,
        1
      ]
    },
    {
      "plugin": "Befaco",
      "version": "0.6.0",
      "model": "SlewLimiter",
      "params": [
        {
          "paramId": 0,
          "value": 0.637000024
        },
        {
          "paramId": 1,
          "value": 0.405000061
        },
        {
          "paramId": 2,
          "value": 0.284999996
        }
      ],
      "pos": [
        8,
        0
      ]
    },
    {
      "plugin": "AudibleInstruments",
      "version": "0.6.3",
      "model": "Plaits",
      "params": [
        {
          "paramId": 0,
          "value": 0.0
        },
        {
          "paramId": 1,
          "value": 0.0
        },
        {
          "paramId": 2,
          "value": 3.98799992
        },
        {
          "paramId": 3,
          "value": 0.0
        },
        {
          "paramId": 4,
          "value": 0.553499877
        },
        {
          "paramId": 5,
          "value": 0.474000007
        },
        {
          "paramId": 6,
          "value": 0.80399996
        },
        {
          "paramId": 7,
          "value": 0.0
        },
        {
          "paramId": 8,
          "value": 0.755999923
        }
      ],
      "data": {
        "lowCpu": false,
        "model": 3,
        "lpgColor": 0.5,
        "decay": 0.5
      },
      "pos": [
        54,
        1
      ]
    },
    {
      "plugin": "CatroModulo",
      "version": "0.6.6",
      "model": "CatroModulo_CM-1",
      "params": [
        {
          "paramId": 0,
          "value": 0.0
        },
        {
          "paramId": 1,
          "value": 0.0
        },
        {
          "paramId": 2,
          "value": 0.0
        },
        {
          "paramId": 3,
          "value": 0.0
        },
        {
          "paramId": 4,
          "value": 0.0
        },
        {
          "paramId": 5,
          "value": 0.0
        },
        {
          "paramId": 6,
          "value": 0.0
        },
        {
          "paramId": 7,
          "value": 0.0
        },
        {
          "paramId": 8,
          "value": 0.693000019
        },
        {
          "paramId": 9,
          "value": 1.63800001
        },
        {
          "paramId": 10,
          "value": 1.13400006
        },
        {
          "paramId": 11,
          "value": 1.10249996
        },
        {
          "paramId": 12,
          "value": 1.60649991
        },
        {
          "paramId": 13,
          "value": 3.39300132
        },
        {
          "paramId": 14,
          "value": 3.83400106
        },
        {
          "paramId": 15,
          "value": 9.0
        },
        {
          "paramId": 16,
          "value": 0.5
        },
        {
          "paramId": 17,
          "value": 0.5
        },
        {
          "paramId": 18,
          "value": 0.5
        },
        {
          "paramId": 19,
          "value": 0.5
        },
        {
          "paramId": 20,
          "value": 0.5
        },
        {
          "paramId": 21,
          "value": 0.5
        },
        {
          "paramId": 22,
          "value": 0.5
        },
        {
          "paramId": 23,
          "value": 0.5
        },
        {
          "paramId": 24,
          "value": 0.5
        },
        {
          "paramId": 25,
          "value": 0.5
        },
        {
          "paramId": 26,
          "value": 0.5
        },
        {
          "paramId": 27,
          "value": 0.5
        },
        {
          "paramId": 28,
          "value": 0.5
        },
        {
          "paramId": 29,
          "value": 0.5
        },
        {
          "paramId": 30,
          "value": 0.5
        },
        {
          "paramId": 31,
          "value": 0.5
        },
        {
          "paramId": 32,
          "value": 0.0
        },
        {
          "paramId": 33,
          "value": 0.0
        }
      ],
      "pos": [
        8,
        1
      ]
    },
    {
      "plugin": "CatroModulo",
      "version": "0.6.6",
      "model": "CatroModulo_CM-8",
      "params": [
        {
          "paramId": 0,
          "value": 4.99000072
        },
        {
          "paramId": 1,
          "value": 0.0
        },
        {
          "paramId": 2,
          "value": 0.0
        }
      ],
      "pos": [
        27,
        1
      ]
    },
    {
      "plugin": "CatroModulo",
      "version": "0.6.6",
      "model": "CatroModulo_CM-10",
      "params": [
        {
          "paramId": 0,
          "value": 0.0
        },
        {
          "paramId": 2,
          "value": 0.0
        },
        {
          "paramId": 1,
          "value": 0.0
        },
        {
          "paramId": 3,
          "value": 0.0
        }
      ],
      "pos": [
        32,
        1
      ]
    },
    {
      "plugin": "CatroModulo",
      "version": "0.6.6",
      "model": "CatroModulo_CM-10",
      "params": [
        {
          "paramId": 0,
          "value": 0.0
        },
        {
          "paramId": 2,
          "value": 0.0
        },
        {
          "paramId": 1,
          "value": 0.0
        },
        {
          "paramId": 3,
          "value": 0.0
        }
      ],
      "pos": [
        36,
        1
      ]
    },
    {
      "plugin": "CatroModulo",
      "version": "0.6.6",
      "model": "CatroModulo_CM-10",
      "params": [
        {
          "paramId": 0,
          "value": 0.0
        },
        {
          "paramId": 2,
          "value": 0.0
        },
        {
          "paramId": 1,
          "value": 0.0
        },
        {
          "paramId": 3,
          "value": 0.0
        }
      ],
      "pos": [
        40,
        1
      ]
    },
    {
      "plugin": "CatroModulo",
      "version": "0.6.6",
      "model": "CatroModulo_CM-10",
      "params": [
        {
          "paramId": 0,
          "value": 0.0
        },
        {
          "paramId": 2,
          "value": 0.0
        },
        {
          "paramId": 1,
          "value": 0.0
        },
        {
          "paramId": 3,
          "value": 0.0
        }
      ],
      "pos": [
        44,
        1
      ]
    },
    {
      "plugin": "Bogaudio",
      "version": "0.6.16",
      "model": "Bogaudio-UMix",
      "params": [
        {
          "paramId": 0,
          "value": 0.358500034
        }
      ],
      "data": {
        "sum": true,
        "cv_mode": false
      },
      "pos": [
        48,
        1
      ]
    },
    {
      "plugin": "Bogaudio",
      "version": "0.6.16",
      "model": "Bogaudio-UMix",
      "params": [
        {
          "paramId": 0,
          "value": 0.264000028
        }
      ],
      "data": {
        "sum": true,
        "cv_mode": false
      },
      "pos": [
        51,
        1
      ]
    }
  ],
  "wires": [
    {
      "color": "#0986ad",
      "outputModuleId": 1,
      "outputId": 0,
      "inputModuleId": 2,
      "inputId": 0
    },
    {
      "color": "#0986ad",
      "outputModuleId": 2,
      "outputId": 0,
      "inputModuleId": 4,
      "inputId": 0
    },
    {
      "color": "#c91847",
      "outputModuleId": 1,
      "outputId": 3,
      "inputModuleId": 2,
      "inputId": 3
    },
    {
      "color": "#0c8e15",
      "outputModuleId": 3,
      "outputId": 0,
      "inputModuleId": 10,
      "inputId": 4
    },
    {
      "color": "#0986ad",
      "outputModuleId": 4,
      "outputId": 0,
      "inputModuleId": 9,
      "inputId": 4
    },
    {
      "color": "#0c8e15",
      "outputModuleId": 6,
      "outputId": 0,
      "inputModuleId": 1,
      "inputId": 8
    },
    {
      "color": "#0986ad",
      "outputModuleId": 6,
      "outputId": 0,
      "inputModuleId": 1,
      "inputId": 9
    },
    {
      "color": "#c9b70e",
      "outputModuleId": 6,
      "outputId": 0,
      "inputModuleId": 1,
      "inputId": 10
    },
    {
      "color": "#c91847",
      "outputModuleId": 6,
      "outputId": 0,
      "inputModuleId": 1,
      "inputId": 11
    },
    {
      "color": "#0c8e15",
      "outputModuleId": 1,
      "outputId": 4,
      "inputModuleId": 2,
      "inputId": 4
    },
    {
      "color": "#c9b70e",
      "outputModuleId": 1,
      "outputId": 5,
      "inputModuleId": 2,
      "inputId": 6
    },
    {
      "color": "#0986ad",
      "outputModuleId": 3,
      "outputId": 0,
      "inputModuleId": 7,
      "inputId": 0
    },
    {
      "color": "#0c8e15",
      "outputModuleId": 6,
      "outputId": 0,
      "inputModuleId": 1,
      "inputId": 12
    },
    {
      "color": "#0986ad",
      "outputModuleId": 6,
      "outputId": 0,
      "inputModuleId": 1,
      "inputId": 13
    },
    {
      "color": "#c9b70e",
      "outputModuleId": 2,
      "outputId": 1,
      "inputModuleId": 3,
      "inputId": 1
    },
    {
      "color": "#c91847",
      "outputModuleId": 1,
      "outputId": 1,
      "inputModuleId": 2,
      "inputId": 1
    },
    {
      "color": "#0c8e15",
      "outputModuleId": 1,
      "outputId": 2,
      "inputModuleId": 2,
      "inputId": 2
    },
    {
      "color": "#0986ad",
      "outputModuleId": 2,
      "outputId": 2,
      "inputModuleId": 3,
      "inputId": 2
    },
    {
      "color": "#c91847",
      "outputModuleId": 4,
      "outputId": 0,
      "inputModuleId": 7,
      "inputId": 1
    },
    {
      "color": "#0c8e15",
      "outputModuleId": 2,
      "outputId": 3,
      "inputModuleId": 4,
      "inputId": 1
    },
    {
      "color": "#0986ad",
      "outputModuleId": 2,
      "outputId": 4,
      "inputModuleId": 4,
      "inputId": 2
    },
    {
      "color": "#c9b70e",
      "outputModuleId": 2,
      "outputId": 5,
      "inputModuleId": 3,
      "inputId": 0
    },
    {
      "color": "#0c8e15",
      "outputModuleId": 1,
      "outputId": 6,
      "inputModuleId": 2,
      "inputId": 5
    },
    {
      "color": "#c91847",
      "outputModuleId": 10,
      "outputId": 0,
      "inputModuleId": 12,
      "inputId": 2
    },
    {
      "color": "#c9b70e",
      "outputModuleId": 8,
      "outputId": 0,
      "inputModuleId": 11,
      "inputId": 3
    },
    {
      "color": "#0c8e15",
      "outputModuleId": 11,
      "outputId": 0,
      "inputModuleId": 14,
      "inputId": 9
    },
    {
      "color": "#c91847",
      "outputModuleId": 2,
      "outputId": 6,
      "inputModuleId": 3,
      "inputId": 3
    },
    {
      "color": "#0c8e15",
      "outputModuleId": 12,
      "outputId": 0,
      "inputModuleId": 8,
      "inputId": 0
    },
    {
      "color": "#0986ad",
      "outputModuleId": 9,
      "outputId": 0,
      "inputModuleId": 13,
      "inputId": 2
    },
    {
      "color": "#c9b70e",
      "outputModuleId": 13,
      "outputId": 0,
      "inputModuleId": 8,
      "inputId": 1
    },
    {
      "color": "#c91847",
      "outputModuleId": 13,
      "outputId": 0,
      "inputModuleId": 11,
      "inputId": 0
    },
    {
      "color": "#0986ad",
      "outputModuleId": 11,
      "outputId": 0,
      "inputModuleId": 14,
      "inputId": 10
    },
    {
      "color": "#c9b70e",
      "outputModuleId": 14,
      "outputId": 2,
      "inputModuleId": 15,
      "inputId": 0
    },
    {
      "color": "#c91847",
      "outputModuleId": 14,
      "outputId": 3,
      "inputModuleId": 15,
      "inputId": 1
    },
    {
      "color": "#0c8e15",
      "outputModuleId": 15,
      "outputId": 0,
      "inputModuleId": 0,
      "inputId": 0
    },
    {
      "color": "#0986ad",
      "outputModuleId": 15,
      "outputId": 1,
      "inputModuleId": 0,
      "inputId": 1
    },
    {
      "color": "#0986ad",
      "outputModuleId": 16,
      "outputId": 0,
      "inputModuleId": 6,
      "inputId": 0
    },
    {
      "color": "#c9b70e",
      "outputModuleId": 11,
      "outputId": 0,
      "inputModuleId": 16,
      "inputId": 2
    },
    {
      "color": "#0986ad",
      "outputModuleId": 17,
      "outputId": 0,
      "inputModuleId": 3,
      "inputId": 4
    },
    {
      "color": "#0c8e15",
      "outputModuleId": 17,
      "outputId": 0,
      "inputModuleId": 4,
      "inputId": 3
    },
    {
      "color": "#0986ad",
      "outputModuleId": 16,
      "outputId": 0,
      "inputModuleId": 17,
      "inputId": 7
    },
    {
      "color": "#0986ad",
      "outputModuleId": 6,
      "outputId": 0,
      "inputModuleId": 1,
      "inputId": 14
    },
    {
      "color": "#c9b70e",
      "outputModuleId": 6,
      "outputId": 0,
      "inputModuleId": 9,
      "inputId": 2
    },
    {
      "color": "#c91847",
      "outputModuleId": 1,
      "outputId": 7,
      "inputModuleId": 6,
      "inputId": 1
    },
    {
      "color": "#0986ad",
      "outputModuleId": 18,
      "outputId": 0,
      "inputModuleId": 17,
      "inputId": 1
    },
    {
      "color": "#c9b70e",
      "outputModuleId": 18,
      "outputId": 1,
      "inputModuleId": 17,
      "inputId": 3
    },
    {
      "color": "#c91847",
      "outputModuleId": 18,
      "outputId": 2,
      "inputModuleId": 2,
      "inputId": 7
    },
    {
      "color": "#0c8e15",
      "outputModuleId": 2,
      "outputId": 7,
      "inputModuleId": 1,
      "inputId": 24
    },
    {
      "color": "#0986ad",
      "outputModuleId": 2,
      "outputId": 7,
      "inputModuleId": 1,
      "inputId": 26
    },
    {
      "color": "#c9b70e",
      "outputModuleId": 2,
      "outputId": 7,
      "inputModuleId": 1,
      "inputId": 28
    },
    {
      "color": "#c91847",
      "outputModuleId": 2,
      "outputId": 7,
      "inputModuleId": 1,
      "inputId": 30
    },
    {
      "color": "#0c8e15",
      "outputModuleId": 18,
      "outputId": 3,
      "inputModuleId": 10,
      "inputId": 5
    },
    {
      "color": "#0986ad",
      "outputModuleId": 18,
      "outputId": 4,
      "inputModuleId": 9,
      "inputId": 5
    },
    {
      "color": "#c9b70e",
      "outputModuleId": 10,
      "outputId": 1,
      "inputModuleId": 10,
      "inputId": 2
    },
    {
      "color": "#c91847",
      "outputModuleId": 9,
      "outputId": 1,
      "inputModuleId": 9,
      "inputId": 0
    },
    {
      "color": "#0c8e15",
      "outputModuleId": 19,
      "outputId": 2,
      "inputModuleId": 20,
      "inputId": 0
    },
    {
      "color": "#0c8e15",
      "outputModuleId": 19,
      "outputId": 11,
      "inputModuleId": 20,
      "inputId": 2
    },
    {
      "color": "#0986ad",
      "outputModuleId": 20,
      "outputId": 0,
      "inputModuleId": 21,
      "inputId": 0
    },
    {
      "color": "#c9b70e",
      "outputModuleId": 20,
      "outputId": 2,
      "inputModuleId": 21,
      "inputId": 2
    },
    {
      "color": "#c91847",
      "outputModuleId": 21,
      "outputId": 0,
      "inputModuleId": 22,
      "inputId": 0
    },
    {
      "color": "#0c8e15",
      "outputModuleId": 21,
      "outputId": 2,
      "inputModuleId": 22,
      "inputId": 2
    },
    {
      "color": "#0986ad",
      "outputModuleId": 22,
      "outputId": 0,
      "inputModuleId": 23,
      "inputId": 0
    },
    {
      "color": "#c9b70e",
      "outputModuleId": 22,
      "outputId": 2,
      "inputModuleId": 23,
      "inputId": 2
    },
    {
      "color": "#c91847",
      "outputModuleId": 23,
      "outputId": 0,
      "inputModuleId": 20,
      "inputId": 1
    },
    {
      "color": "#0c8e15",
      "outputModuleId": 23,
      "outputId": 2,
      "inputModuleId": 20,
      "inputId": 3
    },
    {
      "color": "#0986ad",
      "outputModuleId": 20,
      "outputId": 1,
      "inputModuleId": 21,
      "inputId": 1
    },
    {
      "color": "#c9b70e",
      "outputModuleId": 20,
      "outputId": 3,
      "inputModuleId": 21,
      "inputId": 3
    },
    {
      "color": "#c91847",
      "outputModuleId": 21,
      "outputId": 1,
      "inputModuleId": 22,
      "inputId": 1
    },
    {
      "color": "#0c8e15",
      "outputModuleId": 21,
      "outputId": 3,
      "inputModuleId": 22,
      "inputId": 3
    },
    {
      "color": "#0986ad",
      "outputModuleId": 22,
      "outputId": 1,
      "inputModuleId": 23,
      "inputId": 1
    },
    {
      "color": "#c9b70e",
      "outputModuleId": 22,
      "outputId": 3,
      "inputModuleId": 23,
      "inputId": 3
    },
    {
      "color": "#c91847",
      "outputModuleId": 20,
      "outputId": 4,
      "inputModuleId": 24,
      "inputId": 0
    },
    {
      "color": "#0986ad",
      "outputModuleId": 22,
      "outputId": 4,
      "inputModuleId": 24,
      "inputId": 1
    },
    {
      "color": "#c91847",
      "outputModuleId": 20,
      "outputId": 4,
      "inputModuleId": 24,
      "inputId": 2
    },
    {
      "color": "#0c8e15",
      "outputModuleId": 22,
      "outputId": 4,
      "inputModuleId": 24,
      "inputId": 3
    },
    {
      "color": "#0986ad",
      "outputModuleId": 18,
      "outputId": 5,
      "inputModuleId": 19,
      "inputId": 2
    },
    {
      "color": "#c9b70e",
      "outputModuleId": 18,
      "outputId": 6,
      "inputModuleId": 19,
      "inputId": 3
    },
    {
      "color": "#c91847",
      "outputModuleId": 21,
      "outputId": 4,
      "inputModuleId": 24,
      "inputId": 4
    },
    {
      "color": "#0c8e15",
      "outputModuleId": 23,
      "outputId": 4,
      "inputModuleId": 24,
      "inputId": 5
    },
    {
      "color": "#0986ad",
      "outputModuleId": 21,
      "outputId": 4,
      "inputModuleId": 24,
      "inputId": 6
    },
    {
      "color": "#c9b70e",
      "outputModuleId": 23,
      "outputId": 4,
      "inputModuleId": 24,
      "inputId": 7
    },
    {
      "color": "#0c8e15",
      "outputModuleId": 24,
      "outputId": 0,
      "inputModuleId": 25,
      "inputId": 0
    },
    {
      "color": "#0986ad",
      "outputModuleId": 20,
      "outputId": 4,
      "inputModuleId": 25,
      "inputId": 1
    },
    {
      "color": "#c9b70e",
      "outputModuleId": 20,
      "outputId": 4,
      "inputModuleId": 25,
      "inputId": 2
    },
    {
      "color": "#c91847",
      "outputModuleId": 25,
      "outputId": 0,
      "inputModuleId": 10,
      "inputId": 3
    },
    {
      "color": "#0986ad",
      "outputModuleId": 24,
      "outputId": 0,
      "inputModuleId": 17,
      "inputId": 4
    }
  ]
}