{
  "version": "0.6.2b",
  "modules": [
    {
      "plugin": "Core",
      "version": "0.6.2b",
      "model": "AudioInterface",
      "params": [],
      "data": {
        "audio": {
          "driver": 8,
          "deviceName": "Default Device",
          "offset": 0,
          "maxChannels": 8,
          "sampleRate": 44100,
          "blockSize": 512
        }
      },
      "pos": [
        31,
        1
      ]
    },
    {
      "plugin": "AS",
      "version": "0.6.9",
      "model": "BPMClock",
      "params": [
        {
          "paramId": 0,
          "value": 145.105026
        },
        {
          "paramId": 1,
          "value": 1.0
        },
        {
          "paramId": 2,
          "value": 4.0
        },
        {
          "paramId": 3,
          "value": 1.0
        },
        {
          "paramId": 5,
          "value": 0.0
        },
        {
          "paramId": 4,
          "value": 0.0
        }
      ],
      "data": {
        "run": [
          1
        ]
      },
      "pos": [
        14,
        1
      ]
    },
    {
      "plugin": "Bogaudio",
      "version": "0.6.7",
      "model": "Bogaudio-LFO",
      "params": [
        {
          "paramId": 0,
          "value": -5.05050373
        },
        {
          "paramId": 1,
          "value": 0.0
        },
        {
          "paramId": 2,
          "value": 0.0
        },
        {
          "paramId": 3,
          "value": 0.0189999864
        },
        {
          "paramId": 4,
          "value": 0.0
        },
        {
          "paramId": 5,
          "value": 1.0
        }
      ],
      "pos": [
        69,
        0
      ]
    },
    {
      "plugin": "Bogaudio",
      "version": "0.6.7",
      "model": "Bogaudio-FMOp",
      "params": [
        {
          "paramId": 0,
          "value": -0.0059999493
        },
        {
          "paramId": 1,
          "value": 0.0
        },
        {
          "paramId": 2,
          "value": 0.041999992
        },
        {
          "paramId": 3,
          "value": 0.0
        },
        {
          "paramId": 4,
          "value": 1.0
        },
        {
          "paramId": 5,
          "value": 0.368730009
        },
        {
          "paramId": 6,
          "value": 1.0
        },
        {
          "paramId": 7,
          "value": 0.557500124
        },
        {
          "paramId": 8,
          "value": 1.0
        },
        {
          "paramId": 9,
          "value": 0.0
        },
        {
          "paramId": 10,
          "value": 0.0
        },
        {
          "paramId": 11,
          "value": 0.0
        }
      ],
      "data": {
        "linearLevel": true
      },
      "pos": [
        48,
        0
      ]
    },
    {
      "plugin": "AS",
      "version": "0.6.9",
      "model": "VCA",
      "params": [
        {
          "paramId": 0,
          "value": 0.695000291
        },
        {
          "paramId": 1,
          "value": 0.692000151
        },
        {
          "paramId": 2,
          "value": 1.0
        },
        {
          "paramId": 3,
          "value": 1.0
        }
      ],
      "pos": [
        42,
        0
      ]
    },
    {
      "plugin": "MSM",
      "version": "0.6.3",
      "model": "ADSR",
      "params": [
        {
          "paramId": 0,
          "value": 0.0689999908
        },
        {
          "paramId": 1,
          "value": 0.0
        },
        {
          "paramId": 2,
          "value": 1.0
        },
        {
          "paramId": 3,
          "value": 0.0659999624
        }
      ],
      "data": {
        "Theme": 0,
        "Linear": 0
      },
      "pos": [
        59,
        0
      ]
    },
    {
      "plugin": "Fundamental",
      "version": "0.6.1",
      "model": "SequentialSwitch1",
      "params": [
        {
          "paramId": 0,
          "value": 2.0
        }
      ],
      "pos": [
        22,
        1
      ]
    },
    {
      "plugin": "Bogaudio",
      "version": "0.6.7",
      "model": "Bogaudio-FMOp",
      "params": [
        {
          "paramId": 0,
          "value": -0.0059999493
        },
        {
          "paramId": 1,
          "value": 0.0
        },
        {
          "paramId": 2,
          "value": 0.041999992
        },
        {
          "paramId": 3,
          "value": 0.0
        },
        {
          "paramId": 4,
          "value": 1.0
        },
        {
          "paramId": 5,
          "value": 0.368730009
        },
        {
          "paramId": 6,
          "value": 1.0
        },
        {
          "paramId": 7,
          "value": 0.557500124
        },
        {
          "paramId": 8,
          "value": 1.0
        },
        {
          "paramId": 9,
          "value": 0.0
        },
        {
          "paramId": 10,
          "value": 0.0
        },
        {
          "paramId": 11,
          "value": 0.0
        }
      ],
      "data": {
        "linearLevel": true
      },
      "pos": [
        32,
        0
      ]
    },
    {
      "plugin": "MSM",
      "version": "0.6.3",
      "model": "ADSR",
      "params": [
        {
          "paramId": 0,
          "value": 0.0689999908
        },
        {
          "paramId": 1,
          "value": 0.0
        },
        {
          "paramId": 2,
          "value": 1.0
        },
        {
          "paramId": 3,
          "value": 0.0659999624
        }
      ],
      "data": {
        "Theme": 0,
        "Linear": 0
      },
      "pos": [
        23,
        0
      ]
    },
    {
      "plugin": "Bogaudio",
      "version": "0.6.7",
      "model": "Bogaudio-LFO",
      "params": [
        {
          "paramId": 0,
          "value": -4.99200106
        },
        {
          "paramId": 1,
          "value": 0.0
        },
        {
          "paramId": 2,
          "value": 0.0
        },
        {
          "paramId": 3,
          "value": 0.0189999864
        },
        {
          "paramId": 4,
          "value": 0.0
        },
        {
          "paramId": 5,
          "value": 1.0
        }
      ],
      "pos": [
        13,
        0
      ]
    },
    {
      "plugin": "Fundamental",
      "version": "0.6.1",
      "model": "Unity",
      "params": [
        {
          "paramId": 0,
          "value": 0.0
        },
        {
          "paramId": 1,
          "value": 0.0
        }
      ],
      "data": {
        "merge": false
      },
      "pos": [
        41,
        1
      ]
    },
    {
      "plugin": "Fundamental",
      "version": "0.6.1",
      "model": "Unity",
      "params": [
        {
          "paramId": 0,
          "value": 1.0
        },
        {
          "paramId": 1,
          "value": 0.0
        }
      ],
      "data": {
        "merge": false
      },
      "pos": [
        79,
        0
      ]
    },
    {
      "plugin": "SonusModular",
      "version": "0.6.1",
      "model": "Ctrl",
      "params": [
        {
          "paramId": 0,
          "value": -0.125001743
        },
        {
          "paramId": 1,
          "value": 2.37499976
        },
        {
          "paramId": 2,
          "value": 1.9549979
        },
        {
          "paramId": 3,
          "value": 0.775000691
        },
        {
          "paramId": 4,
          "value": 0.21499677
        },
        {
          "paramId": 5,
          "value": 5.0
        },
        {
          "paramId": 6,
          "value": 0.940000892
        },
        {
          "paramId": 7,
          "value": 0.0
        }
      ],
      "knob_1_label": "",
      "knob_2_label": "",
      "knob_3_label": "",
      "knob_4_label": "",
      "knob_5_label": "",
      "knob_6_label": "",
      "knob_7_label": "",
      "knob_8_label": "",
      "pos": [
        49,
        1
      ]
    },
    {
      "plugin": "Fundamental",
      "version": "0.6.1",
      "model": "Unity",
      "params": [
        {
          "paramId": 0,
          "value": 1.0
        },
        {
          "paramId": 1,
          "value": 1.0
        }
      ],
      "data": {
        "merge": false
      },
      "pos": [
        65,
        1
      ]
    },
    {
      "plugin": "VultModulesFree",
      "version": "0.6.10",
      "model": "Rescomb",
      "params": [
        {
          "paramId": 0,
          "value": 0.00520002283
        },
        {
          "paramId": 1,
          "value": -0.760000348
        },
        {
          "paramId": 2,
          "value": 0.70290035
        },
        {
          "paramId": 3,
          "value": 0.0480001457
        },
        {
          "paramId": 4,
          "value": 0.0819997489
        }
      ],
      "pos": [
        73,
        1
      ]
    },
    {
      "plugin": "SonusModular",
      "version": "0.6.1",
      "model": "Twoff",
      "params": [
        {
          "paramId": 0,
          "value": -0.0150000006
        },
        {
          "paramId": 1,
          "value": 0.0
        }
      ],
      "pos": [
        10,
        1
      ]
    },
    {
      "plugin": "CharredDesert",
      "version": "0.6.3",
      "model": "CV Sequencer",
      "params": [
        {
          "paramId": 0,
          "value": 3.0
        },
        {
          "paramId": 1,
          "value": 3.0
        },
        {
          "paramId": 2,
          "value": 3.0
        },
        {
          "paramId": 3,
          "value": 3.0
        }
      ],
      "pos": [
        83,
        1
      ]
    },
    {
      "plugin": "AS",
      "version": "0.6.9",
      "model": "Mixer8ch",
      "params": [
        {
          "paramId": 9,
          "value": -0.600999951
        },
        {
          "paramId": 10,
          "value": 0.598000169
        },
        {
          "paramId": 11,
          "value": -1.0
        },
        {
          "paramId": 12,
          "value": 1.0
        },
        {
          "paramId": 13,
          "value": -0.731999993
        },
        {
          "paramId": 14,
          "value": 0.777000129
        },
        {
          "paramId": 15,
          "value": -1.0
        },
        {
          "paramId": 16,
          "value": 1.0
        },
        {
          "paramId": 1,
          "value": 0.521000385
        },
        {
          "paramId": 2,
          "value": 0.514999926
        },
        {
          "paramId": 3,
          "value": 0.740000129
        },
        {
          "paramId": 4,
          "value": 0.749000371
        },
        {
          "paramId": 5,
          "value": 0.426999807
        },
        {
          "paramId": 6,
          "value": 0.393000156
        },
        {
          "paramId": 7,
          "value": 0.32899943
        },
        {
          "paramId": 8,
          "value": 0.346999764
        },
        {
          "paramId": 17,
          "value": 0.0
        },
        {
          "paramId": 18,
          "value": 0.0
        },
        {
          "paramId": 19,
          "value": 0.0
        },
        {
          "paramId": 20,
          "value": 0.0
        },
        {
          "paramId": 21,
          "value": 0.0
        },
        {
          "paramId": 22,
          "value": 0.0
        },
        {
          "paramId": 23,
          "value": 0.0
        },
        {
          "paramId": 24,
          "value": 0.0
        },
        {
          "paramId": 0,
          "value": 1.0
        },
        {
          "paramId": 25,
          "value": 0.0
        }
      ],
      "data": {
        "as_MixerMutes": [
          0,
          0,
          0,
          0,
          0,
          0,
          0,
          0,
          0
        ]
      },
      "pos": [
        39,
        2
      ]
    },
    {
      "plugin": "Autinn",
      "version": "0.6.7",
      "model": "Amp",
      "params": [
        {
          "paramId": 0,
          "value": 1.07899892
        }
      ],
      "pos": [
        65,
        2
      ]
    },
    {
      "plugin": "Autinn",
      "version": "0.6.7",
      "model": "Amp",
      "params": [
        {
          "paramId": 0,
          "value": 1.07899892
        }
      ],
      "pos": [
        68,
        2
      ]
    },
    {
      "plugin": "VultModulesFree",
      "version": "0.6.10",
      "model": "Tohe",
      "params": [
        {
          "paramId": 0,
          "value": 0.523000062
        },
        {
          "paramId": 1,
          "value": 0.0
        },
        {
          "paramId": 2,
          "value": 0.0
        }
      ],
      "pos": [
        87,
        1
      ]
    },
    {
      "plugin": "mscHack",
      "version": "0.6.3",
      "model": "StepDelay",
      "params": [
        {
          "paramId": 19,
          "value": 1.0
        },
        {
          "paramId": 1,
          "value": 0.567000329
        },
        {
          "paramId": 2,
          "value": 0.505499721
        },
        {
          "paramId": 0,
          "value": 4.0
        },
        {
          "paramId": 3,
          "value": 0.687999547
        },
        {
          "paramId": 7,
          "value": -0.0270000007
        },
        {
          "paramId": 11,
          "value": 0.468999922
        },
        {
          "paramId": 15,
          "value": 6.0
        },
        {
          "paramId": 4,
          "value": 0.521000028
        },
        {
          "paramId": 8,
          "value": 0.0479999967
        },
        {
          "paramId": 12,
          "value": 0.450000226
        },
        {
          "paramId": 16,
          "value": 5.0
        },
        {
          "paramId": 5,
          "value": 0.372500032
        },
        {
          "paramId": 9,
          "value": -0.0359999985
        },
        {
          "paramId": 13,
          "value": 0.441000134
        },
        {
          "paramId": 17,
          "value": 4.0
        },
        {
          "paramId": 6,
          "value": 0.504500091
        },
        {
          "paramId": 10,
          "value": 0.0
        },
        {
          "paramId": 14,
          "value": 0.205499858
        },
        {
          "paramId": 18,
          "value": 2.0
        }
      ],
      "data": {
        "m_lenmod": [
          0,
          0,
          2,
          0
        ]
      },
      "pos": [
        91,
        1
      ]
    },
    {
      "plugin": "huaba",
      "version": "0.6.3",
      "model": "EQ3",
      "params": [
        {
          "paramId": 2,
          "value": 1.45600116
        },
        {
          "paramId": 1,
          "value": 0.578999877
        },
        {
          "paramId": 0,
          "value": 0.0
        }
      ],
      "pos": [
        105,
        1
      ]
    },
    {
      "plugin": "huaba",
      "version": "0.6.3",
      "model": "EQ3",
      "params": [
        {
          "paramId": 2,
          "value": 1.43799961
        },
        {
          "paramId": 1,
          "value": 0.600000203
        },
        {
          "paramId": 0,
          "value": 0.0
        }
      ],
      "pos": [
        108,
        1
      ]
    },
    {
      "plugin": "Bogaudio",
      "version": "0.6.7",
      "model": "Bogaudio-Offset",
      "params": [
        {
          "paramId": 0,
          "value": 0.0109998863
        },
        {
          "paramId": 1,
          "value": 0.135999978
        }
      ],
      "data": {
        "disableOutputLimit": false
      },
      "pos": [
        10,
        0
      ]
    },
    {
      "plugin": "Bogaudio",
      "version": "0.6.7",
      "model": "Bogaudio-Offset",
      "params": [
        {
          "paramId": 0,
          "value": 0.0259999596
        },
        {
          "paramId": 1,
          "value": 0.210999966
        }
      ],
      "data": {
        "disableOutputLimit": false
      },
      "pos": [
        85,
        0
      ]
    },
    {
      "plugin": "VultModulesFree",
      "version": "0.6.10",
      "model": "Debriatus",
      "params": [
        {
          "paramId": 0,
          "value": 0.382499874
        },
        {
          "paramId": 1,
          "value": 0.74849993
        },
        {
          "paramId": 2,
          "value": 0.0840000212
        },
        {
          "paramId": 3,
          "value": 0.601499975
        },
        {
          "paramId": 4,
          "value": 0.0840000287
        },
        {
          "paramId": 5,
          "value": 0.05999998
        },
        {
          "paramId": 6,
          "value": 0.0
        },
        {
          "paramId": 7,
          "value": 0.0
        }
      ],
      "pos": [
        71,
        2
      ]
    },
    {
      "plugin": "AS",
      "version": "0.6.9",
      "model": "SignalDelay",
      "params": [
        {
          "paramId": 0,
          "value": 0.240000769
        },
        {
          "paramId": 1,
          "value": 0.349999994
        }
      ],
      "pos": [
        81,
        2
      ]
    },
    {
      "plugin": "CharredDesert",
      "version": "0.6.3",
      "model": "Eq",
      "params": [
        {
          "paramId": 0,
          "value": 8432.95703
        },
        {
          "paramId": 1,
          "value": 3.0
        },
        {
          "paramId": 2,
          "value": 1.93195033
        }
      ],
      "pos": [
        87,
        2
      ]
    },
    {
      "plugin": "CharredDesert",
      "version": "0.6.3",
      "model": "Eq",
      "params": [
        {
          "paramId": 0,
          "value": 8432.95703
        },
        {
          "paramId": 1,
          "value": 3.0
        },
        {
          "paramId": 2,
          "value": 1.71069968
        }
      ],
      "pos": [
        90,
        2
      ]
    },
    {
      "plugin": "AS",
      "version": "0.6.9",
      "model": "VCA",
      "params": [
        {
          "paramId": 0,
          "value": 0.5
        },
        {
          "paramId": 1,
          "value": 0.5
        },
        {
          "paramId": 2,
          "value": 0.0
        },
        {
          "paramId": 3,
          "value": 0.0
        }
      ],
      "pos": [
        93,
        2
      ]
    },
    {
      "plugin": "AS",
      "version": "0.6.9",
      "model": "ReverbStereoFx",
      "params": [
        {
          "paramId": 0,
          "value": 0.335349888
        },
        {
          "paramId": 1,
          "value": 0.28550002
        },
        {
          "paramId": 2,
          "value": 0.11400003
        },
        {
          "paramId": 3,
          "value": 0.0
        }
      ],
      "data": {
        "as_FxBypass": [
          false
        ]
      },
      "pos": [
        29,
        2
      ]
    },
    {
      "plugin": "Bogaudio",
      "version": "0.6.7",
      "model": "Bogaudio-Analyzer",
      "params": [
        {
          "paramId": 0,
          "value": 0.5
        },
        {
          "paramId": 1,
          "value": 0.5
        },
        {
          "paramId": 2,
          "value": 2.0
        },
        {
          "paramId": 3,
          "value": 1.0
        }
      ],
      "pos": [
        91,
        0
      ]
    },
    {
      "plugin": "Core",
      "version": "0.6.2b",
      "model": "MIDIToCVInterface",
      "params": [],
      "data": {
        "divisions": [
          24,
          6
        ],
        "midi": {
          "driver": -11,
          "deviceName": "QWERTY keyboard (US)",
          "channel": -1
        }
      },
      "pos": [
        2,
        1
      ]
    },
    {
      "plugin": "Bogaudio",
      "version": "0.6.7",
      "model": "Bogaudio-Offset",
      "params": [
        {
          "paramId": 0,
          "value": -0.290000051
        },
        {
          "paramId": 1,
          "value": -0.279999495
        }
      ],
      "data": {
        "disableOutputLimit": false
      },
      "pos": [
        7,
        2
      ]
    },
    {
      "plugin": "mscHack",
      "version": "0.6.3",
      "model": "ARP700",
      "params": [],
      "data": {
        "m_bPauseState": [
          false
        ],
        "m_CurrentPattern": [
          0
        ],
        "m_PatternSave": [
          4,
          11,
          16,
          19,
          23,
          -1,
          -1,
          -1,
          1,
          0,
          0,
          1,
          0,
          0,
          1,
          0,
          0,
          1,
          0,
          0,
          0,
          0,
          0,
          0,
          0,
          0,
          0,
          0,
          0,
          2,
          0,
          0,
          2,
          0,
          0,
          2,
          0,
          0,
          2,
          0,
          0,
          0,
          0,
          0,
          0,
          0,
          0,
          0,
          0,
          0,
          0,
          0,
          0,
          0,
          0,
          0,
          0,
          0,
          0,
          0,
          0,
          0,
          0,
          0,
          0,
          0,
          0,
          0,
          0,
          0,
          0,
          1,
          1,
          1,
          1,
          0,
          0,
          0,
          0,
          0,
          0,
          0,
          0,
          0,
          0,
          0,
          0,
          4,
          11,
          16,
          19,
          24,
          -1,
          -1,
          -1,
          1,
          0,
          0,
          1,
          0,
          0,
          1,
          0,
          0,
          1,
          0,
          0,
          0,
          0,
          0,
          0,
          0,
          0,
          0,
          0,
          0,
          2,
          0,
          0,
          2,
          0,
          0,
          2,
          0,
          0,
          2,
          0,
          0,
          0,
          0,
          0,
          0,
          0,
          0,
          0,
          0,
          0,
          0,
          0,
          0,
          0,
          0,
          0,
          0,
          0,
          0,
          0,
          0,
          0,
          0,
          0,
          0,
          0,
          0,
          0,
          0,
          0,
          0,
          0,
          0,
          0,
          0,
          0,
          0,
          0,
          0,
          0,
          0,
          0,
          0,
          0,
          0,
          0,
          0,
          0,
          -1,
          -1,
          -1,
          -1,
          -1,
          -1,
          -1,
          0,
          0,
          0,
          0,
          0,
          0,
          0,
          0,
          0,
          0,
          0,
          0,
          0,
          0,
          0,
          0,
          0,
          0,
          0,
          0,
          0,
          0,
          0,
          0,
          0,
          0,
          0,
          0,
          0,
          0,
          0,
          0,
          0,
          0,
          0,
          0,
          0,
          0,
          0,
          0,
          0,
          0,
          0,
          0,
          0,
          0,
          0,
          0,
          0,
          0,
          0,
          0,
          0,
          0,
          0,
          0,
          0,
          0,
          0,
          0,
          0,
          0,
          0,
          0,
          0,
          0,
          0,
          0,
          0,
          0,
          0,
          0,
          0,
          0,
          0,
          0,
          0,
          0,
          0,
          0,
          -1,
          -1,
          -1,
          -1,
          -1,
          -1,
          -1,
          0,
          0,
          0,
          0,
          0,
          0,
          0,
          0,
          0,
          0,
          0,
          0,
          0,
          0,
          0,
          0,
          0,
          0,
          0,
          0,
          0,
          0,
          0,
          0,
          0,
          0,
          0,
          0,
          0,
          0,
          0,
          0,
          0,
          0,
          0,
          0,
          0,
          0,
          0,
          0,
          0,
          0,
          0,
          0,
          0,
          0,
          0,
          0,
          0,
          0,
          0,
          0,
          0,
          0,
          0,
          0,
          0,
          0,
          0,
          0,
          0,
          0,
          0,
          0,
          0,
          0,
          0,
          0,
          0,
          0,
          0,
          0,
          0,
          0,
          0,
          0,
          0,
          0,
          0,
          0,
          -1,
          -1,
          -1,
          -1,
          -1,
          -1,
          -1,
          0,
          0,
          0,
          0,
          0,
          0,
          0,
          0,
          0,
          0,
          0,
          0,
          0,
          0,
          0,
          0,
          0,
          0,
          0,
          0,
          0,
          0,
          0,
          0,
          0,
          0,
          0,
          0,
          0,
          0,
          0,
          0,
          0,
          0,
          0,
          0,
          0,
          0,
          0,
          0,
          0,
          0,
          0,
          0,
          0,
          0,
          0,
          0,
          0,
          0,
          0,
          0,
          0,
          0,
          0,
          0,
          0,
          0,
          0,
          0,
          0,
          0,
          0,
          0,
          0,
          0,
          0,
          0,
          0,
          0,
          0,
          0,
          0,
          0,
          0,
          0,
          0,
          0,
          0,
          0,
          -1,
          -1,
          -1,
          -1,
          -1,
          -1,
          -1,
          0,
          0,
          0,
          0,
          0,
          0,
          0,
          0,
          0,
          0,
          0,
          0,
          0,
          0,
          0,
          0,
          0,
          0,
          0,
          0,
          0,
          0,
          0,
          0,
          0,
          0,
          0,
          0,
          0,
          0,
          0,
          0,
          0,
          0,
          0,
          0,
          0,
          0,
          0,
          0,
          0,
          0,
          0,
          0,
          0,
          0,
          0,
          0,
          0,
          0,
          0,
          0,
          0,
          0,
          0,
          0,
          0,
          0,
          0,
          0,
          0,
          0,
          0,
          0,
          0,
          0,
          0,
          0,
          0,
          0,
          0,
          0,
          0,
          0,
          0,
          0,
          0,
          0,
          0,
          0,
          -1,
          -1,
          -1,
          -1,
          -1,
          -1,
          -1,
          0,
          0,
          0,
          0,
          0,
          0,
          0,
          0,
          0,
          0,
          0,
          0,
          0,
          0,
          0,
          0,
          0,
          0,
          0,
          0,
          0,
          0,
          0,
          0,
          0,
          0,
          0,
          0,
          0,
          0,
          0,
          0,
          0,
          0,
          0,
          0,
          0,
          0,
          0,
          0,
          0,
          0,
          0,
          0,
          0,
          0,
          0,
          0,
          0,
          0,
          0,
          0,
          0,
          0,
          0,
          0,
          0,
          0,
          0,
          0,
          0,
          0,
          0,
          0,
          0,
          0,
          0,
          0,
          0,
          0,
          0,
          0,
          0,
          0,
          0,
          0,
          0,
          0,
          0,
          0,
          -1,
          -1,
          -1,
          -1,
          -1,
          -1,
          -1,
          0,
          0,
          0,
          0,
          0,
          0,
          0,
          0,
          0,
          0,
          0,
          0,
          0,
          0,
          0,
          0,
          0,
          0,
          0,
          0,
          0,
          0,
          0,
          0,
          0,
          0,
          0,
          0,
          0,
          0,
          0,
          0,
          0,
          0,
          0,
          0,
          0,
          0,
          0,
          0,
          0,
          0,
          0,
          0,
          0,
          0,
          0,
          0,
          0,
          0,
          0,
          0,
          0,
          0,
          0,
          0,
          0,
          0,
          0,
          0,
          0,
          0,
          0,
          0,
          0,
          0,
          0,
          0,
          0,
          0,
          0,
          0,
          0,
          0,
          0,
          0,
          0,
          0,
          0,
          0,
          -1,
          -1,
          -1,
          -1,
          -1,
          -1,
          -1,
          0,
          0,
          0,
          0,
          0,
          0,
          0,
          0,
          0,
          0,
          0,
          0,
          0,
          0,
          0,
          0,
          0,
          0,
          0,
          0,
          0,
          0,
          0,
          0,
          0,
          0,
          0,
          0,
          0,
          0,
          0,
          0,
          0,
          0,
          0,
          0,
          0,
          0,
          0,
          0,
          0,
          0,
          0,
          0,
          0,
          0,
          0,
          0,
          0,
          0,
          0,
          0,
          0,
          0,
          0,
          0,
          0,
          0,
          0,
          0,
          0,
          0,
          0,
          0,
          0,
          0,
          0,
          0,
          0,
          0,
          0,
          0,
          0,
          0,
          0,
          0,
          0,
          0,
          0,
          0,
          -1,
          -1,
          -1,
          -1,
          -1,
          -1,
          -1,
          0,
          0,
          0,
          0,
          0,
          0,
          0,
          0,
          0,
          0,
          0,
          0,
          0,
          0,
          0,
          0,
          0,
          0,
          0,
          0,
          0,
          0,
          0,
          0,
          0,
          0,
          0,
          0,
          0,
          0,
          0,
          0,
          0,
          0,
          0,
          0,
          0,
          0,
          0,
          0,
          0,
          0,
          0,
          0,
          0,
          0,
          0,
          0,
          0,
          0,
          0,
          0,
          0,
          0,
          0,
          0,
          0,
          0,
          0,
          0,
          0,
          0,
          0,
          0,
          0,
          0,
          0,
          0,
          0,
          0,
          0,
          0,
          0,
          0,
          0,
          0,
          0,
          0,
          0,
          0,
          -1,
          -1,
          -1,
          -1,
          -1,
          -1,
          -1,
          0,
          0,
          0,
          0,
          0,
          0,
          0,
          0,
          0,
          0,
          0,
          0,
          0,
          0,
          0,
          0,
          0,
          0,
          0,
          0,
          0,
          0,
          0,
          0,
          0,
          0,
          0,
          0,
          0,
          0,
          0,
          0,
          0,
          0,
          0,
          0,
          0,
          0,
          0,
          0,
          0,
          0,
          0,
          0,
          0,
          0,
          0,
          0,
          0,
          0,
          0,
          0,
          0,
          0,
          0,
          0,
          0,
          0,
          0,
          0,
          0,
          0,
          0,
          0,
          0,
          0,
          0,
          0,
          0,
          0,
          0,
          0,
          0,
          0,
          0,
          0,
          0,
          0,
          0,
          0,
          -1,
          -1,
          -1,
          -1,
          -1,
          -1,
          -1,
          0,
          0,
          0,
          0,
          0,
          0,
          0,
          0,
          0,
          0,
          0,
          0,
          0,
          0,
          0,
          0,
          0,
          0,
          0,
          0,
          0,
          0,
          0,
          0,
          0,
          0,
          0,
          0,
          0,
          0,
          0,
          0,
          0,
          0,
          0,
          0,
          0,
          0,
          0,
          0,
          0,
          0,
          0,
          0,
          0,
          0,
          0,
          0,
          0,
          0,
          0,
          0,
          0,
          0,
          0,
          0,
          0,
          0,
          0,
          0,
          0,
          0,
          0,
          0,
          0,
          0,
          0,
          0,
          0,
          0,
          0,
          0,
          0,
          0,
          0,
          0,
          0,
          0,
          0,
          0,
          -1,
          -1,
          -1,
          -1,
          -1,
          -1,
          -1,
          0,
          0,
          0,
          0,
          0,
          0,
          0,
          0,
          0,
          0,
          0,
          0,
          0,
          0,
          0,
          0,
          0,
          0,
          0,
          0,
          0,
          0,
          0,
          0,
          0,
          0,
          0,
          0,
          0,
          0,
          0,
          0,
          0,
          0,
          0,
          0,
          0,
          0,
          0,
          0,
          0,
          0,
          0,
          0,
          0,
          0,
          0,
          0,
          0,
          0,
          0,
          0,
          0,
          0,
          0,
          0,
          0,
          0,
          0,
          0,
          0,
          0,
          0,
          0,
          0,
          0,
          0,
          0,
          0,
          0,
          0,
          0,
          0,
          0,
          0,
          0,
          0,
          0,
          0,
          0,
          -1,
          -1,
          -1,
          -1,
          -1,
          -1,
          -1,
          0,
          0,
          0,
          0,
          0,
          0,
          0,
          0,
          0,
          0,
          0,
          0,
          0,
          0,
          0,
          0,
          0,
          0,
          0,
          0,
          0,
          0,
          0,
          0,
          0,
          0,
          0,
          0,
          0,
          0,
          0,
          0,
          0,
          0,
          0,
          0,
          0,
          0,
          0,
          0,
          0,
          0,
          0,
          0,
          0,
          0,
          0,
          0,
          0,
          0,
          0,
          0,
          0,
          0,
          0,
          0,
          0,
          0,
          0,
          0,
          0,
          0,
          0,
          0,
          0,
          0,
          0,
          0,
          0,
          0,
          0,
          0,
          0,
          0,
          0,
          0,
          0,
          0,
          0,
          0,
          -1,
          -1,
          -1,
          -1,
          -1,
          -1,
          -1,
          0,
          0,
          0,
          0,
          0,
          0,
          0,
          0,
          0,
          0,
          0,
          0,
          0,
          0,
          0,
          0,
          0,
          0,
          0,
          0,
          0,
          0,
          0,
          0,
          0,
          0,
          0,
          0,
          0,
          0,
          0,
          0,
          0,
          0,
          0,
          0,
          0,
          0,
          0,
          0,
          0,
          0,
          0,
          0,
          0,
          0,
          0,
          0,
          0,
          0,
          0,
          0,
          0,
          0,
          0,
          0,
          0,
          0,
          0,
          0,
          0,
          0,
          0,
          0,
          0,
          0,
          0,
          0,
          0,
          0,
          0,
          0,
          0,
          0,
          0,
          0,
          0,
          0,
          0,
          0,
          -1,
          -1,
          -1,
          -1,
          -1,
          -1,
          -1,
          0,
          0,
          0,
          0,
          0,
          0,
          0,
          0,
          0,
          0,
          0,
          0,
          0,
          0,
          0,
          0,
          0,
          0,
          0,
          0,
          0,
          0,
          0,
          0,
          0,
          0,
          0,
          0,
          0,
          0,
          0,
          0,
          0,
          0,
          0,
          0,
          0,
          0,
          0,
          0,
          0,
          0,
          0,
          0,
          0,
          0,
          0,
          0,
          0,
          0,
          0,
          0,
          0,
          0,
          0,
          0,
          0,
          0,
          0,
          0,
          0,
          0,
          0,
          0,
          0,
          0,
          0,
          0,
          0,
          0,
          0,
          0,
          0,
          0,
          0,
          0,
          0,
          0,
          0
        ],
        "m_PatternsUsed": [
          15
        ]
      },
      "pos": [
        1,
        3
      ]
    },
    {
      "plugin": "LindenbergResearch",
      "version": "0.6.2",
      "model": "LPFilter24dB",
      "params": [
        {
          "paramId": 0,
          "value": 0.413999677
        },
        {
          "paramId": 1,
          "value": 0.518500209
        },
        {
          "paramId": 2,
          "value": 0.392849863
        },
        {
          "paramId": 3,
          "value": 0.139050022
        }
      ],
      "pos": [
        89,
        3
      ]
    },
    {
      "plugin": "Fundamental",
      "version": "0.6.1",
      "model": "Unity",
      "params": [
        {
          "paramId": 0,
          "value": 0.0
        },
        {
          "paramId": 1,
          "value": 0.0
        }
      ],
      "data": {
        "merge": false
      },
      "pos": [
        83,
        3
      ]
    },
    {
      "plugin": "LindenbergResearch",
      "version": "0.6.2",
      "model": "LPFilter24dB",
      "params": [
        {
          "paramId": 0,
          "value": 0.531000316
        },
        {
          "paramId": 1,
          "value": 0.508500576
        },
        {
          "paramId": 2,
          "value": 0.323999822
        },
        {
          "paramId": 3,
          "value": 0.268649995
        }
      ],
      "pos": [
        99,
        3
      ]
    },
    {
      "plugin": "moDllz",
      "version": "0.6.6",
      "model": "TwinGlider",
      "params": [
        {
          "paramId": 0,
          "value": 0.315000057
        },
        {
          "paramId": 2,
          "value": 0.411000043
        },
        {
          "paramId": 4,
          "value": 0.0
        },
        {
          "paramId": 6,
          "value": 2.0
        },
        {
          "paramId": 8,
          "value": 2.0
        },
        {
          "paramId": 12,
          "value": 0.0
        },
        {
          "paramId": 1,
          "value": 0.369000018
        },
        {
          "paramId": 3,
          "value": 0.320999801
        },
        {
          "paramId": 5,
          "value": 0.0
        },
        {
          "paramId": 7,
          "value": 2.0
        },
        {
          "paramId": 9,
          "value": 2.0
        },
        {
          "paramId": 13,
          "value": 0.0
        }
      ],
      "pos": [
        109,
        3
      ]
    },
    {
      "plugin": "Bogaudio",
      "version": "0.6.7",
      "model": "Bogaudio-Offset",
      "params": [
        {
          "paramId": 0,
          "value": 0.0
        },
        {
          "paramId": 1,
          "value": 0.297999948
        }
      ],
      "data": {
        "disableOutputLimit": false
      },
      "pos": [
        120,
        3
      ]
    },
    {
      "plugin": "AS",
      "version": "0.6.9",
      "model": "ADSR",
      "params": [
        {
          "paramId": 0,
          "value": 0.782000065
        },
        {
          "paramId": 1,
          "value": 0.5
        },
        {
          "paramId": 2,
          "value": 1.0
        },
        {
          "paramId": 3,
          "value": 0.84799993
        }
      ],
      "pos": [
        68,
        3
      ]
    },
    {
      "plugin": "FrozenWasteland",
      "version": "0.6.7",
      "model": "LissajousLFO",
      "params": [
        {
          "paramId": 0,
          "value": 1.52499878
        },
        {
          "paramId": 2,
          "value": -2.80499983
        },
        {
          "paramId": 3,
          "value": -2.07550025
        },
        {
          "paramId": 1,
          "value": 1.76499927
        },
        {
          "paramId": 4,
          "value": -2.47499967
        },
        {
          "paramId": 5,
          "value": -2.38249969
        }
      ],
      "pos": [
        76,
        4
      ]
    },
    {
      "plugin": "AS",
      "version": "0.6.9",
      "model": "VCA",
      "params": [
        {
          "paramId": 0,
          "value": 0.5
        },
        {
          "paramId": 1,
          "value": 0.5
        },
        {
          "paramId": 2,
          "value": 1.0
        },
        {
          "paramId": 3,
          "value": 1.0
        }
      ],
      "pos": [
        76,
        3
      ]
    },
    {
      "plugin": "HetrickCV",
      "version": "0.6.0",
      "model": "Waveshaper",
      "params": [
        {
          "paramId": 0,
          "value": 2.43499875
        },
        {
          "paramId": 1,
          "value": 1.0
        },
        {
          "paramId": 2,
          "value": 0.0
        }
      ],
      "pos": [
        89,
        4
      ]
    },
    {
      "plugin": "HetrickCV",
      "version": "0.6.0",
      "model": "Waveshaper",
      "params": [
        {
          "paramId": 0,
          "value": 2.43499875
        },
        {
          "paramId": 1,
          "value": 1.0
        },
        {
          "paramId": 2,
          "value": 0.0
        }
      ],
      "pos": [
        95,
        4
      ]
    },
    {
      "plugin": "BaconMusic",
      "version": "0.6.2",
      "model": "ChipWaves",
      "params": [
        {
          "paramId": 1,
          "value": 2.41950035
        },
        {
          "paramId": 0,
          "value": 9.77399445
        }
      ],
      "pos": [
        44,
        3
      ]
    },
    {
      "plugin": "AS",
      "version": "0.6.9",
      "model": "VCA",
      "params": [
        {
          "paramId": 0,
          "value": 0.603000283
        },
        {
          "paramId": 1,
          "value": 0.576000154
        },
        {
          "paramId": 2,
          "value": 1.0
        },
        {
          "paramId": 3,
          "value": 1.0
        }
      ],
      "pos": [
        62,
        3
      ]
    },
    {
      "plugin": "Fundamental",
      "version": "0.6.1",
      "model": "LFO",
      "params": [
        {
          "paramId": 0,
          "value": 1.0
        },
        {
          "paramId": 1,
          "value": 1.0
        },
        {
          "paramId": 2,
          "value": 3.59199357
        },
        {
          "paramId": 3,
          "value": 0.0
        },
        {
          "paramId": 5,
          "value": 0.610999823
        },
        {
          "paramId": 4,
          "value": 0.0
        },
        {
          "paramId": 6,
          "value": 0.0
        }
      ],
      "pos": [
        52,
        3
      ]
    },
    {
      "plugin": "AudibleInstruments",
      "version": "0.6.0",
      "model": "Braids",
      "params": [
        {
          "paramId": 6,
          "value": 0.277500093
        },
        {
          "paramId": 0,
          "value": 0.648000777
        },
        {
          "paramId": 1,
          "value": 0.0
        },
        {
          "paramId": 2,
          "value": 0.0
        },
        {
          "paramId": 3,
          "value": 0.819502234
        },
        {
          "paramId": 4,
          "value": 0.0
        },
        {
          "paramId": 5,
          "value": 0.76700002
        }
      ],
      "data": {
        "settings": [
          13,
          0,
          0,
          0,
          0,
          0,
          0,
          0,
          0,
          0,
          0,
          0,
          0,
          0,
          0,
          0,
          0,
          0,
          0,
          0
        ],
        "lowCpu": false
      },
      "pos": [
        28,
        3
      ]
    },
    {
      "plugin": "Fundamental",
      "version": "0.6.1",
      "model": "LFO",
      "params": [
        {
          "paramId": 0,
          "value": 0.0
        },
        {
          "paramId": 1,
          "value": 1.0
        },
        {
          "paramId": 2,
          "value": -3.45499992
        },
        {
          "paramId": 3,
          "value": 0.0
        },
        {
          "paramId": 5,
          "value": 0.487499982
        },
        {
          "paramId": 4,
          "value": 0.0
        },
        {
          "paramId": 6,
          "value": 0.0
        }
      ],
      "pos": [
        0,
        5
      ]
    },
    {
      "plugin": "Fundamental",
      "version": "0.6.1",
      "model": "VCMixer",
      "params": [
        {
          "paramId": 0,
          "value": 1.0
        },
        {
          "paramId": 1,
          "value": 1.0
        },
        {
          "paramId": 2,
          "value": 0.257999957
        },
        {
          "paramId": 3,
          "value": 1.0
        },
        {
          "paramId": 4,
          "value": 1.0
        }
      ],
      "pos": [
        10,
        5
      ]
    },
    {
      "plugin": "AS",
      "version": "0.6.9",
      "model": "QuadVCA",
      "params": [
        {
          "paramId": 0,
          "value": 0.801999986
        },
        {
          "paramId": 1,
          "value": 0.321999729
        },
        {
          "paramId": 2,
          "value": 0.0
        },
        {
          "paramId": 3,
          "value": 0.5
        },
        {
          "paramId": 4,
          "value": 1.0
        },
        {
          "paramId": 5,
          "value": 1.0
        },
        {
          "paramId": 6,
          "value": 1.0
        },
        {
          "paramId": 7,
          "value": 1.0
        }
      ],
      "pos": [
        100,
        2
      ]
    },
    {
      "plugin": "AS",
      "version": "0.6.9",
      "model": "QuadVCA",
      "params": [
        {
          "paramId": 0,
          "value": 0.789000273
        },
        {
          "paramId": 1,
          "value": 0.333999842
        },
        {
          "paramId": 2,
          "value": 0.0
        },
        {
          "paramId": 3,
          "value": 0.5
        },
        {
          "paramId": 4,
          "value": 1.0
        },
        {
          "paramId": 5,
          "value": 1.0
        },
        {
          "paramId": 6,
          "value": 1.0
        },
        {
          "paramId": 7,
          "value": 1.0
        }
      ],
      "pos": [
        108,
        2
      ]
    },
    {
      "plugin": "NYSTHI",
      "version": "0.6.19",
      "model": "GTKPitchShifter",
      "params": [
        {
          "paramId": 0,
          "value": 2.0
        },
        {
          "paramId": 2,
          "value": 0.0
        },
        {
          "paramId": 1,
          "value": 0.5
        }
      ],
      "data": {
        "m_bypass": false,
        "m_pitch_deviation": 1.0
      },
      "pos": [
        120,
        2
      ]
    }
  ],
  "wires": [
    {
      "color": "#c91847",
      "outputModuleId": 5,
      "outputId": 0,
      "inputModuleId": 3,
      "inputId": 3
    },
    {
      "color": "#0c8e15",
      "outputModuleId": 3,
      "outputId": 0,
      "inputModuleId": 4,
      "inputId": 3
    },
    {
      "color": "#c91847",
      "outputModuleId": 2,
      "outputId": 4,
      "inputModuleId": 11,
      "inputId": 6
    },
    {
      "color": "#c91847",
      "outputModuleId": 7,
      "outputId": 0,
      "inputModuleId": 4,
      "inputId": 1
    },
    {
      "color": "#c9b70e",
      "outputModuleId": 8,
      "outputId": 0,
      "inputModuleId": 7,
      "inputId": 3
    },
    {
      "color": "#c91847",
      "outputModuleId": 6,
      "outputId": 1,
      "inputModuleId": 8,
      "inputId": 4
    },
    {
      "color": "#0c8e15",
      "outputModuleId": 4,
      "outputId": 0,
      "inputModuleId": 10,
      "inputId": 0
    },
    {
      "color": "#0986ad",
      "outputModuleId": 4,
      "outputId": 1,
      "inputModuleId": 10,
      "inputId": 2
    },
    {
      "color": "#c91847",
      "outputModuleId": 1,
      "outputId": 2,
      "inputModuleId": 6,
      "inputId": 0
    },
    {
      "color": "#0c8e15",
      "outputModuleId": 11,
      "outputId": 3,
      "inputModuleId": 25,
      "inputId": 2
    },
    {
      "color": "#0c8e15",
      "outputModuleId": 12,
      "outputId": 0,
      "inputModuleId": 11,
      "inputId": 4
    },
    {
      "color": "#0c8e15",
      "outputModuleId": 10,
      "outputId": 0,
      "inputModuleId": 14,
      "inputId": 1
    },
    {
      "color": "#0986ad",
      "outputModuleId": 10,
      "outputId": 0,
      "inputModuleId": 14,
      "inputId": 4
    },
    {
      "color": "#0c8e15",
      "outputModuleId": 15,
      "outputId": 0,
      "inputModuleId": 3,
      "inputId": 4
    },
    {
      "color": "#c9b70e",
      "outputModuleId": 1,
      "outputId": 2,
      "inputModuleId": 16,
      "inputId": 4
    },
    {
      "color": "#0c8e15",
      "outputModuleId": 16,
      "outputId": 0,
      "inputModuleId": 3,
      "inputId": 2
    },
    {
      "color": "#0986ad",
      "outputModuleId": 16,
      "outputId": 0,
      "inputModuleId": 7,
      "inputId": 2
    },
    {
      "color": "#c9b70e",
      "outputModuleId": 12,
      "outputId": 1,
      "inputModuleId": 3,
      "inputId": 1
    },
    {
      "color": "#c91847",
      "outputModuleId": 12,
      "outputId": 2,
      "inputModuleId": 7,
      "inputId": 1
    },
    {
      "color": "#0c8e15",
      "outputModuleId": 2,
      "outputId": 4,
      "inputModuleId": 14,
      "inputId": 2
    },
    {
      "color": "#0c8e15",
      "outputModuleId": 14,
      "outputId": 0,
      "inputModuleId": 26,
      "inputId": 0
    },
    {
      "color": "#0c8e15",
      "outputModuleId": 17,
      "outputId": 0,
      "inputModuleId": 18,
      "inputId": 0
    },
    {
      "color": "#0986ad",
      "outputModuleId": 17,
      "outputId": 1,
      "inputModuleId": 19,
      "inputId": 0
    },
    {
      "color": "#c9b70e",
      "outputModuleId": 18,
      "outputId": 0,
      "inputModuleId": 0,
      "inputId": 0
    },
    {
      "color": "#c91847",
      "outputModuleId": 19,
      "outputId": 0,
      "inputModuleId": 0,
      "inputId": 1
    },
    {
      "color": "#c9b70e",
      "outputModuleId": 11,
      "outputId": 0,
      "inputModuleId": 9,
      "inputId": 4
    },
    {
      "color": "#c91847",
      "outputModuleId": 11,
      "outputId": 1,
      "inputModuleId": 2,
      "inputId": 4
    },
    {
      "color": "#0c8e15",
      "outputModuleId": 1,
      "outputId": 0,
      "inputModuleId": 21,
      "inputId": 0
    },
    {
      "color": "#0986ad",
      "outputModuleId": 20,
      "outputId": 0,
      "inputModuleId": 52,
      "inputId": 1
    },
    {
      "color": "#c9b70e",
      "outputModuleId": 20,
      "outputId": 1,
      "inputModuleId": 53,
      "inputId": 1
    },
    {
      "color": "#c91847",
      "outputModuleId": 22,
      "outputId": 0,
      "inputModuleId": 17,
      "inputId": 7
    },
    {
      "color": "#0c8e15",
      "outputModuleId": 23,
      "outputId": 0,
      "inputModuleId": 17,
      "inputId": 10
    },
    {
      "color": "#0986ad",
      "outputModuleId": 9,
      "outputId": 4,
      "inputModuleId": 24,
      "inputId": 2
    },
    {
      "color": "#c9b70e",
      "outputModuleId": 21,
      "outputId": 0,
      "inputModuleId": 22,
      "inputId": 0
    },
    {
      "color": "#c91847",
      "outputModuleId": 21,
      "outputId": 1,
      "inputModuleId": 23,
      "inputId": 0
    },
    {
      "color": "#0c8e15",
      "outputModuleId": 24,
      "outputId": 0,
      "inputModuleId": 21,
      "inputId": 4
    },
    {
      "color": "#0986ad",
      "outputModuleId": 24,
      "outputId": 0,
      "inputModuleId": 7,
      "inputId": 6
    },
    {
      "color": "#c9b70e",
      "outputModuleId": 25,
      "outputId": 0,
      "inputModuleId": 3,
      "inputId": 6
    },
    {
      "color": "#c91847",
      "outputModuleId": 14,
      "outputId": 1,
      "inputModuleId": 26,
      "inputId": 5
    },
    {
      "color": "#0986ad",
      "outputModuleId": 27,
      "outputId": 2,
      "inputModuleId": 20,
      "inputId": 0
    },
    {
      "color": "#c91847",
      "outputModuleId": 26,
      "outputId": 0,
      "inputModuleId": 28,
      "inputId": 0
    },
    {
      "color": "#0c8e15",
      "outputModuleId": 26,
      "outputId": 1,
      "inputModuleId": 29,
      "inputId": 0
    },
    {
      "color": "#c91847",
      "outputModuleId": 14,
      "outputId": 0,
      "inputModuleId": 31,
      "inputId": 0
    },
    {
      "color": "#0c8e15",
      "outputModuleId": 14,
      "outputId": 1,
      "inputModuleId": 31,
      "inputId": 1
    },
    {
      "color": "#0986ad",
      "outputModuleId": 10,
      "outputId": 0,
      "inputModuleId": 27,
      "inputId": 2
    },
    {
      "color": "#c9b70e",
      "outputModuleId": 27,
      "outputId": 2,
      "inputModuleId": 20,
      "inputId": 2
    },
    {
      "color": "#c91847",
      "outputModuleId": 28,
      "outputId": 0,
      "inputModuleId": 30,
      "inputId": 1
    },
    {
      "color": "#0c8e15",
      "outputModuleId": 29,
      "outputId": 0,
      "inputModuleId": 30,
      "inputId": 3
    },
    {
      "color": "#0986ad",
      "outputModuleId": 30,
      "outputId": 0,
      "inputModuleId": 17,
      "inputId": 13
    },
    {
      "color": "#c9b70e",
      "outputModuleId": 30,
      "outputId": 1,
      "inputModuleId": 17,
      "inputId": 16
    },
    {
      "color": "#0c8e15",
      "outputModuleId": 31,
      "outputId": 0,
      "inputModuleId": 17,
      "inputId": 1
    },
    {
      "color": "#0986ad",
      "outputModuleId": 31,
      "outputId": 1,
      "inputModuleId": 17,
      "inputId": 4
    },
    {
      "color": "#c91847",
      "outputModuleId": 6,
      "outputId": 0,
      "inputModuleId": 5,
      "inputId": 4
    },
    {
      "color": "#0c8e15",
      "outputModuleId": 9,
      "outputId": 4,
      "inputModuleId": 14,
      "inputId": 3
    },
    {
      "color": "#0986ad",
      "outputModuleId": 8,
      "outputId": 0,
      "inputModuleId": 30,
      "inputId": 0
    },
    {
      "color": "#c9b70e",
      "outputModuleId": 5,
      "outputId": 0,
      "inputModuleId": 30,
      "inputId": 2
    },
    {
      "color": "#c9b70e",
      "outputModuleId": 17,
      "outputId": 0,
      "inputModuleId": 32,
      "inputId": 0
    },
    {
      "color": "#c91847",
      "outputModuleId": 17,
      "outputId": 1,
      "inputModuleId": 32,
      "inputId": 1
    },
    {
      "color": "#c91847",
      "outputModuleId": 33,
      "outputId": 6,
      "inputModuleId": 8,
      "inputId": 5
    },
    {
      "color": "#0c8e15",
      "outputModuleId": 33,
      "outputId": 6,
      "inputModuleId": 5,
      "inputId": 5
    },
    {
      "color": "#0986ad",
      "outputModuleId": 33,
      "outputId": 6,
      "inputModuleId": 6,
      "inputId": 1
    },
    {
      "color": "#c9b70e",
      "outputModuleId": 33,
      "outputId": 1,
      "inputModuleId": 6,
      "inputId": 2
    },
    {
      "color": "#c9b70e",
      "outputModuleId": 34,
      "outputId": 0,
      "inputModuleId": 4,
      "inputId": 0
    },
    {
      "color": "#c91847",
      "outputModuleId": 34,
      "outputId": 0,
      "inputModuleId": 4,
      "inputId": 2
    },
    {
      "color": "#0c8e15",
      "outputModuleId": 12,
      "outputId": 3,
      "inputModuleId": 8,
      "inputId": 3
    },
    {
      "color": "#0986ad",
      "outputModuleId": 12,
      "outputId": 3,
      "inputModuleId": 5,
      "inputId": 3
    },
    {
      "color": "#c9b70e",
      "outputModuleId": 12,
      "outputId": 4,
      "inputModuleId": 14,
      "inputId": 0
    },
    {
      "color": "#c91847",
      "outputModuleId": 2,
      "outputId": 3,
      "inputModuleId": 26,
      "inputId": 1
    },
    {
      "color": "#c9b70e",
      "outputModuleId": 35,
      "outputId": 1,
      "inputModuleId": 7,
      "inputId": 4
    },
    {
      "color": "#0986ad",
      "outputModuleId": 33,
      "outputId": 0,
      "inputModuleId": 34,
      "inputId": 2
    },
    {
      "color": "#c91847",
      "outputModuleId": 35,
      "outputId": 1,
      "inputModuleId": 15,
      "inputId": 0
    },
    {
      "color": "#0986ad",
      "outputModuleId": 1,
      "outputId": 2,
      "inputModuleId": 35,
      "inputId": 0
    },
    {
      "color": "#c9b70e",
      "outputModuleId": 33,
      "outputId": 0,
      "inputModuleId": 35,
      "inputId": 1
    },
    {
      "color": "#c9b70e",
      "outputModuleId": 33,
      "outputId": 0,
      "inputModuleId": 40,
      "inputId": 2
    },
    {
      "color": "#c9b70e",
      "outputModuleId": 33,
      "outputId": 1,
      "inputModuleId": 41,
      "inputId": 4
    },
    {
      "color": "#c91847",
      "outputModuleId": 36,
      "outputId": 0,
      "inputModuleId": 37,
      "inputId": 0
    },
    {
      "color": "#c9b70e",
      "outputModuleId": 38,
      "outputId": 0,
      "inputModuleId": 37,
      "inputId": 1
    },
    {
      "color": "#c91847",
      "outputModuleId": 40,
      "outputId": 0,
      "inputModuleId": 39,
      "inputId": 9
    },
    {
      "color": "#0c8e15",
      "outputModuleId": 40,
      "outputId": 0,
      "inputModuleId": 39,
      "inputId": 8
    },
    {
      "color": "#c91847",
      "outputModuleId": 42,
      "outputId": 0,
      "inputModuleId": 38,
      "inputId": 1
    },
    {
      "color": "#0c8e15",
      "outputModuleId": 42,
      "outputId": 1,
      "inputModuleId": 38,
      "inputId": 2
    },
    {
      "color": "#0c8e15",
      "outputModuleId": 33,
      "outputId": 6,
      "inputModuleId": 41,
      "inputId": 5
    },
    {
      "color": "#0986ad",
      "outputModuleId": 41,
      "outputId": 0,
      "inputModuleId": 43,
      "inputId": 0
    },
    {
      "color": "#c9b70e",
      "outputModuleId": 41,
      "outputId": 0,
      "inputModuleId": 43,
      "inputId": 2
    },
    {
      "color": "#c91847",
      "outputModuleId": 37,
      "outputId": 0,
      "inputModuleId": 44,
      "inputId": 0
    },
    {
      "color": "#0c8e15",
      "outputModuleId": 37,
      "outputId": 0,
      "inputModuleId": 45,
      "inputId": 0
    },
    {
      "color": "#0986ad",
      "outputModuleId": 43,
      "outputId": 0,
      "inputModuleId": 17,
      "inputId": 19
    },
    {
      "color": "#c9b70e",
      "outputModuleId": 43,
      "outputId": 1,
      "inputModuleId": 17,
      "inputId": 22
    },
    {
      "color": "#c91847",
      "outputModuleId": 52,
      "outputId": 3,
      "inputModuleId": 21,
      "inputId": 2
    },
    {
      "color": "#0c8e15",
      "outputModuleId": 53,
      "outputId": 3,
      "inputModuleId": 21,
      "inputId": 3
    },
    {
      "color": "#c9b70e",
      "outputModuleId": 43,
      "outputId": 1,
      "inputModuleId": 54,
      "inputId": 1
    },
    {
      "color": "#0c8e15",
      "outputModuleId": 44,
      "outputId": 0,
      "inputModuleId": 43,
      "inputId": 1
    },
    {
      "color": "#0986ad",
      "outputModuleId": 45,
      "outputId": 0,
      "inputModuleId": 43,
      "inputId": 3
    },
    {
      "color": "#c9b70e",
      "outputModuleId": 42,
      "outputId": 2,
      "inputModuleId": 36,
      "inputId": 1
    },
    {
      "color": "#c91847",
      "outputModuleId": 42,
      "outputId": 4,
      "inputModuleId": 36,
      "inputId": 2
    },
    {
      "color": "#0986ad",
      "outputModuleId": 42,
      "outputId": 2,
      "inputModuleId": 42,
      "inputId": 4
    },
    {
      "color": "#0c8e15",
      "outputModuleId": 39,
      "outputId": 10,
      "inputModuleId": 42,
      "inputId": 3
    },
    {
      "color": "#0986ad",
      "outputModuleId": 39,
      "outputId": 11,
      "inputModuleId": 42,
      "inputId": 1
    },
    {
      "color": "#c9b70e",
      "outputModuleId": 47,
      "outputId": 0,
      "inputModuleId": 36,
      "inputId": 0
    },
    {
      "color": "#c91847",
      "outputModuleId": 47,
      "outputId": 1,
      "inputModuleId": 38,
      "inputId": 0
    },
    {
      "color": "#0986ad",
      "outputModuleId": 39,
      "outputId": 10,
      "inputModuleId": 48,
      "inputId": 0
    },
    {
      "color": "#c9b70e",
      "outputModuleId": 46,
      "outputId": 1,
      "inputModuleId": 47,
      "inputId": 1
    },
    {
      "color": "#c91847",
      "outputModuleId": 48,
      "outputId": 0,
      "inputModuleId": 47,
      "inputId": 0
    },
    {
      "color": "#0c8e15",
      "outputModuleId": 49,
      "outputId": 0,
      "inputModuleId": 47,
      "inputId": 3
    },
    {
      "color": "#0986ad",
      "outputModuleId": 39,
      "outputId": 11,
      "inputModuleId": 51,
      "inputId": 1
    },
    {
      "color": "#c9b70e",
      "outputModuleId": 50,
      "outputId": 0,
      "inputModuleId": 51,
      "inputId": 2
    },
    {
      "color": "#0c8e15",
      "outputModuleId": 51,
      "outputId": 0,
      "inputModuleId": 46,
      "inputId": 0
    },
    {
      "color": "#c9b70e",
      "outputModuleId": 48,
      "outputId": 0,
      "inputModuleId": 47,
      "inputId": 2
    },
    {
      "color": "#c91847",
      "outputModuleId": 51,
      "outputId": 0,
      "inputModuleId": 49,
      "inputId": 1
    },
    {
      "color": "#0c8e15",
      "outputModuleId": 39,
      "outputId": 10,
      "inputModuleId": 49,
      "inputId": 4
    },
    {
      "color": "#c91847",
      "outputModuleId": 43,
      "outputId": 0,
      "inputModuleId": 54,
      "inputId": 0
    },
    {
      "color": "#0986ad",
      "outputModuleId": 54,
      "outputId": 0,
      "inputModuleId": 52,
      "inputId": 3
    },
    {
      "color": "#c9b70e",
      "outputModuleId": 12,
      "outputId": 5,
      "inputModuleId": 54,
      "inputId": 2
    },
    {
      "color": "#c91847",
      "outputModuleId": 54,
      "outputId": 1,
      "inputModuleId": 53,
      "inputId": 3
    },
    {
      "color": "#c91847",
      "outputModuleId": 33,
      "outputId": 1,
      "inputModuleId": 9,
      "inputId": 5
    },
    {
      "color": "#0c8e15",
      "outputModuleId": 33,
      "outputId": 1,
      "inputModuleId": 2,
      "inputId": 5
    },
    {
      "color": "#0986ad",
      "outputModuleId": 12,
      "outputId": 6,
      "inputModuleId": 17,
      "inputId": 14
    },
    {
      "color": "#c9b70e",
      "outputModuleId": 12,
      "outputId": 6,
      "inputModuleId": 17,
      "inputId": 17
    },
    {
      "color": "#c91847",
      "outputModuleId": 33,
      "outputId": 1,
      "inputModuleId": 35,
      "inputId": 3
    }
  ]
}